<svg id="_3D" data-name="3D" xmlns="http://www.w3.org/2000/svg" width="96" height="96" viewBox="0 0 96 96">
  <circle id="Ellipse_58" data-name="Ellipse 58" cx="48" cy="48" r="48" fill="#f2f0f0"/>
  <g id="Group_44" data-name="Group 44" transform="translate(-1523.406 -253.948)">
    <path id="Path_295" data-name="Path 295" d="M1602.084,299.79c.047-.064.092-.128.137-.193a1.509,1.509,0,0,0-.232-2.252,1.649,1.649,0,0,0-.954-.167,9.981,9.981,0,0,1-3.319-1.033c-3.925-1.526-7.842-3.175-11.765-4.786-3.9-1.594-7.786-3.152-11.734-4.535a96.611,96.611,0,0,0-11.89-3.407,9.188,9.188,0,0,1-1.388-.271,16.832,16.832,0,0,0,7.619,5.892,82.538,82.538,0,0,0,9.2,2.942l1.6.494q3.474,1.128,6.859,2.585c.831.36,1.654.731,2.465,1.122a60.683,60.683,0,0,1,7.935,4.682c.536.37,1.066.789,1.6,1.146a1.221,1.221,0,0,0,1.277-.024A7.447,7.447,0,0,0,1602.084,299.79Z"/>
    <path id="Path_296" data-name="Path 296" d="M1540.783,301.54c-.046-.063-.092-.128-.136-.193a1.507,1.507,0,0,1,.232-2.251,1.639,1.639,0,0,1,.954-.168,9.93,9.93,0,0,0,3.318-1.033c3.926-1.526,7.842-3.175,11.766-4.785,3.9-1.594,7.785-3.152,11.734-4.536a96.773,96.773,0,0,1,11.889-3.407,9.3,9.3,0,0,0,1.389-.27,16.836,16.836,0,0,1-7.619,5.891,82.556,82.556,0,0,1-9.206,2.942l-1.6.494q-3.476,1.129-6.86,2.585c-.83.361-1.654.732-2.464,1.122a60.5,60.5,0,0,0-7.935,4.683c-.536.37-1.066.789-1.6,1.145a1.223,1.223,0,0,1-1.277-.023A7.444,7.444,0,0,1,1540.783,301.54Z"/>
    <ellipse id="Ellipse_59" data-name="Ellipse 59" cx="11.446" cy="10.5" rx="11.446" ry="10.5" transform="translate(1544.108 297.92)" fill="#437ba3" opacity="0.85"/>
    <ellipse id="Ellipse_60" data-name="Ellipse 60" cx="11.554" cy="10.5" rx="11.554" ry="10.5" transform="translate(1577 296.92)" fill="#f24c27" opacity="0.85"/>
    <path id="Path_297" data-name="Path 297" d="M1603.588,303.4q-.105-3.075-.21-6.15a.429.429,0,0,0-.07-.25.407.407,0,0,0-.29-.12,25.915,25.915,0,0,0-3.3-.27c-.43-.01-.87-.01-1.3,0a1.273,1.273,0,0,0-.2.01c-.15,0-.3,0-.45.01a.794.794,0,0,1-.46-.04c-.19-.11-.37-.28-.55-.39a14.389,14.389,0,0,0-2.41-1.23,14.871,14.871,0,0,0-12.69.81,13.38,13.38,0,0,0-2.79,2.03,12.75,12.75,0,0,0-1.19,1.25c-.24.28-.15.21-.42.25l.19.03-.12.15c-.06-.06-.13-.12-.19-.17a13.551,13.551,0,0,1-1.8-.08c-.29-.01-.59-.01-.89-.01-.34,0-.69-.01-1.03,0a60.629,60.629,0,0,0-7.26.49,14.538,14.538,0,0,0-10.87-4.8,15.015,15.015,0,0,0-5.58,1.08c-.41.17-.81.36-1.21.56a5.7,5.7,0,0,0-.76.43,1.331,1.331,0,0,1-.47.21c-.33.11-.68.16-1,.28a.537.537,0,0,1-.21.05,6.664,6.664,0,0,1-.77-.02c-.52-.01-1.04-.03-1.56-.04a11.02,11.02,0,0,0-2.879.179q-.175.044-.346.1c-.032.011-.219.052-.244.089-.014.022,0,.04,0,.062a1.935,1.935,0,0,0-.017.316q-.04.645-.049,1.292-.02,1.293.085,2.584.075.924.212,1.843c.047.31.108.618.156.927a3.373,3.373,0,0,0,.343.729,2.944,2.944,0,0,1,.17.5,2.023,2.023,0,0,1,.04.26.44.44,0,0,0,.02.1.876.876,0,0,1-.05.39,6.45,6.45,0,0,0-.13,1.58c0,7.44,6.39,13.5,14.25,13.5s14.24-6.06,14.24-13.5a12.968,12.968,0,0,0-1.16-5.34,17.569,17.569,0,0,1,6.74,0,.562.562,0,0,1,.233.06,1.429,1.429,0,0,1-.135.43c-.011.032-.021.063-.032.094a6.469,6.469,0,0,0-.334.771c-.066.3-.117.6-.154.907a10.772,10.772,0,0,0-.057,1.84,12.615,12.615,0,0,0,.242,1.867,17.6,17.6,0,0,0,1.107,3.419q.179.414.371.821c.063.133.146.267.195.4.041.116.069.227.122.341a9.69,9.69,0,0,0,.873,1.53c.041.057.082.115.124.171a7.764,7.764,0,0,0,1.027,1.138,6.56,6.56,0,0,0,.6.48,1.55,1.55,0,0,1,.286.223,2.752,2.752,0,0,0,.177.211,9.059,9.059,0,0,0,1.266.9,14.38,14.38,0,0,0,1.364.757,14.64,14.64,0,0,0,2.992,1.07,14.985,14.985,0,0,0,3.267.408l.22,0a14.675,14.675,0,0,0,8.03-2.36,13.3,13.3,0,0,0,6.21-11.14,15.437,15.437,0,0,0-.11-1.66c0-.05-.01-.1-.01-.16a3.267,3.267,0,0,0-.04-.44,2.517,2.517,0,0,1-.04-.82A1.131,1.131,0,0,1,1603.588,303.4Zm-48.3,15.52c-6.19,0-11.19-4.7-11.19-10.5s5-10.5,11.19-10.5,11.19,4.7,11.19,10.5S1561.468,318.92,1555.288,318.92Zm42.09-4.71a11.421,11.421,0,0,1-8.52,3.71c-6.19,0-11.19-4.7-11.19-10.5s5-10.5,11.19-10.5a11.389,11.389,0,0,1,9.05,4.33,9.967,9.967,0,0,1-.53,12.96Z"/>
    <path id="Path_298" data-name="Path 298" d="M1563.656,307.709a40.863,40.863,0,0,0-10.191,9.044,14.441,14.441,0,0,0,10.756-8.421A4.742,4.742,0,0,1,1563.656,307.709Z" fill="#e8f7ff" opacity="0.46"/>
    <path id="Path_299" data-name="Path 299" d="M1597.834,306.689a40.914,40.914,0,0,0-10.19,9.044,14.445,14.445,0,0,0,10.756-8.421A4.764,4.764,0,0,1,1597.834,306.689Z" fill="#e8f7ff" opacity="0.46"/>
    <path id="Path_300" data-name="Path 300" d="M1558.46,307.92a20.716,20.716,0,0,0-5.163,4.582,7.318,7.318,0,0,0,5.45-4.267A2.447,2.447,0,0,1,1558.46,307.92Z" fill="#e8f7ff" opacity="0.46"/>
    <path id="Path_301" data-name="Path 301" d="M1593.46,306.92a20.716,20.716,0,0,0-5.163,4.582,7.318,7.318,0,0,0,5.45-4.267A2.447,2.447,0,0,1,1593.46,306.92Z" fill="#e8f7ff" opacity="0.46"/>
  </g>
</svg>
