<svg id="biology" xmlns="http://www.w3.org/2000/svg" width="96" height="96" viewBox="0 0 96 96">
  <path id="Path_265" data-name="Path 265" d="M48,0A48,48,0,1,1,0,48,48,48,0,0,1,48,0Z" fill="#f2f0f0"/>
  <g id="Group_24" data-name="Group 24" transform="translate(-194 -682)">
    <path id="Path_261" data-name="Path 261" d="M238.54,771.17c-.57,1.84-3.46,1.05-2.89-.8.24-.77.47-1.55.67-2.32a1.634,1.634,0,0,1-.42-.06c-3.05-.85-6.09-1.69-9.14-2.54a1.489,1.489,0,0,1,.79-2.87l1.443.4,2.033.564,2.031.563,2.03.564,1.014.282c.159.045.317.087.474.139.035.011.431,0,.431,0,.076-.3.116-.61.168-.913s.1-.606.146-.911c.027-.2.053-.4.079-.592.021-.172.042-.345.062-.518a3.506,3.506,0,0,0,.045-.434c0-.127-.123-.162-.221-.21l-.468-.228a1.241,1.241,0,0,0-.22-.091c-.075-.021-.148-.011-.223-.032q-1.206-.332-2.409-.678-2.425-.7-4.835-1.447c-1.84-.58-1.05-3.47.8-2.89q2.489.775,5,1.49.627.178,1.255.353l.6.166a3.392,3.392,0,0,1,.441.123c.1.041.249.093.341.012.073-.063.062-.188.06-.274,0-.173-.01-.347-.019-.52-.021-.437-.055-.874-.1-1.31-.048-.474-.1-.947-.191-1.415-.019-.1-.02-.283-.115-.351a1.113,1.113,0,0,0-.339-.1q-.5-.133-1-.23c-.168-.033-.336-.062-.505-.088a7.045,7.045,0,0,1-.8-.206c-.419-.115-.838-.233-1.258-.347-1.28-.36-2.56-.71-3.83-1.07a1.5,1.5,0,0,1,.79-2.89c2.04.56,4.07,1.13,6.11,1.69.01,0,.03.01.04.01a23.578,23.578,0,0,0-.97-2.34c-.83-1.73,1.75-3.25,2.59-1.51C241.75,755.08,241.05,763.11,238.54,771.17Z" fill="#3878a6"/>
    <path id="Path_262" data-name="Path 262" d="M259,702c-.31-.11-1.64-.52-1.94-.64-.65-.26-1.31-.52-1.96-.78s-1.3-.53-1.96-.79l-1.95-.78c-.47-.18-.93-.37-1.4-.55a1.488,1.488,0,0,1,1.11-2.76c.74.3,1.49.59,2.23.89,2.19.87,4.38,1.75,6.58,2.62a1.81,1.81,0,0,1,.37.2c.31-.73.6-1.49.88-2.25a1.3,1.3,0,0,1,1.07-.91,1.552,1.552,0,0,1,1.71,2.03,43.748,43.748,0,0,1-4.53,9.26,26.812,26.812,0,0,1-9.24,8.8,2.678,2.678,0,0,1-.27.07c-.72.16-1.99.44-2.7.59-.01-.01-.02-.01-.03-.03-1.02.21-2.04.41-3.03.65a1.088,1.088,0,0,1,.21.26,1.463,1.463,0,0,1,.15,1.14,1.5,1.5,0,0,1-.69.89,1.427,1.427,0,0,1-1.14.15c-.45-.18-.91-.36-1.36-.55a1.72,1.72,0,0,1-.89-.68.405.405,0,0,1-.05-.09,16.9,16.9,0,0,0-3.56,1.83q4.89,1.47,9.64,3.37c1.77.71.99,3.61-.8,2.89q-5.49-2.19-11.16-3.83a1.517,1.517,0,0,1-.34-.15,12.05,12.05,0,0,0-2.61,4.12,1.564,1.564,0,0,1,.52.03,101.466,101.466,0,0,1,11.95,3.61c1.8.66,1.01,3.56-.8,2.89a101.453,101.453,0,0,0-11.95-3.61,1.843,1.843,0,0,1-.28-.09,11.9,11.9,0,0,0,.32,3.23,1.534,1.534,0,0,1,.41.07q3.99,1.3,7.91,2.85c1.77.69.99,3.57-.79,2.87q-3.165-1.245-6.39-2.34c.67,1.6,1.52,3.24,2.39,4.91.89,1.71-1.7,3.22-2.59,1.51-2.18-4.18-5.17-8.58-4.66-13.52.45-4.25,3.39-8.16,6.63-10.79,3.64-2.94,7.95-3.5,12.28-4.43a.01.01,0,0,0,.01-.01l.16-.03c-.02,0-.03-.01-.05-.01A1.411,1.411,0,0,1,247,714a6.534,6.534,0,0,0,2.64-.92c.11-.07.22-.13.31-.19-.01-.01-.03-.01-.04-.02-1.4-.56-2.79-1.11-4.19-1.67-.57-.23-1.13-.45-1.7-.68a1.5,1.5,0,0,1,1.13-2.78c1.22.48,2.45.98,3.69,1.47.4.16.81.32,1.21.48a7.348,7.348,0,0,1,.77.32l.45.24c.31.15.62.29.94.42a.932.932,0,0,0,.33.12c.11.01.22-.14.3-.21a12.037,12.037,0,0,0,1.01-1.01c.08-.08.15-.16.23-.25.22-.24.43-.48.64-.73.11-.13.22-.27.33-.4.05-.07.14-.16.12-.26-.03-.12-.18-.17-.28-.19-.15-.04-.28-.12-.43-.17-.19-.08-.38-.16-.58-.24-.4-.16-.8-.32-1.21-.48-.9-.35-1.79-.69-2.69-1.03-.73-.27-1.46-.54-2.19-.8-1.82-.66-.7-3.44,1.12-2.79q2.37.87,4.72,1.78c.78.3,1.55.61,2.33.92.07.03.12.08.2.11a1.536,1.536,0,0,0,.23.06c.17.03.33.06.5.1" fill="#3878a6"/>
    <path id="Path_263" data-name="Path 263" d="M240.83,690.444c.57-1.84,3.46-1.05,2.89.8-.24.77-.47,1.55-.67,2.32a1.634,1.634,0,0,1,.42.06c3.05.85,6.09,1.69,9.14,2.54a1.489,1.489,0,0,1-.79,2.87l-1.443-.4-2.033-.564-2.031-.563-2.03-.564-1.014-.283c-.158-.044-.317-.087-.473-.138-.035-.011-.432,0-.432,0-.076.3-.116.611-.167.913s-.105.607-.147.912q-.041.3-.078.592c-.022.172-.043.345-.063.517a3.545,3.545,0,0,0-.045.435c0,.127.123.161.222.209l.467.229a1.412,1.412,0,0,0,.22.091c.075.021.148.011.223.031q1.206.333,2.409.679,2.426.7,4.835,1.447c1.84.58,1.05,3.47-.8,2.89q-2.488-.775-4.994-1.49-.627-.179-1.256-.353l-.6-.166a3.49,3.49,0,0,1-.44-.123c-.1-.041-.25-.093-.342-.012-.073.063-.062.188-.06.274,0,.173.01.347.019.52.021.437.055.874.1,1.31.048.473.1.947.191,1.415.019.1.02.283.115.351a1.127,1.127,0,0,0,.339.1c.33.089.664.167,1,.231.168.032.336.062.506.088a7.234,7.234,0,0,1,.8.2l1.258.348c1.28.36,2.56.71,3.83,1.07a1.5,1.5,0,0,1-.79,2.89c-2.04-.56-4.07-1.13-6.11-1.69-.01,0-.03-.01-.04-.01a23.571,23.571,0,0,0,.97,2.34c.83,1.73-1.75,3.25-2.59,1.51C237.62,706.534,238.32,698.5,240.83,690.444Z" fill="#f24c27"/>
    <path id="Path_264" data-name="Path 264" d="M220.37,759.614c.31.11,1.64.52,1.94.64.65.26,1.31.52,1.96.78s1.3.53,1.96.79l1.95.78c.47.18.93.37,1.4.55a1.488,1.488,0,0,1-1.11,2.76c-.74-.3-1.49-.59-2.23-.89-2.19-.87-4.38-1.75-6.58-2.62a1.807,1.807,0,0,1-.37-.2c-.31.73-.6,1.49-.88,2.25a1.3,1.3,0,0,1-1.07.91,1.552,1.552,0,0,1-1.71-2.03,43.749,43.749,0,0,1,4.53-9.26,26.812,26.812,0,0,1,9.24-8.8,2.7,2.7,0,0,1,.27-.07c.72-.16,1.99-.44,2.7-.59.01.01.02.01.03.03,1.02-.21,2.04-.41,3.03-.65a1.089,1.089,0,0,1-.21-.26,1.463,1.463,0,0,1-.15-1.14,1.5,1.5,0,0,1,.69-.89,1.427,1.427,0,0,1,1.14-.15c.45.18.91.36,1.36.55a1.72,1.72,0,0,1,.89.68.405.405,0,0,1,.05.09,16.9,16.9,0,0,0,3.56-1.83q-4.89-1.47-9.64-3.37c-1.77-.71-.99-3.61.8-2.89q5.49,2.19,11.16,3.83a1.516,1.516,0,0,1,.34.15,12.05,12.05,0,0,0,2.61-4.12,1.562,1.562,0,0,1-.52-.03A101.477,101.477,0,0,1,235.56,731c-1.8-.66-1.01-3.56.8-2.89a101.466,101.466,0,0,0,11.95,3.61,1.842,1.842,0,0,1,.28.09,11.9,11.9,0,0,0-.32-3.23,1.532,1.532,0,0,1-.41-.07q-3.99-1.3-7.91-2.85c-1.77-.69-.99-3.57.79-2.87q3.165,1.245,6.39,2.34c-.67-1.6-1.52-3.24-2.39-4.91-.89-1.71,1.7-3.22,2.59-1.51,2.18,4.18,5.17,8.58,4.66,13.52-.45,4.25-3.39,8.16-6.63,10.79-3.64,2.94-7.95,3.5-12.28,4.43a.01.01,0,0,0-.01.01l-.16.03c.02,0,.03.01.05.01a1.412,1.412,0,0,1-.59.11,6.534,6.534,0,0,0-2.64.92c-.11.07-.22.13-.31.19.01.01.03.01.04.02,1.4.56,2.79,1.11,4.19,1.67.57.23,1.13.45,1.7.68a1.5,1.5,0,0,1-1.13,2.78c-1.22-.48-2.45-.98-3.69-1.47-.4-.16-.81-.32-1.21-.48a7.36,7.36,0,0,1-.77-.32l-.45-.24c-.31-.15-.62-.29-.94-.42a.934.934,0,0,0-.33-.12c-.11-.01-.22.14-.3.21a12.026,12.026,0,0,0-1.01,1.01c-.08.08-.15.16-.23.25-.22.24-.43.48-.64.73-.11.13-.22.27-.33.4-.05.07-.14.16-.12.26.03.12.18.17.28.19.15.04.28.12.43.17.19.08.38.16.58.24.4.16.8.32,1.21.48.9.35,1.79.69,2.69,1.03.73.27,1.46.54,2.19.8,1.82.66.7,3.44-1.12,2.79q-2.37-.87-4.72-1.78c-.78-.3-1.55-.61-2.33-.92-.07-.03-.12-.08-.2-.11a1.552,1.552,0,0,0-.23-.06c-.17-.03-.33-.06-.5-.1" fill="#f24c27"/>
  </g>
</svg>
