<svg xmlns="http://www.w3.org/2000/svg" width="188" height="188" viewBox="0 0 188 188">
  <g id="Group_283" data-name="Group 283" transform="translate(-1708.965 -574.964)">
    <g id="Group_161" data-name="Group 161" transform="translate(1708.964 574.964)">
      <circle id="Ellipse_140" data-name="Ellipse 140" cx="94" cy="94" r="94" transform="translate(0)" fill="#f2f0f0"/>
    </g>
    <rect id="Rectangle_45" data-name="Rectangle 45" width="117.492" height="8.236" transform="translate(1744.773 723.323)" fill="#f58b28"/>
    <rect id="Rectangle_46" data-name="Rectangle 46" width="5.573" height="49.417" transform="translate(1853.397 673.906)" fill="#f58b28"/>
    <rect id="Rectangle_47" data-name="Rectangle 47" width="5.573" height="49.417" transform="translate(1747.975 673.906)" fill="#f58b28"/>
    <path id="Path_581" data-name="Path 581" d="M1807.955,603.867a5.944,5.944,0,0,1-2.718,1.532h.494v97.038a15.229,15.229,0,0,1-15.237,15.237h-2.076a15.229,15.229,0,0,1-15.237-15.237l.017-60.14V605.4h.708a5.769,5.769,0,0,1-2.751-9.7,5.67,5.67,0,0,1,3.261-1.631,4.51,4.51,0,0,1,.824-.066h28.629a5.275,5.275,0,0,1,1.367.165,5.776,5.776,0,0,1,2.718,9.7Z" transform="translate(39.204 12.37)" fill="#fff" opacity="0.91"/>
    <path id="Path_582" data-name="Path 582" d="M1773.99,613.224l6.723,5.556a1.885,1.885,0,0,0,.806.468,1.809,1.809,0,0,0,.658-.034,56.811,56.811,0,0,0,9.391-2.315,19.763,19.763,0,0,0,7.9-4.976.945.945,0,0,0,.259-.408,1.115,1.115,0,0,0-.086-.573,13.251,13.251,0,0,1-.62-3.082,12.794,12.794,0,0,1-.026-1.583c.013-.3.259-1.127-.016-1.341-.346-.269-.956.255-1.224.4q-.7.38-1.408.746-1.431.734-2.9,1.405-2.925,1.337-5.988,2.41t-6.231,1.876q-3.168.8-6.426,1.324C1774.53,613.141,1774.26,613.182,1773.99,613.224Z" transform="translate(42.136 19.398)" fill="#e8f7ff" opacity="0.94"/>
    <path id="Path_583" data-name="Path 583" d="M1798.761,639.071a6.167,6.167,0,0,1,.84.1c.085,1.244,0,2.512,0,3.759v30.156c0,3.9-2.911,7.269-7.083,8.814a14.925,14.925,0,0,1-5.208.916h-1.673a14.925,14.925,0,0,1-5.21-.916c-4.172-1.545-7.082-4.912-7.082-8.814V662.066l0-4.63v-9.592l0-4.413v-1.99c0-.157,0-.313,0-.469,0-.254.049-.3.375-.331.754-.069,1.509-.135,2.262-.2l9.048-.812c1.87-.168,3.741-.336,5.617-.456,1.5-.094,3-.16,4.5-.168q1.125-.007,2.249.031C1797.84,639.048,1798.308,639.044,1798.761,639.071Z" transform="translate(41.719 41.495)" fill="#ffd224"/>
    <path id="Path_584" data-name="Path 584" d="M1773.99,649.224l6.723,5.556a1.884,1.884,0,0,0,.806.468,1.807,1.807,0,0,0,.658-.034,56.787,56.787,0,0,0,9.391-2.315,19.763,19.763,0,0,0,7.9-4.976.946.946,0,0,0,.259-.409,1.115,1.115,0,0,0-.086-.573,13.25,13.25,0,0,1-.62-3.082,12.794,12.794,0,0,1-.026-1.583c.013-.295.259-1.127-.016-1.341-.346-.269-.956.255-1.224.4q-.7.38-1.408.746-1.431.734-2.9,1.405-2.925,1.337-5.988,2.41t-6.231,1.876q-3.168.8-6.426,1.324C1774.53,649.141,1774.26,649.182,1773.99,649.224Z" transform="translate(42.136 42.698)" fill="#e8f7ff" opacity="0.94"/>
    <path id="Path_585" data-name="Path 585" d="M1776.355,603.245a5.942,5.942,0,0,1-2.718,1.532h.495v97.038a15.23,15.23,0,0,1-15.237,15.237h-2.076a15.229,15.229,0,0,1-15.237-15.237l.017-60.14v-36.9h.708a5.769,5.769,0,0,1-2.751-9.7,5.669,5.669,0,0,1,3.262-1.631,4.505,4.505,0,0,1,.823-.066h28.629a5.267,5.267,0,0,1,1.367.165,5.776,5.776,0,0,1,2.718,9.7Z" transform="translate(18.752 11.967)" fill="#fff" opacity="0.91"/>
    <path id="Path_586" data-name="Path 586" d="M1742.389,612.6l6.724,5.556a1.89,1.89,0,0,0,.806.468,1.809,1.809,0,0,0,.659-.035,56.835,56.835,0,0,0,9.391-2.314,19.782,19.782,0,0,0,7.9-4.976.961.961,0,0,0,.259-.409,1.136,1.136,0,0,0-.086-.573,13.147,13.147,0,0,1-.619-3.082,12.608,12.608,0,0,1-.028-1.583c.012-.295.258-1.126-.017-1.341-.344-.268-.956.255-1.223.4q-.7.381-1.408.746-1.431.734-2.9,1.405-2.925,1.337-5.988,2.41t-6.231,1.876q-3.17.8-6.426,1.324C1742.931,612.519,1742.661,612.56,1742.389,612.6Z" transform="translate(21.683 18.996)" fill="#e8f7ff" opacity="0.94"/>
    <path id="Path_587" data-name="Path 587" d="M1767.162,636.077a5.618,5.618,0,0,1,.838.105c.085,1.355,0,2.736,0,4.095V673.13c0,4.251-2.911,7.918-7.083,9.6a13.866,13.866,0,0,1-5.208,1h-1.675a13.871,13.871,0,0,1-5.209-1c-4.172-1.685-7.083-5.352-7.083-9.6v-.036l0-1.16v-6.283l0-4.523V645.635l0-4.808v-2.168c0-.17,0-.339,0-.511,0-.277.049-.328.375-.361l2.262-.221,9.048-.885c1.87-.183,3.741-.366,5.617-.5,1.5-.1,3-.175,4.5-.185q1.127-.007,2.25.033C1766.241,636.051,1766.707,636.048,1767.162,636.077Z" transform="translate(21.266 39.553)" fill="#f24c27"/>
    <path id="Path_588" data-name="Path 588" d="M1742.389,648.6l6.724,5.556a1.89,1.89,0,0,0,.806.468,1.811,1.811,0,0,0,.659-.035,56.81,56.81,0,0,0,9.391-2.314,19.782,19.782,0,0,0,7.9-4.976.961.961,0,0,0,.259-.409,1.136,1.136,0,0,0-.086-.573,13.146,13.146,0,0,1-.619-3.082,12.606,12.606,0,0,1-.028-1.583c.012-.295.258-1.127-.017-1.341-.344-.268-.956.255-1.223.4q-.7.38-1.408.746-1.431.734-2.9,1.4-2.925,1.337-5.988,2.41t-6.231,1.876q-3.17.8-6.426,1.324C1742.931,648.519,1742.661,648.56,1742.389,648.6Z" transform="translate(21.683 42.296)" fill="#e8f7ff" opacity="0.94"/>
    <rect id="Rectangle_48" data-name="Rectangle 48" width="122" height="15" transform="translate(1741.964 659.964)" fill="#f58b28"/>
  </g>
</svg>
