<svg xmlns="http://www.w3.org/2000/svg" width="113.136" height="113.136" viewBox="0 0 113.136 113.136">
  <g id="Union_1" data-name="Union 1" transform="translate(-2740.039 -3069.551) rotate(45)" fill="#fff">
    <path d="M 4188.00048828125 271.5 C 4184.69140625 271.5 4181.99951171875 268.8085327148438 4181.99951171875 265.500244140625 L 4181.99951171875 240.4999389648438 L 4181.99951171875 238.9999389648438 L 4180.49951171875 238.9999389648438 L 4155.50048828125 238.9999389648438 C 4152.19189453125 238.9999389648438 4149.50048828125 236.3084564208984 4149.50048828125 233.0001678466797 C 4149.50048828125 229.6918792724609 4152.19189453125 227.0003967285156 4155.50048828125 227.0003967285156 L 4180.49951171875 227.0003967285156 L 4181.99951171875 227.0003967285156 L 4181.99951171875 225.5003967285156 L 4181.99951171875 200.5000915527344 C 4181.99951171875 197.1918029785156 4184.69140625 194.5003051757812 4188.00048828125 194.5003051757812 C 4191.30859375 194.5003051757812 4194 197.1918029785156 4194 200.5000915527344 L 4194 225.5003967285156 L 4194 227.0003967285156 L 4195.5 227.0003967285156 L 4220.50048828125 227.0003967285156 C 4223.80859375 227.0003967285156 4226.5 229.6918792724609 4226.5 233.0001678466797 C 4226.5 236.3084564208984 4223.80859375 238.9999389648438 4220.50048828125 238.9999389648438 L 4195.5 238.9999389648438 L 4194 238.9999389648438 L 4194 240.4999389648438 L 4194 265.500244140625 C 4194 268.8085327148438 4191.30859375 271.5 4188.00048828125 271.5 Z" stroke="none"/>
    <path d="M 4188.00048828125 270 C 4190.4814453125 270 4192.5 267.9814147949219 4192.5 265.500244140625 L 4192.5 237.4999389648438 L 4220.50048828125 237.4999389648438 C 4222.9814453125 237.4999389648438 4225 235.4813537597656 4225 233.0001678466797 C 4225 230.5189819335938 4222.9814453125 228.5003967285156 4220.50048828125 228.5003967285156 L 4192.5 228.5003967285156 L 4192.5 200.5001068115234 C 4192.5 198.0189056396484 4190.4814453125 196.0003051757812 4188.00048828125 196.0003051757812 C 4185.5185546875 196.0003051757812 4183.49951171875 198.0189056396484 4183.49951171875 200.5001068115234 L 4183.49951171875 228.5003967285156 L 4155.50048828125 228.5003967285156 C 4153.01904296875 228.5003967285156 4151.00048828125 230.5189819335938 4151.00048828125 233.0001678466797 C 4151.00048828125 235.4813537597656 4153.01904296875 237.4999389648438 4155.50048828125 237.4999389648438 L 4183.49951171875 237.4999389648438 L 4183.49951171875 265.500244140625 C 4183.49951171875 267.9814147949219 4185.5185546875 270 4188.00048828125 270 M 4188.00048828125 273 C 4183.85791015625 273 4180.49951171875 269.6416625976562 4180.49951171875 265.500244140625 L 4180.49951171875 240.4999389648438 L 4155.50048828125 240.4999389648438 C 4151.35791015625 240.4999389648438 4148.00048828125 237.1426544189453 4148.00048828125 233.0001678466797 C 4148.00048828125 228.857666015625 4151.35791015625 225.5003967285156 4155.50048828125 225.5003967285156 L 4180.49951171875 225.5003967285156 L 4180.49951171875 200.5001068115234 C 4180.49951171875 196.3575897216797 4183.85791015625 193.0003051757812 4188.00048828125 193.0003051757812 C 4192.1416015625 193.0003051757812 4195.5 196.3575897216797 4195.5 200.5001068115234 L 4195.5 225.5003967285156 L 4220.50048828125 225.5003967285156 C 4224.64208984375 225.5003967285156 4228 228.857666015625 4228 233.0001678466797 C 4228 237.1426544189453 4224.64208984375 240.4999389648438 4220.50048828125 240.4999389648438 L 4195.5 240.4999389648438 L 4195.5 265.500244140625 C 4195.5 269.6416625976562 4192.1416015625 273 4188.00048828125 273 Z" stroke="none" fill="#000"/>
  </g>
</svg>
