<svg id="contact" xmlns="http://www.w3.org/2000/svg" width="96" height="96" viewBox="0 0 96 96">
  <g id="Group_20" data-name="Group 20" transform="translate(-194.108 -904.976)">
    <circle id="Ellipse_23" data-name="Ellipse 23" cx="48" cy="48" r="48" transform="translate(194.108 904.976)" fill="#f2f0f0"/>
    <g id="Group_19" data-name="Group 19">
      <rect id="Rectangle_7" data-name="Rectangle 7" width="37.273" height="60" rx="8.06" transform="translate(210 923)" fill="#2a4047" stroke="#2a4047" stroke-miterlimit="10" stroke-width="1"/>
      <rect id="Rectangle_8" data-name="Rectangle 8" width="34.72" height="52.863" rx="6.545" transform="translate(211.276 924.531)" fill="#c9ecff"/>
      <circle id="Ellipse_24" data-name="Ellipse 24" cx="2.045" cy="2.045" r="2.045" transform="translate(226.591 978.076)" fill="#13282e"/>
      <path id="Path_250" data-name="Path 250" d="M228.43,943.556q-8.089,10.83-15.091,22.419a2.817,2.817,0,0,0-.326,3l1,3.173a10.3,10.3,0,0,0,.731,1.831c.275.506.977,1.62,1.674,1.569.394-.028.615-.715.785-1.01q.395-.686.795-1.37,1.6-2.734,3.264-5.428,3.332-5.388,6.929-10.606,3.576-5.19,7.408-10.2c3.071-4.014,6.3-8.005,8.239-12.673a9.462,9.462,0,0,0,.9-4.092,4.213,4.213,0,0,0-2-3.512,2.948,2.948,0,0,0-2.29-.175,3.783,3.783,0,0,0-2.03,2.112,63.379,63.379,0,0,1-6.088,9.75C231.045,940.095,229.728,941.819,228.43,943.556Z" fill="#e8f7ff" opacity="0.94"/>
      <path id="Path_251" data-name="Path 251" d="M283,940.734c0,11.232-12.127,20.339-27.085,20.339a34.135,34.135,0,0,1-13.133-2.549l-.36.279a18.231,18.231,0,0,1-5.051,2.8,10.282,10.282,0,0,1-1.9.509l-7.472.623,2.64-1.929a18.926,18.926,0,0,0,4.192-7.3,17.459,17.459,0,0,1-6-12.77c0-11.233,12.127-20.34,27.085-20.34S283,929.5,283,940.734Z" fill="#437ba3"/>
      <circle id="Ellipse_25" data-name="Ellipse 25" cx="3.321" cy="3.321" r="3.321" transform="translate(252.075 938.243)" fill="#ffd224"/>
      <circle id="Ellipse_26" data-name="Ellipse 26" cx="3.321" cy="3.321" r="3.321" transform="translate(242.321 938.243)" fill="#ffd224"/>
      <circle id="Ellipse_27" data-name="Ellipse 27" cx="3.321" cy="3.321" r="3.321" transform="translate(261.83 938.243)" fill="#ffd224"/>
    </g>
  </g>
</svg>
