<svg xmlns="http://www.w3.org/2000/svg" width="200" height="200" viewBox="0 0 200 200">
  <g id="Group_21" data-name="Group 21" transform="translate(-187.813 -457.564)">
    <circle id="Ellipse_28" data-name="Ellipse 28" cx="100" cy="100" r="100" transform="translate(187.813 457.564)" fill="#f2f0f0"/>
    <path id="Path_252" data-name="Path 252" d="M208.519,525.186a3.871,3.871,0,0,1-1.675-1.083,3.516,3.516,0,0,1-.513-2.154c.013-5.121,2.113-10,4.563-14.5,2.071-3.8,4.5-7.532,7.969-10.115s8.182-3.842,12.226-2.3a19.916,19.916,0,0,1,5.64,3.8c3.952,3.392,7.9,6.861,11.013,11.038s5.361,9.165,5.457,14.372a9.159,9.159,0,0,1-.669,3.986,12.9,12.9,0,0,1-3.307,3.9,41.94,41.94,0,0,1-4.217,3.515c-2.09,1.467-3.829,2.094-5.992.523a11.647,11.647,0,0,0-7.286-2.956A82.675,82.675,0,0,1,220.6,530C216.515,528.544,212.513,526.869,208.519,525.186Z" transform="translate(20.076 39.867)" fill="#683113"/>
    <path id="Path_253" data-name="Path 253" d="M229.583,488.043a15.252,15.252,0,0,1,5.671-3.511c3.077-.846,6.388.088,9.424,1.033A680.02,680.02,0,0,1,334.822,520.8a6.555,6.555,0,0,1,3.186,2.413,5.08,5.08,0,0,1,.323,2.721,242.527,242.527,0,0,1-5.494,37.4,65.592,65.592,0,0,0-32.869-6.028c-2.311.175-4.623.452-6.9.852a5.091,5.091,0,0,1-1.256.165c-.569-.029-1.138-.056-1.708-.069-1.138-.025-2.275-.006-3.413.044-6.336.279-12.541,1.542-18.845,2.079a45.559,45.559,0,0,1-13.326-.609,24.542,24.542,0,0,1-6.982-2.558c-.738-.419-2.369-1.138-2.317-2.031a5.135,5.135,0,0,1,1.142-2.111,20.329,20.329,0,0,1,6.99-5.544c3.95-2.123,8.946-4.711,8.486-8.721-.354-3.079-3.89-5.034-7.119-6.353a106.63,106.63,0,0,0-22.21-6.346c-.165-.027-.936.71-1.079.825q-.572.444-1.131.9-1.116.912-2.186,1.867-1.669,1.494-3.213,3.086c-.685.706-1.523,1.288-2.2,1.992a5.4,5.4,0,0,0-1.069,2.742c-.294,1.256-.606,2.509-.956,3.752-.11.392-.223.781-.342,1.171a2.087,2.087,0,0,0-.175.923,11.253,11.253,0,0,1,.085,1.123c.046.79.079,1.577.1,2.367q.078,2.369.038,4.74c-.05,3.144-.263,6.284-.6,9.415-.073.667-.015,1.227-.579,1.69a13.958,13.958,0,0,1-1.317.975,10.882,10.882,0,0,1-3.209,1.358,11.94,11.94,0,0,1-7.038-.344,9.765,9.765,0,0,1-1.206-.554,15.581,15.581,0,0,1-5.742-6.307,48.521,48.521,0,0,1-3.431-7.346q-.7-1.909-1.236-3.861a21.3,21.3,0,0,1-.863-3.879,3.317,3.317,0,0,1,.356-1.55,4.94,4.94,0,0,0,.2-2.211c-.071-1.852.817-3.877,1.4-5.638.61-1.844,1.313-3.665,2.019-5.484l1.875-4.838.956-2.463c.285-.74.435-1.506.769-2.221,3.534-7.582,9.326-14.209,15.593-20.247C221.934,494.616,225.741,491.312,229.583,488.043Z" transform="translate(7.969 28.861)" fill="#8e3e27"/>
    <path id="Path_254" data-name="Path 254" d="M207.716,516.089q.644.625,1.29,1.248c1.419,1.371,2.834,2.75,4.186,4.19q1.009,1.075,1.963,2.2a4.5,4.5,0,0,0,.9.836,6.347,6.347,0,0,1,1.642,2.2,15.148,15.148,0,0,1,.692,1.375,6.04,6.04,0,0,1,.306.742,9.082,9.082,0,0,1,.05,2.54c-.05,3.013-.263,6.019-.6,9.02a2.151,2.151,0,0,1-.579,1.619,1.489,1.489,0,0,1-1.594.481c-.542-.215-.6-.16-1.058.187a11.351,11.351,0,0,1-1.065.733,4.255,4.255,0,0,1-2.613.7,1.675,1.675,0,0,1-.819-.35,5.479,5.479,0,0,0-1.069-.494,14.171,14.171,0,0,1-4.73-3.377A26.032,26.032,0,0,1,200.586,534a30.615,30.615,0,0,1-2.69-6.878,38.905,38.905,0,0,1-.769-4.829c-.023-.219-.048-.436-.071-.652-.24-2.288-.417-4.584-.46-6.886-.021-1.148-.01-2.3.046-3.444.027-.573.06-1.148.115-1.719a2.4,2.4,0,0,1,.125-.544,1.851,1.851,0,0,0,.06-.283,4.373,4.373,0,0,1,.483-1.263l.623-1.31a7.769,7.769,0,0,0,.521-1.3c.165-.608.215-1.317.7-1.721a2.287,2.287,0,0,0,.09.5c.033.173.067.346.1.519q.109.519.244,1.031.266,1.025.629,2.023c.119.331.248.66.383.988.063.152.131.3.188.456a1.461,1.461,0,0,0,.25.369q.65.828,1.34,1.623c.919,1.06,1.883,2.081,2.869,3.081C206.136,514.551,206.924,515.322,207.716,516.089Z" transform="translate(9.518 49.419)" fill="#683113"/>
    <circle id="Ellipse_29" data-name="Ellipse 29" cx="29.963" cy="29.963" r="29.963" transform="translate(207.86 540.725)" fill="#ffa600"/>
    <circle id="Ellipse_30" data-name="Ellipse 30" cx="29.963" cy="29.963" r="29.963" transform="translate(211.277 541.258)" fill="#ffd224"/>
    <circle id="Ellipse_31" data-name="Ellipse 31" cx="25.771" cy="25.771" r="25.771" transform="translate(215.139 545.858)" fill="#ffa600"/>
    <path id="Path_255" data-name="Path 255" d="M263.712,506.746a126.109,126.109,0,0,1,8.236-12.218c.446-.571.908-1.306,1.677-1.442.965-.173,2.152.585,3.009.933q1.8.728,3.586,1.477,7.154,2.988,14.18,6.273c7.182,3.359,14.574,7.213,19.014,13.78,3.686,5.45,4.907,12.145,6.042,18.624l1.852,10.557a41.6,41.6,0,0,0,.944,4.942,5.377,5.377,0,0,1,.069,3.561c-2.586-1.027-5.007-2.49-7.64-3.469a58.326,58.326,0,0,0-16.785-3.55c-2.831-.173-5.607.106-8.426.106A95.4,95.4,0,0,0,271.646,550c-.71.2-1.417.446-2.121.65a15.5,15.5,0,0,1-2.315.329l-4.867.629-6.607.856a40.563,40.563,0,0,1-5.509-.06l-21.4-.16-10.7-.081-5.35-.042c-.89-.006-1.783,0-2.675-.019a5.188,5.188,0,0,1-2.738-1.361,7.39,7.39,0,0,1-2.254-7.592,24.244,24.244,0,0,1,1.106-2.586,10.266,10.266,0,0,1,1.879-3.023,14.286,14.286,0,0,1,6.057-3.925c3.748-1.288,7.792-1.327,11.755-1.352l17.385-.108a20.365,20.365,0,0,0,5.525-.54c3.729-1.069,6.578-4.219,8.213-7.736a34.9,34.9,0,0,0,2.513-9.284,4.77,4.77,0,0,1,.446-1.817c.346-.56.765-1.077,1.1-1.654Q262.4,508.931,263.712,506.746Z" transform="translate(18.48 38.462)" fill="#8d3f29"/>
    <path id="Path_256" data-name="Path 256" d="M247.564,555,286.9,566.335a210.964,210.964,0,0,0,12.57-70.695c0-.8-10.59-1.279-11.632-1.29A60.622,60.622,0,0,0,276.2,495.4c-4.3.8-8.986,1.617-12.695,4.088-3.367,2.244-5.355,5.842-6.992,9.436a101.545,101.545,0,0,0-9.026,43.18Q247.5,553.553,247.564,555Z" transform="translate(64.654 39.855)" fill="#437ba3"/>
    <path id="Path_257" data-name="Path 257" d="M247.56,525.3,286.9,536.635c.073.021,1.583-4.534,1.723-4.95.148-.442.294-.885.438-1.327.065-.194.094-.231.065-.392a1.91,1.91,0,0,0-.163-.388,6.468,6.468,0,0,0-.885-1.421,6.576,6.576,0,0,0-2.719-1.979,12.967,12.967,0,0,0-3.132-.635l-31.375-3.732a4.459,4.459,0,0,0-3.092.4c-.417.3-.292.583-.263,1.033C247.535,523.927,247.53,524.617,247.56,525.3Z" transform="translate(64.631 69.514)" fill="#003e6a"/>
    <path id="Path_258" data-name="Path 258" d="M235.971,506.17q-2.438-1.147-4.94-2.146a11.3,11.3,0,0,0-4.58-1.079,10.941,10.941,0,0,0-4.773,1.684,44.431,44.431,0,0,0-12.472,10.026,30.076,30.076,0,0,0-6.815,14.357c5-6.071,12.307-9.682,19.385-13.118a42.337,42.337,0,0,1,7.028-2.9,32.171,32.171,0,0,1,10.011-.867c1.031.046,2.852.323,3.575-.69.335-.471-.013-.885-.344-1.24a12.613,12.613,0,0,0-1.665-1.479A24.95,24.95,0,0,0,235.971,506.17Z" transform="translate(15.807 49.164)" fill="#ffd585"/>
  </g>
</svg>
