<svg id="explore" xmlns="http://www.w3.org/2000/svg" width="96" height="96" viewBox="0 0 96 96">
  <g id="Group_10" data-name="Group 10" transform="translate(-177.795 -346.566)">
    <circle id="Ellipse_10" data-name="Ellipse 10" cx="48" cy="48" r="48" transform="translate(177.795 346.566)" fill="#f2f0f0"/>
    <g id="Group_9" data-name="Group 9">
      <g id="Group_7" data-name="Group 7">
        <path id="Path_210" data-name="Path 210" d="M213.353,374.87a10.335,10.335,0,0,0-4.259,5.282,12.165,12.165,0,0,0-.713,8.054,7.3,7.3,0,0,0,5.764,5.245,2.2,2.2,0,0,0,1.121-.1,2.4,2.4,0,0,0,.765-.593,14.725,14.725,0,0,0,3.472-7,43.988,43.988,0,0,0,.791-7.859,5.506,5.506,0,0,0-.19-2.127c-.178-.477-.707-.736-1.129-.986a5.438,5.438,0,0,0-3.6-.606A6.243,6.243,0,0,0,213.353,374.87Z" fill="#003b4f"/>
        <path id="Path_211" data-name="Path 211" d="M219.11,376.627a3.831,3.831,0,0,0-1.484.1,3.425,3.425,0,0,0-1.26.9,11.553,11.553,0,0,0-3.535,7.236,7.632,7.632,0,0,0,3.449,7.017,12.731,12.731,0,0,0,2.7,1.07l7.168,2.225a11.5,11.5,0,0,1-1.158-9.23,26.039,26.039,0,0,1,3.018-6.722,13.312,13.312,0,0,0,.971-1.586c.253-.613-.859-.456-1.226-.478l-4.1-.253Z" fill="#13282e"/>
        <path id="Path_212" data-name="Path 212" d="M224.139,393.821a2.359,2.359,0,0,0,.33,1.137,2.5,2.5,0,0,0,1.226.77l21.2,8.056a40.9,40.9,0,0,1-3.367-4.25,8.016,8.016,0,0,1-1.471-4.238q-.059-1.158-.027-2.318a30.2,30.2,0,0,1,.745-5.89q.33-1.449.8-2.861a9.255,9.255,0,0,1,1.494-2.653,6.691,6.691,0,0,1,4.589-2.988,13,13,0,0,1-2.007-.189q-1.035-.093-2.071-.177-2.072-.166-4.147-.3-4.166-.26-8.338-.369-1.04-.027-2.078-.044a3.69,3.69,0,0,0-1.6.086c-.329.163-.531.555-.749.834-.355.456-.7.917-1.021,1.4A21.566,21.566,0,0,0,224.8,386.1a21.256,21.256,0,0,0-.727,6.855C224.086,393.246,224.11,393.533,224.139,393.821Z" fill="#2a4047" stroke="#2a4047" stroke-miterlimit="10" stroke-width="1"/>
        <ellipse id="Ellipse_11" data-name="Ellipse 11" cx="12.175" cy="14.881" rx="12.175" ry="14.881" transform="translate(241.433 377.395)" fill="#2a3236"/>
        <ellipse id="Ellipse_12" data-name="Ellipse 12" cx="8.893" cy="10.869" rx="8.893" ry="10.869" transform="translate(244.86 381.43)" fill="#c9ecff"/>
        <path id="Path_213" data-name="Path 213" d="M255.069,385.489q-3.58,4.023-6.932,8.241c-.761.957-1.492,1.933-2.215,2.919-.068.094-.1.129-.048.242s.091.211.138.316q.285.627.631,1.225a13.588,13.588,0,0,0,.983,1.463c.016.021.037.045.061.037s0-.039,0-.052a.473.473,0,0,1,.073-.083c.052-.058.1-.114.159-.17.109-.112.224-.219.34-.323.231-.206.474-.4.716-.59l8.909-7.017c.589-.463,1.174-.932,1.729-1.437a10.979,10.979,0,0,0,1.728-1.932c.067-.1.13-.144.1-.253-.016-.05-.032-.1-.049-.15-.032-.1-.066-.191-.1-.285q-.105-.285-.226-.562A10.5,10.5,0,0,0,260.52,386a10.786,10.786,0,0,0-1.434-1.945,10.581,10.581,0,0,0-1-.951,3.856,3.856,0,0,0-.548-.424c-.191-.107-.31.124-.395.259-.023.037-.045.074-.07.11-.142.208-.277.422-.433.62C256.139,384.294,255.6,384.89,255.069,385.489Z" fill="#e8f7ff" opacity="0.94"/>
      </g>
      <g id="Group_8" data-name="Group 8">
        <path id="Path_214" data-name="Path 214" d="M190.326,382.88a10.325,10.325,0,0,0-4.259,5.282,12.158,12.158,0,0,0-.713,8.054,7.3,7.3,0,0,0,5.763,5.245,2.2,2.2,0,0,0,1.121-.1,2.4,2.4,0,0,0,.765-.593,14.717,14.717,0,0,0,3.472-7,43.9,43.9,0,0,0,.791-7.86,5.5,5.5,0,0,0-.19-2.126c-.177-.477-.707-.737-1.128-.986a5.434,5.434,0,0,0-3.6-.606A6.19,6.19,0,0,0,190.326,382.88Z" fill="#003b4f"/>
        <path id="Path_215" data-name="Path 215" d="M196.082,384.636a3.851,3.851,0,0,0-1.484.1,3.422,3.422,0,0,0-1.26.9,11.545,11.545,0,0,0-3.534,7.235,7.627,7.627,0,0,0,3.448,7.017,12.754,12.754,0,0,0,2.7,1.071l7.168,2.224a11.5,11.5,0,0,1-1.157-9.229,26.037,26.037,0,0,1,3.017-6.722,13.465,13.465,0,0,0,.972-1.587c.252-.613-.86-.455-1.226-.477l-4.1-.253Z" fill="#13282e"/>
        <path id="Path_216" data-name="Path 216" d="M201.112,401.83a2.347,2.347,0,0,0,.329,1.138,2.508,2.508,0,0,0,1.227.77l21.2,8.055a40.639,40.639,0,0,1-3.366-4.249,8.013,8.013,0,0,1-1.471-4.238q-.059-1.158-.028-2.318a30.183,30.183,0,0,1,.745-5.89c.22-.966.489-1.922.8-2.861a9.239,9.239,0,0,1,1.493-2.653,6.69,6.69,0,0,1,4.59-2.988,12.98,12.98,0,0,1-2.007-.189q-1.035-.093-2.072-.177-2.072-.168-4.147-.3-4.164-.261-8.338-.369-1.038-.027-2.078-.045a3.705,3.705,0,0,0-1.6.086c-.329.164-.531.556-.749.835-.355.455-.7.917-1.021,1.4a21.532,21.532,0,0,0-2.856,6.275,21.2,21.2,0,0,0-.727,6.855Q201.068,401.4,201.112,401.83Z" fill="#2a4047" stroke="#2a4047" stroke-miterlimit="10" stroke-width="1"/>
        <ellipse id="Ellipse_13" data-name="Ellipse 13" cx="12.175" cy="14.881" rx="12.175" ry="14.881" transform="translate(218.405 385.405)" fill="#2a3236"/>
        <ellipse id="Ellipse_14" data-name="Ellipse 14" cx="8.893" cy="10.869" rx="8.893" ry="10.869" transform="translate(221.832 389.44)" fill="#c9ecff"/>
        <path id="Path_217" data-name="Path 217" d="M232.041,393.5q-3.579,4.021-6.932,8.24c-.761.958-1.492,1.933-2.215,2.92-.068.093-.094.128-.048.242s.091.211.138.315q.285.629.631,1.225a13.6,13.6,0,0,0,.983,1.464c.016.02.037.045.061.037s0-.039,0-.052a.376.376,0,0,1,.072-.083c.052-.058.1-.115.159-.17q.165-.168.341-.324c.231-.2.473-.4.716-.589l8.908-7.017c.589-.464,1.175-.933,1.729-1.438a10.939,10.939,0,0,0,1.728-1.932c.067-.1.13-.143.1-.252-.016-.05-.032-.1-.049-.15-.032-.1-.065-.191-.1-.286q-.1-.283-.225-.561a10.717,10.717,0,0,0-.545-1.081,10.873,10.873,0,0,0-1.433-1.946,10.72,10.72,0,0,0-1-.951,3.923,3.923,0,0,0-.547-.424c-.192-.106-.31.124-.395.26-.023.037-.046.074-.071.11-.142.208-.276.422-.433.619C233.112,392.3,232.575,392.9,232.041,393.5Z" fill="#e8f7ff" opacity="0.94"/>
      </g>
    </g>
  </g>
</svg>
