<svg xmlns="http://www.w3.org/2000/svg" viewBox="0 0 353 353"><defs><style>.cls-1{fill:#f2f0f0;}.cls-2{fill:#003e6a;}.cls-3{fill:#579dd4;}.cls-4{fill:#3878a6;}.cls-5{fill:#f0b794;}.cls-6{fill:#437ba3;}.cls-7{fill:#f0c1a6;}.cls-16,.cls-8{opacity:0.5;}.cls-9{fill:#e08e57;}.cls-10{fill:#6a0e00;}.cls-11{fill:#fff;opacity:0.99;}.cls-12{fill:#ff948a;}.cls-12,.cls-13{opacity:0.8;}.cls-14,.cls-16{fill:#8a5500;}.cls-14{opacity:0.9;}.cls-15{fill:#bf7b00;}.cls-17{fill:#003b4f;}.cls-18{fill:#13282e;}.cls-19{fill:#2a4047;stroke:#2a4047;stroke-miterlimit:10;}.cls-20{fill:#2a3236;}.cls-21{fill:#c9ecff;}.cls-22{fill:#e8f7ff;opacity:0.94;}</style></defs><g id="Layer_2" data-name="Layer 2"><g id="explore"><circle class="cls-1" cx="176.5" cy="176.5" r="176.5"/><path class="cls-2" d="M171.15,290.44c18.66,15.12,46.39,19.48,64.6,3.7,9.3-8.07,15-20.15,19.33-32.27,6.35-17.67,10.5-36.2,14.15-54.78,1.15-5.86,2.25-11.88,1.49-17.82S267,177.38,262,175c-3.57-1.71-7.63-1.42-11.52-1.09-2.07.17-4.49.57-5.48,2.59a7.78,7.78,0,0,0-.49,3.48c.26,28.91-7.85,57.84-22.87,81.56-1.69,2.66-3.76,5.46-6.68,5.93-2.74.43-5.33-1.36-7.58-3.13a162.11,162.11,0,0,1-25.19-24.79c-3.68-4.5-7.06-9.24-10.38-14.08-2.05-3-4.19-6.53-7.38-8.19s-8.27-1.4-11.5.32c-4.48,2.4-5.67,9.17-6.42,14.08a59.1,59.1,0,0,0,4.05,30.64A70.37,70.37,0,0,0,171.15,290.44Z"/><path class="cls-3" d="M170,285.41c18.65,15.12,46.39,19.48,64.59,3.7,9.31-8.07,15-20.15,19.34-32.27,6.35-17.68,10.5-36.2,14.14-54.78a67.78,67.78,0,0,0,1.74-14.55,11.16,11.16,0,0,0-.26-2.9,12.21,12.21,0,0,0-1-2.15,15.91,15.91,0,0,0-2.76-3.72,14.28,14.28,0,0,0-7.69-4.13,21.19,21.19,0,0,0-4.71-.16,16.13,16.13,0,0,0-7.59,2c-1,.61-2.59,1.69-2.58,3.07A132.2,132.2,0,0,1,240.55,205,148.93,148.93,0,0,1,220.4,256.5c-1.69,2.66-3.77,5.47-6.68,5.93-2.74.44-5.33-1.35-7.59-3.12A162.05,162.05,0,0,1,181,234.52c-1.63-2-3.21-4-4.75-6.12q-1.8-2.44-3.54-4.94a10.55,10.55,0,0,0-2.39-3,20.76,20.76,0,0,1-3.05-3.28,7.83,7.83,0,0,0-1.82-1.64,6,6,0,0,0-2.31-.63,15.9,15.9,0,0,0-10.37,2.23,13.77,13.77,0,0,0-4.51,4.8,13,13,0,0,0-1.28,3.1,8.12,8.12,0,0,0-.2,1.47c-.07,1.16-.61,2.23-.79,3.38a27,27,0,0,0-.07,6.1l.34,5.18c.14,2.06-.07,4,0,6.06a18,18,0,0,0,1.13,4.36c.58,1.92,1.25,3.81,2,5.66A70.34,70.34,0,0,0,170,285.41Z"/><path class="cls-4" d="M170.8,288.27c18.65,15.12,46.39,19.48,64.59,3.7,9.31-8.07,15-20.15,19.33-32.28,6.36-17.67,10.51-36.19,14.15-54.77,1.15-5.86,2.26-11.88,1.5-17.83s-3.76-11.88-8.77-14.27c-3.57-1.7-7.63-1.41-11.51-1.09-2.08.17-4.5.58-5.49,2.59a7.85,7.85,0,0,0-.49,3.49c.26,28.9-7.85,57.83-22.87,81.55-1.68,2.66-3.76,5.47-6.67,5.93-2.75.44-5.34-1.35-7.59-3.12a162.11,162.11,0,0,1-25.19-24.79c-3.68-4.5-7.06-9.25-10.37-14.08-2.06-3-4.2-6.53-7.38-8.2s-8.28-1.4-11.51.33c-4.48,2.39-5.67,9.17-6.41,14.08a58.9,58.9,0,0,0,4,30.64A70.25,70.25,0,0,0,170.8,288.27Z"/><path class="cls-5" d="M239,146.8a19.43,19.43,0,0,0-.83-2.65,23.19,23.19,0,0,1-1-2.15c-.41-1.05-.61-2.28-1.1-3.29a15.21,15.21,0,0,0-1.08-1.58c-.2-.29-1-1.09-1-1.42a10.59,10.59,0,0,1-1.88-4.18,9.92,9.92,0,0,1-.42-1.87,2.23,2.23,0,0,1,.9-1.94,2.28,2.28,0,0,1,2.47.21,6.77,6.77,0,0,1,1.67,2c1.34,2.13,2.56,4.47,4.08,6.47a3.29,3.29,0,0,0,0-1.89,16.22,16.22,0,0,1-.41-2.68c0-.53,0-1.07-.07-1.6l-.15-3.1a11.22,11.22,0,0,1,.34-4.21c.2-.56.57-1.15,1.16-1.22.8-.11,1.35.78,1.64,1.53a43.18,43.18,0,0,1,2.34,8.16c.25,1.33.43,2.68.78,4,.1.36.2,1.34.72,1.26s.32-1.13.32-1.51a34.25,34.25,0,0,1,1.2-8.55c.26-.94.78-1.84,1-2.77,0-.13-.05-.25,0-.38a.83.83,0,0,1,.74-.55,1.81,1.81,0,0,1,1.19.65,3.6,3.6,0,0,1,1.34,2.82,4.42,4.42,0,0,1-.36.91c-.42,1.17,0,2.53-.2,3.76a10.34,10.34,0,0,0-.36,2.61c.09,1.79.15,3.79,1.29,5.3a5.92,5.92,0,0,1,.21-1.39c.1-.53.09-1.1.14-1.63.14-1.22.45-2.41.58-3.62,0-.35-.05-.71,0-1a1.53,1.53,0,0,1,1.82-1.3c1.12.28,1.24,1.78,1.27,2.93.12,5.71,3.32,10.71,4.56,16.17a81,81,0,0,1,1.15,9.21q.56,5,1.28,9.91c.19,1.33.39,2.66.6,4,.11.67.21,1.33.32,2a1.82,1.82,0,0,1,.1.45c0,.19,0,.1-.16.18s-.21.15-.39.13a3.11,3.11,0,0,1-.62-.14c-.8-.23-1.56-.59-2.35-.86a14.25,14.25,0,0,0-3.95-.64c-.68,0-1.36,0-2,0-1.24,0-2.47,0-3.71,0a9.7,9.7,0,0,1-4.24-.6,1.83,1.83,0,0,1-1.13-1c-.42-1.29-.72-2.65-1.13-4l-3.14-9.87-3.13-9.81Z"/><path class="cls-6" d="M101.09,257c0,.34-.07.68-.1,1a11.22,11.22,0,0,0,.05,1.54,12.06,12.06,0,0,1-.28,2.15c-.1.77-.2,1.54-.29,2.31-.19,1.54-.35,3.09-.48,4.64-.28,3.1-.46,6.21-.57,9.32-.24,6.24-.22,12.48-.18,18.72v.19c.05,8.66.15,17.48,2.43,25.75a2.25,2.25,0,0,0,.79,1.39,1.8,1.8,0,0,0,1.42,0c8.06-2.35,16.48-2.54,24.81-2.72l97.41-2.06-10.78-71.13c-2.38-15.72-5.67-33.12-17.29-42.26a29.89,29.89,0,0,0-5.12-3.22,40.47,40.47,0,0,0-8-2.92c-1.36-.36-2.74-.67-4.12-.94-.69-.14-1.38-.26-2.07-.38a12.09,12.09,0,0,0-1.67-.27,1.28,1.28,0,0,0-1.23.66,4.8,4.8,0,0,0-.12.66c-.09.44-.17.87-.26,1.31-.17.87-.35,1.75-.53,2.62q-.55,2.61-1.16,5.2-.34,1.44-.69,2.85a6.88,6.88,0,0,1-.94,2.43c-.93,1.28-2.54,1.59-4,1.74a54.41,54.41,0,0,1-6.25.33c-2.46,0-5-.21-7.12-1.68-2.53-1.8-3.82-5.1-5-8.21l-1.17-3.17-.58-1.55c-.11-.31-.16-.91-.51-1s-.71.37-.9.48-.66.4-1,.61c-2.6,1.66-5.09,3.54-7.64,5.29-1.38.94-2.77,1.85-4.2,2.66-8.75,4.94-16.89,11.36-22.83,20.2a60,60,0,0,0-6.68,13.32,61.74,61.74,0,0,0-2.37,8.55q-.44,2.19-.72,4.41C101.18,256.17,101.13,256.57,101.09,257Z"/><path class="cls-2" d="M127.42,299.77c18.66,15.12,46.39,19.48,64.59,3.7,9.31-8.07,15-20.15,19.34-32.28,6.35-17.67,10.5-36.19,14.14-54.77,1.16-5.86,2.26-11.88,1.5-17.83s-3.76-11.88-8.76-14.27c-3.57-1.7-7.63-1.41-11.52-1.09-2.07.18-4.49.58-5.48,2.6a7.78,7.78,0,0,0-.49,3.48c.26,28.9-7.85,57.83-22.87,81.55-1.69,2.66-3.76,5.47-6.68,5.93-2.74.44-5.33-1.35-7.59-3.12a162.05,162.05,0,0,1-25.18-24.79c-3.68-4.5-7.07-9.25-10.38-14.08-2-3-4.19-6.53-7.38-8.2s-8.28-1.4-11.5.33c-4.48,2.4-5.68,9.17-6.42,14.08-1.58,10.38.2,21.09,4.05,30.64A70.43,70.43,0,0,0,127.42,299.77Z"/><path class="cls-3" d="M126.22,294.73c18.65,15.13,46.39,19.48,64.59,3.7,9.31-8.06,15-20.14,19.34-32.27,6.35-17.67,10.5-36.2,14.14-54.77A67.85,67.85,0,0,0,226,196.84a11.16,11.16,0,0,0-.26-2.9,12.28,12.28,0,0,0-1-2.15,16.18,16.18,0,0,0-2.76-3.73,14.27,14.27,0,0,0-7.69-4.12,20.62,20.62,0,0,0-4.71-.16,16,16,0,0,0-7.59,2c-1,.62-2.59,1.7-2.58,3.08a132,132,0,0,1-2.65,25.41,148.72,148.72,0,0,1-20.16,51.54c-1.68,2.66-3.76,5.47-6.67,5.93-2.75.44-5.34-1.35-7.59-3.12a162.5,162.5,0,0,1-25.18-24.79c-1.64-2-3.21-4-4.75-6.13-1.2-1.62-2.38-3.27-3.54-4.93a10.55,10.55,0,0,0-2.39-3,20.76,20.76,0,0,1-3.05-3.28,7.47,7.47,0,0,0-1.83-1.64,5.82,5.82,0,0,0-2.3-.64A15.91,15.91,0,0,0,109,226.51a13.77,13.77,0,0,0-4.52,4.79,13.57,13.57,0,0,0-1.27,3.1,7.42,7.42,0,0,0-.2,1.48,33.79,33.79,0,0,1-.8,3.38,27.63,27.63,0,0,0-.06,6.1l.34,5.18c.14,2.05-.07,4,0,6A18.52,18.52,0,0,0,103.6,261q.87,2.88,2,5.66A70.21,70.21,0,0,0,126.22,294.73Z"/><path class="cls-4" d="M127.06,297.59c18.66,15.13,46.39,19.48,64.6,3.7,9.31-8.06,15-20.14,19.33-32.27,6.35-17.67,10.51-36.2,14.15-54.77,1.15-5.87,2.26-11.89,1.49-17.83s-3.75-11.89-8.76-14.27c-3.57-1.7-7.63-1.41-11.51-1.09-2.08.17-4.5.58-5.49,2.59a7.8,7.8,0,0,0-.49,3.48c.26,28.91-7.85,57.84-22.87,81.56-1.68,2.66-3.76,5.47-6.68,5.93-2.74.44-5.33-1.35-7.58-3.13a162,162,0,0,1-25.19-24.78c-3.68-4.5-7.06-9.25-10.37-14.08-2.06-3-4.2-6.54-7.39-8.2s-8.27-1.4-11.5.32c-4.48,2.4-5.67,9.17-6.42,14.09a59,59,0,0,0,4.06,30.64A70.29,70.29,0,0,0,127.06,297.59Z"/><path class="cls-7" d="M133.25,134.94l-.15-.08a3.5,3.5,0,0,1-.89-.58,7.69,7.69,0,0,1-2-2.72,8.07,8.07,0,0,1-.65-2.47,3,3,0,0,1,0-.84c0-.22.12-.41.14-.64s.07-.51.12-.75a6.81,6.81,0,0,1,.5-1.46,6,6,0,0,1,1.85-2.34,4.2,4.2,0,0,1,2.68-.91H135c-3.66-10.4-6.36-21.51-4.64-32.4s8.7-21.51,19.21-24.83c4.9-1.55,10.15-1.44,15.29-1.52,9.3-.14,18.72-.91,27.83,1s18.14,7,22.06,15.39c1.88,4.06,2.46,8.59,2.85,13a173.63,173.63,0,0,1-5.76,61.54c-2.9,10.35-7.72,21.47-17.63,25.63-2.67,1.12-5.58,1.66-8.13,3-6.14,3.26-9,10.48-10.33,17.29s-1.79,14-5.15,20.09a2.16,2.16,0,0,1-.9,1,2.14,2.14,0,0,1-1.18.09,23.64,23.64,0,0,1-14.3-7.43,25.18,25.18,0,0,1-6.69-14.9c-.33-3.1-.2-6.26-.41-9.38q-.36-5.29-1.12-10.55a137.18,137.18,0,0,0-4.65-20.69C139.8,153.41,138,148.28,137,143q-.51-2.59-.81-5.22a9.61,9.61,0,0,0-.19-2.15c-.06-.18-.08-.15-.24-.14h-.32c-.4,0-.8,0-1.2-.07a1.14,1.14,0,0,1-.73-.3l-.13-.12A.41.41,0,0,0,133.25,134.94Z"/><g class="cls-8"><path class="cls-9" d="M188,83.77q2.4,6.75,4.81,13.52a6.44,6.44,0,0,1,.58,2.7,12.39,12.39,0,0,0,.76,4.33,75,75,0,0,0,3.68,8.85c1.66,3.64,3.25,7.43,3.51,11.47.11,1.64-.08,3.46-1.26,4.6a6.84,6.84,0,0,1-3.12,1.44c-.91.24-1.87.43-2.76.73a1,1,0,0,0-.83,1c-.16,1.71,0,3.53,0,5.25s0,3.54-.08,5.31a31.44,31.44,0,0,0-.1,3.63c0,.45.21.87.26,1.31a30.38,30.38,0,0,1-.19,4.76c-.09,1.8-.18,3.61-.28,5.42s-.3,3.48-.25,5.19a13.62,13.62,0,0,0,.33,1.54,29.62,29.62,0,0,1,.13,4.8,39.47,39.47,0,0,1-1.5,9.47,1.88,1.88,0,0,0,0,1.49c0,.06.11.19.21.18a.42.42,0,0,0,.15,0,6.23,6.23,0,0,0,.73-.24c.14-.06.27-.07.41-.13s.26-.1.39-.15.52-.24.77-.37l.36-.18,1.65-.86c.49-.25,1-.5,1.43-.79a8.18,8.18,0,0,0,.69-.45,1.43,1.43,0,0,0,.31-.24,3,3,0,0,1,.25-.25,1.92,1.92,0,0,0,.14-.15l.14-.15.3-.26c.21-.18.42-.34.64-.51l.51-.39a2.51,2.51,0,0,0,.51-.52,2,2,0,0,1,.14-.25c.1-.1.19-.21.29-.32.37-.42.74-.86,1.09-1.3.2-.25.4-.51.59-.77,4.89-6.56,7.36-14.58,9.46-22.48,1.31-4.9,2.5-9.83,3.33-14.83a81.84,81.84,0,0,0,1.13-10.82c.06-1.81.05-3.62,0-5.43a5.86,5.86,0,0,1,.09-2.09,14.74,14.74,0,0,0,.36-2.89q.24-3.06.31-6.12c.09-3.19.09-6.39.08-9.58a43.74,43.74,0,0,0-.77-9.84c-.31-1.31-.73-2.6-1.16-3.88l-.76-2.29a5.76,5.76,0,0,1-.3-1c0-.21,0-.42-.06-.63a5.39,5.39,0,0,0-.8-1.61,26.43,26.43,0,0,0-2.88-3.93,28.4,28.4,0,0,0-7.39-6,27.77,27.77,0,0,0-9-3.19,34.76,34.76,0,0,0-14.09.88c0,1.58,1.17,2.87,2.05,4.19a22.6,22.6,0,0,1,2.23,5Z"/></g><path class="cls-10" d="M192.62,149.3a22.63,22.63,0,0,0,9.37-1.77c-4.71,5.53-4.17,13.81-7.37,20.33a4.32,4.32,0,0,1-1.11,1.55,3.57,3.57,0,0,1-2,.66c-3,.18-5.71-1.51-7.91-3.48a28.42,28.42,0,0,1-7.87-12,30.83,30.83,0,0,1-1-3.54c-.13-.69-.78-2.68-.24-3.27s3,.31,3.74.44c1.44.24,2.89.45,4.34.61A76.67,76.67,0,0,0,192.62,149.3Z"/><path class="cls-11" d="M192.62,149.32a22.79,22.79,0,0,0,9.37-1.77l-.48.59a16.15,16.15,0,0,0-1.68,2.79c-.12.25-.23.49-.33.74s-.1.24-.15.36-.13.12-.24.15a9,9,0,0,1-1.72.26,97.52,97.52,0,0,1-16.38-.5l-.48,0c-1.19-.11-2.38-.22-3.56-.42a17.33,17.33,0,0,1-1.74-.36l-.43-.11c-.06,0-.07,0-.1-.08a2,2,0,0,1-.1-.42,9.49,9.49,0,0,1-.3-1.5,1.54,1.54,0,0,1,.19-1.19c.54-.6,3,.3,3.74.43,1.44.25,2.89.45,4.34.62A76.67,76.67,0,0,0,192.62,149.32Z"/><path class="cls-12" d="M186.86,161.11a1.32,1.32,0,0,0,.72-.24c.21-.15.39-.33.66-.27.1,0,.2.07.3.1a6.4,6.4,0,0,0,1.07.14,4.77,4.77,0,0,1,3.39,1.29,5,5,0,0,1,.77,1.62,11.9,11.9,0,0,1,.68,2.75,8.54,8.54,0,0,1,0,1.34A1.9,1.9,0,0,1,194,169a2.8,2.8,0,0,1-1.79.89,8.26,8.26,0,0,1-5.07-1,21.48,21.48,0,0,1-4.22-3.13c-.36-.32-.72-.64-1-1a3.07,3.07,0,0,0-.38-.42c-.14-.12-.28-.24-.41-.37a7.37,7.37,0,0,1-.92-1.09,4.67,4.67,0,0,1-.38-.6,3.35,3.35,0,0,1-.32-.62,3.38,3.38,0,0,1,1.64-.68,17.35,17.35,0,0,1,2.15-.29,4.34,4.34,0,0,1,1.19,0l1.36.33A3.31,3.31,0,0,0,186.86,161.11Z"/><path class="cls-13" d="M172.35,118a9.4,9.4,0,0,1,5.07-1.2,5.35,5.35,0,0,1,4.21,2.28,8.1,8.1,0,0,1,1.6,4,7.49,7.49,0,0,0-8.69-2.41,13.13,13.13,0,0,0-2.4,1.41c-.84.59-1.65,1.33-2.54,1.83a4.56,4.56,0,0,1,.31-3.12A6.08,6.08,0,0,1,172.35,118Z"/><path class="cls-13" d="M211.85,117.12a8.16,8.16,0,0,0-4.44-1.05,4.64,4.64,0,0,0-3.67,2,7,7,0,0,0-1.4,3.54,6.53,6.53,0,0,1,7.6-2.1,11.65,11.65,0,0,1,2.1,1.23c.73.51,1.44,1.16,2.22,1.6a4,4,0,0,0-.28-2.73A5.31,5.31,0,0,0,211.85,117.12Z"/><path class="cls-14" d="M208.27,106.65c2.29-.69,4.74-1.37,7-.69a2.92,2.92,0,0,0-1.56-3.21A8.69,8.69,0,0,0,210,102c-1.9-.11-3.79-.21-5.69-.21-1.47,0-3.31-.2-4.58.69-3,2.08.21,4.85,2.66,5.14A14.7,14.7,0,0,0,208.27,106.65Z"/><path class="cls-14" d="M171.13,110.19c-2.82,0-5.83,0-8.45,1.13-.64-1,.15-2.33,1.4-3.16a14.1,14.1,0,0,1,4.34-1.61c2.23-.56,4.47-1.12,6.73-1.59,1.74-.37,3.9-1,5.54-.53,3.82,1.06.46,4.23-2.41,5.1A24.13,24.13,0,0,1,171.13,110.19Z"/><path class="cls-15" d="M129.32,102.28c-.67-5.45-1.2-11-.48-16.42s2.8-10.86,6.72-14.71a33.94,33.94,0,0,1,7-5,17,17,0,0,1,4.7-2.28,8.48,8.48,0,0,0,1.73-.46c1.73-.77,3.33-1.82,5.08-2.56a39.43,39.43,0,0,1,11-2.91c1-.11,2.06-.19,3.09-.22a83,83,0,0,1,10.79.64c11.08,1.09,22.29,1.86,33.31.29a9.91,9.91,0,0,0-.73,1.39,14.81,14.81,0,0,1-1,1.47A26.05,26.05,0,0,1,208,64c-1.1,1,1.34,1.15,2,1.2,1.42.13,2.83.22,4.25.27a7.9,7.9,0,0,0,2.91,0,7.54,7.54,0,0,0,2.35-1.35,19.56,19.56,0,0,0,3.67-4.38c-.09.13.09.84.1,1a9.47,9.47,0,0,1,0,1.19,11.07,11.07,0,0,1-.37,2.28,12.16,12.16,0,0,1-2,4.12,11.45,11.45,0,0,1-3.44,3c-.83.46-1.05.93-.12,1.52a11,11,0,0,0,2.46,1.06,14.1,14.1,0,0,0,8.92-.1l-7.7,7a6.29,6.29,0,0,0,2,1.84,5.69,5.69,0,0,0,2.11.72,5.49,5.49,0,0,0,4.21-1.12,19.62,19.62,0,0,1-23.53,7c-.48-.2-1-.41-1.41-.64a7,7,0,0,0-1.37-.49c-1.06-.29-2.1-.64-3.13-1a51.52,51.52,0,0,1-6-2.73l-.93-.5a6.62,6.62,0,0,0,4.35,4.93c-2.06,2.14-5.57.68-8.43-.13a29.46,29.46,0,0,0-8.44-.75c-5.32.06-10.73.32-15.78,2-3.81,1.28-7.35,3.35-11.27,4.25-3,.69-6.44.83-8.49,3.12A9.55,9.55,0,0,0,143,101c-.6,2-1,4-1.47,6a18.65,18.65,0,0,1-.59,2.48,6.12,6.12,0,0,0-.46,1.49c-.21,1.73-.67,3.35-1,5.06-.59,2.8-.45,5.73-1.28,8.47-.4.24-.91-.1-1.15-.5a4.46,4.46,0,0,0-.68-1.21c-.45-.41-1.16-.42-1.6-.84-.67-.64-.33-1.7-.49-2.5a4.2,4.2,0,0,0-.93-1.86,14.19,14.19,0,0,1-2.36-5.48A87.07,87.07,0,0,1,129.32,102.28Z"/><path class="cls-16" d="M137,78.39A18.43,18.43,0,0,1,139.72,74a36.67,36.67,0,0,1,6.11-4.9,60.51,60.51,0,0,1,5.81-3.68,34,34,0,0,1,6.4-2.73,42.81,42.81,0,0,1,11-1.54,130.23,130.23,0,0,1,15.55.57c2.59.22,5.18.49,7.76.77a3.82,3.82,0,0,0,1.39,0,5.68,5.68,0,0,1,1.23-.23c1.29-.08,2.59-.12,3.88-.17l3.49-.12c.8,0,1.91.26,1.83,1.06-.07.61-.83.85-1.23,1.32a1.83,1.83,0,0,0,.79,2.58,6,6,0,0,0,3,.43,24.2,24.2,0,0,1,8.13,1.38c-.63.71-1.69.75-2.6,1s-1.89,1.11-1.54,2a2.07,2.07,0,0,0,1,.91l6.59,3.55a11.27,11.27,0,0,1-2.42,1,2.25,2.25,0,0,0-1.58,1.9c0,1.18,1.43,1.75,2.57,2.07s2.5,1,2.38,2.21-1.59,1.57-2.75,1.63c-10.79.58-21.33-5.25-32-3.85l2.67,3.31c-10.45,1.15-21,2.31-31.06,5.27-5,1.46-9.93,3.4-14,6.57a10.27,10.27,0,0,0-2.62,2.72,12.86,12.86,0,0,0-1.37,5.83l-.43,6-.22,3a6,6,0,0,1-.37,2.41c-.21.4-.67,1-1,.38a15.7,15.7,0,0,1-.94-2.38,49.39,49.39,0,0,1-1.46-4.91,47.53,47.53,0,0,1-.34-20.24,45.67,45.67,0,0,1,3.12-9.67C136.57,79.2,137,78.67,137,78.39Z"/><path class="cls-17" d="M206.06,105.55c-3.14,1.72-5.25,4.89-6.61,8.2-1.63,4-2.35,8.42-1.11,12.51s4.71,7.64,8.95,8.15a3.32,3.32,0,0,0,1.74-.16,3.53,3.53,0,0,0,1.19-.92,22.81,22.81,0,0,0,5.39-10.87,68.31,68.31,0,0,0,1.23-12.21,8.54,8.54,0,0,0-.3-3.3c-.27-.74-1.09-1.14-1.75-1.53a8.43,8.43,0,0,0-5.59-.94A9.43,9.43,0,0,0,206.06,105.55Z"/><path class="cls-18" d="M215,108.27a6.12,6.12,0,0,0-2.3.16,5.2,5.2,0,0,0-2,1.4,17.91,17.91,0,0,0-5.49,11.24c-.27,4.25,1.68,8.74,5.36,10.89a19.49,19.49,0,0,0,4.19,1.67l11.14,3.45c-2.78-4.11-3-9.53-1.8-14.33a40.48,40.48,0,0,1,4.68-10.44,20.42,20.42,0,0,0,1.51-2.47c.4-1-1.33-.7-1.9-.74l-6.37-.39Z"/><path class="cls-19" d="M222.81,135a3.83,3.83,0,0,0,.51,1.77,3.92,3.92,0,0,0,1.91,1.19l32.93,12.51a61.6,61.6,0,0,1-5.23-6.6,12.42,12.42,0,0,1-2.28-6.58c-.06-1.2-.08-2.4-.05-3.6a47.74,47.74,0,0,1,1.16-9.15,45.72,45.72,0,0,1,1.25-4.44,14.23,14.23,0,0,1,2.32-4.12c1.74-2.31,4.12-4.41,7.13-4.64a20.59,20.59,0,0,1-3.12-.3l-3.22-.27c-2.14-.17-4.29-.33-6.44-.46q-6.47-.41-13-.58l-3.23-.07a5.75,5.75,0,0,0-2.48.14c-.51.25-.83.86-1.16,1.3q-.84,1-1.59,2.16a33.74,33.74,0,0,0-4.44,9.75,33.28,33.28,0,0,0-1.13,10.65C222.73,134.09,222.77,134.53,222.81,135Z"/><ellipse class="cls-20" cx="268.58" cy="132.58" rx="18.91" ry="23.11"/><ellipse class="cls-21" cx="268.81" cy="132.62" rx="13.81" ry="16.88"/><path class="cls-22" d="M270.85,122c-3.7,4.16-7.3,8.43-10.76,12.8-1.19,1.48-2.32,3-3.44,4.53-.11.15-.15.2-.08.38s.14.33.22.49a20.07,20.07,0,0,0,1,1.9,19.11,19.11,0,0,0,1.52,2.27s.06.07.1.06,0-.06,0-.08a1.27,1.27,0,0,1,.11-.13l.25-.26c.17-.18.35-.34.53-.5.36-.32.74-.62,1.11-.92l13.84-10.9c.91-.72,1.82-1.45,2.68-2.23a17.39,17.39,0,0,0,2.69-3c.1-.16.2-.23.15-.39l-.08-.24c-.05-.15-.1-.29-.16-.44a8.31,8.31,0,0,0-.35-.87,14.62,14.62,0,0,0-.84-1.68,17,17,0,0,0-2.23-3,15.49,15.49,0,0,0-1.55-1.48,6.68,6.68,0,0,0-.85-.66c-.3-.17-.48.19-.62.4a1,1,0,0,1-.11.17c-.22.33-.43.66-.67,1C272.52,120.18,271.68,121.11,270.85,122Z"/><path class="cls-17" d="M171.59,112.6c-3.14,1.73-5.25,4.89-6.62,8.2-1.62,4-2.34,8.42-1.11,12.51s4.72,7.64,9,8.15a3.42,3.42,0,0,0,1.74-.15,3.81,3.81,0,0,0,1.19-.93,22.9,22.9,0,0,0,5.39-10.87,69.13,69.13,0,0,0,1.23-12.2,8.59,8.59,0,0,0-.3-3.31c-.27-.74-1.1-1.14-1.75-1.53a8.43,8.43,0,0,0-5.59-.94A9.43,9.43,0,0,0,171.59,112.6Z"/><path class="cls-18" d="M180.53,115.32a6.17,6.17,0,0,0-2.31.16,5.48,5.48,0,0,0-1.95,1.4,17.86,17.86,0,0,0-5.49,11.24c-.27,4.25,1.68,8.74,5.35,10.9a20.07,20.07,0,0,0,4.2,1.66l11.13,3.45c-2.77-4.11-3-9.53-1.8-14.33a40.51,40.51,0,0,1,4.69-10.44,21.77,21.77,0,0,0,1.51-2.47c.39-1-1.33-.7-1.9-.74l-6.37-.39Z"/><path class="cls-19" d="M188.34,142a3.61,3.61,0,0,0,.51,1.77,3.92,3.92,0,0,0,1.91,1.19l32.93,12.51a61.6,61.6,0,0,1-5.23-6.6,12.43,12.43,0,0,1-2.29-6.58c-.06-1.2-.07-2.4,0-3.6a46.3,46.3,0,0,1,1.16-9.15,45.72,45.72,0,0,1,1.25-4.44,14.13,14.13,0,0,1,2.32-4.12c1.74-2.3,4.11-4.41,7.12-4.64a20.58,20.58,0,0,1-3.11-.3l-3.22-.27c-2.15-.17-4.29-.33-6.44-.46q-6.47-.41-13-.57c-1.08,0-2.15-.06-3.23-.07a5.59,5.59,0,0,0-2.48.13c-.51.25-.83.86-1.17,1.3-.55.7-1.08,1.42-1.58,2.17a33.42,33.42,0,0,0-4.44,9.74,33,33,0,0,0-1.13,10.65C188.26,141.14,188.29,141.58,188.34,142Z"/><ellipse class="cls-20" cx="234.11" cy="139.63" rx="18.91" ry="23.11"/><ellipse class="cls-21" cx="234.33" cy="139.67" rx="13.81" ry="16.88"/><path class="cls-22" d="M236.38,129.09q-5.56,6.25-10.77,12.8c-1.18,1.49-2.31,3-3.44,4.53-.1.15-.14.2-.07.38l.21.49a21.27,21.27,0,0,0,1,1.9,21.6,21.6,0,0,0,1.53,2.28s.06.07.09.05,0-.06,0-.08a1.27,1.27,0,0,1,.11-.13l.25-.26.53-.5c.36-.32.73-.62,1.11-.92l13.84-10.9c.91-.72,1.82-1.45,2.68-2.23a17,17,0,0,0,2.69-3c.1-.16.2-.22.14-.39s-.05-.16-.07-.24-.1-.29-.16-.44-.22-.58-.35-.87a16.45,16.45,0,0,0-.84-1.68,17,17,0,0,0-2.23-3,16.76,16.76,0,0,0-1.56-1.48,5.52,5.52,0,0,0-.85-.66c-.29-.16-.48.19-.61.41,0,.05-.07.11-.11.17-.22.32-.43.65-.67,1C238,127.23,237.21,128.16,236.38,129.09Z"/><path class="cls-5" d="M195.23,156.12a19.88,19.88,0,0,0-.83-2.65,21.88,21.88,0,0,1-1-2.14c-.41-1.06-.62-2.29-1.1-3.29a14.34,14.34,0,0,0-1.08-1.59c-.2-.29-1-1.08-1-1.42A15.46,15.46,0,0,1,188,139a2.25,2.25,0,0,1,.9-1.94,2.28,2.28,0,0,1,2.47.22,6.65,6.65,0,0,1,1.67,2c1.34,2.13,2.56,4.47,4.08,6.47a3.29,3.29,0,0,0,0-1.89,16.22,16.22,0,0,1-.41-2.68c0-.54,0-1.07-.07-1.61l-.15-3.1a11,11,0,0,1,.34-4.2c.2-.56.57-1.15,1.16-1.23.8-.1,1.34.78,1.64,1.54a42.76,42.76,0,0,1,2.34,8.16c.25,1.33.43,2.67.78,4,.1.36.19,1.34.72,1.26s.31-1.14.32-1.52a34.24,34.24,0,0,1,1.2-8.54c.26-.94.78-1.85,1-2.78,0-.12,0-.25,0-.37a.81.81,0,0,1,.74-.55,1.84,1.84,0,0,1,1.19.64,3.65,3.65,0,0,1,1.34,2.83,5,5,0,0,1-.36.9c-.42,1.18,0,2.54-.2,3.76a10.46,10.46,0,0,0-.36,2.61c.09,1.8.15,3.8,1.29,5.31a5.92,5.92,0,0,1,.21-1.39c.1-.53.08-1.1.14-1.64.14-1.21.44-2.41.58-3.62,0-.35-.05-.7,0-1.05a1.54,1.54,0,0,1,1.82-1.3c1.11.29,1.24,1.78,1.27,2.93.11,5.71,3.32,10.72,4.56,16.18a81.12,81.12,0,0,1,1.15,9.2c.37,3.32.8,6.62,1.28,9.92.19,1.33.39,2.65.6,4,.11.66.21,1.32.32,2a2.42,2.42,0,0,1,.1.45c0,.19,0,.1-.16.17a.65.65,0,0,1-.4.14,3.18,3.18,0,0,1-.61-.14c-.81-.23-1.56-.6-2.35-.86a14.37,14.37,0,0,0-3.95-.64c-.68,0-1.36,0-2,0-1.24,0-2.47,0-3.71,0a9.7,9.7,0,0,1-4.24-.59,1.86,1.86,0,0,1-1.13-1c-.42-1.29-.72-2.66-1.13-4l-3.14-9.86-3.13-9.82Z"/></g></g></svg>