<svg xmlns="http://www.w3.org/2000/svg" width="469.471" height="469.471" viewBox="0 0 469.471 469.471">
  <g id="Group_149" data-name="Group 149" transform="translate(-884 -1571)">
    <path id="Path_548" data-name="Path 548" d="M1353.471,1805.735a236.694,236.694,0,0,1-1.716,28.474q-.678,5.685-1.636,11.278c-18.885,110.7-115.293,194.983-231.384,194.983C989.092,2040.471,884,1935.378,884,1805.735S989.092,1571,1118.735,1571a234.537,234.537,0,0,1,234.735,234.735Z" transform="translate(0 0)" fill="#0d0000"/>
    <g id="Group_148" data-name="Group 148" transform="translate(981.967 1625.17)">
      <path id="Path_549" data-name="Path 549" d="M1160.494,1739.684a25.7,25.7,0,0,1,.977-3.562c.43-.956.858-1.888,1.2-2.9.484-1.424.7-3.07,1.3-4.431a18.1,18.1,0,0,1,1.359-2.157c.249-.395,1.235-1.488,1.219-1.934a21.09,21.09,0,0,0,2.758-8.153,3.5,3.5,0,0,0-.428-1.624c-.261-.464-.773-.7-.89-1.21a11.886,11.886,0,0,0-1.471-3.588,3.13,3.13,0,0,0-2.069-1.672,2.426,2.426,0,0,0-2.346,1.632,7.1,7.1,0,0,0-.291,3.034l.2,4.155a2.007,2.007,0,0,1-.246,1.435c-.687,1.035-1.209,2.208-1.815,3.294a44.869,44.869,0,0,1-2.44,3.967,4.379,4.379,0,0,1-.064-2.516,21.331,21.331,0,0,0,.408-3.582c-.005-.71.015-1.422.021-2.132l.041-4.131a14.73,14.73,0,0,0-.66-5.573c-.287-.73-.811-1.493-1.592-1.567-1.075-.1-1.754,1.1-2.115,2.12a58.026,58.026,0,0,0-2.709,10.96c-.258,1.78-.435,3.575-.843,5.329-.11.477-.189,1.785-.89,1.708-.742-.083-.476-1.495-.5-2a45.444,45.444,0,0,0-2.015-11.3c-.387-1.237-1.126-2.417-1.471-3.64-.044-.161.044-.331-.027-.495a1.083,1.083,0,0,0-1.008-.7,2.409,2.409,0,0,0-1.549.92c-.891.947-1.939,2.431-1.646,3.817a7.343,7.343,0,0,0,.52,1.185c.618,1.539.09,3.375.456,4.989a13.954,13.954,0,0,1,.609,3.448c-.039,2.39-.02,5.055-1.456,7.114a7.541,7.541,0,0,0-.354-1.831c-.15-.7-.161-1.458-.266-2.168a3.9,3.9,0,0,1-.133-1.174c.072-.437.156-.871.218-1.311.125-.876.208-1.761.249-2.645a27.922,27.922,0,0,0-.242-5.184,2.963,2.963,0,0,0-.884-2.027,2.684,2.684,0,0,0-2.083-.3,2.256,2.256,0,0,0-1.4.644,2.554,2.554,0,0,0-.39,1.689l.015,2.252c0,.374.019.751.007,1.126a4.436,4.436,0,0,1-.216.891,9.046,9.046,0,0,0-.158,2.184c.124,7.593-3.886,14.406-5.275,21.723-.765,4.032-.771,8.2-1.079,12.287q-.5,6.629-1.209,13.238-.287,2.661-.608,5.32-.161,1.331-.33,2.659a3,3,0,0,0-.11.606c.025.253.048.133.225.221.2.1.293.19.531.165a4.2,4.2,0,0,0,.813-.223c1.056-.344,2.045-.862,3.084-1.251a18.748,18.748,0,0,1,5.212-1.048c.9-.068,1.811-.094,2.717-.105,1.645-.019,3.274-.088,4.922-.128a13.029,13.029,0,0,0,5.61-.995,2.472,2.472,0,0,0,1.455-1.4c.5-1.732.822-3.562,1.309-5.312l3.693-13.262,3.676-13.2Z" transform="translate(-901.864 -1580.473)" fill="#e7b39f"/>
      <g id="Group_142" data-name="Group 142" transform="translate(81.49 169.87)">
        <path id="Path_550" data-name="Path 550" d="M1045.3,1881.906c22.449,22.725,58.47,32.542,84.844,14.347,13.484-9.3,22.746-24.438,30.281-39.829,10.981-22.429,19.182-46.313,26.716-70.333,2.379-7.586,4.724-15.382,4.587-23.347s-3.231-16.261-9.495-20.147c-4.471-2.774-9.883-2.984-15.062-3.125-2.768-.076-6.025.106-7.629,2.624a10.3,10.3,0,0,0-1.158,4.528c-3.887,38.252-18.845,75.307-42.169,104.459-2.616,3.27-5.772,6.679-9.694,6.864-3.689.176-6.851-2.568-9.572-5.243a215.681,215.681,0,0,1-29.663-36.451c-4.209-6.49-7.985-13.256-11.654-20.13-2.277-4.266-4.592-9.252-8.561-11.915-4.089-2.744-10.734-3.065-15.249-1.257-6.273,2.514-8.844,11.29-10.548,17.674-3.6,13.5-2.826,27.9.875,41.1A93.471,93.471,0,0,0,1045.3,1881.906Z" transform="translate(-1018.936 -1739.458)" fill="#003e6a"/>
      </g>
      <g id="Group_143" data-name="Group 143" transform="translate(81.158 170.981)">
        <path id="Path_551" data-name="Path 551" d="M1044.524,1874.8c22.448,22.725,58.47,32.542,84.844,14.347,13.484-9.3,22.746-24.438,30.281-39.829,10.98-22.429,19.182-46.313,26.716-70.333,1.939-6.182,3.858-12.467,4.426-18.982a14.888,14.888,0,0,0,.081-3.871,16.3,16.3,0,0,0-.963-2.979,21.559,21.559,0,0,0-3.1-5.331,19.074,19.074,0,0,0-9.564-6.581,27.749,27.749,0,0,0-6.208-.9,21.315,21.315,0,0,0-10.322,1.567c-1.4.669-3.677,1.858-3.866,3.683a175.148,175.148,0,0,1-7.226,33.209,197.9,197.9,0,0,1-34.182,65.175c-2.616,3.269-5.771,6.677-9.694,6.864-3.688.174-6.851-2.57-9.57-5.243a215.742,215.742,0,0,1-29.665-36.452q-2.8-4.313-5.377-8.791-2.025-3.489-3.957-7.039c-.847-1.551-1.422-3.133-2.722-4.264-1.4-1.216-2.455-3.244-3.558-4.782a10.239,10.239,0,0,0-2.17-2.439,7.89,7.89,0,0,0-2.959-1.172,21.176,21.176,0,0,0-14.034,1.434,18.342,18.342,0,0,0-6.666,5.681,17.566,17.566,0,0,0-2.136,3.91,9.647,9.647,0,0,0-.481,1.923c-.267,1.522-1.13,2.853-1.548,4.344a35.874,35.874,0,0,0-.975,8.06l-.307,6.9c-.122,2.732-.678,5.255-.911,7.994-.158,1.858.523,4.137.857,5.942q.73,3.934,1.807,7.77A93.488,93.488,0,0,0,1044.524,1874.8Z" transform="translate(-1018.686 -1740.293)" fill="#579dd4"/>
      </g>
      <g id="Group_144" data-name="Group 144" transform="translate(81.338 166.945)" opacity="0.68">
        <path id="Path_552" data-name="Path 552" d="M1045.182,1879.707c22.448,22.725,58.47,32.541,84.844,14.347,13.484-9.3,22.746-24.439,30.28-39.83,10.981-22.428,19.183-46.312,26.717-70.333,2.379-7.585,4.724-15.381,4.587-23.347s-3.23-16.261-9.494-20.147c-4.473-2.774-9.883-2.983-15.062-3.125-2.768-.076-6.026.106-7.629,2.624a10.3,10.3,0,0,0-1.158,4.53c-3.887,38.25-18.847,75.305-42.17,104.459-2.616,3.27-5.772,6.678-9.694,6.864-3.688.174-6.851-2.568-9.57-5.243a215.7,215.7,0,0,1-29.665-36.451c-4.208-6.49-7.985-13.257-11.653-20.131-2.278-4.266-4.594-9.252-8.562-11.914-4.09-2.744-10.733-3.067-15.248-1.257-6.273,2.512-8.844,11.289-10.548,17.674-3.6,13.5-2.826,27.9.874,41.1A93.484,93.484,0,0,0,1045.182,1879.707Z" transform="translate(-1018.822 -1737.258)" fill="#3878a6"/>
      </g>
      <path id="Path_553" data-name="Path 553" d="M968.465,1834.29c-.048.451-.093.9-.133,1.353a15.678,15.678,0,0,0,.073,2.051,17.4,17.4,0,0,1-.368,2.865q-.211,1.534-.4,3.071-.369,3.074-.638,6.164c-.362,4.122-.6,8.258-.755,12.4-.311,8.295-.287,16.6-.239,24.9v.247c.068,11.525.2,23.245,3.236,34.254a2.935,2.935,0,0,0,1.047,1.841,2.4,2.4,0,0,0,1.89-.032c10.723-3.137,21.924-3.389,33-3.623l129.543-2.734-14.335-94.6c-3.169-20.909-7.545-44.054-23-56.21a39.792,39.792,0,0,0-6.805-4.286,54.829,54.829,0,0,0-10.588-3.885c-1.813-.478-3.64-.884-5.474-1.245-1.642-.323-4.926-1.521-6.679-.4-1.333.85-1.811,2.792-2.49,4.119-1.7,3.321-4.042,6.555-7.61,8a16.839,16.839,0,0,1-3.758.942,28.433,28.433,0,0,1-12.495-.527c-4.285-1.286-8.947-4.416-10.553-8.76-.15-.407-.215-1.2-.679-1.338-.29-.087-.948.487-1.2.642q-.653.4-1.3.807c-3.463,2.206-6.769,4.7-10.165,7.034-1.825,1.252-3.677,2.458-5.589,3.536-11.63,6.572-22.459,15.114-30.355,26.864a79.639,79.639,0,0,0-8.883,17.715,82.848,82.848,0,0,0-3.152,11.374q-.586,2.908-.964,5.863Q968.55,1833.488,968.465,1834.29Z" transform="translate(-954.919 -1564.147)" fill="#437ba3"/>
      <path id="Path_554" data-name="Path 554" d="M1114.631,1807.474a17.485,17.485,0,0,0,2.22-2.228,24.381,24.381,0,0,1,1.625-2.216,38.374,38.374,0,0,0,2.725-2.857,15.278,15.278,0,0,0,1-2.117c.184-.387.56-1.758.9-1.9a10.685,10.685,0,0,1,3.181-4.277,9.254,9.254,0,0,1,1.669-1.343,2.3,2.3,0,0,1,2.466.4,4.232,4.232,0,0,1,1.153,3.416,8.291,8.291,0,0,1-1.108,3.089c-1.415,2.695-3.1,5.311-4.286,8.2.654.144,1.414-.447,1.9-.821a13.588,13.588,0,0,1,2.488-1.664c.532-.245,1.053-.513,1.58-.77l3.062-1.492a9.259,9.259,0,0,1,4.447-1.294,2.149,2.149,0,0,1,1.878,1.042,2.618,2.618,0,0,1-.64,2.858,39.123,39.123,0,0,1-6.965,6.557,41.591,41.591,0,0,0-3.6,2.713c-.307.279-1.246.815-.876,1.49.391.714,1.326-.048,1.712-.2a28.8,28.8,0,0,1,9.32-1.949c1.094-.047,2.3.278,3.369.193.14-.012.227-.16.38-.148a1.2,1.2,0,0,1,.971.765,2.976,2.976,0,0,1,0,1.873c-.31,1.224-.95,2.793-2.113,2.987a5.353,5.353,0,0,1-1.115-.1c-1.423-.08-2.556,1.093-3.922,1.294a8.9,8.9,0,0,0-2.843.6c-1.765.878-3.758,1.794-4.655,3.954a4.835,4.835,0,0,1,1.523-.29c.589-.094,1.158-.35,1.735-.495,1.306-.329,2.685-.412,3.987-.734.376-.092.686-.357,1.061-.437a2.249,2.249,0,0,1,2.332,1.91c.326,1.617-1.117,2.415-2.268,2.927-5.716,2.542-9.01,8.944-13.847,12.9-2.667,2.18-5.769,3.648-8.682,5.39q-4.718,2.825-9.33,5.856-1.857,1.221-3.7,2.475-.92.628-1.835,1.263c-.128.089-.255.275-.4.323-.2.064-.12,0-.265-.148a1.089,1.089,0,0,1-.359-.474,5.929,5.929,0,0,1-.2-.891c-.213-1.178-.269-2.349-.44-3.526a26.773,26.773,0,0,0-1.539-5.582c-.352-.927-.735-1.843-1.132-2.753-.718-1.653-1.391-3.306-2.1-4.97a18.683,18.683,0,0,1-1.755-5.959,2.581,2.581,0,0,1,.4-1.948c1.069-1.1,2.289-2.072,3.377-3.174l8.244-8.348,8.2-8.31Z" transform="translate(-912.895 -1552.798)" fill="#e7b39f"/>
      <g id="Group_145" data-name="Group 145" transform="translate(0 205.606)">
        <path id="Path_555" data-name="Path 555" d="M957.775,1843.986c-1.668,31.9,15.349,65.131,46.563,72.361,15.959,3.7,33.384.342,49.834-4.461,23.972-7,47.146-17.029,69.974-27.646,7.208-3.353,14.548-6.873,20.341-12.342s9.84-13.343,8.492-20.59c-.963-5.173-4.455-9.312-7.839-13.235-1.809-2.1-4.139-4.381-7.079-3.869a10.3,10.3,0,0,0-4.127,2.2c-30.885,22.9-68.345,36.813-105.6,39.221-4.18.27-8.824.234-11.6-2.539-2.615-2.608-2.718-6.793-2.575-10.6A215.709,215.709,0,0,1,1021.1,1816c1.96-7.482,4.415-14.832,7.023-22.174,1.619-4.558,3.742-9.629,3.036-14.354-.729-4.87-4.966-10-9.345-12.115-6.084-2.942-14.3,1.071-20.167,4.114-12.4,6.433-22.523,16.712-29.78,28.337A93.487,93.487,0,0,0,957.775,1843.986Z" transform="translate(-957.663 -1766.328)" fill="#003e6a"/>
      </g>
      <g id="Group_146" data-name="Group 146" transform="translate(4.471 204.898)">
        <path id="Path_556" data-name="Path 556" d="M961.137,1838.928c-1.668,31.9,15.349,65.132,46.563,72.361,15.959,3.7,33.384.343,49.834-4.459,23.972-7,47.147-17.03,69.973-27.646,5.874-2.733,11.811-5.55,17.009-9.518a14.934,14.934,0,0,0,2.917-2.55,16.289,16.289,0,0,0,1.552-2.718,21.643,21.643,0,0,0,1.849-5.884,19.078,19.078,0,0,0-1.582-11.5,27.694,27.694,0,0,0-3.52-5.191,21.31,21.31,0,0,0-8.111-6.573c-1.44-.585-3.852-1.466-5.326-.375a175.2,175.2,0,0,1-29.409,17.035,197.894,197.894,0,0,1-71.19,18.654c-4.179.27-8.823.234-11.6-2.539-2.616-2.608-2.718-6.792-2.575-10.6a215.624,215.624,0,0,1,6.949-46.48c.868-3.315,1.837-6.614,2.873-9.9.809-2.564,1.66-5.118,2.536-7.666.574-1.672,1.356-3.163,1.315-4.885-.044-1.853.743-4,1.138-5.851a10.252,10.252,0,0,0,.339-3.248,7.906,7.906,0,0,0-1.128-2.976,21.172,21.172,0,0,0-10.515-9.4,18.317,18.317,0,0,0-8.69-1.1,17.558,17.558,0,0,0-4.328,1.056,9.6,9.6,0,0,0-1.745.94c-1.3.827-2.871,1.087-4.253,1.784a35.8,35.8,0,0,0-6.613,4.709l-5.306,4.422c-2.1,1.75-4.341,3.04-6.522,4.713-1.479,1.136-2.7,3.173-3.813,4.637q-2.416,3.188-4.523,6.57A93.467,93.467,0,0,0,961.137,1838.928Z" transform="translate(-961.025 -1765.796)" fill="#579dd4"/>
      </g>
      <g id="Group_147" data-name="Group 147" transform="translate(2.059 203.522)" opacity="0.68">
        <path id="Path_557" data-name="Path 557" d="M959.323,1842.419c-1.667,31.9,15.349,65.131,46.564,72.361,15.959,3.7,33.383.343,49.834-4.459,23.972-7,47.145-17.03,69.973-27.647,7.208-3.352,14.548-6.872,20.343-12.341s9.839-13.343,8.49-20.59c-.963-5.175-4.454-9.314-7.839-13.236-1.809-2.1-4.139-4.381-7.079-3.869a10.277,10.277,0,0,0-4.127,2.2c-30.884,22.9-68.344,36.813-105.6,39.22-4.179.27-8.824.234-11.6-2.539-2.615-2.608-2.718-6.792-2.575-10.6a215.794,215.794,0,0,1,6.949-46.48c1.96-7.482,4.415-14.832,7.023-22.176,1.619-4.556,3.742-9.627,3.036-14.353-.729-4.871-4.966-10-9.346-12.116-6.084-2.942-14.3,1.072-20.166,4.115-12.4,6.433-22.524,16.712-29.781,28.337A93.482,93.482,0,0,0,959.323,1842.419Z" transform="translate(-959.211 -1764.761)" fill="#3878a6"/>
      </g>
      <path id="Path_558" data-name="Path 558" d="M994.218,1769.621a2.01,2.01,0,0,1-.176-.164c-.654-.7-.717-1.9-1.137-2.742a5.321,5.321,0,0,0-3.26-2.762c-2.2-.6-5-.9-5.789-3.043a5.292,5.292,0,0,1-.154-2.26,59.367,59.367,0,0,1,2.418-12.53c1.115-3.625,2.6-7.364,1.91-11.094-1.017-5.506-6.594-9.84-6.055-15.413.387-4,3.879-7.061,4.816-10.972.834-3.484-.467-7.11-.386-10.693.14-6.247,4.318-13.038.86-18.241l9-1.556,4.5-.777c2.988-.517,5.38-2.864,8.578-2.2,3.852.8,5.82,5.047,6.856,8.842,4.548,16.648,2.573,34.56,7.212,51.183,2.958,10.6,8.609,20.824,8.029,31.816a6.132,6.132,0,0,1-.9,3.335c-2.351,3.236-7.57.6-10.771.476-5.489-.208-10.981-.343-16.473-.516l-5.328-.166C996.869,1770.106,995.164,1770.382,994.218,1769.621Z" transform="translate(-949.653 -1590.837)" fill="#f2d4c1"/>
      <path id="Path_559" data-name="Path 559" d="M1056.81,1763.065c6.34,1.073,12.829.332,19.215-.412l21.885-2.549a7.146,7.146,0,0,0,2.612-.646,5.008,5.008,0,0,0,1.74-1.716c3.521-5.4-.072-12.435-.269-18.875-.3-9.71,7.4-18.4,6.816-28.094a4.648,4.648,0,0,0-.815-2.687c-.911-1.124-2.524-1.319-3.969-1.4a118.785,118.785,0,0,0-30.9,2.249c-8.02,1.656-16.038,4.231-22.576,9.162-6.292,4.747-10.892,11.458-14.164,18.628-2.437,5.341-4.2,11.436-2.439,17.037a12.307,12.307,0,0,0,6.245,7.181c3.052,1.492,5.892.538,9.084.8C1051.827,1761.956,1054.293,1762.638,1056.81,1763.065Z" transform="translate(-932.729 -1580.469)" fill="#f2d4c1"/>
      <path id="Path_560" data-name="Path 560" d="M1000.581,1714.449c-.067-.037-.136-.069-.2-.1a4.738,4.738,0,0,1-1.182-.77,10.448,10.448,0,0,1-2.653-3.621,10.725,10.725,0,0,1-.7-2.16,10.314,10.314,0,0,1-.17-1.124,4.415,4.415,0,0,1-.029-1.124c.048-.291.163-.547.193-.847a8.459,8.459,0,0,1,.161-1,9.231,9.231,0,0,1,.658-1.935,8.337,8.337,0,0,1,2.458-3.119,5.687,5.687,0,0,1,3.568-1.209c.085,0,.172.007.258.013-4.87-13.827-8.46-28.6-6.175-43.081s11.568-28.607,25.546-33.029c6.521-2.063,13.5-1.92,20.338-2.021,12.371-.183,24.891-1.213,37.01,1.287s24.125,9.253,29.339,20.475c2.506,5.394,3.278,11.415,3.791,17.341a230.784,230.784,0,0,1-7.663,81.847c-3.849,13.754-10.266,28.55-23.435,34.077-3.552,1.491-7.422,2.207-10.823,4.015-8.157,4.338-11.932,13.943-13.733,23s-2.379,18.628-6.852,26.712a2.249,2.249,0,0,1-2.762,1.466,31.483,31.483,0,0,1-19.022-9.876,33.5,33.5,0,0,1-8.9-19.818c-.432-4.127-.271-8.331-.548-12.475q-.469-7.042-1.484-14.031a183.555,183.555,0,0,0-6.184-27.514c-2.1-6.821-4.425-13.64-5.833-20.663q-.692-3.445-1.088-6.941a13.543,13.543,0,0,0-.245-2.862c-.077-.23-.114-.187-.33-.181-.141,0-.281.005-.422.007a14.572,14.572,0,0,1-1.6-.088,1.515,1.515,0,0,1-.968-.4c-.054-.052-.109-.105-.168-.152A1.253,1.253,0,0,0,1000.581,1714.449Z" transform="translate(-945.141 -1609.347)" fill="#e8c8bb"/>
      <path id="Path_561" data-name="Path 561" d="M1056.45,1645.605q3.2,8.991,6.4,17.982a8.413,8.413,0,0,1,.769,3.595,16.289,16.289,0,0,0,1.02,5.759,89.869,89.869,0,0,0,4.543,11.017c.311.677.4,1.366.681,2.051a29.393,29.393,0,0,1,1.454,4.49q.2.828.343,1.667c.35,1.988.492,4.012.911,5.986.766,3.6,2.424,6.936,3.771,10.362a8.49,8.49,0,0,1,.813,4.607c-.507,2.649-3.172,4.254-5.648,5.321a51.771,51.771,0,0,1-6.556,2.318c-.588.165-1.528.366-1.5,1.13.011.322.088.635.086.959,0,.509-.024,1.02-.037,1.53a45.2,45.2,0,0,0-.132,4.836c.048.6.284,1.149.354,1.741a39.548,39.548,0,0,1-.261,6.324q-.182,3.607-.362,7.214c-.116,2.278-.411,4.625-.342,6.906a20.391,20.391,0,0,0,.443,2.048,39.2,39.2,0,0,1,.17,6.384,52.182,52.182,0,0,1-2,12.592,2.538,2.538,0,0,0,.009,1.98c.054.085.157.251.279.245a1,1,0,0,0,.2-.053,7.855,7.855,0,0,0,.976-.33c.18-.073.36-.093.543-.16s.351-.136.523-.21c.346-.149.684-.315,1.019-.487.158-.08.315-.161.472-.243l2.205-1.145c.641-.334,1.283-.667,1.9-1.043.31-.187.613-.385.907-.6a2.145,2.145,0,0,0,.414-.326,3.308,3.308,0,0,1,.34-.329c.072-.065.11-.14.176-.208s.126-.126.192-.189c.13-.123.265-.241.4-.357.274-.231.56-.449.846-.667.229-.174.458-.348.681-.529a3.192,3.192,0,0,0,.678-.692,1.929,1.929,0,0,1,.183-.323c.13-.141.258-.284.386-.428q.75-.844,1.452-1.729.4-.5.785-1.021c6.5-8.729,9.783-19.388,12.584-29.9,1.734-6.511,3.323-13.071,4.431-19.72a109.546,109.546,0,0,0,1.5-14.39c.08-2.406.063-4.817-.067-7.222a7.916,7.916,0,0,1,.117-2.774,19.215,19.215,0,0,0,.476-3.853c.217-2.706.346-5.418.421-8.131.12-4.248.11-8.5.1-12.746a58.108,58.108,0,0,0-1.023-13.085c-.407-1.748-.976-3.453-1.544-5.155l-1.016-3.044a7.853,7.853,0,0,1-.386-1.336c-.04-.277-.029-.56-.083-.834a7.164,7.164,0,0,0-1.074-2.149,35.369,35.369,0,0,0-3.818-5.219,37.843,37.843,0,0,0-9.839-7.944,36.7,36.7,0,0,0-11.949-4.237,45.986,45.986,0,0,0-18.738,1.166c-.048,2.1,1.557,3.813,2.72,5.566a29.823,29.823,0,0,1,2.974,6.6Z" transform="translate(-928.173 -1608.56)" fill="#e7b39f"/>
      <path id="Path_562" data-name="Path 562" d="M1064.768,1705.7c4.261-.1,8.627-.495,12.467-2.346-6.271,7.353-5.54,18.365-9.8,27.038a5.752,5.752,0,0,1-1.472,2.051,4.833,4.833,0,0,1-2.717.884c-3.929.238-7.589-2.008-10.521-4.635a37.974,37.974,0,0,1-11.735-20.639c-.182-.914-1.045-3.554-.328-4.345s3.984.408,4.985.58q2.871.493,5.769.817A99.651,99.651,0,0,0,1064.768,1705.7Z" transform="translate(-930.372 -1581.5)" fill="#6a0e00"/>
      <path id="Path_563" data-name="Path 563" d="M1064.771,1705.718c4.261-.1,8.627-.5,12.467-2.347-.219.258-.431.52-.636.789a21.039,21.039,0,0,0-2.238,3.707c-.156.326-.3.656-.446.987-.068.158-.128.322-.2.48-.062.141-.176.15-.322.191a11.9,11.9,0,0,1-2.282.35c-7.25.593-14.538-.036-21.783-.664l-.641-.056c-1.58-.139-3.16-.291-4.727-.552-.779-.129-1.556-.286-2.323-.48-.19-.049-.387-.092-.573-.154-.077-.025-.094-.029-.128-.1a3.18,3.18,0,0,1-.137-.564,14.551,14.551,0,0,1-.4-1.995,2.108,2.108,0,0,1,.249-1.588c.717-.792,3.984.408,4.985.58q2.871.493,5.769.818A99.772,99.772,0,0,0,1064.771,1705.718Z" transform="translate(-930.374 -1581.495)" fill="#fff" opacity="0.99"/>
      <path id="Path_564" data-name="Path 564" d="M1055.386,1717.108a1.882,1.882,0,0,0,.967-.326c.278-.193.515-.441.875-.362.137.029.265.1.4.14a7.955,7.955,0,0,0,1.42.179c1.648.149,3.459.446,4.509,1.724a6.555,6.555,0,0,1,1.02,2.148,16.385,16.385,0,0,1,.914,3.667,12.841,12.841,0,0,1-.041,1.78,2.529,2.529,0,0,1-.517,1.527,3.769,3.769,0,0,1-2.382,1.178,10.948,10.948,0,0,1-6.751-1.318,28.446,28.446,0,0,1-5.608-4.157c-.478-.426-.954-.854-1.391-1.322a6.556,6.556,0,0,0-.505-.555c-.189-.16-.373-.323-.549-.495a10.018,10.018,0,0,1-1.229-1.44c-.182-.258-.351-.525-.507-.8a4.679,4.679,0,0,1-.422-.827,4.466,4.466,0,0,1,2.18-.9,23.064,23.064,0,0,1,2.867-.391,5.893,5.893,0,0,1,1.571-.059c.609.133,1.214.293,1.821.439A4.584,4.584,0,0,0,1055.386,1717.108Z" transform="translate(-928.653 -1577.194)" fill="#ff948a" opacity="0.8"/>
      <path id="Path_565" data-name="Path 565" d="M1039.418,1674.256a12.412,12.412,0,0,1,6.743-1.592,7.075,7.075,0,0,1,5.591,3.028,10.681,10.681,0,0,1,2.13,5.388,9.965,9.965,0,0,0-11.56-3.208,17.905,17.905,0,0,0-3.192,1.882c-1.116.777-2.2,1.765-3.375,2.427a6.014,6.014,0,0,1,.418-4.151A8.047,8.047,0,0,1,1039.418,1674.256Z" transform="translate(-931.97 -1591.627)" opacity="0.8"/>
      <path id="Path_566" data-name="Path 566" d="M1081.084,1673.285a10.849,10.849,0,0,0-5.894-1.391,6.179,6.179,0,0,0-4.889,2.647,9.338,9.338,0,0,0-1.862,4.711,8.709,8.709,0,0,1,10.106-2.8,15.608,15.608,0,0,1,2.79,1.645c.976.679,1.92,1.543,2.951,2.123a5.261,5.261,0,0,0-.366-3.629A7.027,7.027,0,0,0,1081.084,1673.285Z" transform="translate(-921.113 -1591.881)" opacity="0.8"/>
      <path id="Path_567" data-name="Path 567" d="M1077.589,1664.1c3.042-.912,6.3-1.827,9.34-.92.517-1.635-.589-3.428-2.084-4.269a11.376,11.376,0,0,0-4.986-1.057c-2.519-.145-5.041-.289-7.565-.289-1.952,0-4.4-.262-6.086.924-3.931,2.766.271,6.445,3.536,6.837C1072.406,1665.644,1075.068,1664.854,1077.589,1664.1Z" transform="translate(-922.373 -1596.617)" fill="#84462b" opacity="0.32"/>
      <path id="Path_568" data-name="Path 568" d="M1040.092,1667.959c-3.749-.037-7.751-.024-11.237,1.512-.853-1.285.2-3.108,1.857-4.2a18.792,18.792,0,0,1,5.774-2.144c2.974-.747,5.952-1.495,8.952-2.117,2.321-.483,5.192-1.314,7.369-.7,5.076,1.419.614,5.635-3.212,6.78A31.826,31.826,0,0,1,1040.092,1667.959Z" transform="translate(-934.273 -1595.776)" fill="#84462b" opacity="0.32"/>
      <path id="Path_571" data-name="Path 571" d="M1074.941,1614.55c-16.172-3.089-33.069-4.35-48.965-.061a38.962,38.962,0,0,0-14.16,6.576c-1.512,1.2-3.318,1.475-4.987,2.467A17.592,17.592,0,0,0,1003,1626.7a44.615,44.615,0,0,0-5.805,8.373l-6.311,10.952a18.223,18.223,0,0,0-2.208,4.891c-.882,3.825.766,7.811.39,11.718-.463,4.812-3.878,8.8-5.309,13.419-1.94,6.264-.086,13,1.766,19.293A14.634,14.634,0,0,0,988,1700.5a5.634,5.634,0,0,0,1.988,1.636c.859.39,1.763.266,2.625.59l5.3,2c.625-2.33,3.281-3.318,5.342-4.571,4.382-2.664,6.821-7.525,9.347-11.988a117.181,117.181,0,0,1,70.183-54.65,41.84,41.84,0,0,0,7.681-2.614c3.014-1.5,5.151-4.181,7.687-6.3a2.919,2.919,0,0,1,1.458-.878c1.815-.383,4.643.473,6.334,1.106a8.714,8.714,0,0,1,5.36,4.985c.34.99.438,2.052.8,3.035.826,2.258,2.834,3.761,3.97,5.831a8.146,8.146,0,0,1,.694,3.046,10.789,10.789,0,0,0,1.839,4.055c1.193,1.711,2.893,3.094,3.709,5.012,1.387,3.261-.15,6.942-.449,10.472-.746,8.827,6.332,16.587,6.918,25.426.642,9.65-6.5,18.291-7,27.948-.566,10.814,7.182,21.932,2.841,31.851-.84,1.919-2.319,3.784-4.385,4.128a10.866,10.866,0,0,1-3.792-.423,16.591,16.591,0,0,0-10.174,1.3c10.173-22.969,11.172-48.86,10.737-73.977-.145-8.405-.447-16.9-2.672-25.007s-6.57-15.893-13.418-20.769c-2.45-1.745-4.06-3.133-5.235-5.912-1.015-2.4-3.181-4.147-5.257-5.612a28.242,28.242,0,0,0-6.82-3.409A58.2,58.2,0,0,0,1074.941,1614.55Z" transform="translate(-949.325 -1611.731)" fill="#f2d4c1"/>
      <path id="Path_572" data-name="Path 572" d="M1037.046,1626.839c-2.928,2.716-5.175,6.248-8.636,8.239-2.953,1.7-6.558,2.127-9.326,4.115-6.76,4.853-5.111,15.853-10.538,22.159-1.467,1.706-3.39,2.978-4.824,4.711s-2.325,4.24-1.277,6.231c4.112,1.15,7.525-3.483,8.494-7.642s1.19-9,4.5-11.7a13.591,13.591,0,0,0,2.62-2.16c1.29-1.758.678-4.223,1.145-6.353.9-4.112,5.506-6.151,9.609-7.091s8.72-1.656,11.314-4.973c1.628-2.08,2.257-5,4.446-6.474,2.042-1.376,4.727-1.031,7.188-1.124,1.142-.044,6.1-.936,5.118-3.018-.7-1.482-5.408-.883-6.71-.751A22.76,22.76,0,0,0,1037.046,1626.839Z" transform="translate(-943.038 -1608.746)" fill="#84462b" opacity="0.32"/>
      <path id="Path_573" data-name="Path 573" d="M1017.578,1625.589c-1.962,6-9.405,8.7-11.8,14.54-1.135,2.771-.978,5.925-2,8.738-1.846,5.055-7.135,8.139-9.359,13.039-1.608,3.543-1.426,7.6-1.247,11.487a68.4,68.4,0,0,1-.042,9.207,30.249,30.249,0,0,1-.706,4.419,12.886,12.886,0,0,0-.529,1.7c-.015.186.5,1.887.646,1.806a7.365,7.365,0,0,0,3.034-3.3,11.006,11.006,0,0,0,.677-4.536c.2-4.387.371-8.779.6-13.167a21.147,21.147,0,0,1,.995-6.561c1.048-2.778,3.2-4.966,4.97-7.345a31.429,31.429,0,0,0,5.715-13.193,13.434,13.434,0,0,1,1.3-4.656c.915-1.525,2.491-2.5,3.868-3.631a19.412,19.412,0,0,0,6.331-9.718c.507-1.807.765-3.673,1.245-5.493.074-.286.444-1.282.07-1.5-.484-.279-1.536.991-1.765,1.294C1018.11,1620.651,1018.3,1623.369,1017.578,1625.589Z" transform="translate(-946.369 -1609.866)" fill="#84462b" opacity="0.32"/>
      <path id="Path_574" data-name="Path 574" d="M994.338,1705.2c1.039,3.353,2.669,6.515,3.474,9.932,1.008,4.288.672,8.758.569,13.161a120.556,120.556,0,0,0,2.113,25.43,1.983,1.983,0,0,0,.516,1.174c.689.592,1.841-.091,2.048-.975a4.526,4.526,0,0,0-.519-2.628c-4.212-10.58-.656-22.483-.911-33.867a12.649,12.649,0,0,0-.653-4.265,19.336,19.336,0,0,0-2.153-3.612,28.316,28.316,0,0,1-4.139-10.1c-.168-.85-.062-2.366-.731-2.965C992.6,1698.785,993.6,1702.824,994.338,1705.2Z" transform="translate(-945.909 -1583.768)" fill="#84462b" opacity="0.32"/>
      <path id="Path_575" data-name="Path 575" d="M1082.507,1731.454c-1,2.357-3.117,4.038-4.49,6.2-3.175,4.991-1.892,11.486-.5,17.235.2.838.564,1.834,1.414,1.98.882.153,1.612-.831,1.592-1.725a5.864,5.864,0,0,0-.944-2.485,14.651,14.651,0,0,1,1.585-15.739c1.559-1.9,3.635-3.445,4.644-5.685,1.754-3.9-.265-8.365-.448-12.636-.266-6.155,3.355-12.261,1.892-18.244l-1.708,0c-.428,0-1.74,6.456-1.893,7.128a31.922,31.922,0,0,0-.91,5.7c-.14,3.424.41,6.926.48,10.357C1083.273,1726.152,1083.552,1728.987,1082.507,1731.454Z" transform="translate(-918.604 -1582.491)" fill="#84462b" opacity="0.32"/>
      <path id="Path_576" data-name="Path 576" d="M1124.61,1712.374c-2.773,2.1-4.361,5.438-5.208,8.812-1.009,4.023-1.072,8.425.69,12.18s5.6,6.683,9.746,6.575a3.316,3.316,0,0,0,1.653-.39,3.611,3.611,0,0,0,1.013-1.052,22.218,22.218,0,0,0,3.659-11.206,66.193,66.193,0,0,0-.532-11.906,8.265,8.265,0,0,0-.746-3.133,3.5,3.5,0,0,0-1.9-1.228,8.21,8.21,0,0,0-5.509-.12A9.381,9.381,0,0,0,1124.61,1712.374Z" transform="translate(-904.531 -1579.146)" fill="#003b4f"/>
      <path id="Path_577" data-name="Path 577" d="M1131.784,1713.244a5.787,5.787,0,0,0-2.193.476,5.175,5.175,0,0,0-1.687,1.616,17.418,17.418,0,0,0-3.7,11.572c.342,4.126,2.841,8.17,6.676,9.725a19.184,19.184,0,0,0,4.266,1.01l11.186,1.761c-3.242-3.568-4.257-8.734-3.739-13.527a39.315,39.315,0,0,1,3.042-10.694,20.2,20.2,0,0,0,1.105-2.58c.242-.969-1.383-.492-1.935-.446l-6.179.516Z" transform="translate(-902.728 -1578.648)" fill="#13282e"/>
      <path id="Path_578" data-name="Path 578" d="M1138.587,1738.435a3.558,3.558,0,0,0,.741,1.626,3.767,3.767,0,0,0,2,.882l33.407,7.409a61.468,61.468,0,0,1-5.952-5.611,12.089,12.089,0,0,1-3.119-6.006q-.341-1.715-.547-3.455a45.491,45.491,0,0,1-.17-8.956c.118-1.49.31-2.975.576-4.446a13.963,13.963,0,0,1,1.652-4.286c1.355-2.459,3.341-4.817,6.2-5.459a19.718,19.718,0,0,1-3.037.154q-1.566.086-3.131.186-3.13.2-6.256.46-6.274.519-12.528,1.265-1.558.188-3.114.387a5.589,5.589,0,0,0-2.367.476,3.987,3.987,0,0,0-.936,1.41c-.432.757-.846,1.52-1.221,2.307a32.531,32.531,0,0,0-2.9,9.992,32.041,32.041,0,0,0,.407,10.392Q1138.428,1737.8,1138.587,1738.435Z" transform="translate(-898.279 -1579.264)" fill="#2a4047" stroke="#2a4047" stroke-miterlimit="10" stroke-width="1"/>
      <ellipse id="Ellipse_138" data-name="Ellipse 138" cx="18.369" cy="22.451" rx="18.369" ry="22.451" transform="translate(262.549 130.881) rotate(-8.3)" fill="#2a3236"/>
      <ellipse id="Ellipse_139" data-name="Ellipse 139" cx="13.417" cy="16.398" rx="13.417" ry="16.398" transform="translate(268.545 136.16) rotate(-8.3)" fill="#ffd224"/>
      <path id="Path_579" data-name="Path 579" d="M1155.236,1738.453a8.925,8.925,0,0,0-1.057-.358,15.69,15.69,0,0,0-3.75-.565,19.163,19.163,0,0,1-3.5-.179c-1.552-.333-2.954-1.282-4.536-1.386a4.335,4.335,0,0,1-2.232-.351,2.819,2.819,0,0,1-.842-1.17q-.477-.994-.924-2c-.144-.326-.3-.65-.424-.984-.1-.274-.312-.483-.411-.754-.185-.508-.431-.988-.586-1.508-.358-1.185-.439-2.428-.714-3.632a7.092,7.092,0,0,0-.623-1.757c-.3-.556-.863-1.116-1.469-.94a1.635,1.635,0,0,0-.809.756,16.843,16.843,0,0,0-.978,1.6c-1.249,2.417-1.2,5.111-1.144,7.754a2.6,2.6,0,0,1-.2,1.134c-.153.346-.346.668-.472,1.027a18.325,18.325,0,0,0-.605,2.221c-.041.2-.079.392-.121.586-.027.125-.1.226-.132.346-.068.287.254.568.489.661a2.188,2.188,0,0,0,.939.071,39.24,39.24,0,0,1,10.873.578c3.718.8,7.374,2.352,11.163,2.052a11.652,11.652,0,0,0,3.8-.963c.145-.065.291-.115.282-.3a.739.739,0,0,0-.074-.234,2.791,2.791,0,0,0-.831-1.053A4.554,4.554,0,0,0,1155.236,1738.453Z" transform="translate(-900.898 -1575.073)" fill="#e7b39f"/>
      <path id="Path_580" data-name="Path 580" d="M1262.1,1767.518a236.694,236.694,0,0,1-1.716,28.474q-44.566-19.83-86.965-42.917c-.426-.24-.851-.465-1.263-.692a18.78,18.78,0,0,0-2.075-1.024,7.616,7.616,0,0,0-.851-.466,7.545,7.545,0,0,1-.785-.226,6.447,6.447,0,0,1-1.383-.7,11.243,11.243,0,0,1-3.737-4.149,18.242,18.242,0,0,1-1.09-2.381c-.306-.8-.465-1.676-.838-2.447a5.362,5.362,0,0,1-.426-2.181,13.533,13.533,0,0,1,.08-2.54,14.308,14.308,0,0,1,.745-3.219,22.98,22.98,0,0,1,1.2-2.686,21.97,21.97,0,0,1,4.522-6.317,21.1,21.1,0,0,1,4.575-3.178,6.5,6.5,0,0,1,1.144-.559,3.537,3.537,0,0,0,.4-.133,26.421,26.421,0,0,0,2.381-1.583c3.857-2.513,7.847-4.867,11.916-7.1a260.134,260.134,0,0,1,25.2-11.9c7.208-2.966,14.536-5.706,21.931-8.339q5.546-1.975,11.118-3.87c.2-.067.824-.266,1.676-.545A234.06,234.06,0,0,1,1262.1,1767.518Z" transform="translate(-890.592 -1586.952)" fill="#ffd224" opacity="0.41"/>
    </g>
  </g>
</svg>
