<svg xmlns="http://www.w3.org/2000/svg" width="96" height="96" viewBox="0 0 96 96">
  <g id="Group_137" data-name="Group 137" transform="translate(-396.061 -477.552)">
    <circle id="Ellipse_128" data-name="Ellipse 128" cx="48" cy="48" r="48" transform="translate(396.061 477.552)" fill="#f2f0f0"/>
    <g id="Group_136" data-name="Group 136">
      <g id="Group_134" data-name="Group 134">
        <path id="Path_543" data-name="Path 543" d="M474.386,514.965a10.991,10.991,0,0,0,9.861,7.538l2.43,7.359-74.065,24.46-2.327-7.046a11,11,0,0,0-6.636-20.093l-2.326-7.045,74.065-24.46,2.431,7.359A10.994,10.994,0,0,0,474.386,514.965Z" fill="#437ba3"/>
        <g id="Group_133" data-name="Group 133">
          <line id="Line_2" data-name="Line 2" x2="11.289" y2="34.184" transform="translate(460.195 500.695)" fill="#e8f7ff"/>
          <g id="Group_132" data-name="Group 132">
            <rect id="Rectangle_25" data-name="Rectangle 25" width="3" height="3" transform="translate(458.771 501.166) rotate(-18.279)" fill="#e8f7ff"/>
            <path id="Path_544" data-name="Path 544" d="M467.238,526.8l-1.882-5.7,2.849-.94,1.881,5.7Zm-3.763-11.4-1.882-5.7,2.849-.941,1.881,5.7Z" fill="#e8f7ff"/>
            <rect id="Rectangle_26" data-name="Rectangle 26" width="3" height="3" transform="translate(469.119 532.502) rotate(-18.279)" fill="#e8f7ff"/>
          </g>
        </g>
      </g>
      <g id="Group_135" data-name="Group 135" transform="translate(1 0.292)">
        <rect id="Rectangle_27" data-name="Rectangle 27" width="40" height="27" transform="translate(415.553 519.177) rotate(-18.275)" fill="#2a4047"/>
        <path id="Path_545" data-name="Path 545" d="M423.7,545.447l-8.781-26.588L453.853,506l8.78,26.588Zm-7.518-25.952,8.153,24.689,37.034-12.23-8.154-24.689Z" fill="#2a4047"/>
      </g>
      <path id="Path_546" data-name="Path 546" d="M449.208,533.136l-8.079-1.368-5.854,5.734-1.026-7.938L426.943,526l7.445-3.538,1.339-7.934,5.627,5.751,8.133-1.343-3.967,7.092Z" transform="translate(1.562 1)" fill="#f58b28"/>
    </g>
  </g>
</svg>
