<svg id="jumping_fox" data-name="jumping fox" xmlns="http://www.w3.org/2000/svg" width="128.703" height="100.2" viewBox="0 0 128.703 100.2">
  <g id="Group_162" data-name="Group 162" transform="translate(9.18 24.184)">
    <path id="Path_589" data-name="Path 589" d="M1697.877,1891.547a35.345,35.345,0,0,0-1.93,5.247c-.433,2.1.042,5.86,2.877,5.871a7.529,7.529,0,0,0,4.827-1.909,9.759,9.759,0,0,0,.726-.688,12.457,12.457,0,0,0,1.666-2.223,10.07,10.07,0,0,0,.664-1.229,14.657,14.657,0,0,0,.47-2.022,24.558,24.558,0,0,1,.862-2.708c2.767-7.226,9.078-13.424,16.961-14.454a7.584,7.584,0,0,1,4.9.677,8.108,8.108,0,0,1,2.327,2.408,19.211,19.211,0,0,1,2.6,4.788,14.62,14.62,0,0,0,.68,1.626,29.355,29.355,0,0,1,1.487,3.277,18.366,18.366,0,0,1,.664,5.9q0,.947-.016,1.893a15.19,15.19,0,0,0-.026,1.79c.024.225.051.454.069.682.039.487.081.974.133,1.459a21.919,21.919,0,0,0,.479,2.88,10.6,10.6,0,0,0,1.643,3.728,5.338,5.338,0,0,0,.981,1.057,5.07,5.07,0,0,0,1.342.647,16.265,16.265,0,0,1,2.125.936l1.38.784q1.382.781,2.773,1.544c1.856,1.013,3.734,1.987,5.653,2.876q.806.374,1.621.726c2.322,1,4.864,1.991,6.216,4.129a3.305,3.305,0,0,1,.588,1.9c-.063,1.209-1.033,2.147-1.937,2.953l-2.939,2.62a2.329,2.329,0,0,0-.668.807,1.6,1.6,0,0,0,.926,1.9,4.672,4.672,0,0,0,2.288.266,14.828,14.828,0,0,0,5.2-.91,6.182,6.182,0,0,0,1.139-.637,2.036,2.036,0,0,0,.59-.83,14.558,14.558,0,0,0,1.067-2.409,25.521,25.521,0,0,0,.7-10.757c-.262-2.548-.684-5.074-1.03-7.611a81.839,81.839,0,0,1-.239-20.123c2.5-.376,2.992,3.811,5.257,4.927a5.834,5.834,0,0,0,3.387.118,23.884,23.884,0,0,1,19.049,5.851c1.967,1.778,3.637,3.892,5.785,5.447,3.791,2.746,8.637,3.467,13.278,4.077-2.077-5.854-.031-12.608-2.3-18.39-1.559-3.972-4.934-6.909-8.273-9.565a54.878,54.878,0,0,0-7.861-5.438c-8.943-4.853-19.608-5.185-29.767-4.627-4.91.27-10.016.691-14.58-1.138-3.058-1.226-5.639-3.377-8.468-5.067-5.374-3.211-11.588-4.721-17.765-5.738-3.528-.581-7.646-.835-10.161,1.707-1.555,1.573-2.09,3.849-2.825,5.936a27.065,27.065,0,0,1-6.51,10.25,26.508,26.508,0,0,0-3.253,3.446c-.529.746-1.108,1.457-1.564,2.252a16.962,16.962,0,0,0-1.2,2.656c-.69,1.891-1.168,3.85-1.829,5.75Q1698.006,1891.2,1697.877,1891.547Z" transform="translate(-1695.466 -1858.138)" fill="#ccc"/>
    <path id="Path_590" data-name="Path 590" d="M1757.9,1930.387a3.9,3.9,0,0,1-1.711-.324,1.932,1.932,0,0,1-1.093-2.333,2.645,2.645,0,0,1,.756-.932l2.939-2.62a4.389,4.389,0,0,0,1.824-2.717,2.943,2.943,0,0,0-.536-1.7c-1.213-1.918-3.462-2.883-5.637-3.815l-.427-.183c-.531-.229-1.079-.475-1.629-.73-1.736-.8-3.539-1.722-5.673-2.886-.832-.454-1.715-.946-2.778-1.547q-.691-.391-1.381-.785a12.368,12.368,0,0,0-1.667-.751l-.416-.164c-.088-.035-.176-.069-.264-.1a4.168,4.168,0,0,1-1.162-.594,5.621,5.621,0,0,1-1.045-1.123,10.941,10.941,0,0,1-1.7-3.847,22,22,0,0,1-.487-2.924c-.046-.429-.089-.9-.134-1.469-.014-.175-.033-.35-.052-.524l-.016-.148a7.845,7.845,0,0,1,0-1.251c.011-.2.021-.392.024-.579.009-.618.014-1.253.016-1.889a18.058,18.058,0,0,0-.647-5.789,19.3,19.3,0,0,0-1.067-2.415c-.136-.274-.273-.547-.4-.823a15.092,15.092,0,0,1-.7-1.664,19,19,0,0,0-2.559-4.7,7.815,7.815,0,0,0-2.224-2.312,7.147,7.147,0,0,0-4.686-.632c-7.185.939-13.736,6.529-16.688,14.239a24.409,24.409,0,0,0-.85,2.671c-.058.23-.1.472-.146.729a6.234,6.234,0,0,1-.339,1.34,9.594,9.594,0,0,1-.638,1.193l-.047.079a12.818,12.818,0,0,1-1.712,2.283,10.156,10.156,0,0,1-.751.712,7.827,7.827,0,0,1-5.022,1.991h-.026a2.831,2.831,0,0,1-2.285-1.085,6.76,6.76,0,0,1-.923-5.194,19.776,19.776,0,0,1,1.29-3.7c.222-.522.452-1.063.655-1.6h0q.128-.339.247-.681c.3-.874.575-1.779.836-2.654.305-1.021.621-2.077.994-3.1a17.094,17.094,0,0,1,1.226-2.709,17.372,17.372,0,0,1,1.121-1.647c.155-.21.31-.419.461-.632a19.157,19.157,0,0,1,2.534-2.76c.251-.24.5-.482.757-.731a26.743,26.743,0,0,0,6.429-10.121c.126-.358.249-.731.368-1.091a12.181,12.181,0,0,1,2.536-4.97c2.657-2.686,6.984-2.375,10.457-1.8,10.041,1.653,14.832,3.958,17.884,5.781.955.571,1.894,1.2,2.8,1.811a31.108,31.108,0,0,0,5.619,3.233c4.223,1.692,8.968,1.423,13.557,1.164l.879-.049c9.585-.527,20.639-.384,29.947,4.667a55.62,55.62,0,0,1,7.911,5.471c3.36,2.672,6.775,5.622,8.378,9.706,1.183,3.015,1.216,6.314,1.248,9.5.029,2.994.06,6.09,1.056,8.9l.185.522-.549-.072c-4.2-.552-9.429-1.239-13.433-4.139a29.074,29.074,0,0,1-3.678-3.368c-.687-.706-1.4-1.436-2.135-2.1a23.455,23.455,0,0,0-18.775-5.767l-.263.038a5.638,5.638,0,0,1-3.32-.187,6.574,6.574,0,0,1-2.388-2.678c-.732-1.192-1.371-2.234-2.413-2.237a81.456,81.456,0,0,0,.269,19.761c.112.82.234,1.654.351,2.461.247,1.687.5,3.432.68,5.162.322,3.13.532,7.2-.716,10.9a14.951,14.951,0,0,1-1.091,2.465c-.038.068-.07.132-.1.193a1.84,1.84,0,0,1-.587.747,6.537,6.537,0,0,1-1.2.673,15.112,15.112,0,0,1-5.323.938C1758.408,1930.375,1758.157,1930.387,1757.9,1930.387Zm-32.957-55.065a6.572,6.572,0,0,1,3.464.839,8.407,8.407,0,0,1,2.43,2.5,19.622,19.622,0,0,1,2.646,4.874,14.438,14.438,0,0,0,.665,1.589c.13.272.265.543.4.813a19.786,19.786,0,0,1,1.1,2.5,18.614,18.614,0,0,1,.682,6.006c0,.639-.007,1.277-.016,1.9,0,.2-.014.406-.025.605a7.387,7.387,0,0,0,0,1.143l.016.147c.02.181.04.362.054.544.045.567.087,1.028.132,1.45a21.36,21.36,0,0,0,.471,2.835,10.274,10.274,0,0,0,1.588,3.61,4.974,4.974,0,0,0,.918.99,3.606,3.606,0,0,0,.983.491c.091.035.183.07.274.107l.411.162a12.851,12.851,0,0,1,1.755.794q.689.393,1.379.783c1.06.6,1.94,1.09,2.769,1.542,2.12,1.157,3.911,2.068,5.633,2.866.544.252,1.087.5,1.613.722l.425.183c2.27.974,4.617,1.98,5.943,4.076a3.594,3.594,0,0,1,.64,2.1c-.068,1.317-1.05,2.3-2.049,3.188l-2.939,2.62a2.065,2.065,0,0,0-.579.682,1.285,1.285,0,0,0,.76,1.467,4.429,4.429,0,0,0,2.123.232,14.592,14.592,0,0,0,5.087-.882,5.863,5.863,0,0,0,1.076-.6,1.192,1.192,0,0,0,.379-.506c.035-.067.071-.138.112-.213a14.247,14.247,0,0,0,1.042-2.353c1.2-3.557,1.019-7.361.684-10.614-.177-1.715-.431-3.453-.676-5.133-.118-.808-.24-1.644-.352-2.467a82.148,82.148,0,0,1-.24-20.207l.029-.259.257-.039c1.641-.248,2.508,1.167,3.348,2.534a6.106,6.106,0,0,0,2.11,2.425,5.07,5.07,0,0,0,2.924.124l.266-.038a24.139,24.139,0,0,1,19.323,5.935c.754.681,1.472,1.419,2.166,2.133a28.568,28.568,0,0,0,3.59,3.291c3.7,2.679,8.56,3.412,12.587,3.945a29.75,29.75,0,0,1-.922-8.6c-.031-3.129-.063-6.364-1.2-9.263-1.542-3.928-4.881-6.809-8.169-9.423a55,55,0,0,0-7.812-5.405c-9.159-4.971-20.1-5.107-29.586-4.586l-.877.049c-4.664.264-9.485.537-13.848-1.211a31.6,31.6,0,0,1-5.745-3.3c-.9-.6-1.831-1.23-2.771-1.792-3-1.793-7.717-4.06-17.646-5.694-3.311-.545-7.426-.855-9.864,1.61a11.685,11.685,0,0,0-2.374,4.706c-.12.363-.244.739-.372,1.1a27.411,27.411,0,0,1-6.593,10.379c-.255.251-.51.5-.765.738a18.632,18.632,0,0,0-2.45,2.663c-.154.216-.311.429-.468.642a16.865,16.865,0,0,0-1.079,1.582,16.466,16.466,0,0,0-1.177,2.6c-.366,1-.679,2.051-.982,3.062-.264.882-.536,1.8-.846,2.683q-.122.351-.253.7c-.208.548-.44,1.094-.665,1.623a19.261,19.261,0,0,0-1.25,3.573,6.12,6.12,0,0,0,.785,4.63,2.181,2.181,0,0,0,1.761.834h.024a7.148,7.148,0,0,0,4.581-1.828,9.558,9.558,0,0,0,.7-.665,12.159,12.159,0,0,0,1.62-2.163l.047-.079a9.118,9.118,0,0,0,.6-1.107,5.668,5.668,0,0,0,.3-1.2c.045-.258.092-.525.157-.779a25.014,25.014,0,0,1,.874-2.746c3.04-7.94,9.8-13.7,17.233-14.669A12.855,12.855,0,0,1,1724.941,1875.323Z" transform="translate(-1693.792 -1856.481)" fill="#999"/>
  </g>
  <g id="Group_163" data-name="Group 163" transform="translate(0 0)">
    <path id="Path_591" data-name="Path 591" d="M1666.886,1716.532a20.431,20.431,0,0,0-6.537,2.881,102.971,102.971,0,0,0-12.807,9.157c-2.171,1.818-4.366,3.882-5.114,6.613-.763,2.785.125,5.746,1.26,8.4,1.387,3.244,3.242,6.426,6.113,8.478,2.22,1.587,5.019,2.487,6.666,4.664a36.62,36.62,0,0,1,2.143,4.039c.761,1.323,2.015,2.553,3.542,2.562a4.231,4.231,0,0,0,3.517-2.664c.673-1.4.91-2.968,1.477-4.413,1.122-2.863,3.439-5.055,5.281-7.517s3.274-5.661,2.243-8.558a8.207,8.207,0,0,1-1.262,8.625,7.786,7.786,0,0,0-1.619,2.081,1.64,1.64,0,0,0,.8,2.2,18.454,18.454,0,0,1,7.056-4.537c-2.431,1.4-4.925,2.858-6.647,5.074a18.966,18.966,0,0,0-2.859,6.4c-.1.347-.31.642-.405.991a16.035,16.035,0,0,1-1.119,2.835c-1.065,2.186-2.12,4.491-2.054,6.922s1.616,5,4.015,5.395a1.042,1.042,0,0,0,.61-.038,1.18,1.18,0,0,0,.389-.351,26.9,26.9,0,0,0,4.706-7.436c.821-2.241.993-4.835,2.453-6.8a5.372,5.372,0,0,1,.842-.9c1.991-1.682,4.916-1.527,7.344-2.475,5.174-2.02,6.946-8.31,8.042-13.755.089,5.1-4.664,9.492-4.111,14.567a14.53,14.53,0,0,0,2.079,5.307l5.345,9.66c3.212,5.8,6.548,11.759,11.7,15.932,2.522,2.041,5.419,3.6,7.823,5.78a12.469,12.469,0,0,1,2.179,2.44,2.288,2.288,0,0,0,.228.365c.3.322.694.551.99.887a6.846,6.846,0,0,1,1.337,2.4,13.456,13.456,0,0,1,.536,4.25,15.547,15.547,0,0,1-.493,4.161,8.514,8.514,0,0,1-.774,1.9,6.838,6.838,0,0,1-.568.851.786.786,0,0,0-.16.969c.35.9,1.43,1.214,2.37,1.418,2.753.6,6.452.738,7.509-1.874a6.082,6.082,0,0,0,.133-3.045q-.628-4.948-1.256-9.9a24.474,24.474,0,0,0-1.577-6.934,37,37,0,0,1-1.763-3.764,14.31,14.31,0,0,1-.5-3.463q-.641-10.624-.379-21.276c.062-2.521.145-5.139-.862-7.45a17.559,17.559,0,0,0-2.519-3.782c-1.559-1.967-3.083-3.961-4.61-5.953-1.013-1.321-2.027-2.641-3.054-3.95q-.77-.981-1.55-1.953a9.643,9.643,0,0,0-1.357-1.491,5.655,5.655,0,0,1-.948-.848,11.025,11.025,0,0,1-1.016-1.872,41.806,41.806,0,0,0-2.386-4.192,27.712,27.712,0,0,0-4.006-4.774,29.764,29.764,0,0,0-13.673-7.38,28.322,28.322,0,0,0-3.872-.628q-.978-.089-1.961-.109c-.327-.006-.655,0-.983,0a.757.757,0,0,1-.418-.117c-.829-.436-1.7-.8-2.537-1.224q-.885-.448-1.758-.919-.5-.27-1-.547a6.56,6.56,0,0,0-.925-.5,2.413,2.413,0,0,0-.6-.077,7.511,7.511,0,0,1-.986-.219c-.878-.21-1.762-.4-2.656-.53A14.873,14.873,0,0,0,1666.886,1716.532Z" transform="translate(-1641.718 -1715.886)" fill="#fff"/>
    <path id="Path_592" data-name="Path 592" d="M1724.469,1814.006a15.125,15.125,0,0,1-3.193-.384c-1.091-.237-2.261-.622-2.674-1.678a1.2,1.2,0,0,1,.222-1.385,6.434,6.434,0,0,0,.532-.8,8.109,8.109,0,0,0,.735-1.8,14.938,14.938,0,0,0,.477-4.048,13.269,13.269,0,0,0-.515-4.117,6.375,6.375,0,0,0-1.252-2.248,3.7,3.7,0,0,0-.463-.414,4.606,4.606,0,0,1-.521-.466,1.462,1.462,0,0,1-.214-.319c-.019-.035-.037-.071-.06-.106a12.157,12.157,0,0,0-2.106-2.354,39.736,39.736,0,0,0-4.341-3.26c-1.157-.789-2.353-1.6-3.465-2.5-5.294-4.285-8.755-10.539-11.808-16.057l-5.345-9.66a14.971,14.971,0,0,1-2.13-5.467,8.932,8.932,0,0,1,.189-2.922,9.432,9.432,0,0,1-3.545,2.459,17.92,17.92,0,0,1-2.916.772,9.321,9.321,0,0,0-4.309,1.631,4.963,4.963,0,0,0-.776.83,11.875,11.875,0,0,0-1.7,4.3,24.777,24.777,0,0,1-.7,2.4,27.393,27.393,0,0,1-4.776,7.558,1.56,1.56,0,0,1-.538.467,1.442,1.442,0,0,1-.858.072,4.869,4.869,0,0,1-3.161-2.109,6.931,6.931,0,0,1-1.208-3.692c-.067-2.463.954-4.773,2.1-7.118a15.8,15.8,0,0,0,1.091-2.761,3.458,3.458,0,0,1,.234-.587,3.015,3.015,0,0,0,.174-.415,19.867,19.867,0,0,1,2.815-6.384l-.067-.018a1.6,1.6,0,0,1-1.016-.854,2.4,2.4,0,0,1-.074-1.915l.011-.029-.307.371a20.409,20.409,0,0,0-3.559,5.338c-.236.6-.419,1.245-.6,1.868a15.9,15.9,0,0,1-.894,2.574c-.676,1.406-2.05,2.9-3.883,2.9h-.019c-2.091-.012-3.429-1.944-3.907-2.774-.309-.537-.569-1.1-.822-1.648a9.27,9.27,0,0,0-5.394-5.419,26.07,26.07,0,0,1-2.472-1.5c-2.51-1.8-4.5-4.546-6.256-8.656-1.038-2.428-2.121-5.608-1.279-8.68.8-2.907,3.128-5.047,5.251-6.825a103.694,103.694,0,0,1,12.86-9.195,20.994,20.994,0,0,1,6.676-2.935,15.153,15.153,0,0,1,5.194-.014c.816.123,1.671.294,2.691.537.1.023.192.048.288.074a4.135,4.135,0,0,0,.641.136c.052.005.1.008.155.01a1.829,1.829,0,0,1,.547.089,4.156,4.156,0,0,1,.736.378c.085.051.169.1.253.149q.5.275.994.544c.58.312,1.168.62,1.749.914.373.189.763.371,1.14.546.463.215.941.438,1.4.681a.358.358,0,0,0,.226.068c.15,0,.3,0,.45,0,.179,0,.357,0,.535,0,.659.013,1.329.05,1.991.11a28.868,28.868,0,0,1,3.93.637,30.192,30.192,0,0,1,13.869,7.486,28.148,28.148,0,0,1,4.067,4.847,41.923,41.923,0,0,1,2.411,4.234c.085.168.166.34.248.513a6.685,6.685,0,0,0,.723,1.289,3.7,3.7,0,0,0,.653.6c.076.06.153.12.229.181a8.944,8.944,0,0,1,1.292,1.4l.127.159c.494.615,1,1.255,1.553,1.957,1.047,1.335,2.085,2.685,3.057,3.953l.367.479c1.38,1.8,2.806,3.662,4.238,5.469l.1.123a17.307,17.307,0,0,1,2.478,3.753c1.027,2.36.963,4.977.9,7.507l0,.123c-.174,7.053-.047,14.2.379,21.24a13.761,13.761,0,0,0,.485,3.361,14.248,14.248,0,0,0,1.037,2.292c.242.462.492.939.709,1.428a24.759,24.759,0,0,1,1.61,7.053l1.256,9.9a6.5,6.5,0,0,1-.161,3.257C1728.849,1812.531,1727.684,1814.006,1724.469,1814.006Zm-34.356-62.135a10.188,10.188,0,0,0-.922,4.974,14.325,14.325,0,0,0,2.028,5.148l5.346,9.66c3.016,5.45,6.434,11.627,11.6,15.808,1.085.878,2.266,1.684,3.409,2.463a40.361,40.361,0,0,1,4.432,3.332,12.931,12.931,0,0,1,2.252,2.527c.034.054.063.107.092.16a.73.73,0,0,0,.091.145,3.867,3.867,0,0,0,.428.379,4.357,4.357,0,0,1,.568.515,7.216,7.216,0,0,1,1.421,2.544,14.051,14.051,0,0,1,.557,4.384,15.759,15.759,0,0,1-.509,4.275,8.953,8.953,0,0,1-.813,1.993,7.254,7.254,0,0,1-.6.9c-.2.254-.211.269-.1.553.267.682,1.15.959,2.066,1.159,1.76.383,5.97.992,7.026-1.618a5.765,5.765,0,0,0,.105-2.833l-1.256-9.9a24.106,24.106,0,0,0-1.544-6.815c-.207-.464-.45-.929-.686-1.379a15.125,15.125,0,0,1-1.094-2.43,14.883,14.883,0,0,1-.523-3.565c-.426-7.065-.554-14.235-.38-21.312l0-.124c.061-2.438.123-4.959-.829-7.147a16.671,16.671,0,0,0-2.365-3.564l-.1-.123c-1.436-1.812-2.865-3.677-4.247-5.48l-.367-.479c-.971-1.266-2.006-2.615-3.051-3.946-.549-.7-1.055-1.337-1.547-1.949l-.129-.161a8.144,8.144,0,0,0-1.166-1.268c-.071-.058-.144-.115-.216-.171a4.411,4.411,0,0,1-.8-.743,7.442,7.442,0,0,1-.822-1.45c-.078-.166-.156-.331-.237-.492a41.2,41.2,0,0,0-2.362-4.15,27.316,27.316,0,0,0-3.945-4.7,29.346,29.346,0,0,0-13.477-7.274,28.033,28.033,0,0,0-3.814-.619c-.642-.058-1.291-.094-1.93-.107-.171,0-.343,0-.514,0-.156,0-.311,0-.466,0a1.171,1.171,0,0,1-.61-.165c-.444-.234-.912-.452-1.366-.663-.383-.178-.78-.363-1.165-.559-.586-.3-1.181-.608-1.767-.923q-.5-.271-1.005-.55c-.092-.052-.185-.107-.278-.163a3.5,3.5,0,0,0-.584-.306,1.132,1.132,0,0,0-.3-.04c-.064,0-.13-.007-.194-.013a4.872,4.872,0,0,1-.775-.16c-.089-.024-.179-.048-.267-.069-1-.237-1.829-.4-2.621-.523a14.336,14.336,0,0,0-4.906.008h0a20.28,20.28,0,0,0-6.4,2.828,102.827,102.827,0,0,0-12.754,9.12c-2.025,1.7-4.246,3.729-4.978,6.4-.772,2.819.258,5.822,1.241,8.123,1.693,3.961,3.59,6.6,5.969,8.3a25.443,25.443,0,0,0,2.393,1.452,10.059,10.059,0,0,1,5.75,5.8c.244.529.5,1.077.787,1.58a4.054,4.054,0,0,0,3.177,2.349h.013c1.442,0,2.581-1.3,3.12-2.424a15.026,15.026,0,0,0,.843-2.438c.182-.642.371-1.306.622-1.946a21.039,21.039,0,0,1,3.7-5.569c.552-.665,1.122-1.353,1.641-2.047,1.288-1.721,3.284-5.07,2.183-8.162l.785-.319a8.675,8.675,0,0,1-1.329,9.081c-.148.168-.3.332-.453.49a4.882,4.882,0,0,0-1.09,1.467,1.576,1.576,0,0,0,.042,1.22.84.84,0,0,0,.269.323,18.9,18.9,0,0,1,7.013-4.432l.354.766c-2.263,1.305-4.828,2.785-6.524,4.967a18.763,18.763,0,0,0-2.788,6.26,3.738,3.738,0,0,1-.22.534,2.758,2.758,0,0,0-.182.446,16.548,16.548,0,0,1-1.147,2.91c-1.1,2.248-2.073,4.453-2.012,6.725.058,2.165,1.443,4.623,3.66,4.988a.731.731,0,0,0,.362,0,.922.922,0,0,0,.239-.235,26.667,26.667,0,0,0,4.636-7.314c.27-.737.474-1.539.672-2.314a12.693,12.693,0,0,1,1.838-4.593,5.789,5.789,0,0,1,.909-.972,10.081,10.081,0,0,1,4.685-1.814,17.234,17.234,0,0,0,2.778-.732,9.533,9.533,0,0,0,4.678-4.213c.321-.787.685-1.562,1.044-2.33.2-.434.408-.87.605-1.31a43.4,43.4,0,0,0,1.454-5.591l.771-3.83.068,3.906a13.782,13.782,0,0,1-1.506,5.832A20.491,20.491,0,0,1,1690.114,1751.872Zm-17.749-7.737a15.608,15.608,0,0,1-1.288,2.225A7.367,7.367,0,0,0,1672.364,1744.135Z" transform="translate(-1639.636 -1713.807)" fill="#b3b3b3"/>
  </g>
  <g id="Group_164" data-name="Group 164" transform="translate(13.411 18.186)">
    <path id="Path_593" data-name="Path 593" d="M1728.133,1823.555a12.456,12.456,0,0,0-3.684-.415l-3.279-.041a.388.388,0,0,0-.3.08.377.377,0,0,0-.075.225,7.673,7.673,0,0,0,1.158,4.854c.585.153,1.12-.391,1.384-.935a3.586,3.586,0,0,1,.935-1.526,2.614,2.614,0,0,1,1.8-.212q1.838.21,3.691.237c.154,0,.308,0,.463,0a1.794,1.794,0,0,0,.442-.006c.231-.064-.053-.416-.126-.529a3.887,3.887,0,0,0-.981-1.015A5.118,5.118,0,0,0,1728.133,1823.555Z" transform="translate(-1720.421 -1822.76)" fill="#ccc"/>
    <path id="Path_594" data-name="Path 594" d="M1720.5,1826.962a1.14,1.14,0,0,1-.29-.038l-.128-.034-.072-.112a7.976,7.976,0,0,1-1.21-5.07.614.614,0,0,1,.714-.61l3.279.041a12.7,12.7,0,0,1,3.784.432h0a5.442,5.442,0,0,1,1.529.769,4.2,4.2,0,0,1,1.066,1.1l.029.042a.829.829,0,0,1,.213.72.449.449,0,0,1-.31.279,1.277,1.277,0,0,1-.424.023c-.038,0-.076,0-.109,0q-.233,0-.467,0c-1.24-.018-2.493-.1-3.724-.239a2.372,2.372,0,0,0-1.572.154,2.253,2.253,0,0,0-.648,1.006c-.057.132-.114.263-.175.39A1.835,1.835,0,0,1,1720.5,1826.962Zm-1.024-5.186a7.3,7.3,0,0,0,1.025,4.506c.333,0,.681-.369.875-.769.057-.117.11-.24.162-.362a2.815,2.815,0,0,1,.884-1.294,2.9,2.9,0,0,1,2.035-.271c1.209.138,2.439.217,3.657.235q.229,0,.458,0h.039l-.008-.013a3.53,3.53,0,0,0-.9-.925,4.775,4.775,0,0,0-1.339-.672,12.193,12.193,0,0,0-3.583-.4l-3.279-.041Z" transform="translate(-1718.758 -1821.098)" fill="#999"/>
  </g>
  <g id="Group_165" data-name="Group 165" transform="translate(0.999 21.246)">
    <path id="Path_595" data-name="Path 595" d="M1653.128,1842.209a3.768,3.768,0,0,0-3.016-1.01,4.643,4.643,0,0,0-2.07,1.338c-.265.249-.553.558-.506.919a1.25,1.25,0,0,0,.321.58,8.515,8.515,0,0,1,1.324,2.353,5.109,5.109,0,0,0,.713,1.548,6.273,6.273,0,0,0,1.134-2.551c0,.018.693.081.757.084a5.77,5.77,0,0,0,.78-.019,5.929,5.929,0,0,0,1.5-.339,5.839,5.839,0,0,0,.712-.317,2.421,2.421,0,0,0,.649-.414c.212-.232-.1-.347-.265-.464-.224-.155-.437-.324-.645-.5C1654.047,1843.021,1653.607,1842.593,1653.128,1842.209Z" transform="translate(-1647.192 -1840.807)" fill="#ccc"/>
    <path id="Path_596" data-name="Path 596" d="M1648.245,1846.825l-.274-.332a4.211,4.211,0,0,1-.666-1.353c-.034-.1-.068-.2-.1-.293a8.141,8.141,0,0,0-1.271-2.259l-.017-.022a1.486,1.486,0,0,1-.374-.725,1.5,1.5,0,0,1,.61-1.21,4.962,4.962,0,0,1,2.231-1.422,4.02,4.02,0,0,1,3.3,1.078h0c.283.227.553.469.815.7.189.169.384.344.578.509.229.194.426.346.619.479.023.016.049.031.076.048a.714.714,0,0,1,.4.479.533.533,0,0,1-.156.445,2.254,2.254,0,0,1-.643.434l-.1.051a6.245,6.245,0,0,1-2.341.693,6.131,6.131,0,0,1-.825.021c-.2-.009-.356-.021-.481-.036a6.626,6.626,0,0,1-1.124,2.367Zm.711-7a2.043,2.043,0,0,0-.433.046,4.381,4.381,0,0,0-1.909,1.254c-.213.2-.428.431-.4.628a.957.957,0,0,0,.232.39l.018.022a8.818,8.818,0,0,1,1.377,2.447c.037.1.072.2.108.3a6.385,6.385,0,0,0,.3.748,5.951,5.951,0,0,0,.792-2l.666.127a.336.336,0,0,0-.245-.387c.084.017.6.067.684.071a5.448,5.448,0,0,0,.732-.018,5.592,5.592,0,0,0,1.415-.319,5.527,5.527,0,0,0,.671-.3l.1-.054a3.09,3.09,0,0,0,.333-.188c-.031-.019-.061-.038-.089-.057-.211-.146-.425-.311-.671-.519-.2-.171-.4-.349-.594-.522-.255-.229-.518-.465-.786-.68A3.939,3.939,0,0,0,1648.956,1839.826Z" transform="translate(-1645.531 -1839.149)" fill="#999"/>
  </g>
  <path id="Path_597" data-name="Path 597" d="M1763.176,1885.389a3.638,3.638,0,0,0-1.306,1.924,4.379,4.379,0,0,0-.054.88l.014,2.27a8.081,8.081,0,0,1,1.551-2.563,9.943,9.943,0,0,0,.8-.772,3.12,3.12,0,0,0,.609-1.775,2.557,2.557,0,0,0-.022-.96c-.042-.115-.127-.23-.254-.152a3.728,3.728,0,0,0-.4.364C1763.807,1884.871,1763.484,1885.121,1763.176,1885.389Z" transform="translate(-1741.105 -1855.331)" fill="#1a1a1a"/>
  <path id="Path_598" data-name="Path 598" d="M1752.346,1977.791a3.607,3.607,0,0,0-1.107,1.057.64.64,0,0,0-.1.211.443.443,0,0,0,0,.211.554.554,0,0,0,.071.126.474.474,0,0,0,.032.044.647.647,0,0,0,.235.159,2.37,2.37,0,0,0,.269.11,2.434,2.434,0,0,0,.569.118,7.27,7.27,0,0,0,1.08-.093,1.158,1.158,0,0,0,.4-.094,11.138,11.138,0,0,0,1.187-.6c.228-.131.115-.3.185-.512.042-.124.148-.186.225-.284a.235.235,0,0,0-.05-.365,1.594,1.594,0,0,0-.676-.214l-.751-.162a2.245,2.245,0,0,0-.6-.073,1.71,1.71,0,0,0-.61.176A3.592,3.592,0,0,0,1752.346,1977.791Z" transform="translate(-1732.226 -1932.74)" fill="#1a1a1a"/>
  <path id="Path_599" data-name="Path 599" d="M1695.338,1906.025a3.638,3.638,0,0,1,2.058,1.084,4.391,4.391,0,0,1,.461.751l1.055,2.01a8.081,8.081,0,0,0-2.574-1.533,9.9,9.9,0,0,1-1.069-.306,3.12,3.12,0,0,1-1.373-1.28,2.562,2.562,0,0,1-.432-.858c-.017-.121,0-.262.153-.253a3.729,3.729,0,0,1,.523.133C1694.538,1905.865,1694.941,1905.933,1695.338,1906.025Z" transform="translate(-1684.336 -1873.125)" fill="#1a1a1a"/>
</svg>
