<svg xmlns="http://www.w3.org/2000/svg" width="353" height="353" viewBox="0 0 353 353">
  <g id="exhibition" transform="translate(-590.622 -1449.622)">
    <g id="Group_122" data-name="Group 122" transform="translate(590.622 1449.622)">
      <circle id="Ellipse_106" data-name="Ellipse 106" cx="176.5" cy="176.5" r="176.5" fill="#f2f0f0"/>
      <g id="Group_121" data-name="Group 121" transform="translate(50.672 48.832)">
        <path id="Path_507" data-name="Path 507" d="M646.553,1682.837q-.055.506-.1,1.014a11.6,11.6,0,0,0,.055,1.539,13.1,13.1,0,0,1-.276,2.151q-.159,1.149-.3,2.3-.279,2.308-.479,4.626c-.271,3.094-.45,6.2-.567,9.3-.233,6.224-.216,12.457-.18,18.686v.185c.051,8.65.15,17.443,2.428,25.7a2.209,2.209,0,0,0,.785,1.382,1.806,1.806,0,0,0,1.418-.025c8.047-2.353,16.45-2.543,24.763-2.718l97.208-2.052-10.757-70.985c-2.378-15.689-5.662-33.057-17.258-42.178a29.719,29.719,0,0,0-5.107-3.216,41.063,41.063,0,0,0-7.945-2.916c-1.361-.358-2.732-.664-4.109-.934q-1.033-.2-2.068-.38a14.027,14.027,0,0,0-1.671-.27,1.266,1.266,0,0,0-1.221.658,3.988,3.988,0,0,0-.126.662q-.126.654-.256,1.307-.26,1.308-.535,2.611-.551,2.607-1.158,5.2-.334,1.423-.686,2.844a6.922,6.922,0,0,1-.94,2.424c-.928,1.277-2.534,1.579-3.994,1.735a57.512,57.512,0,0,1-6.244.329c-2.453-.005-5.029-.209-7.1-1.681-2.527-1.793-3.816-5.092-4.963-8.2l-1.167-3.157-.574-1.554c-.113-.3-.162-.9-.51-1-.217-.065-.711.365-.9.481q-.491.3-.975.607c-2.6,1.656-5.079,3.529-7.627,5.277-1.369.94-2.758,1.844-4.192,2.655-8.727,4.93-16.853,11.34-22.778,20.157a59.8,59.8,0,0,0-6.666,13.293,62.083,62.083,0,0,0-2.364,8.535q-.44,2.181-.724,4.4Q646.617,1682.235,646.553,1682.837Z" transform="translate(-641.421 -1498.827)" fill="#437ba3"/>
        <g id="Group_114" data-name="Group 114" transform="translate(22.408)">
          <path id="Path_508" data-name="Path 508" d="M767.373,1591.426a4.363,4.363,0,0,0,3.69,2.39,2.344,2.344,0,0,1,.946.195,1.633,1.633,0,0,1,.626.778,4.8,4.8,0,0,1-6.051,6.513,4.679,4.679,0,0,1,2.343,2.17,2.518,2.518,0,0,1-.588,2.966,1.742,1.742,0,0,1-2.656-.749,5.321,5.321,0,1,1-2.7,10.24,28.138,28.138,0,0,1,6.287,7.789,4.5,4.5,0,0,1,.746,2.658,3.941,3.941,0,0,1-1.311,2.213c-2.264,2.195-6.133,3.131-8.563,1.122-.747-.618-1.3-1.766-.7-2.527a2.383,2.383,0,0,1,1.512,2.146,6.422,6.422,0,0,1-.564,2.71c-1.154,3.072-2.692,6.151-5.311,8.129s-6.559,2.523-9.133.488a1.3,1.3,0,0,1-.37-.4c-.3-.566.355-1.3.987-1.194a1.346,1.346,0,0,1,1,1.436,2.626,2.626,0,0,1-.9,1.644,6.388,6.388,0,0,1-5.586,1.42,11.116,11.116,0,0,1-5.194-2.83,8.647,8.647,0,0,1-3.147-5.451c-.172-2.144,1.262-4.5,3.4-4.733-1.719,1.729-3.662,3.565-6.094,3.733-2.2.154-4.264-1.134-5.855-2.669a8.866,8.866,0,0,1-2.725-4.386,4.474,4.474,0,0,1,1.654-4.646,11.124,11.124,0,0,1-4.664,4.9,5.874,5.874,0,0,1-3.122.837,3.073,3.073,0,0,1-2.635-1.663,2.106,2.106,0,0,1,.993-2.756,1.01,1.01,0,0,1-.663-1.279,2.846,2.846,0,0,1,.967-1.28c8.581-7.653,18.91-13.023,29.121-18.31a110.165,110.165,0,0,1,13.517-6.244c2.356-.84,4.823-1.548,6.815-3.062a9.907,9.907,0,0,1,2.982-1.988c1.156-.335,2.707.3,2.742,1.5" transform="translate(-663.968 -1498.761)"/>
          <path id="Path_509" data-name="Path 509" d="M704.1,1559.344c-.036-.044-.076-.085-.116-.126a3.517,3.517,0,0,1-.62-.857,7.829,7.829,0,0,1-.879-3.252,8.011,8.011,0,0,1,.095-1.7,7.569,7.569,0,0,1,.184-.832,3.364,3.364,0,0,1,.282-.8c.113-.191.263-.339.364-.541a6.62,6.62,0,0,1,.383-.658,6.931,6.931,0,0,1,.984-1.177,6.254,6.254,0,0,1,2.564-1.52,4.264,4.264,0,0,1,2.823.118c.06.025.119.051.178.079.325-11,1.8-22.307,7.314-31.828s15.826-16.9,26.805-16.222c5.122.316,9.969,2.3,14.783,4.077,8.711,3.214,17.755,5.875,25.563,10.9s14.39,13,15.008,22.259c.3,4.454-.787,8.878-2.03,13.164a173.146,173.146,0,0,1-27.473,55.23c-6.41,8.589-14.9,17.215-25.612,17.526-2.889.085-5.791-.46-8.661-.112a18.3,18.3,0,0,0-10.406,5.512,20.8,20.8,0,0,0-1.861,1.947,1.091,1.091,0,0,0-.23.805c.022,1.877.209,3.7-.668,5.447a9.25,9.25,0,0,1-3.634,3.524,16.71,16.71,0,0,1-7.733,2.581c-3.361.172-6.716.029-9.789-1.561a10.7,10.7,0,0,1-3.48-2.834,8.745,8.745,0,0,1-1.188-1.98c-.314-.735-.354-1.385-.982-1.941a9.509,9.509,0,0,1-2.778-4.572,7.265,7.265,0,0,1,1.067-6.5c.8-.986,1.057-2.62,1.49-3.822.512-1.423,1.035-2.843,1.485-4.288q1.573-5.055,2.75-10.223a137.566,137.566,0,0,0,3.1-20.932c.376-5.341.588-10.744,1.5-16.042q.447-2.6,1.114-5.152a10.125,10.125,0,0,0,.6-2.07c.008-.183-.029-.163-.182-.216-.1-.035-.2-.071-.3-.109a10.714,10.714,0,0,1-1.095-.492,1.139,1.139,0,0,1-.568-.544c-.025-.051-.049-.1-.077-.151A.811.811,0,0,0,704.1,1559.344Z" transform="translate(-663.928 -1498.574)" fill="#99452d"/>
          <path id="Path_510" data-name="Path 510" d="M773.578,1531.4q-.189,7.16-.376,14.318a6.3,6.3,0,0,1-.432,2.724,12.26,12.26,0,0,0-.842,4.308,58.136,58.136,0,0,1-.506,6.219q-.31,1.75-.772,3.468a40.6,40.6,0,0,1-2.4,6.575,15.994,15.994,0,0,0-1.273,2.72,9.466,9.466,0,0,0-.223,1.238,9.917,9.917,0,0,0,.044,2.509,9.8,9.8,0,0,0,1.926,4.591c.072.093.146.185.222.274,1.027,1.222,2.392,2.248,2.9,3.758a7.762,7.762,0,0,1,.236,2.776,2.52,2.52,0,0,1-.236,1.174,2.218,2.218,0,0,1-.912.776c-1.857,1.009-4.243,1.521-5.2,3.406-.479.945-.513,2.041-.955,3a1.775,1.775,0,0,1-.885.994,10.1,10.1,0,0,1-1.659.249,15.6,15.6,0,0,0-2.937.814,12.55,12.55,0,0,0-4.949,3.38,22.235,22.235,0,0,0-2.751,4.374l-4.079,7.763c-.676,1.285-1.424,2.557-2.035,3.875a12.166,12.166,0,0,0-.365,1.24,7.961,7.961,0,0,1-1,1.689q-.647.97-1.351,1.9a1.9,1.9,0,0,0-.528,1.389c.015.074.041.217.129.246a.766.766,0,0,0,.158.018,5.711,5.711,0,0,0,.772.033c.146,0,.277.032.423.034s.281,0,.422-.005c.282-.011.564-.036.845-.065l.4-.043,1.853-.206c.54-.06,1.08-.121,1.615-.216.267-.048.534-.1.8-.175a1.562,1.562,0,0,0,.377-.117,2.532,2.532,0,0,1,.327-.137c.068-.027.115-.069.18-.1s.123-.054.185-.08q.187-.076.378-.141c.255-.088.514-.164.772-.24.208-.06.414-.121.62-.187a2.348,2.348,0,0,0,.662-.3c.082-.058.125-.132.217-.177.129-.063.256-.129.384-.195q.755-.389,1.485-.818.416-.245.825-.5c6.907-4.356,12.085-10.931,16.887-17.536,2.973-4.09,5.857-8.253,8.43-12.609a82.392,82.392,0,0,0,4.936-9.668c.706-1.664,1.344-3.355,1.9-5.074a5.9,5.9,0,0,1,.831-1.911,14.552,14.552,0,0,0,1.374-2.569c.882-1.837,1.7-3.7,2.491-5.579,1.231-2.941,2.372-5.92,3.513-8.9a43.51,43.51,0,0,0,2.818-9.437c.187-1.333.249-2.681.311-4.026l.111-2.406a5.864,5.864,0,0,1,.091-1.04c.047-.2.131-.4.168-.606a5.421,5.421,0,0,0-.171-1.8,26.685,26.685,0,0,0-1.265-4.683,28.353,28.353,0,0,0-4.742-8.219,27.535,27.535,0,0,0-7.221-6.194,34.489,34.489,0,0,0-13.433-4.244c-.6,1.459.06,3.09.4,4.631a22.456,22.456,0,0,1,.3,5.425Z" transform="translate(-664.028 -1498.601)" fill="#6e311f"/>
          <path id="Path_511" data-name="Path 511" d="M754.31,1594.217a22.575,22.575,0,0,0,9.361,1.724c-6.376,3.455-8.84,11.361-14.167,16.28a4.306,4.306,0,0,1-1.584,1.039,3.622,3.622,0,0,1-2.142-.115c-2.815-.894-4.77-3.456-6.114-6.087a28.5,28.5,0,0,1-2.641-17.619c.119-.69.228-2.771.943-3.131s2.68,1.362,3.333,1.752q1.877,1.12,3.818,2.131A74.82,74.82,0,0,0,754.31,1594.217Z" transform="translate(-664.017 -1498.75)" fill="#6a0e00"/>
          <path id="Path_512" data-name="Path 512" d="M754.3,1594.233a22.588,22.588,0,0,0,9.362,1.725c-.224.121-.442.247-.659.38a15.827,15.827,0,0,0-2.568,1.99q-.3.278-.578.571c-.091.093-.177.191-.267.282s-.164.058-.277.048a9.093,9.093,0,0,1-1.693-.372,97.555,97.555,0,0,1-15.07-6.349l-.433-.212c-1.069-.524-2.135-1.058-3.16-1.663-.511-.3-1.012-.621-1.5-.964-.121-.086-.245-.17-.36-.263-.047-.039-.057-.046-.062-.1a2.363,2.363,0,0,1,.056-.432,10.954,10.954,0,0,1,.262-1.5c.1-.358.241-.861.6-1.044.717-.361,2.68,1.362,3.332,1.753q1.879,1.121,3.818,2.13A74.93,74.93,0,0,0,754.3,1594.233Z" transform="translate(-664.018 -1498.75)" fill="#fff" opacity="0.99"/>
          <path id="Path_513" data-name="Path 513" d="M744.7,1603.178a1.408,1.408,0,0,0,.764.033c.247-.06.48-.169.711-.018.088.059.158.145.242.208a6.005,6.005,0,0,0,.947.509,4.766,4.766,0,0,1,2.69,2.424,4.93,4.93,0,0,1,.134,1.78,12.3,12.3,0,0,1-.351,2.813,9.552,9.552,0,0,1-.509,1.236,1.9,1.9,0,0,1-.774.929,2.833,2.833,0,0,1-1.986.182,8.215,8.215,0,0,1-4.37-2.746,21.39,21.39,0,0,1-2.8-4.425c-.22-.427-.437-.856-.617-1.3a5.1,5.1,0,0,0-.2-.525c-.089-.162-.174-.326-.25-.494a7.42,7.42,0,0,1-.471-1.34c-.058-.229-.1-.462-.14-.7a3.483,3.483,0,0,1-.071-.693,3.359,3.359,0,0,1,1.77-.045,17.456,17.456,0,0,1,2.113.5,4.4,4.4,0,0,1,1.116.383c.39.258.77.533,1.156.8A3.447,3.447,0,0,0,744.7,1603.178Z" transform="translate(-664.019 -1498.78)" fill="#ff948a" opacity="0.8"/>
          <path id="Path_514" data-name="Path 514" d="M746.683,1557.777a9.3,9.3,0,0,1,5.15.707,5.31,5.31,0,0,1,3.1,3.63,8.022,8.022,0,0,1,.036,4.347,7.478,7.478,0,0,0-7.226-5.368,13.371,13.371,0,0,0-2.743.455c-.991.242-2.014.642-3.019.788a4.511,4.511,0,0,1,1.414-2.793A6.028,6.028,0,0,1,746.683,1557.777Z" transform="translate(-664.028 -1498.692)" opacity="0.8"/>
          <path id="Path_515" data-name="Path 515" d="M783.849,1571.127a8.145,8.145,0,0,0-3.751-2.567,4.641,4.641,0,0,0-4.137.533,7.013,7.013,0,0,0-2.577,2.8,6.537,6.537,0,0,1,7.833.766,11.59,11.59,0,0,1,1.509,1.905c.5.74.928,1.6,1.493,2.283a3.95,3.95,0,0,0,.724-2.64A5.276,5.276,0,0,0,783.849,1571.127Z" transform="translate(-664.092 -1498.714)" opacity="0.8"/>
          <path id="Path_516" data-name="Path 516" d="M784.285,1560.065c2.376.184,4.9.422,6.787,1.879a2.922,2.922,0,0,0-.305-3.552,8.539,8.539,0,0,0-3.206-2.087c-1.724-.782-3.451-1.564-5.218-2.245-1.366-.527-3.009-1.372-4.51-1-3.5.875-1.551,4.586.63,5.742A14.692,14.692,0,0,0,784.285,1560.065Z" transform="translate(-664.097 -1498.682)" fill="#241600" opacity="0.9"/>
          <path id="Path_517" data-name="Path 517" d="M748.36,1550c-2.615-1.039-5.42-2.111-8.275-1.977-.251-1.13.982-2.12,2.436-2.441a14.082,14.082,0,0,1,4.621.058c2.284.281,4.571.562,6.84.936,1.754.289,3.989.483,5.349,1.5,3.17,2.364-1.093,4.111-4.081,3.878A23.914,23.914,0,0,1,748.36,1550Z" transform="translate(-664.024 -1498.667)" fill="#241600" opacity="0.9"/>
          <path id="Path_518" data-name="Path 518" d="M747.623,1498.937c-8.219-1.189-17.266.43-23.245,6.194a39.611,39.611,0,0,0-4.43,5.387c-4.971,6.859-9.882,14.048-11.846,22.288a27.085,27.085,0,0,0-.679,4.2,16.756,16.756,0,0,1-.156,2.012c-.21,1.043-.125,2.167-.415,3.182-.1.36-.249.681-.318,1.055-.216,1.176-.315,2.388-.43,3.578a1.35,1.35,0,0,0,.2,1.072c.454.481,1.232.085,1.847-.159a2.672,2.672,0,0,1,2.431.116c3.016,1.913,6.27.679,9.207-.792q5.419-2.715,10.788-5.527,1.314-.689,2.626-1.382c.182-.1.489-.352.725-.352a1.923,1.923,0,0,1,.51.2c.187.068.376.126.568.177a13.809,13.809,0,0,0,4.721.129,141.011,141.011,0,0,0,19.82-2.8,63.155,63.155,0,0,0,8.934-2.775,46.855,46.855,0,0,0,8.332-4.283c.158-.1.314-.206.469-.311.128-.087.355-.319.5-.345.247-.043.687.438.886.6q.945.753,1.838,1.567a31.487,31.487,0,0,1,3.313,3.5,27.077,27.077,0,0,1,1.959,2.756c2.549,4.116,3.9,8.84,5.229,13.5l3.573,12.55a30.105,30.105,0,0,0,5.432-13.15,69.063,69.063,0,0,0,.687-14.323c-.1-3.059-.3-6.2-1.611-8.969-1.352-2.846-3.771-5.033-6.261-6.966-2.709-2.1-5.573-4-8.433-5.9l-6.751-4.473a31.393,31.393,0,0,0-3.607-2.16,12.566,12.566,0,0,0-1.9-.747,11.144,11.144,0,0,1-1.8-.529q-.949-.455-1.9-.906c-1.269-.6-2.543-1.2-3.824-1.774-2.557-1.15-5.147-2.228-7.8-3.142a52.011,52.011,0,0,0-8.085-2.123Q748.184,1499.019,747.623,1498.937Z" transform="translate(-663.954 -1498.571)"/>
          <path id="Path_519" data-name="Path 519" d="M706.35,1560.664a4.364,4.364,0,0,1-3.465-2.705,2.318,2.318,0,0,0-.493-.83,1.641,1.641,0,0,0-.94-.338,4.8,4.8,0,0,0-4.178,7.847,4.677,4.677,0,0,0-2.817-1.5,2.516,2.516,0,0,0-2.611,1.524,1.742,1.742,0,0,0,1.576,2.266,5.321,5.321,0,1,0-8.8,5.894,28.129,28.129,0,0,0-9.417-3.4,4.5,4.5,0,0,0-2.755.163,3.95,3.95,0,0,0-1.664,1.963c-1.334,2.857-.955,6.818,1.738,8.459.828.5,2.092.648,2.616-.167a2.382,2.382,0,0,0-2.522-.728,6.43,6.43,0,0,0-2.378,1.418c-2.526,2.094-4.934,4.555-5.947,7.675s-.242,7.023,2.523,8.792a1.317,1.317,0,0,0,.5.219c.632.1,1.109-.76.805-1.323a1.344,1.344,0,0,0-1.683-.471,2.615,2.615,0,0,0-1.258,1.388,6.386,6.386,0,0,0,.482,5.743,11.115,11.115,0,0,0,4.372,3.984,8.641,8.641,0,0,0,6.18,1.194c2.081-.538,3.84-2.664,3.362-4.759-1.072,2.19-2.173,4.625-1.538,6.979.575,2.135,2.466,3.661,4.436,4.663a8.858,8.858,0,0,0,5.036,1.143,4.476,4.476,0,0,0,3.85-3.081,11.12,11.12,0,0,0-3.1,6.008,5.878,5.878,0,0,0,.23,3.224,3.069,3.069,0,0,0,2.432,1.946,2.1,2.1,0,0,0,2.279-1.838,1.01,1.01,0,0,0,1.426.208,2.849,2.849,0,0,0,.894-1.331c4.431-10.61,6.13-22.128,7.791-33.505a110.343,110.343,0,0,0,1.486-14.815c.024-2.5-.114-5.065.667-7.441a9.889,9.889,0,0,0,.9-3.469c-.061-1.2-1.166-2.461-2.314-2.1" transform="translate(-663.869 -1498.69)"/>
          <path id="Path_520" data-name="Path 520" d="M749.8,1506.875c-3.418-.392-6.991-.411-10.166.911a22.073,22.073,0,0,0-6.5,4.667,81.669,81.669,0,0,0-17.487,24.209c.111-.233,1.617.193,1.929.053.239-.108.368-.34.561-.5a1.9,1.9,0,0,1,.976-.4c1.554-.306,2.431-1.569,3.312-2.777a26.622,26.622,0,0,1,7.564-6.977,3.654,3.654,0,0,0,1.607-1.393,7.894,7.894,0,0,1,3.113-2.724,31.562,31.562,0,0,1,8.79-4.111L732.33,1526.8c-.715.573-1.293,1.339-2.02,1.875-.662.489-1.339.939-1.984,1.46a19.431,19.431,0,0,0-2.152,1.949,9.043,9.043,0,0,0-.873,1.106c-.2.3-.4,1.038-.658,1.245a57.078,57.078,0,0,1,26.781-11.813c-5.136,2.786-10.273,5.573-15.354,8.461-1.786,1.016-3.639,2.114-4.714,3.864.453.188.907.418,1.372.573,1.381.459,3.4.016,4.81-.238a51.324,51.324,0,0,0,9.964-3.234l14.073-5.656a24.076,24.076,0,0,0,6.845-3.654c2.133-1.819,4.844-6.245,2.053-8.591-2.07-1.739-4.9-2.834-7.371-3.845a50.526,50.526,0,0,0-10.558-3.029Q751.18,1507.034,749.8,1506.875Z" transform="translate(-663.974 -1498.588)" fill="#5e3a00" opacity="0.63"/>
        </g>
        <g id="Group_116" data-name="Group 116" transform="translate(124.966 63.45)">
          <path id="Path_521" data-name="Path 521" d="M784.594,1562.443a13.714,13.714,0,0,0-8.916,1.294,16.147,16.147,0,0,0-7.97,7.2c-1.6,3.279-1.49,7.528.872,10.311a2.914,2.914,0,0,0,1.179.918,3.183,3.183,0,0,0,1.28.114c3.495-.217,13.232,2.07,15.2.452s-.108-8.6,2.376-11.064a7.3,7.3,0,0,0,1.735-2.241,3.069,3.069,0,0,0-.208-1.979,7.215,7.215,0,0,0-2.958-3.843A8.25,8.25,0,0,0,784.594,1562.443Z" transform="translate(-766.635 -1562.151)" fill="#003b4f"/>
          <path id="Path_522" data-name="Path 522" d="M791.582,1572.815q-.492-.627-1.006-1.238-.344-.411-.7-.809a1.374,1.374,0,0,0-.362-.335c-.157-.086-.317-.164-.481-.234a9.184,9.184,0,0,0-2.083-.572c-4.675-.812-9.137-.331-11.868,2.095-2.031,1.805-2.968,4.779-2.328,8.172a13.058,13.058,0,0,0,.783,2.59c.1.232.186.5.309.738a1.135,1.135,0,0,0,.324.334q.284.231.568.464c1.508,1.24,2.975,2.538,4.4,3.874s2.827,2.716,4.193,4.117,2.714,2.833,4.041,4.273,2.638,2.893,3.946,4.347c.418.465.882.885,1.328,1.322.234.231.464.465.679.713a4.234,4.234,0,0,1,.339.4c.091.133.129.281.22.416a2.723,2.723,0,0,0,.608.657,1.107,1.107,0,0,1,.246.355l.27.468,1.114,1.932a4.552,4.552,0,0,0,1,1.329c.524.421,1.23.606,1.675,1.111a.544.544,0,0,0,.263.21.468.468,0,0,0,.274-.052,25.864,25.864,0,0,0,6.548-3.921c.81-.669,1.576-1.39,2.341-2.111l1.889-1.778a5.159,5.159,0,0,0,1.444-1.855.951.951,0,0,0,.062-.564,1.151,1.151,0,0,0-.352-.493l-2.476-2.415-.809-.788a3.489,3.489,0,0,1-.65-.692,2.059,2.059,0,0,1-.154-.53,4.032,4.032,0,0,0-.324-.779,17.244,17.244,0,0,0-1.306-2.136c-.626-.9-1.287-1.779-1.853-2.721a5.144,5.144,0,0,0-.4-.673c-.054-.065-.114-.128-.168-.193l-.35-.427q-.349-.428-.7-.857-.695-.859-1.383-1.723-1.376-1.729-2.723-3.48t-2.665-3.526q-.428-.576-.853-1.155c-.841-1.147-1.674-2.3-2.544-3.424C791.807,1573.1,791.695,1572.958,791.582,1572.815Z" transform="translate(-766.648 -1562.165)" fill="#13282e"/>
          <path id="Path_523" data-name="Path 523" d="M846.851,1687.975c0,1.786-1.178,3.473-3.293,4.99-5.748,4.122-18.422,6.986-33.132,6.986s-27.384-2.864-33.132-6.986c-2.116-1.517-3.293-3.2-3.293-4.99a4.838,4.838,0,0,1,1.148-2.994c4.042-5.17,18.3-8.982,35.278-8.982s31.236,3.812,35.278,8.982A4.837,4.837,0,0,1,846.851,1687.975Z" transform="translate(-766.65 -1562.383)" fill="#006182"/>
          <path id="Path_524" data-name="Path 524" d="M846.851,1688v9.98c0,4.171-6.467,7.834-16.287,9.979a102.59,102.59,0,0,1-40.278,0c-9.82-2.146-16.287-5.808-16.287-9.979V1688c0,1.786,1.178,3.473,3.293,4.99,5.748,4.121,18.422,6.986,33.132,6.986s27.384-2.864,33.132-6.986C845.674,1691.473,846.851,1689.786,846.851,1688Z" transform="translate(-766.65 -1562.407)" fill="#003b4f"/>
          <path id="Path_525" data-name="Path 525" d="M865.037,1696.835q4.6-.334,9.2-.539c2-.09,4.336-.01,5.534,1.595.491-12.993-3.751-26.265-12.355-36.016q-.416-.471-.846-.931a45.159,45.159,0,0,0-16.766-11.273,42.461,42.461,0,0,0-9.8-2.477,39.614,39.614,0,0,0-5.066-.319c-.528,0-1.775.317-1.912-.374a4.232,4.232,0,0,1,.126-1.292q.1-.727.224-1.453a51.377,51.377,0,0,1,1.328-5.8q.41-1.412.9-2.8a14.27,14.27,0,0,1,1.06-2.744c14.819.078,29.01,7.563,39.144,18.375s16.519,24.7,20.408,39,5.428,29.118,6.952,43.858l-62.659,1.736c-18.114.5-36.577,1.066-53.652,7.134l4.3-1.936,7.231-3.253,7.231-3.252,7.232-3.253,7.231-3.253,7.231-3.252,7.232-3.253,7.231-3.253,7.232-3.252,3.616-1.627,1.807-.813a8.675,8.675,0,0,0,1.416-.7c.2-.141.675-.562.465-.852a3.013,3.013,0,0,0-.652-.476l-1.348-.977-2.7-1.953c-.5-.365-1.009-.732-1.507-1.107a25.556,25.556,0,0,1-2.835-2.419c-.434-.439-.791-.948-1.215-1.391-.19-.2-.535-.113-.8-.112l-1.055.005a.436.436,0,0,1-.287-.068.426.426,0,0,1-.111-.242l-1.028-4.675a15.076,15.076,0,0,0-.806-2.794,11.12,11.12,0,0,0,3.64-3.391c.2-.3.362-.647.731-.76a5.583,5.583,0,0,1,2.285.037,12.978,12.978,0,0,1,4.3,1.491,30.043,30.043,0,0,1,5.584,4.213c.388.35.628.814,1.08,1.091a1.251,1.251,0,0,0,1.053.207,5.8,5.8,0,0,1,1.343-.17Q863.517,1696.946,865.037,1696.835Z" transform="translate(-766.677 -1562.294)" fill="#13282e"/>
          <g id="Group_115" data-name="Group 115" transform="translate(36.392 109.694)">
            <path id="Path_526" data-name="Path 526" d="M803.1,1696.949l3.417-24.755,9.807-.125,4.709,24.578Z" transform="translate(-803.102 -1672.068)" fill="#c9ecff"/>
            <path id="Path_527" data-name="Path 527" d="M814.812,1683.14a9.642,9.642,0,0,0,.459-7.455c-1.507,2.844-3.409,5.579-4.955,8.413a18.911,18.911,0,0,0-2.743,8.842,1.43,1.43,0,0,0,1.134,1.587,1.888,1.888,0,0,0,.238-.65,3.847,3.847,0,0,1,0-.526,6.534,6.534,0,0,1,.247-1.159,10.3,10.3,0,0,1,1.029-2.228c.89-1.492,2.054-2.893,3.078-4.339A19.273,19.273,0,0,0,814.812,1683.14Z" transform="translate(-803.111 -1672.076)" fill="#e8f7ff" opacity="0.94"/>
          </g>
          <path id="Path_528" data-name="Path 528" d="M817.8,1678.266l-1.367,1.607-1,1.168-1.617,1.9h-3.792l-1.617-1.807-1.028-1.148-1.557-1.746-.02-1.1-.309-25.079,11.976-.15.309,25.079Z" transform="translate(-766.715 -1562.333)" fill="#13282e"/>
          <ellipse id="Ellipse_107" data-name="Ellipse 107" cx="24" cy="28.5" rx="24" ry="28.5" transform="translate(26.362 35.718)" fill="#13282e"/>
          <path id="Path_529" data-name="Path 529" d="M817.728,1679.794l-1.367,1.607-1,1.168-1.617,1.9h-3.792l-1.617-1.806-1.028-1.148-1.557-1.746-.02-1.1-.31-25.079,11.976-.15.309,25.079Z" transform="translate(-766.714 -1562.337)" fill="#13282e" opacity="0.61"/>
        </g>
        <g id="Group_117" data-name="Group 117" transform="translate(0 140.89)">
          <path id="Path_530" data-name="Path 530" d="M642.412,1706.742c4.145,23.609,22.178,45.049,46.22,45.087,12.293.019,24.471-5.364,35.694-11.642,16.354-9.149,31.614-20.382,46.521-31.985,4.707-3.664,9.483-7.473,12.8-12.447s4.951-11.413,2.746-16.486c-1.575-3.621-4.824-6.062-7.959-8.361-1.675-1.229-3.762-2.507-5.827-1.639a7.727,7.727,0,0,0-2.65,2.3c-18.734,21.941-43.789,38.416-70.629,46.441-3.011.9-6.413,1.656-8.913.095-2.35-1.467-3.13-4.51-3.665-7.322a161.853,161.853,0,0,1-2.735-35.158c.175-5.8.734-11.589,1.407-17.4.417-3.6,1.118-7.67-.194-11.008-1.352-3.44-5.313-6.476-8.872-7.288-4.944-1.129-10.278,3.189-14.056,6.4a58.883,58.883,0,0,0-17.012,25.732A70.139,70.139,0,0,0,642.412,1706.742Z" transform="translate(-641.415 -1639.749)" fill="#003e6a"/>
        </g>
        <g id="Group_118" data-name="Group 118" transform="translate(2.389 140.505)">
          <path id="Path_531" data-name="Path 531" d="M644.806,1702.164c4.146,23.608,22.178,45.049,46.221,45.086,12.292.019,24.471-5.364,35.693-11.642,16.354-9.148,31.614-20.381,46.521-31.985a67.579,67.579,0,0,0,10.838-9.821,11.223,11.223,0,0,0,1.7-2.354,12.159,12.159,0,0,0,.678-2.249,16.189,16.189,0,0,0,.362-4.614,14.311,14.311,0,0,0-3.091-8.145,20.769,20.769,0,0,0-3.447-3.2,15.982,15.982,0,0,0-7.038-3.442c-1.152-.186-3.063-.424-3.958.621a131.46,131.46,0,0,1-18.641,17.4,148.5,148.5,0,0,1-48.924,25.615c-3.011.9-6.413,1.654-8.913.095-2.35-1.468-3.13-4.511-3.665-7.322a161.876,161.876,0,0,1-2.735-35.159c.078-2.571.231-5.145.437-7.721.161-2.011.353-4.022.566-6.033a10.627,10.627,0,0,0,.141-3.793,20.668,20.668,0,0,1-.153-4.47,7.683,7.683,0,0,0-.3-2.432,5.923,5.923,0,0,0-1.325-1.986,15.891,15.891,0,0,0-9.271-5.11,13.76,13.76,0,0,0-6.54.659,13.2,13.2,0,0,0-2.987,1.5,7.289,7.289,0,0,0-1.119.98c-.814.826-1.916,1.278-2.81,2.02a26.91,26.91,0,0,0-4.043,4.556l-3.138,4.126c-1.242,1.634-2.662,2.953-3.976,4.544a18.29,18.29,0,0,0-2.009,4.032q-1.23,2.739-2.2,5.566A70.144,70.144,0,0,0,644.806,1702.164Z" transform="translate(-643.809 -1639.364)" fill="#579dd4"/>
        </g>
        <g id="Group_120" data-name="Group 120" transform="translate(1.155 125.565)">
          <g id="Group_119" data-name="Group 119" transform="translate(0 13.456)" opacity="0.68">
            <path id="Path_532" data-name="Path 532" d="M643.569,1704.869c4.145,23.608,22.178,45.049,46.221,45.086,12.293.019,24.471-5.364,35.693-11.642,16.355-9.148,31.615-20.381,46.521-31.985,4.707-3.663,9.484-7.473,12.8-12.447s4.952-11.412,2.747-16.484c-1.575-3.623-4.824-6.062-7.959-8.361-1.675-1.229-3.763-2.508-5.827-1.64a7.738,7.738,0,0,0-2.65,2.3c-18.734,21.94-43.789,38.415-70.63,46.441-3.01.9-6.413,1.655-8.912.095-2.351-1.468-3.13-4.511-3.666-7.322a161.863,161.863,0,0,1-2.734-35.159c.175-5.8.735-11.588,1.406-17.4.417-3.6,1.119-7.67-.194-11.007-1.351-3.439-5.312-6.475-8.871-7.287-4.944-1.129-10.278,3.188-14.056,6.4a58.873,58.873,0,0,0-17.012,25.73A70.144,70.144,0,0,0,643.569,1704.869Z" transform="translate(-642.572 -1637.876)" fill="#3878a6"/>
          </g>
          <path id="Path_533" data-name="Path 533" d="M787.818,1642.943a19.345,19.345,0,0,0,1.107-2.541c.2-.761.389-1.507.665-2.257.388-1.06,1.037-2.123,1.328-3.2a13.368,13.368,0,0,0,.223-1.9c.041-.348-.02-1.452.2-1.7a15.859,15.859,0,0,1,2.23-6.061,2.01,2.01,0,0,1,3.669.907,6.645,6.645,0,0,1-.058,2.609c-.387,2.483-1,5.04-1.164,7.545.526-.207.948-.959,1.222-1.44a15.993,15.993,0,0,1,1.449-2.283c.338-.412.662-.837.992-1.255l1.922-2.432a11.072,11.072,0,0,1,3.012-2.943,1.642,1.642,0,0,1,1.668-.165c.676.447.506,1.47.237,2.234a43.472,43.472,0,0,1-3.584,7.677c-.687,1.161-1.429,2.293-2.018,3.509-.16.331-.731,1.132-.284,1.417.472.3.982-.649,1.233-.931a34.066,34.066,0,0,1,6.5-5.649c.808-.54,1.8-.881,2.574-1.434.1-.072.13-.214.248-.275a.813.813,0,0,1,.919.067,1.811,1.811,0,0,1,.471,1.267,3.609,3.609,0,0,1-.837,3.005,5.523,5.523,0,0,1-.862.446c-1.086.608-1.644,1.929-2.617,2.7a10.494,10.494,0,0,0-1.981,1.727c-1.1,1.414-2.37,2.962-2.5,4.841a5.628,5.628,0,0,1,1.07-.9c.417-.338.78-.775,1.177-1.141.9-.829,1.91-1.527,2.806-2.35.258-.237.425-.561.687-.79a1.533,1.533,0,0,1,2.225.213c.649.944-.234,2.156-.968,3.037-3.651,4.376-4.519,10.244-7.156,15.171a82.863,82.863,0,0,1-5.16,7.684q-2.832,4.1-5.532,8.3-1.087,1.69-2.152,3.394-.533.851-1.06,1.707a2.257,2.257,0,0,1-.221.405c-.134.137-.09.056-.236.023-.162-.036-.26-.026-.388-.153a3.154,3.154,0,0,1-.369-.513c-.454-.7-.788-1.467-1.211-2.184a14.049,14.049,0,0,0-2.551-3.068c-.5-.465-1.013-.908-1.537-1.341-.952-.786-1.87-1.594-2.814-2.394a9.787,9.787,0,0,1-2.807-3.223,1.857,1.857,0,0,1-.189-1.505c.526-1.246,1.2-2.468,1.739-3.719l4.092-9.486,4.073-9.44Z" transform="translate(-642.846 -1624.392)" fill="#8d3f29"/>
        </g>
      </g>
    </g>
  </g>
</svg>
