<svg id="physics" xmlns="http://www.w3.org/2000/svg" width="96" height="96" viewBox="0 0 96 96">
  <g id="Group_23" data-name="Group 23" transform="translate(-188 -568)">
    <circle id="Ellipse_32" data-name="Ellipse 32" cx="48" cy="48" r="48" transform="translate(188 568)" fill="#f2f0f0"/>
    <g id="Group_22" data-name="Group 22">
      <path id="Path_259" data-name="Path 259" d="M266.369,618.676q-1.341-1.6-2.913-3.2,1.568-1.6,2.913-3.2a30.357,30.357,0,0,0,5.584-9.129c.828-2.363,1.441-5.829-.344-8.921s-5.093-4.294-7.554-4.758a30.338,30.338,0,0,0-10.7.272q-1.808.318-3.711.792c-.39-1.383-.814-2.709-1.272-3.968a30.378,30.378,0,0,0-5.113-9.4c-1.633-1.9-4.328-4.162-7.9-4.162s-6.266,2.263-7.9,4.162a30.379,30.379,0,0,0-5.114,9.4c-.487,1.34-.936,2.756-1.346,4.235-1.632-.433-3.221-.788-4.757-1.059a30.338,30.338,0,0,0-10.7-.272c-2.46.464-5.768,1.667-7.553,4.758s-1.173,6.558-.345,8.921a30.341,30.341,0,0,0,5.585,9.129q1.341,1.6,2.913,3.2-1.567,1.6-2.913,3.2a30.349,30.349,0,0,0-5.585,9.128c-.828,2.364-1.44,5.83.345,8.921s5.093,4.3,7.553,4.759a30.359,30.359,0,0,0,10.7-.272c1.532-.27,3.117-.624,4.744-1.056.414,1.5.867,2.927,1.359,4.281a30.379,30.379,0,0,0,5.114,9.4c1.632,1.9,4.328,4.162,7.9,4.162s6.265-2.264,7.9-4.162a30.378,30.378,0,0,0,5.113-9.4c.463-1.273.891-2.615,1.285-4.014q1.893.468,3.7.789a30.36,30.36,0,0,0,10.7.272c2.461-.464,5.769-1.667,7.554-4.759s1.172-6.557.344-8.921A30.364,30.364,0,0,0,266.369,618.676Zm2.6-22.925c2.32,4.019-.866,10.621-7.694,17.591a88.179,88.179,0,0,0-8.91-7.239,89.319,89.319,0,0,0-1.954-12.616C259.6,591.212,266.689,591.807,268.966,595.751ZM241.975,627.9c-2.406,1.39-4.807,2.654-7.172,3.79-2.366-1.136-4.766-2.4-7.173-3.79-2.189-1.264-4.286-2.576-6.278-3.917-.218-2.732-.334-5.569-.334-8.481,0-2.93.117-5.785.338-8.533,1.991-1.34,4.086-2.651,6.274-3.914,2.407-1.39,4.807-2.654,7.173-3.791,2.365,1.137,4.766,2.4,7.172,3.791,2.625,1.515,5.119,3.1,7.457,4.72.18,2.5.275,5.082.275,7.727,0,2.626-.094,5.192-.272,7.675C247.1,624.8,244.6,626.382,241.975,627.9Zm7.1-.8a84.081,84.081,0,0,1-1.606,9.559,82.661,82.661,0,0,1-9.088-3.338q2.561-1.307,5.118-2.781Q246.376,628.882,249.077,627.1Zm-17.854,6.221a84.68,84.68,0,0,1-8.041,3.018,83.344,83.344,0,0,1-1.441-8.452q2.127,1.362,4.363,2.653Q228.657,632.015,231.223,633.322Zm-13.084-11.6a84.506,84.506,0,0,1-7.614-6.252,84.439,84.439,0,0,1,7.617-6.253c-.116,2.06-.176,4.157-.176,6.278C217.966,617.6,218.025,619.683,218.139,621.727Zm3.608-18.669a83.137,83.137,0,0,1,1.446-8.444,84.614,84.614,0,0,1,8.03,3.015q-2.562,1.306-5.119,2.78Q223.874,601.7,221.747,603.058Zm16.636-5.429a82.475,82.475,0,0,1,9.077-3.335,83.664,83.664,0,0,1,1.611,9.552q-2.692-1.773-5.57-3.437Q240.95,598.936,238.383,597.629Zm14.246,12.458a82.819,82.819,0,0,1,6.451,5.388,82.541,82.541,0,0,1-6.449,5.387q.128-2.648.129-5.362Q252.76,612.762,252.629,610.087Zm-17.266-34.035c4.611,0,8.713,5.984,11.337,15.281a88.222,88.222,0,0,0-11.9,4.554,89.671,89.671,0,0,0-10.866-4.239C226.557,582.172,230.7,576.052,235.363,576.052Zm-34.723,19.7c2.364-4.094,9.907-4.58,19.614-1.993a88.732,88.732,0,0,0-1.814,11.5,89.72,89.72,0,0,0-10.106,8.081C201.506,606.372,198.32,599.77,200.64,595.751Zm0,39.448c-2.32-4.018.866-10.621,7.694-17.59a89.837,89.837,0,0,0,10.1,8.078,88.86,88.86,0,0,0,1.809,11.508C210.541,639.779,203,639.292,200.64,635.2Zm34.723,19.749c-4.671,0-8.819-6.139-11.438-15.641a89.871,89.871,0,0,0,10.878-4.243,88.125,88.125,0,0,0,11.91,4.557C244.089,648.944,239.981,654.948,235.363,654.948Zm33.6-19.749c-2.277,3.943-9.357,4.539-18.547,2.268a89.324,89.324,0,0,0,1.947-12.623,88.23,88.23,0,0,0,8.906-7.235C268.1,624.578,271.286,631.181,268.966,635.2Z" fill="#2a4047" stroke="#2a4047" stroke-miterlimit="10" stroke-width="1"/>
      <path id="Path_260" data-name="Path 260" d="M249.663,615.439c0,2.626-.093,5.193-.271,7.676-2.34,1.622-4.835,3.206-7.461,4.723-2.407,1.389-4.807,2.654-7.173,3.791-2.365-1.137-4.765-2.4-7.172-3.791q-3.285-1.9-6.28-3.917c-.218-2.732-.332-5.57-.332-8.482,0-2.93.116-5.785.337-8.532q2.988-2.012,6.275-3.914c2.407-1.391,4.807-2.656,7.172-3.791,2.366,1.135,4.766,2.4,7.173,3.791,2.626,1.515,5.12,3.1,7.458,4.721C249.569,610.212,249.663,612.8,249.663,615.439Z" fill="#3878a6"/>
      <circle id="Ellipse_33" data-name="Ellipse 33" cx="7.02" cy="7.02" r="7.02" transform="translate(227.733 608.557)" fill="#ffd224"/>
      <circle id="Ellipse_34" data-name="Ellipse 34" cx="5.036" cy="5.036" r="5.036" transform="translate(229.716 610.388)" fill="#f24c27"/>
      <circle id="Ellipse_35" data-name="Ellipse 35" cx="5.036" cy="5.036" r="5.036" transform="translate(221.323 577.425)" fill="#f24c27"/>
      <circle id="Ellipse_36" data-name="Ellipse 36" cx="5.036" cy="5.036" r="5.036" transform="translate(264.663 619.697)" fill="#f24c27"/>
      <circle id="Ellipse_37" data-name="Ellipse 37" cx="5.036" cy="5.036" r="5.036" transform="translate(206.673 635.109)" fill="#f24c27"/>
    </g>
  </g>
</svg>
