<svg xmlns="http://www.w3.org/2000/svg" viewBox="0 0 353 353"><defs><style>.cls-1{fill:#f2f0f0;}.cls-2{font-size:130.28px;fill:#13282e;font-family:Gugi-Regular, Gugi;}.cls-3{fill:#d45f00;}.cls-4{fill:#ffd224;}.cls-5{fill:#437ba3;}.cls-6{fill:#ffddc4;}.cls-7{opacity:0.5;}.cls-8{fill:#e0ad8b;}.cls-9{fill:#b07058;}.cls-10{opacity:0.8;}.cls-11,.cls-19{fill:#b35000;}.cls-12{fill:#7d6454;opacity:0.7;}.cls-13{fill:#f5bf9a;}.cls-14{fill:#003e6a;}.cls-15{fill:#579dd4;}.cls-16{opacity:0.68;}.cls-17{fill:#3878a6;}.cls-18{fill:#ff9b35;opacity:0.52;}.cls-19{opacity:0.58;}.cls-20{fill:#c9ecff;opacity:0.15;}.cls-21{fill:#e8f7ff;opacity:0.46;}</style></defs><g id="Layer_2" data-name="Layer 2"><g id="plan"><circle class="cls-1" cx="176.5" cy="176.5" r="176.5"/><text class="cls-2" transform="translate(222.35 157.78)">?</text><path class="cls-3" d="M183.66,178.34l-.07,0a2.81,2.81,0,0,0-.49-.09,3.19,3.19,0,0,0-1.91.16,4,4,0,0,0-1.45,1.52l-1.32,2c-.1.15-.28.37-.25.56s.15.23.17.37a3.47,3.47,0,0,1-.2,1.22l-.4,2.22-.81,4.44a7.52,7.52,0,0,0-.18,2.26,7.19,7.19,0,0,0,1.08,2.72c1.46,2.54,3.51,5.24,6.43,5.46a1.88,1.88,0,0,0-1.47,2.49,3.72,3.72,0,0,0,2.46,2.1,15.23,15.23,0,0,0,1.51.4c.33.08.94.09,1.13.43.33.61-.73,1.69-1,2.16a9.35,9.35,0,0,0-1.52,5.55c.23,2.67,2.53,5.19,5.32,4.91,0,.24-.34.55-.49.74a11.82,11.82,0,0,0-.77,1.05,14.92,14.92,0,0,0-1.27,2.28,15.3,15.3,0,0,0-1.29,5,3,3,0,0,0,.15,1.42,2.64,2.64,0,0,0,.88,1,8,8,0,0,0,3.3,1.52,6.1,6.1,0,0,0-1.58,5.64,8.63,8.63,0,0,0,2.75,4.22,23.43,23.43,0,0,0,2,1.66c.22.16.66.3.72.58s-.26,1.11-.35,1.48a17.09,17.09,0,0,0-.6,5.18c0,.14,0,.28,0,.41.41,3.71,2.83,6.86,5.33,9.63a10.9,10.9,0,0,0,4.16,3.24c2.33.83,4.9.08,7.26-.66a6.51,6.51,0,0,1-4.53-3.88,17,17,0,0,1-1.2-6,27,27,0,0,0-.77-6.15,13.66,13.66,0,0,0-2.07-4.08c-.41-.57-.94-1.07-1.32-1.65a.9.9,0,0,1-.23-.4c0-.4.45-.81.66-1.1a15.1,15.1,0,0,0,1.63-2.65,6.68,6.68,0,0,0,.48-4.62,4,4,0,0,0-3.38-2.9c.73-1.36,2.66-2,2.92-3.47a3.08,3.08,0,0,0-.07-1.13,10.17,10.17,0,0,0-1.7-3.9c-.4-.55-1.07-1-1.41-1.59s0-1.23.2-1.81a7.5,7.5,0,0,0,.27-2.11,8,8,0,0,0-1.17-4.07,7,7,0,0,0-1.77-1.95c-.64-.48-1.43-.79-1.4-1.63a8.8,8.8,0,0,1,.49-1.59,8.86,8.86,0,0,0,.2-3.83,4.49,4.49,0,0,0-3.65-3.72c-.65-.06-1.42,0-1.85-.46-.61-.69.06-1.73.57-2.51,1.71-2.6,1-5.08.28-7.83-.69-2.56-3.17-4.73-5.22-6.28a8.78,8.78,0,0,1-2.88-2.87,4.68,4.68,0,0,1-.19-.45,2.85,2.85,0,0,0-.15-.52Z"/><path class="cls-4" d="M191.82,241.06a2.57,2.57,0,0,0,4.27,1.4,7.21,7.21,0,0,0-2.48,2.06c-.11.18-.21.42-.08.58a.57.57,0,0,0,.46.13c2.9-.16,5.43-2,8.29-2.54a5.14,5.14,0,0,0,1.34-.32,1.28,1.28,0,0,0,.79-1.05,1.27,1.27,0,0,0-.76-1.08,4.64,4.64,0,0,0-1.34-.35,19.91,19.91,0,0,1-4.59-1.68,1.44,1.44,0,0,0-1.32-.09,15,15,0,0,0-1.94,1.22Z"/><path class="cls-3" d="M191.52,160.69a32.72,32.72,0,0,0,1.25-4.56,12.31,12.31,0,0,0,.19-2.64c-.14-3.52,0-7.08,0-10.61,0-3.12,0-6.25-.14-9.37,0-1.57-.1-3.13-.17-4.69a6.58,6.58,0,0,0-.19-2c-.51-1.38-.93-2.79-1.32-4.22l-1.2-4.31-2.4-8.64c-.35-1.23-.64-2.5-1-3.72a.82.82,0,0,0-.24-.41.65.65,0,0,0-.53,0l-.86.22c-1.86.44-3.76.66-5.63,1.06a15.06,15.06,0,0,0-4.61,1.66c-.44.26-.85.59-1.32.81s-.84.26-1.26.43a13,13,0,0,0-3.58,2.6c-1.8,1.58-3.62,3.13-5.46,4.67q-5.94,5-12.12,9.6l-1.33,1q-3.95,2.94-8,5.74l-2,1.39c-.48.33-.92.74-1.52.46a14.3,14.3,0,0,0-1.52-.88,6.18,6.18,0,0,0-2-.25q-13.31-.12-26.63.47l-3,.14a13.89,13.89,0,0,1-2.57.13,8.91,8.91,0,0,1-1.21-.38l-2.52-.78,4.36,12.27a60.35,60.35,0,0,0,4.35,10.23c2.31,4,5.5,7.37,8.22,11.08a29.32,29.32,0,0,1,4.18,7.52c.47,1.3.58,2.71,1.08,4a4.4,4.4,0,0,1,.63,2.59,2.35,2.35,0,0,0,.08,1.77c.32.63.65,1.26,1,1.88.68,1.29,1.39,2.57,2.12,3.84,1.42,2.5,2.9,5,4.4,7.43.73,1.2,1.46,2.4,2.21,3.59a4.29,4.29,0,0,0,1.46,1.72,22.32,22.32,0,0,0,6.71,2.25,33.2,33.2,0,0,0,7.18.57,45.61,45.61,0,0,0,14.23-2.81,28,28,0,0,0,7-3.5c3.32-2.42,5.7-5.83,8.37-8.89a35.92,35.92,0,0,1,2.49-2.6c.51-.46,1.07-.87,1.57-1.34a2.39,2.39,0,0,0,.55-.75c.32-.69.51-1.39.89-2.05,1-1.81,2.44-3.39,3.59-5.12.25-.38.5-.77.72-1.17a13.89,13.89,0,0,0,.79-1.65,7.1,7.1,0,0,1,.6-1.51,7.26,7.26,0,0,0,1.54-2.55,85.56,85.56,0,0,1,2.26-9C191.37,161.15,191.45,160.92,191.52,160.69Z"/><path class="cls-5" d="M87.85,260.74c0,.34-.07.68-.1,1a11.22,11.22,0,0,0,0,1.54,13.15,13.15,0,0,1-.27,2.16q-.16,1.16-.3,2.31c-.19,1.54-.35,3.08-.48,4.63-.27,3.1-.45,6.21-.57,9.32C86,288,86,294.2,86,300.45v.18c0,8.67.15,17.48,2.43,25.76a2.23,2.23,0,0,0,.79,1.38,1.84,1.84,0,0,0,1.42,0c8.07-2.36,16.49-2.55,24.82-2.73l97.4-2-10.78-71.13c-2.38-15.72-5.67-33.13-17.29-42.27a29.51,29.51,0,0,0-5.12-3.22,40.47,40.47,0,0,0-8-2.92c-1.36-.36-2.74-.67-4.12-.94l-2.07-.38a15.69,15.69,0,0,0-1.67-.27,1.26,1.26,0,0,0-1.22.66,3.67,3.67,0,0,0-.13.66c-.08.44-.17.88-.26,1.31-.17.88-.35,1.75-.53,2.62q-.56,2.61-1.16,5.21l-.69,2.85a7,7,0,0,1-.94,2.43c-.93,1.28-2.54,1.58-4,1.74a56.93,56.93,0,0,1-6.26.32c-2.46,0-5-.2-7.12-1.68-2.53-1.8-3.82-5.1-5-8.21l-1.17-3.16-.58-1.56c-.11-.31-.16-.9-.51-1s-.71.37-.9.49-.65.4-1,.6c-2.6,1.66-5.09,3.54-7.64,5.29-1.37.94-2.77,1.85-4.2,2.66-8.75,4.94-16.89,11.37-22.83,20.2a60,60,0,0,0-6.68,13.32,64,64,0,0,0-2.37,8.55q-.43,2.19-.72,4.41C87.94,259.94,87.89,260.34,87.85,260.74Z"/><path class="cls-6" d="M109.27,151.23l-.17,0a3.87,3.87,0,0,1-1-.37,7.85,7.85,0,0,1-2.54-2.22,7.76,7.76,0,0,1-.88-1.46c-.11-.26-.22-.53-.31-.8a3.8,3.8,0,0,1-.21-.82c0-.22,0-.43,0-.65a6.45,6.45,0,0,1,0-.76,6.52,6.52,0,0,1,.16-1.53,6.2,6.2,0,0,1,1.28-2.7,4.28,4.28,0,0,1,2.41-1.48l.2,0c-5.88-9.33-11-19.56-11.7-30.56s3.72-22.9,13.23-28.47c4.44-2.6,9.58-3.66,14.58-4.87,9-2.19,18.05-5,27.35-5.22S170.86,72,176.55,79.39c2.74,3.54,4.31,7.83,5.67,12.09a173.65,173.65,0,0,1,8,61.29c-.53,10.73-2.78,22.64-11.51,28.89-2.36,1.68-5.08,2.85-7.27,4.74-5.26,4.54-6.43,12.21-6.24,19.16s1.35,14.05-.58,20.72a1.69,1.69,0,0,1-1.78,1.54,23.62,23.62,0,0,1-15.59-4.08,25.17,25.17,0,0,1-9.83-13.05c-1-2.95-1.58-6.06-2.47-9.05q-1.51-5.08-3.43-10a138,138,0,0,0-9.11-19.14c-2.67-4.65-5.51-9.27-7.72-14.18q-1.08-2.42-2-4.91a10.53,10.53,0,0,0-.66-2.06c-.09-.15-.11-.12-.27-.08l-.31.08a9.38,9.38,0,0,1-1.18.2,1.17,1.17,0,0,1-.78-.13l-.15-.09Z"/><g class="cls-7"><path class="cls-8" d="M151.35,89.21,159,101.33a6.33,6.33,0,0,1,1.17,2.51,12.34,12.34,0,0,0,1.7,4,43,43,0,0,0,2.36,3.61,7.57,7.57,0,0,1,.82,1.21,10.69,10.69,0,0,1,.3,1.07,4.3,4.3,0,0,1,.31,1c0,.19,0,.38.05.58,0,.41.12.81.19,1.22a22.46,22.46,0,0,0,.58,2.39,22.82,22.82,0,0,0,1.92,4.53,22.27,22.27,0,0,0,4.08,5.28c1.15,1.1,2.41,2.08,3.54,3.2a12.47,12.47,0,0,1,1.53,1.79,3,3,0,0,1,.77,1.87c0,.38,0,.77,0,1.15a6,6,0,0,1-2.63,4.27c-1.77,1.23-3.88,1.4-5.91,1.9-.89.23-.49,1.06-.46,1.73a1.91,1.91,0,0,0,.14.71c.35.75.78,1.46,1.13,2.21a32.65,32.65,0,0,1,1.78,4.68c0,.14.09.29.13.43a8.61,8.61,0,0,1,.43,3,5,5,0,0,1-1.44,3.13,9.66,9.66,0,0,1-1.43,1,7,7,0,0,1-.6.48,4.36,4.36,0,0,1-1.1.44,8.7,8.7,0,0,0-2,.5,2.33,2.33,0,0,0-1.25,2c0,.12,4.52-.32,4.9-.36a5,5,0,0,1,2.65.25,3.34,3.34,0,0,1,1.67,2.27,7.8,7.8,0,0,1,.18,2.16,5,5,0,0,0,.39,1.55c.23.87.4,1.75.57,2.63a38.77,38.77,0,0,1,.63,9.56,2,2,0,0,0,.34,1.45s.16.16.25.13l.14-.07a7.23,7.23,0,0,0,.66-.4c.12-.09.25-.13.37-.21l.35-.24c.23-.17.45-.35.66-.53l.31-.25,1.43-1.21c.41-.35.83-.7,1.22-1.08.19-.19.38-.39.56-.59a1.79,1.79,0,0,0,.25-.31,2,2,0,0,1,.2-.3c0-.06,0-.12.09-.18l.11-.17c.08-.11.15-.22.24-.33s.33-.42.51-.63l.41-.5a2.46,2.46,0,0,0,.38-.62,1.38,1.38,0,0,1,.08-.27l.21-.38c.27-.49.53-1,.78-1.51.14-.29.27-.58.4-.87,3.32-7.49,4-15.85,4.25-24,.19-5.06.27-10.13,0-15.19a83.11,83.11,0,0,0-1.29-10.8c-.35-1.78-.76-3.55-1.25-5.29a5.85,5.85,0,0,1-.38-2A14.29,14.29,0,0,0,187,112c-.29-2-.65-4-1.05-6-.62-3.13-1.33-6.25-2-9.36A43.91,43.91,0,0,0,181,87.22c-.59-1.21-1.29-2.37-2-3.52l-1.25-2.06a6.34,6.34,0,0,1-.51-.92c-.08-.2-.11-.41-.2-.6a5.47,5.47,0,0,0-1.14-1.39,27.15,27.15,0,0,0-3.67-3.2,28.39,28.39,0,0,0-8.54-4.18,27.57,27.57,0,0,0-9.47-1.12,34.44,34.44,0,0,0-13.54,4c.31,1.55,1.77,2.54,2.92,3.63a22.57,22.57,0,0,1,3.28,4.35Z"/></g><path class="cls-9" d="M171.45,157a22.64,22.64,0,0,0,8.75-3.79,14,14,0,0,0-.67,1.47,1.48,1.48,0,0,1-.17.33,4.52,4.52,0,0,1-.34.51,9,9,0,0,1-.78.95,10.87,10.87,0,0,1-1.87,1.58,14,14,0,0,1-2.07,1.16,33.51,33.51,0,0,1-6.61,2,15.84,15.84,0,0,1-2.66.42,13.9,13.9,0,0,1-2.49-.17,3,3,0,0,0-.85,0,6.37,6.37,0,0,1-1.07,0c-2.57,0-5.06.71-7.61,1a1,1,0,0,1-.92-.23.82.82,0,0,1-.12-.34,1.92,1.92,0,0,1,.79-1.62,5.07,5.07,0,0,1,2.69-1.06,10.75,10.75,0,0,1,1.5-.06l.72,0a11.4,11.4,0,0,0,1.93-.14c.65,0,1.3-.12,2-.19A73.9,73.9,0,0,0,171.45,157Z"/><path class="cls-10" d="M143.66,126.1a9.38,9.38,0,0,1,4.68-2.29,5.31,5.31,0,0,1,4.6,1.29,8,8,0,0,1,2.46,3.6,7.49,7.49,0,0,0-9-.43,13,13,0,0,0-2,1.91,31,31,0,0,1-2.08,2.34,4.51,4.51,0,0,1-.38-3.11A6.05,6.05,0,0,1,143.66,126.1Z"/><path class="cls-10" d="M182,116.46a8.18,8.18,0,0,0-4.55,0,4.66,4.66,0,0,0-3.15,2.76,7,7,0,0,0-.58,3.76,6.56,6.56,0,0,1,6.94-3.74,11.61,11.61,0,0,1,2.32.74c.83.34,1.67.82,2.52,1.07a3.93,3.93,0,0,0-.87-2.6A5.29,5.29,0,0,0,182,116.46Z"/><path class="cls-11" d="M176.17,107c2.07-1.17,4.31-2.38,6.69-2.22a2.92,2.92,0,0,0-2.24-2.79,8.41,8.41,0,0,0-3.83.06c-1.87.31-3.74.62-5.59,1-1.44.33-3.27.54-4.31,1.69-2.42,2.69,1.27,4.68,3.73,4.43A14.74,14.74,0,0,0,176.17,107Z"/><path class="cls-11" d="M140.73,118.71c-2.76.6-5.69,1.27-8,3-.84-.8-.37-2.31.66-3.39a14.06,14.06,0,0,1,3.88-2.53c2.06-1,4.11-2.09,6.21-3,1.62-.74,3.59-1.82,5.29-1.74,4,.2,1.39,4-1.23,5.51A23.9,23.9,0,0,1,140.73,118.71Z"/><path class="cls-12" d="M193,189.5l2.8-4.49a2.93,2.93,0,0,0,.48-1.12.72.72,0,0,0-.07-.48c-.17-.2-.63,0-.82,0l-1,.16a.7.7,0,0,1-.43,0c-.22-.11-.26-.38-.36-.58-.2-.42-.31-.87-.52-1.29a1.3,1.3,0,0,0-.23-.33,1,1,0,0,0-.71-.21,3.19,3.19,0,0,0-.73.21l-.66.25-.33.13a.71.71,0,0,1-.47.09.86.86,0,0,1-.3-.12,1.62,1.62,0,0,1-.48-.46,6.72,6.72,0,0,0-.71-1,2.48,2.48,0,0,0-.81-.45,1.94,1.94,0,0,1-.42-.17.77.77,0,0,0-.44-.1c-.1,0-.2.06-.3.07a1.94,1.94,0,0,1-.72-.05,1.41,1.41,0,0,1-1-.89,2.72,2.72,0,0,1,0-.9,2.5,2.5,0,0,1,.2-.77,7,7,0,0,1,.87-1.4l1.09-1.48a10.14,10.14,0,0,0,1-1.43,2.47,2.47,0,0,1,1.06-1c.23-.14.6-.23.73-.46s.14-.37.25-.54a7.85,7.85,0,0,1,.8-.93,6.31,6.31,0,0,0,1.33-2.35,1.87,1.87,0,0,0,.08-.57,7.79,7.79,0,0,1-.12-1c.08-1,.47-2-.11-3a1.47,1.47,0,0,0-1.6-.71,2.11,2.11,0,0,0-.52.26l-2.15,1.35c-.6.37-1.14.78-1.77,1.1a8.55,8.55,0,0,1-1.16.61l-.31.1a3.83,3.83,0,0,0-.86.7l-1.89,1.7c-.6.55-1.19,1.11-1.78,1.67a8.94,8.94,0,0,0-1.47,1.67c-.39.61-.62,1.31-1,1.93A10.39,10.39,0,0,1,176,175l-1.74,1.93-.88,1a2.43,2.43,0,0,0-.32.67,8.43,8.43,0,0,1-.53.92c-.2.32-.4.64-.61.95s-.36.69-.59.79-.72-.2-.91-.33c-.34-.23-.74-.39-1.11-.6s-.76-.47-1.13-.73c-.73-.52-1.44-1.07-2.16-1.6a10.17,10.17,0,0,0-4.71-2.2,12.3,12.3,0,0,0-2.57.07,3.84,3.84,0,0,0-2.18.69,2.83,2.83,0,0,0-.59,2.94c.63,2.16,2.6,3.65,4.6,4.69,1,.52,2,1,3,1.48a14.68,14.68,0,0,1,2.27,1.39c.23.18.5.31.72.5a1.42,1.42,0,0,1,.25.3,21.49,21.49,0,0,1,.93,2l.37.81c.15.33.37.6.53.92a3.65,3.65,0,0,1,.18,1.24,25.37,25.37,0,0,1,.11,2.76c0,1.82-.19,3.64-.38,5.46s-.38,3.49-.5,5.24c-.06.88-.09,1.75-.09,2.62,0,1.71.14,3.37.29,5.07l.25,2.79.13,1.4a3.73,3.73,0,0,0,.18,1.21c.15.32.44.37.76.43l1.75.34c1.47.31,2.94.58,4.42.87a11.87,11.87,0,0,0,5.2.24,4,4,0,0,0,.82-.28,1.11,1.11,0,0,0,.76-1,17.46,17.46,0,0,1,.23-1.91c.17-1.31.34-2.61.52-3.92.35-2.61.74-5.21,1.15-7.81a20.65,20.65,0,0,1,.89-3.92,21,21,0,0,1,2-3.71Z"/><path class="cls-13" d="M196.33,189.38a8.27,8.27,0,0,0,.56-1.54,5.43,5.43,0,0,0,.15-1.33,1.77,1.77,0,0,1,0-.23,1.68,1.68,0,0,0,0-.45c0-.43-.05-.86-.07-1.29-.06-.87-.12-1.73-.21-2.6a1,1,0,0,0-.14-.55,1.06,1.06,0,0,0-.7-.4,2.71,2.71,0,0,0-1,0l-.5.08-1,.14a.75.75,0,0,1-.42,0c-.2-.1-.24-.36-.33-.55-.2-.4-.3-.83-.5-1.23a1.34,1.34,0,0,0-.22-.31.86.86,0,0,0-.67-.2,2.53,2.53,0,0,0-.7.2l-.62.24-.32.12a.69.69,0,0,1-.44.09.81.81,0,0,1-.29-.12,1.35,1.35,0,0,1-.45-.44,6,6,0,0,0-.68-1,2.09,2.09,0,0,0-.77-.43,2.78,2.78,0,0,1-.4-.16.69.69,0,0,0-.42-.1c-.09,0-.18.06-.28.07a1.78,1.78,0,0,1-.69-.05,1.35,1.35,0,0,1-1-.84,2.75,2.75,0,0,1,0-.86,2.8,2.8,0,0,1,.2-.74,6.2,6.2,0,0,1,.82-1.32l1-1.41a9.1,9.1,0,0,0,1-1.35c.4-.83,1.45-1.11,2.17-1.59a7.77,7.77,0,0,0,1.65-1.59,6.38,6.38,0,0,0,1.05-1.61,3.51,3.51,0,0,0,.07-2.39,1.2,1.2,0,0,0-.37-.61,1.18,1.18,0,0,0-.5-.19,4.22,4.22,0,0,0-3.13,1.16c-.5.4-1,.83-1.49,1.21s-1.23.65-1.81,1a1.5,1.5,0,0,0-.29.27,2.91,2.91,0,0,1-.37.33c-.55.54-1.1,1.08-1.63,1.64s-1.23,1.34-1.81,2c-.29.34-.58.7-.86,1.05a2.6,2.6,0,0,0-.38.51,1.39,1.39,0,0,0-.06.19,3.13,3.13,0,0,1-.34.62,29.49,29.49,0,0,1-2.26,3.4c-.57.76-1.19,1.48-1.83,2.18q-.48.53-1,1a2.94,2.94,0,0,1-.51.49c-.39.2-.86-.32-1.19-.53a8.76,8.76,0,0,0-.85-.47,6.28,6.28,0,0,1-.83-.39c-.33-.22-.71-.37-1.05-.57s-.73-.45-1.08-.69c-.7-.49-1.36-1-2.05-1.52a9.63,9.63,0,0,0-4.48-2.09,11.07,11.07,0,0,0-2.44.07,3.63,3.63,0,0,0-2.07.65,2.71,2.71,0,0,0-.57,2.79c.61,2.06,2.48,3.47,4.38,4.46.94.49,1.9.92,2.84,1.4a14.81,14.81,0,0,1,2.15,1.33c.22.17.48.3.7.47a1.34,1.34,0,0,1,.23.29c.35.6.59,1.28.88,1.91l.48,1.05a3.81,3.81,0,0,1,.37.76,1.15,1.15,0,0,1-.13.58c-.31.9-.59,1.8-.86,2.71l-.41,1.43a6,6,0,0,0-.35,1.24,3.7,3.7,0,0,0,.07.57l.12,1.33.24,2.66.48,5.32.48,5.26.24,2.66L169,214a3.45,3.45,0,0,0,.17,1.15c.14.3.42.35.72.4l1.67.33c1.39.29,2.79.54,4.19.83a11.31,11.31,0,0,0,4.94.22,2.14,2.14,0,0,0,1.5-.91c.75-1.38,1.37-2.86,2.12-4.25L190,201.2l5.62-10.48C195.87,190.26,196.11,189.82,196.33,189.38Z"/><path class="cls-14" d="M105.16,310.77c14.64,15.6,37,20.67,52.24,5.36,7.8-7.82,12.78-19.75,16.69-31.76,5.71-17.5,9.66-35.91,13.21-54.38,1.11-5.83,2.2-11.82,1.77-17.78s-2.67-12-6.65-14.49c-2.84-1.79-6.14-1.61-9.3-1.39-1.68.12-3.66.47-4.52,2.46a9.37,9.37,0,0,0-.51,3.46c-.71,28.9-8.2,57.61-21.12,80.93-1.45,2.62-3.22,5.37-5.6,5.76s-4.28-1.49-6.05-3.32a150,150,0,0,1-19.63-25.42c-2.84-4.6-5.44-9.43-8-14.34-1.57-3.05-3.19-6.64-5.72-8.38s-6.66-1.62-9.33,0c-3.71,2.28-4.89,9-5.65,13.91a74.44,74.44,0,0,0,18.14,59.36Z"/><path class="cls-15" d="M104.34,305.71c14.65,15.6,37,20.66,52.24,5.36,7.8-7.82,12.78-19.75,16.7-31.76,5.71-17.5,9.66-35.91,13.2-54.38a82.8,82.8,0,0,0,1.87-14.5,14,14,0,0,0-.12-2.91,12.84,12.84,0,0,0-.72-2.17,16.7,16.7,0,0,0-2.11-3.79,11.16,11.16,0,0,0-6.11-4.33,13.56,13.56,0,0,0-3.81-.27,11,11,0,0,0-6.22,1.83c-.82.59-2.15,1.62-2.19,3a162.42,162.42,0,0,1-2.95,25.34,170.84,170.84,0,0,1-18,51c-1.45,2.61-3.22,5.37-5.6,5.76s-4.28-1.49-6.05-3.32a150.61,150.61,0,0,1-19.63-25.43c-1.26-2-2.47-4.12-3.65-6.24q-1.38-2.49-2.71-5a10.4,10.4,0,0,0-1.85-3,20.13,20.13,0,0,1-2.37-3.36,7.19,7.19,0,0,0-1.42-1.69,4.18,4.18,0,0,0-1.85-.69,11,11,0,0,0-8.48,2,13,13,0,0,0-3.81,4.68,15.29,15.29,0,0,0-1.13,3.06,10.41,10.41,0,0,0-.21,1.47c-.09,1.16-.56,2.21-.75,3.36a32.55,32.55,0,0,0-.24,6.09l.11,5.19c0,2.06-.19,4-.21,6.05a22.41,22.41,0,0,0,.78,4.4q.61,2.89,1.44,5.7A71.31,71.31,0,0,0,104.34,305.71Z"/><g class="cls-16"><path class="cls-17" d="M104.85,308.59c14.66,15.6,37,20.66,52.3,5.36,7.81-7.83,12.79-19.75,16.71-31.76,5.71-17.5,9.67-35.91,13.21-54.38,1.12-5.84,2.21-11.83,1.78-17.78s-2.67-12-6.66-14.49c-2.84-1.8-6.15-1.61-9.31-1.39-1.68.12-3.66.46-4.53,2.45a9.42,9.42,0,0,0-.51,3.47c-.7,28.9-8.2,57.61-21.14,80.93-1.45,2.61-3.22,5.36-5.61,5.75-2.23.37-4.28-1.49-6.05-3.32A150.26,150.26,0,0,1,115.38,258c-2.84-4.59-5.44-9.42-8-14.34-1.57-3-3.2-6.64-5.73-8.38s-6.67-1.62-9.34,0c-3.72,2.28-4.9,9-5.66,13.91a74.42,74.42,0,0,0,18.17,59.36Z"/></g><path class="cls-3" d="M121.52,179.76c-2.24.74-3.12,3.65-2.42,5.9s2.5,4,4.27,5.52A8.31,8.31,0,0,0,121.48,203a8.45,8.45,0,0,0-1,15.22c-5.63,3-7,11.68-2.66,16.31-2.26,1.54-4.39,3.59-5,6.25s1,5.93,3.67,6.31A23.36,23.36,0,0,0,113.39,273c1.48-2.84,3.85-5.1,5.81-7.64s3.57-5.65,3.11-8.83a8,8,0,0,1-.24-3.1c.36-1.34,1.7-2.13,2.7-3.1a7.74,7.74,0,0,0,.91-9.74,4.12,4.12,0,0,1-1.11-2.17,3.57,3.57,0,0,1,.69-1.76,20.15,20.15,0,0,0,.57-19.18,5.59,5.59,0,0,0,2.39-3.07,6.36,6.36,0,0,0,.45-2.73,1.56,1.56,0,0,1,0-.57,3.42,3.42,0,0,1,.29-.75,13,13,0,0,1,1.77-2.64,14.43,14.43,0,0,0,2.92-4.45,11.58,11.58,0,0,0,.33-4.15,34.46,34.46,0,0,0-1-7.35,18.82,18.82,0,0,0-1.27-3.43,15.48,15.48,0,0,0-.9-1.59c-.17-.25-.34-.5-.53-.75a3.52,3.52,0,0,1-.53-.69,7.44,7.44,0,0,1-.22-.81c-.11-.32-.22-.65-.34-1q-.36-1-.81-1.89a24,24,0,0,0-2-3.46l0,0c-.63-.89-1.53-1.81-2.6-1.67C122.23,176.63,121.73,178.38,121.52,179.76Z"/><path class="cls-3" d="M183,105.13c1.14.6,2.31,1.15,3.51,1.64a42.34,42.34,0,0,0,11.07,2.9,40.92,40.92,0,0,0,7.34.22c-.4-1.87-2.08-3.13-3.55-4.36a35,35,0,0,1-4.51-4.52A20.71,20.71,0,0,0,195,98.7a12.44,12.44,0,0,0-1.69-1,9.15,9.15,0,0,1-1.57-1.41,45.62,45.62,0,0,1-7.6-11.07c-.38-.78-.73-1.57-1.07-2.37a2.24,2.24,0,0,1-.19-.55,1.54,1.54,0,0,0-.07-.42,6.36,6.36,0,0,0-.71-1.09,36.79,36.79,0,0,0-5.81-7.17,29.88,29.88,0,0,0-7.86-5.14,47.11,47.11,0,0,0-10.57-3,74.28,74.28,0,0,0-14-1.22,47.18,47.18,0,0,0-8.55.75,26.35,26.35,0,0,0-12.77,5.89l-.3.27a12.69,12.69,0,0,1-2.74,2.23,12.51,12.51,0,0,1-3,.83,21.89,21.89,0,0,0-8.16,3.66,29.89,29.89,0,0,0-6.12,6.53A44.34,44.34,0,0,0,99.6,88.5a4.64,4.64,0,0,1-1,1.49,16.23,16.23,0,0,0-1.41,1.2,16.39,16.39,0,0,0-2.35,2.9,20.73,20.73,0,0,0-2.8,7,24.87,24.87,0,0,0-.47,3.54c-.33,5.62,1.06,11.2,2.69,16.59q2.12,7,4.81,13.77a10,10,0,0,0,2,3.6,4.33,4.33,0,0,0,1.58,1,3.44,3.44,0,0,0,.9.19c.3,0,.67-.12,1-.08s.29.21.44.22.53-.25.76-.4a8.41,8.41,0,0,1,2.1-.93,6.63,6.63,0,0,0,2.66-1c.56-.44,1.12-.88,1.67-1.33q1.65-1.34,3.24-2.76c1.16-1,2.3-2.11,3.4-3.21a9.86,9.86,0,0,0,2.39-2.88c1.07-2.53,2.42-4.93,3.34-7.54a88.09,88.09,0,0,0,3.12-12.72,54.72,54.72,0,0,0,1.2-8.73,27.35,27.35,0,0,0-.26-4.34c-.14-1.13.77-.2,1.18.22a8.72,8.72,0,0,1,.82,1,5.81,5.81,0,0,0,2,1.69c1,.55,2,1.11,3,1.65a1.46,1.46,0,0,1,.51.37,5.5,5.5,0,0,0,.56.83,7.89,7.89,0,0,0,2,1.43c.66.36,1.32.73,2,1.08s1.46.77,2.2,1.14a3.11,3.11,0,0,1,.63.38,2,2,0,0,1,.5.65,3.13,3.13,0,0,0,1.31,1.36,19.12,19.12,0,0,0,4.68,1.74,76,76,0,0,0,30.25,1.77s-.4-.79-.45-.86a4.58,4.58,0,0,0-.66-.73,8.32,8.32,0,0,0-1.75-1.1,30.31,30.31,0,0,1-3.93-1.91,3.45,3.45,0,0,1-1.21-1.13,6.14,6.14,0,0,0-.44-.94c-.23-.36-.5-.7-.75-1l-5.06-7c3.65,1,6.55,3.68,9.58,6a7.74,7.74,0,0,0,1.7,1.13,2.18,2.18,0,0,1,.5.2c.41.25.78.56,1.18.83.79.54,1.6,1,2.42,1.54C181.91,104.54,182.45,104.84,183,105.13Z"/><path class="cls-4" d="M112.79,241.28a2.56,2.56,0,0,0,2.83,3.49,7.22,7.22,0,0,0-3.21.38c-.19.09-.4.24-.38.44s.18.28.32.36c2.51,1.45,5.66,1.26,8.33,2.39a5,5,0,0,0,1.3.46,1.12,1.12,0,0,0,1.19-1.77,4.82,4.82,0,0,0-.94-1,19.9,19.9,0,0,1-2.93-3.9,1.48,1.48,0,0,0-1.06-.8,16.06,16.06,0,0,0-2.3,0Z"/><path class="cls-18" d="M106.11,120.4c-.8-6.4-1.61-12.88-.89-19.29s3.14-12.86,7.87-17.25a5.59,5.59,0,0,1,1.64-1.33,2.9,2.9,0,0,1,.66,0,10.9,10.9,0,0,0,1.41-.22,10.88,10.88,0,0,0,5.73-3.4c.36-.41.61-.95,1.12-1.16s1.27-.41,1.9-.61a47.52,47.52,0,0,1,8.77-1.86,62.09,62.09,0,0,1,14.61.07c10.3,1.21,20.23,4.49,30.07,7.75-1.46,1.74-4.08,1.81-6.34,1.6-9.3-.88-18.5-4.2-27.75-3,7.25,5.44,14.75,11.19,18.74,19.32-8.49-5-17-9.92-26.28-13.25-1.18-.42-2.37-.81-3.59-1.13s-2.41-.37-3.57-.67c-2.48-.63-4.94-1.5-7.4-2.22a.5.5,0,0,0-.38,0,.49.49,0,0,0-.23.33,39.82,39.82,0,0,0-1.58,4.57c-.09.42-.12.86-.25,1.28a21.23,21.23,0,0,1-1.73,3.35A129,129,0,0,0,113,106.14a132.61,132.61,0,0,0-4.33,13.46c-.65,2.49-1.2,5-1.74,7.52a12.27,12.27,0,0,0-.31-3.07Z"/><circle class="cls-19" cx="146.69" cy="141.41" r="1"/><circle class="cls-19" cx="150.05" cy="142.51" r="0.5"/><circle class="cls-19" cx="149.14" cy="140.72" r="0.5"/><circle class="cls-19" cx="147.38" cy="143.87" r="0.5"/><ellipse class="cls-19" cx="152.04" cy="140.9" rx="1" ry="0.98" transform="translate(-47.4 84.38) rotate(-27)"/><circle class="cls-19" cx="149.61" cy="143.85" r="0.5"/><circle class="cls-19" cx="145.14" cy="143.88" r="0.5"/><circle class="cls-19" cx="184.69" cy="132.56" r="1"/><circle class="cls-19" cx="182.13" cy="135" r="0.5"/><circle class="cls-19" cx="182.18" cy="133" r="0.5"/><circle class="cls-19" cx="185.13" cy="135.07" r="0.5"/><ellipse class="cls-19" cx="179.64" cy="134.41" rx="0.98" ry="1" transform="translate(40.8 310.65) rotate(-88.58)"/><circle class="cls-19" cx="183.1" cy="136.02" r="0.5"/><circle class="cls-19" cx="187.15" cy="134.12" r="0.5"/><ellipse class="cls-20" cx="147.89" cy="129.58" rx="11" ry="10.5" transform="translate(-24.94 35.82) rotate(-12.75)"/><ellipse class="cls-20" cx="180.83" cy="121.1" rx="11" ry="10.5" transform="translate(-22.26 42.88) rotate(-12.75)"/><path d="M194.07,114l-1.56-6a.33.33,0,0,0-.44-.28,26,26,0,0,0-3.27.47c-.43.08-.85.18-1.27.28a.85.85,0,0,0-.19.06,3.15,3.15,0,0,0-.44.11.82.82,0,0,1-.46.06c-.21-.07-.42-.19-.62-.26a14.81,14.81,0,0,0-2.62-.67,14.61,14.61,0,0,0-5.59.19,14.79,14.79,0,0,0-6.61,3.4,13.42,13.42,0,0,0-2.28,2.6,12.27,12.27,0,0,0-.88,1.48c-.17.32-.1.24-.35.34l.19,0-.09.18-.22-.13a13.12,13.12,0,0,1-1.77.32c-.29,0-.58.12-.87.19l-1,.22a62.05,62.05,0,0,0-7,2.08,14.54,14.54,0,0,0-11.66-2.28,15.09,15.09,0,0,0-5.21,2.28c-.36.26-.71.53-1,.82a5.17,5.17,0,0,0-.65.59,1.36,1.36,0,0,1-.41.3c-.3.18-.63.31-.91.5a.88.88,0,0,1-.2.09,4.74,4.74,0,0,1-.75.15l-1.53.31a8.84,8.84,0,0,0-3.32,1.13s.2.73.22.8a2.64,2.64,0,0,1,0,.84c0,.2-.06.48-.28.57a2,2,0,0,1-.26.09,2.52,2.52,0,0,0-.42.24c-.43.23-.86.46-1.3.68-2.53,1.33-5.13,2.59-7.71,3.87s-5.1,2.57-7.58,4a57,57,0,0,0-7.06,4.76,5.85,5.85,0,0,1-.76.64,9.35,9.35,0,0,0,6.44-.83,48.33,48.33,0,0,0,5.62-3.51l1-.62a43.25,43.25,0,0,1,4.39-2.38c.56-.26,1.12-.51,1.68-.74a32.3,32.3,0,0,1,6-1.73l1.08-.22c.1,0,.21-.1.31-.1a.67.67,0,0,1,.37.24,5.43,5.43,0,0,1,.73.79,3,3,0,0,1,.28.45,1.86,1.86,0,0,1,.1.25s0,.05,0,.09a.86.86,0,0,1,0,.39,6,6,0,0,0,.22,1.57c1.64,7.26,9.21,11.76,16.88,10S163.6,133.65,162,126.4a13.08,13.08,0,0,0-2.31-5,17.37,17.37,0,0,1,6.57-1.48h.26a8.33,8.33,0,0,0-.08.86,1.18,1.18,0,0,0,0,.2,9.6,9.6,0,0,0,.34,1.16,21,21,0,0,0,1,2.21,2.59,2.59,0,0,1,.14.29c.72,1.42,1.45,2.85,2.3,4.2.38.61.77,1.21,1.19,1.79a14.29,14.29,0,0,0,1.68,1.89c.21.19.4.38.59.58a14.85,14.85,0,0,0,17.2-2.88,13.31,13.31,0,0,0,3.6-12.24,15.25,15.25,0,0,0-.48-1.59s0-.1,0-.15a1.88,1.88,0,0,0-.14-.42,2.8,2.8,0,0,1-.22-.8A1.13,1.13,0,0,1,194.07,114Zm-43.69,25.79c-6,1.36-11.95-2.12-13.23-7.77s2.56-11.35,8.6-12.71,11.95,2.11,13.23,7.77S156.41,138.42,150.38,139.78Zm40-13.88a11.47,11.47,0,0,1-7.49,5.5c-6,1.36-12-2.12-13.24-7.78s2.56-11.34,8.6-12.71a11.38,11.38,0,0,1,9.78,2.23,10,10,0,0,1,2.35,12.76Z"/><path class="cls-21" d="M156.07,127a40.82,40.82,0,0,0-7.94,11.07,14.47,14.47,0,0,0,8.63-10.59A4.72,4.72,0,0,1,156.07,127Z"/><path class="cls-21" d="M189.18,118.46a40.82,40.82,0,0,0-7.94,11.07A14.43,14.43,0,0,0,189.87,119,4.79,4.79,0,0,1,189.18,118.46Z"/><path class="cls-21" d="M151.05,128.35a20.65,20.65,0,0,0-4,5.61,7.31,7.31,0,0,0,4.37-5.37A2.71,2.71,0,0,1,151.05,128.35Z"/><path class="cls-21" d="M185,119.65a20.69,20.69,0,0,0-4,5.61,7.33,7.33,0,0,0,4.38-5.36A2.22,2.22,0,0,1,185,119.65Z"/></g></g></svg>