<svg xmlns="http://www.w3.org/2000/svg" width="353" height="353" viewBox="0 0 353 353">
  <g id="Group_128" data-name="Group 128" transform="translate(0 0.273)">
    <circle id="Ellipse_63" data-name="Ellipse 63" cx="176.5" cy="176.5" r="176.5" transform="translate(0 -0.273)" fill="#f2f0f0"/>
    <path id="Path_329" data-name="Path 329" d="M1039.084,543.709a19.277,19.277,0,0,0,1.894-2.031c.442-.653.87-1.295,1.38-1.911.72-.872,1.687-1.66,2.323-2.582a13.638,13.638,0,0,0,.843-1.721c.154-.315.465-1.378.757-1.544a10.747,10.747,0,0,1,2.7-3.7,10.587,10.587,0,0,1,1.427-1.288,2.014,2.014,0,0,1,3.164,2.08,6.666,6.666,0,0,1-.925,2.445c-1.193,2.218-2.624,4.43-3.614,6.741a3.288,3.288,0,0,0,1.635-.953,16.152,16.152,0,0,1,2.131-1.674c.457-.277.9-.571,1.356-.856l2.627-1.657a11.1,11.1,0,0,1,3.827-1.777,1.648,1.648,0,0,1,1.631.4c.489.648-.013,1.558-.522,2.19a43.538,43.538,0,0,1-5.945,6.06c-1.036.868-2.115,1.69-3.077,2.643-.262.26-1.068.826-.742,1.244.346.442,1.145-.286,1.477-.468a34.083,34.083,0,0,1,8.026-3.171c.944-.241,1.99-.233,2.91-.5.12-.035.194-.159.327-.179a.816.816,0,0,1,.845.37,1.811,1.811,0,0,1,.023,1.355,3.611,3.611,0,0,1-1.793,2.56,5.571,5.571,0,0,1-.964.135c-1.228.211-2.2,1.274-3.372,1.677a10.515,10.515,0,0,0-2.448.972c-1.514.968-3.226,2.008-3.977,3.74a5.717,5.717,0,0,1,1.311-.5c.508-.18,1-.472,1.493-.685,1.124-.485,2.314-.806,3.435-1.285.323-.138.589-.388.912-.517a1.535,1.535,0,0,1,2.032.943c.3,1.108-.939,1.958-1.927,2.546-4.909,2.919-7.685,8.174-11.821,11.95a82.569,82.569,0,0,1-7.438,5.541q-4.046,2.935-7.994,6-1.59,1.234-3.165,2.49-.788.627-1.57,1.26c-.111.089-.218.248-.345.31-.172.084-.1.022-.23-.057-.141-.088-.238-.112-.315-.274a3.118,3.118,0,0,1-.178-.608c-.2-.813-.256-1.65-.417-2.469a14.065,14.065,0,0,0-1.386-3.749c-.314-.6-.655-1.2-1.006-1.779-.637-1.061-1.236-2.131-1.862-3.2a9.824,9.824,0,0,1-1.577-3.982,1.861,1.861,0,0,1,.324-1.486c.912-1,1.955-1.931,2.883-2.934l7.029-7.6,7-7.562Z" transform="translate(-777 -364.101)" fill="#437ba3"/>
    <g id="Group_55" data-name="Group 55" transform="translate(116.628 183.224)">
      <path id="Path_330" data-name="Path 330" d="M897.205,618.688c7.707,22.748,28.837,41.232,52.653,37.6,12.177-1.856,23.417-9.045,33.574-16.975,14.8-11.555,28.2-25.008,41.193-38.773,4.1-4.347,8.252-8.847,10.779-14.279s3.163-12.058.2-16.745c-2.111-3.347-5.7-5.268-9.157-7.067-1.846-.961-4.109-1.909-6.021-.734a7.749,7.749,0,0,0-2.273,2.682c-15.206,24.587-37.506,44.724-62.864,56.768-2.844,1.351-6.1,2.617-8.812,1.453-2.552-1.094-3.788-3.989-4.748-6.692a162.228,162.228,0,0,1-8.072-34.4c-.712-5.772-1.04-11.589-1.26-17.444-.137-3.634-.063-7.767-1.871-10.872-1.864-3.2-6.25-5.6-9.9-5.864-5.069-.364-9.693,4.725-12.944,8.482A59,59,0,0,0,894.765,583.9,70.292,70.292,0,0,0,897.205,618.688Z" transform="translate(-893.628 -547.326)" fill="#d0d9d7"/>
    </g>
    <g id="Group_56" data-name="Group 56" transform="translate(118.297 182.794)">
      <path id="Path_331" data-name="Path 331" d="M898.874,613.789c7.706,22.749,28.836,41.232,52.652,37.6,12.177-1.856,23.417-9.045,33.574-16.974,14.8-11.556,28.2-25.009,41.193-38.774a67.713,67.713,0,0,0,9.235-11.379,11.187,11.187,0,0,0,1.328-2.592,12.147,12.147,0,0,0,.328-2.331,16.208,16.208,0,0,0-.344-4.624,14.347,14.347,0,0,0-4.3-7.6,20.915,20.915,0,0,0-3.9-2.648,16.036,16.036,0,0,0-7.5-2.335c-1.169-.008-3.1.047-3.826,1.219a131.662,131.662,0,0,1-15.806,20.08,148.792,148.792,0,0,1-44.545,32.83c-2.844,1.351-6.1,2.618-8.812,1.454-2.552-1.1-3.788-3.99-4.748-6.693a162.215,162.215,0,0,1-8.072-34.4c-.315-2.558-.556-5.132-.745-7.714-.148-2.016-.264-4.037-.36-6.061a10.641,10.641,0,0,0-.44-3.778,20.722,20.722,0,0,1-.832-4.4,7.73,7.73,0,0,0-.666-2.363,5.95,5.95,0,0,0-1.615-1.766,15.923,15.923,0,0,0-9.961-3.645,13.789,13.789,0,0,0-6.376,1.649,13.237,13.237,0,0,0-2.73,1.942,7.3,7.3,0,0,0-.958,1.142c-.681.941-1.7,1.557-2.475,2.429a26.949,26.949,0,0,0-3.309,5.129l-2.478,4.565c-.98,1.807-2.186,3.33-3.245,5.106a18.372,18.372,0,0,0-1.374,4.3q-.8,2.9-1.333,5.848A70.277,70.277,0,0,0,898.874,613.789Z" transform="translate(-895.297 -546.896)" fill="#f2f0f0"/>
    </g>
    <g id="Group_57" data-name="Group 57" transform="translate(117.488 181.196)" opacity="0.68">
      <path id="Path_332" data-name="Path 332" d="M898.065,616.66c7.706,22.748,28.836,41.232,52.652,37.6,12.177-1.856,23.417-9.045,33.574-16.975,14.8-11.555,28.2-25.008,41.193-38.773,4.1-4.347,8.252-8.847,10.779-14.279s3.163-12.058.205-16.745c-2.111-3.347-5.7-5.268-9.156-7.067-1.847-.961-4.11-1.909-6.022-.734a7.759,7.759,0,0,0-2.273,2.682c-15.206,24.587-37.506,44.724-62.864,56.768-2.844,1.351-6.1,2.617-8.812,1.453-2.552-1.094-3.788-3.989-4.748-6.692a162.227,162.227,0,0,1-8.072-34.4c-.712-5.772-1.04-11.589-1.26-17.444-.137-3.634-.063-7.767-1.871-10.872-1.864-3.2-6.25-5.6-9.9-5.864-5.069-.363-9.693,4.725-12.944,8.482a59,59,0,0,0-12.924,28.078A70.281,70.281,0,0,0,898.065,616.66Z" transform="translate(-894.488 -545.298)" fill="#fff"/>
    </g>
    <path id="Path_333" data-name="Path 333" d="M855.848,598.147c-.036.339-.07.677-.1,1.017a11.786,11.786,0,0,0,.055,1.542,13.085,13.085,0,0,1-.277,2.154q-.159,1.154-.3,2.309-.277,2.312-.48,4.635c-.272,3.1-.451,6.209-.568,9.321-.234,6.237-.216,12.482-.18,18.723v.186c.051,8.666.15,17.478,2.433,25.756a2.208,2.208,0,0,0,.787,1.384,1.806,1.806,0,0,0,1.421-.024c8.063-2.359,16.485-2.548,24.815-2.724l19.559-.413q10.928-.231,21.854-.461a15.205,15.205,0,0,0,4.445-1.308q2.21-.8,4.369-1.723a93.328,93.328,0,0,0,8.427-4.133A134.972,134.972,0,0,0,957.9,644.011c5.038-3.786,9.883-7.819,14.671-11.914,1.5-1.287,3.247-3.11,3.184-5.257a18.691,18.691,0,0,0-.311-2.209q-.406-2.68-.812-5.361l-1.544-10.189-1.544-10.189-.813-5.362a30.127,30.127,0,0,1-.65-4.29c-2.383-15.722-5.673-33.125-17.293-42.265a29.844,29.844,0,0,0-5.117-3.222,41.148,41.148,0,0,0-7.961-2.922c-1.364-.359-2.738-.665-4.117-.936q-1.035-.2-2.072-.382a14.481,14.481,0,0,0-1.674-.271,1.269,1.269,0,0,0-1.223.66,3.985,3.985,0,0,0-.126.663q-.126.656-.257,1.311-.261,1.31-.536,2.616-.55,2.611-1.16,5.208-.335,1.428-.687,2.85a6.9,6.9,0,0,1-.942,2.429c-.93,1.281-2.539,1.583-4,1.74a57.619,57.619,0,0,1-6.256.328c-2.459,0-5.04-.208-7.119-1.684-2.532-1.8-3.823-5.1-4.973-8.211l-1.169-3.163-.575-1.557c-.113-.306-.162-.9-.511-1.006-.218-.065-.713.366-.9.483q-.491.3-.976.607c-2.6,1.659-5.09,3.537-7.643,5.289-1.372.941-2.765,1.848-4.2,2.659-8.745,4.941-16.887,11.364-22.824,20.2a59.88,59.88,0,0,0-6.679,13.32,62.3,62.3,0,0,0-2.37,8.552q-.441,2.187-.725,4.408Q855.912,597.544,855.848,598.147Z" transform="translate(-777 -364.101)" fill="#3878a6"/>
    <path id="Path_334" data-name="Path 334" d="M888.964,474.954a1.685,1.685,0,0,0-.154-.075,3.54,3.54,0,0,1-.889-.579,7.855,7.855,0,0,1-1.995-2.723,8.058,8.058,0,0,1-.524-1.624,7.53,7.53,0,0,1-.129-.845,3.37,3.37,0,0,1-.022-.845c.036-.219.123-.411.145-.637a6.408,6.408,0,0,1,.121-.753,6.992,6.992,0,0,1,.495-1.455,6.27,6.27,0,0,1,1.849-2.345,4.271,4.271,0,0,1,2.682-.909c.065,0,.129.006.194.011-3.662-10.4-6.361-21.5-4.643-32.394s8.7-21.51,19.208-24.835c4.9-1.55,10.15-1.444,15.292-1.52,9.3-.138,18.716-.912,27.828.968s18.14,6.957,22.06,15.395c1.884,4.056,2.466,8.583,2.85,13.039a173.527,173.527,0,0,1-5.762,61.542c-2.894,10.342-7.718,21.467-17.621,25.623-2.671,1.121-5.581,1.659-8.138,3.019-6.133,3.262-8.972,10.484-10.326,17.3s-1.789,14.007-5.152,20.085a1.689,1.689,0,0,1-2.076,1.1,23.672,23.672,0,0,1-14.3-7.426,25.183,25.183,0,0,1-6.69-14.9c-.325-3.1-.2-6.264-.412-9.38q-.352-5.3-1.116-10.55a137.848,137.848,0,0,0-4.65-20.687c-1.576-5.13-3.326-10.257-4.386-15.538q-.52-2.591-.818-5.219a10.11,10.11,0,0,0-.184-2.152c-.058-.173-.085-.141-.248-.136-.105,0-.211.005-.316.005a10.955,10.955,0,0,1-1.2-.065,1.144,1.144,0,0,1-.727-.3c-.041-.039-.082-.079-.127-.114A.869.869,0,0,0,888.964,474.954Z" transform="translate(-777 -364.101)" fill="#9c5e26"/>
    <path id="Path_335" data-name="Path 335" d="M943.731,423.782q2.406,6.76,4.813,13.521a6.328,6.328,0,0,1,.578,2.7,12.265,12.265,0,0,0,.767,4.33,67.409,67.409,0,0,0,3.417,8.284c.234.509.3,1.028.511,1.542a21.88,21.88,0,0,1,1.093,3.377q.147.623.258,1.252c.263,1.5.37,3.017.686,4.5a50.241,50.241,0,0,0,2.835,7.79,6.385,6.385,0,0,1,.611,3.464c-.381,1.992-2.385,3.2-4.247,4a38.928,38.928,0,0,1-4.93,1.743c-.442.124-1.149.275-1.129.85.009.242.066.477.065.721,0,.383-.017.767-.028,1.15a34.238,34.238,0,0,0-.1,3.636c.036.45.214.864.266,1.309a29.6,29.6,0,0,1-.2,4.755q-.137,2.712-.272,5.424c-.086,1.713-.309,3.478-.257,5.193a15.528,15.528,0,0,0,.333,1.54,29.483,29.483,0,0,1,.128,4.8,39.143,39.143,0,0,1-1.5,9.468,1.909,1.909,0,0,0,.008,1.489c.04.064.117.189.21.184a.769.769,0,0,0,.153-.04,5.913,5.913,0,0,0,.734-.248c.135-.055.271-.07.408-.12s.264-.1.393-.158c.26-.112.514-.237.766-.365l.355-.183,1.658-.862c.483-.251.966-.5,1.431-.784.233-.141.461-.29.682-.45a1.614,1.614,0,0,0,.311-.245,2.308,2.308,0,0,1,.257-.246c.053-.05.082-.106.131-.157s.1-.1.145-.141c.1-.093.2-.182.3-.269.207-.173.421-.338.636-.5.172-.131.344-.262.512-.4a2.351,2.351,0,0,0,.51-.52,1.53,1.53,0,0,1,.138-.243c.1-.106.194-.214.29-.321q.564-.636,1.092-1.3.3-.379.591-.767c4.886-6.564,7.355-14.579,9.461-22.486,1.3-4.9,2.5-9.828,3.333-14.828a82.349,82.349,0,0,0,1.126-10.819c.06-1.81.047-3.622-.05-5.431a5.955,5.955,0,0,1,.088-2.086,14.43,14.43,0,0,0,.358-2.9c.163-2.035.26-4.074.317-6.114.09-3.194.083-6.389.075-9.584a43.633,43.633,0,0,0-.769-9.839c-.306-1.314-.734-2.6-1.161-3.876l-.764-2.289a5.886,5.886,0,0,1-.29-1.005c-.03-.208-.022-.42-.062-.627a5.4,5.4,0,0,0-.808-1.616,26.524,26.524,0,0,0-2.871-3.923,28.44,28.44,0,0,0-7.4-5.974,27.612,27.612,0,0,0-8.985-3.186,34.578,34.578,0,0,0-14.089.877c-.036,1.581,1.171,2.868,2.045,4.186a22.418,22.418,0,0,1,2.236,4.964Z" transform="translate(-777 -364.101)" fill="#78481d"/>
    <path id="Path_336" data-name="Path 336" d="M948.332,489.314a22.622,22.622,0,0,0,9.374-1.764c-4.715,5.529-4.166,13.809-7.372,20.33a4.312,4.312,0,0,1-1.107,1.542,3.626,3.626,0,0,1-2.043.665c-2.954.179-5.706-1.51-7.91-3.485a28.417,28.417,0,0,1-7.87-11.977,28.131,28.131,0,0,1-.954-3.542c-.138-.687-.787-2.672-.248-3.267s3,.307,3.748.436q2.158.37,4.338.615A75.05,75.05,0,0,0,948.332,489.314Z" transform="translate(-777 -364.101)" fill="#6a0e00"/>
    <path id="Path_337" data-name="Path 337" d="M948.332,489.332a22.653,22.653,0,0,0,9.374-1.764q-.247.289-.478.593a15.843,15.843,0,0,0-1.683,2.786c-.117.245-.228.493-.335.742-.051.12-.1.242-.148.361s-.132.113-.242.144a8.956,8.956,0,0,1-1.716.263,97.71,97.71,0,0,1-16.379-.5l-.481-.042c-1.188-.1-2.377-.219-3.554-.414-.587-.1-1.171-.216-1.748-.362-.143-.036-.29-.069-.431-.115-.058-.019-.07-.023-.095-.074a2.24,2.24,0,0,1-.1-.424,11.113,11.113,0,0,1-.3-1.5,1.586,1.586,0,0,1,.187-1.194c.539-.6,3,.307,3.748.436q2.158.37,4.338.615A75.056,75.056,0,0,0,948.332,489.332Z" transform="translate(-777 -364.101)" fill="#fff" opacity="0.99"/>
    <path id="Path_338" data-name="Path 338" d="M942.57,501.13a1.405,1.405,0,0,0,.727-.245c.209-.145.387-.331.658-.272.1.022.2.077.3.106a6.081,6.081,0,0,0,1.069.134,4.779,4.779,0,0,1,3.389,1.3,4.918,4.918,0,0,1,.767,1.615,12.275,12.275,0,0,1,.687,2.757,9.632,9.632,0,0,1-.031,1.338,1.9,1.9,0,0,1-.389,1.148,2.841,2.841,0,0,1-1.79.887,8.246,8.246,0,0,1-5.077-.991,21.528,21.528,0,0,1-4.217-3.126c-.359-.32-.717-.643-1.046-.995a5.064,5.064,0,0,0-.38-.417c-.142-.12-.28-.243-.413-.372a7.624,7.624,0,0,1-.924-1.082c-.136-.2-.264-.4-.381-.6a3.522,3.522,0,0,1-.317-.622,3.36,3.36,0,0,1,1.639-.68,17.618,17.618,0,0,1,2.156-.294,4.429,4.429,0,0,1,1.181-.044c.458.1.913.22,1.369.33A3.455,3.455,0,0,0,942.57,501.13Z" transform="translate(-777 -364.101)" fill="#ff948a" opacity="0.8"/>
    <path id="Path_339" data-name="Path 339" d="M928.069,458.056a9.334,9.334,0,0,1,5.07-1.2,5.32,5.32,0,0,1,4.2,2.277,8.023,8.023,0,0,1,1.6,4.051,7.492,7.492,0,0,0-8.692-2.412,13.454,13.454,0,0,0-2.4,1.415c-.839.584-1.651,1.327-2.538,1.826a4.531,4.531,0,0,1,.314-3.122A6.057,6.057,0,0,1,928.069,458.056Z" transform="translate(-777 -364.101)" opacity="0.8"/>
    <path id="Path_340" data-name="Path 340" d="M967.562,457.135a8.155,8.155,0,0,0-4.432-1.046,4.65,4.65,0,0,0-3.676,1.99,7.019,7.019,0,0,0-1.4,3.542,6.551,6.551,0,0,1,7.6-2.109,11.688,11.688,0,0,1,2.1,1.237c.734.511,1.444,1.16,2.219,1.6a3.962,3.962,0,0,0-.274-2.729A5.291,5.291,0,0,0,967.562,457.135Z" transform="translate(-777 -364.101)" opacity="0.8"/>
    <path id="Path_341" data-name="Path 341" d="M963.987,446.667c2.287-.686,4.734-1.374,7.022-.692a2.925,2.925,0,0,0-1.567-3.21,8.548,8.548,0,0,0-3.749-.8c-1.894-.109-3.79-.217-5.688-.217-1.468,0-3.308-.2-4.576.7-2.956,2.081.2,4.846,2.66,5.141A14.739,14.739,0,0,0,963.987,446.667Z" transform="translate(-777 -364.101)" opacity="0.9"/>
    <path id="Path_342" data-name="Path 342" d="M926.844,450.2c-2.818-.028-5.828-.018-8.449,1.137-.641-.966.153-2.337,1.4-3.161a14.13,14.13,0,0,1,4.341-1.612c2.236-.562,4.475-1.124,6.732-1.592,1.744-.363,3.9-.988,5.541-.53,3.816,1.068.461,4.237-2.416,5.1A23.934,23.934,0,0,1,926.844,450.2Z" transform="translate(-777 -364.101)" opacity="0.9"/>
    <path id="Path_343" data-name="Path 343" d="M885.425,442.186q-.063-.975-.076-1.953c-.005-.4,0-.8.005-1.2a3.4,3.4,0,0,1,.027-.562c.021-.112.069-.216.081-.329a8.522,8.522,0,0,0-.062-1.214q-.03-.632-.038-1.266-.016-1.266.061-2.532c.01-.16.022-.32.034-.48a25.476,25.476,0,0,1,1.028-5.523q.209-.672.46-1.33c.1-.259.2-.71.486-.832.338-.143.88.112,1.183.188a30.706,30.706,0,0,1,3.272,1.027,63.983,63.983,0,0,1,6.29,2.83,4.167,4.167,0,0,1,.977.608,3.722,3.722,0,0,1,.906,1.58,15.062,15.062,0,0,1,.639,2.52q.105.642.154,1.291a1.819,1.819,0,0,1-.193,1.118,10.265,10.265,0,0,0-.435,1.273c-.392,1.249-1.109,2.356-1.492,3.626-.6,1.987-1.029,4.019-1.466,6.046a18.9,18.9,0,0,1-.595,2.484,6.644,6.644,0,0,0-.457,1.48c-.212,1.732-.665,3.359-1.021,5.064-.585,2.8-.45,5.731-1.281,8.466-.4.244-.912-.1-1.145-.5a4.686,4.686,0,0,0-.685-1.207c-.444-.411-1.161-.416-1.6-.835-.669-.642-.332-1.7-.489-2.507a3.816,3.816,0,0,0-.575-1.366,2.934,2.934,0,0,1-.357-1.033A1.061,1.061,0,0,0,889,456.9a1.7,1.7,0,0,1-.135-.357c-.08-.391-.155-.78-.261-1.166-.212-.773-.486-1.527-.763-2.278-.133-.361-.267-.722-.4-1.085a36.117,36.117,0,0,1-1.3-4.612,36.983,36.983,0,0,1-.688-4.765Q885.44,442.413,885.425,442.186Z" transform="translate(-777 -364.101)" opacity="0.41"/>
    <path id="Path_344" data-name="Path 344" d="M883.766,422.913a2.46,2.46,0,0,1,2.584-2.72,1.958,1.958,0,0,1-2.111-2.62,1.26,1.26,0,0,1,1.33-.445,2.494,2.494,0,0,1-1.633-4.668,1.184,1.184,0,0,1-1.719.8,4.433,4.433,0,0,1,4.524-4.9,2.31,2.31,0,0,1-.062-3.316,2.433,2.433,0,0,1,4.29-2.206,3.271,3.271,0,0,1,.432-2.856c.669-.742,2.232-.543,2.33.452a2.377,2.377,0,0,1,1.967-2.6,3.688,3.688,0,0,1,3.243,1.267,2.863,2.863,0,1,1,5.27-2.171,1.61,1.61,0,1,1,3.037-1.029,2.945,2.945,0,0,1,.033-.777c.022-.363.055-.724.1-1.085a20,20,0,0,1,.979-4.238,6.7,6.7,0,0,0,.238-.776,1.158,1.158,0,0,1,1.01-.738,3.624,3.624,0,0,1,.714-.007,2.007,2.007,0,0,1,.625.059,3.166,3.166,0,0,1,.831.636,3.587,3.587,0,0,1,.685.907,3.269,3.269,0,0,1,.225.536c.03.093.174.459.12.544a3.793,3.793,0,0,1,6.851.984,3.208,3.208,0,0,1,4.821,2.454,5.27,5.27,0,0,1,6.536-.921,4.253,4.253,0,0,1-.125-2.826,3.562,3.562,0,0,1,2.18.024c.671.309,1.078,1.271.574,1.813a3.446,3.446,0,0,1,6,2.173,3.577,3.577,0,1,1,6.959,1.579,2.918,2.918,0,0,1,5.522,1.782,4.624,4.624,0,0,1,2.957-3.429,3.446,3.446,0,0,1,4.049,1.594c.213-2.18.5-4.537,2.021-6.116s4.706-1.617,5.5.423a3.364,3.364,0,0,1,1.764-3.793,9.831,9.831,0,0,1,4.408-.92,5.742,5.742,0,0,1,2.989.383,1.978,1.978,0,0,1,1,2.541c-.149-.265.2-.582.5-.527a1.229,1.229,0,0,1,.686.563c1.26,1.719,2.486,4.252.977,5.757a4,4,0,0,1,1.771,6.267,9.752,9.752,0,0,1,1.352,7.567,3.344,3.344,0,0,1-.982,1.858,1.485,1.485,0,0,1-1.945.03,7.288,7.288,0,0,1-3.648,8.893,4.757,4.757,0,0,1,.178-2.972,7.463,7.463,0,0,1-2.762,6.782,2.968,2.968,0,0,1-2.505.743c-.871-.242-1.443-1.443-.825-2.1a1.993,1.993,0,0,1,.048,2.453,3.918,3.918,0,0,1-2.207,1.386,8.072,8.072,0,0,1-8.711-3.248,3,3,0,0,1-5.329,2.464,3.7,3.7,0,0,1,.08.786,4.2,4.2,0,0,1-.583,2.1,5.789,5.789,0,0,1-.671.873c-.125.142-.2.188-.375.083a3.452,3.452,0,0,1-.488-.38c-.1-.089-.1-.106-.117-.254-.067-.522-.132-1.043-.2-1.565a3.787,3.787,0,0,1-1.812,3.754,7.4,7.4,0,0,1-4.258.954,14.706,14.706,0,0,1-8.124-2.775,2.345,2.345,0,0,1,.542,1.852c-.194.637-1.3.849-1.462.2a3.932,3.932,0,0,1-5.554.9c.219-.176.533.193.415.447a.856.856,0,0,1-.71.379c-1.144.148-2.69-.759-2.163-1.786a13.658,13.658,0,0,1-7.271,1.878.778.778,0,0,1,.678-.948c-.224.151-.452.3-.682.437a19.9,19.9,0,0,1-6.845,2.6q-.6.109-1.213.18c-.291.034-.732.07-.861-.271a.871.871,0,0,1-.013-.419l.127-.959a1.342,1.342,0,0,1-1.106,1.071,4.985,4.985,0,0,1-1.594-.005,6.66,6.66,0,0,1-2.206-.767,6.468,6.468,0,0,1-.921-.627c-.069-.056-.721-.7-.723-.7a5.137,5.137,0,0,1-2.9.917c-1.026-.1-2.013-1.144-1.652-2.111a8.794,8.794,0,0,1-5.278.39,3.2,3.2,0,0,1,.877-1.865,6.6,6.6,0,0,0-2.236.485,2.328,2.328,0,0,1-2.189-.251c-.57-.514-.369-1.725.4-1.753a14.956,14.956,0,0,1-6.246-.216c-.492-.122-1.313-.231-1.453-.827a1.816,1.816,0,0,1,.044-.764.669.669,0,0,1,.12-.311c.088-.1.182-.078.3-.085s.993-.23.832-.441a4.7,4.7,0,0,0-.729-.2,2.662,2.662,0,0,1-.658-.411A2.22,2.22,0,0,1,883.766,422.913Z" transform="translate(-777 -364.101)"/>
    <path id="Path_345" data-name="Path 345" d="M968.11,391.108a3.711,3.711,0,0,0-2.949,2.934,2.715,2.715,0,0,0-3,1.619,7.918,7.918,0,0,0-.493,3.645,6.2,6.2,0,0,0-5.576-.319,4.285,4.285,0,0,0-5.182.933,8.771,8.771,0,0,0-3.328-1.83,3,3,0,0,0-3.314,1.292c.483-.6-.288-1.421-1-1.735a9.957,9.957,0,0,0-7.563-.176,1.529,1.529,0,0,1-1.109.153c-.36-.151-.523-.557-.768-.86a2.348,2.348,0,0,0-2.951-.288,6.842,6.842,0,0,0-2.111,2.406,2.51,2.51,0,0,0-4.862.233,7.348,7.348,0,0,0-2.8-2.513,2.528,2.528,0,0,0-3.265,1.041,2.173,2.173,0,0,0-1-2.366,3.663,3.663,0,0,0-2.674-.357,5.7,5.7,0,0,0-3.581,2.445,5.939,5.939,0,0,0-5.756,3.751,4.024,4.024,0,0,0-2.884.382,2.018,2.018,0,0,0-.795,2.576c.649,1.1,2.243.985,3.492.734.519-.1,1.18-.4,1.089-.922-.6,1.4.8,3.084,2.322,3.052a3.48,3.48,0,0,0,3.08-2.88c.06,1.96,2.186,3.1,4.008,3.822a1.373,1.373,0,0,0,1.893-.41c1.681-1.706,3.493-3.777,3.182-6.152a2.074,2.074,0,0,0,4.087.251,5.47,5.47,0,0,0,2.814,3.238,3.682,3.682,0,0,0,1.736.4c2.155-.1,3.351-2.477,4.094-4.5a2.585,2.585,0,0,0,3.829.68,8.061,8.061,0,0,0,6.431,4.5c1.151.105,2.659-.394,2.642-1.55a3.991,3.991,0,0,0,3.013,1.544c1.165-.091,2.172-1.53,1.476-2.468a9.508,9.508,0,0,0,2.746,1.921,3.563,3.563,0,0,0,3.236-.157,2.231,2.231,0,0,0,.77-2.934,8.409,8.409,0,0,0,3.593.321,2.871,2.871,0,0,0,2.406-2.378,23.3,23.3,0,0,0,5.48-.749,2.5,2.5,0,0,0,1.742-1.081c.583-1.191-.785-2.37-1.953-3,.157.084.851-.177,1.03-.222a6.708,6.708,0,0,0,1.032-.341A3.039,3.039,0,0,0,972,393.4a1.533,1.533,0,0,0-1.119-2.377A6.788,6.788,0,0,0,968.11,391.108Z" transform="translate(-777 -364.101)" fill="#663e00" opacity="0.59"/>
    <g id="Group_58" data-name="Group 58" transform="translate(194.884 141.405)">
      <path id="Path_346" data-name="Path 346" d="M973.528,575.766a10.81,10.81,0,0,1-1.227-1.44c-.452-.629-.67-.806.046-1.218a22.83,22.83,0,0,1,3.088-1.464,29.867,29.867,0,0,1,13.5-2.049,28.405,28.405,0,0,1,6.493,1.28c.23-.333.467-.659.705-.985a12.418,12.418,0,0,1,.3-3.808c3.009-15.964,7.121-32.841,18.935-44,10.288-9.722,24.737-13.456,38.6-16.309a6.075,6.075,0,0,1,3.2-.081,3.792,3.792,0,0,1,1.927,1.616l.007.006a3.839,3.839,0,0,1,1.9,1.907,6.151,6.151,0,0,1,.123,3.2c-1.974,14.028-4.777,28.676-13.826,39.562-10.385,12.5-26.973,17.68-42.714,21.7a12.041,12.041,0,0,1-3.761.53c-.31.258-.62.515-.945.773a29.081,29.081,0,0,1,1.682,6.392,29.949,29.949,0,0,1-1.188,13.6,23.047,23.047,0,0,1-1.271,3.181c-.359.733-.55.527-1.213.123a10.729,10.729,0,0,1-1.508-1.14,14.645,14.645,0,0,1-3.993-6.559,30.031,30.031,0,0,1-1.112-6.94,16.173,16.173,0,0,1-.054-3.7c.012-.057.017-.121.023-.171-.07.016-.148.026-.225.05a16.184,16.184,0,0,1-3.694.181,30.084,30.084,0,0,1-7-.669A14.722,14.722,0,0,1,973.528,575.766Z" transform="translate(-971.884 -505.506)" fill="#f24c27"/>
      <path id="Path_347" data-name="Path 347" d="M1046.342,564.625a21.061,21.061,0,0,1-10.069,8.314,3.223,3.223,0,0,0-.866-2.3,37.916,37.916,0,0,0-5.262-5.775,81.781,81.781,0,0,1,15.766-13.005,2.05,2.05,0,0,1,.9-.381c.968-.075,1.186,1.392,1.356,2.078a13.172,13.172,0,0,1,.374,2.731,15.083,15.083,0,0,1-.874,5.512A15.749,15.749,0,0,1,1046.342,564.625Z" transform="translate(-971.884 -505.506)" fill="#f58b28"/>
      <path id="Path_348" data-name="Path 348" d="M1003.155,523.545a21.053,21.053,0,0,0-7.658,10.576,3.222,3.222,0,0,1,2.35.718,37.872,37.872,0,0,1,6.1,4.885,81.77,81.77,0,0,0,11.978-16.56,2.048,2.048,0,0,0,.323-.922c.014-.971-1.465-1.1-2.16-1.222a13.19,13.19,0,0,0-2.749-.2,15.075,15.075,0,0,0-5.445,1.223A15.674,15.674,0,0,0,1003.155,523.545Z" transform="translate(-971.884 -505.506)" fill="#f58b28"/>
      <path id="Path_349" data-name="Path 349" d="M1048.662,530.1l-3.59.114-.066-2.064,3.59-.114-.114-3.59,2.064-.065.114,3.59,3.59-.114.066,2.064-3.59.114.114,3.59-2.064.066Z" transform="translate(-971.884 -505.506)" fill="#f58b28"/>
      <path id="Path_350" data-name="Path 350" d="M1042.765,546.357a4.764,4.764,0,0,1-4.222-1.8,6.9,6.9,0,0,1-1.011-5.215,2.7,2.7,0,0,1-2.445,1.625,4.27,4.27,0,0,1-1.9-.565,11.247,11.247,0,0,1-3.289-2.561,1.86,1.86,0,0,1-.468-.768,1.676,1.676,0,0,1,.019-.708,4.854,4.854,0,0,1,1.445-2.6,1.594,1.594,0,0,1-1.551.662,4.684,4.684,0,0,1-1.658-.624,4.61,4.61,0,0,1-3.062-4.932,11.244,11.244,0,0,1,.063-2.852,3.787,3.787,0,0,1,1.414-2.406,6.8,6.8,0,0,0-3.259,6.5,5.4,5.4,0,0,0,5.277,4.618,3.341,3.341,0,0,0-.173,2.616,8.61,8.61,0,0,0,1.288,2.357,5.651,5.651,0,0,0,2.428,2.237,6.045,6.045,0,0,0,3.975-.4,2.525,2.525,0,0,0,.3,2.3,6.532,6.532,0,0,0,1.724,1.671,8.532,8.532,0,0,0,3.705,1.8,3.771,3.771,0,0,0,.743.039,2.306,2.306,0,0,0,.68-.119.755.755,0,0,0,.211-.166c.054-.044.107-.089.161-.135q.159-.137.315-.276c.209-.187.413-.378.612-.575q.6-.59,1.137-1.234.254-.3.492-.617c-.013.018-.055.033-.075.045s-.059.036-.087.056c-.055.037-.109.076-.161.117a2.58,2.58,0,0,0-.291.271c-.045.049-.088.1-.129.152a1.119,1.119,0,0,1-.112.143c-.1.09-.192.187-.288.281a7.352,7.352,0,0,1-.665.6,3.307,3.307,0,0,1-.581.367.474.474,0,0,1-.241.067A2,2,0,0,0,1042.765,546.357Z" transform="translate(-971.884 -505.506)" fill="#f58b28"/>
      <path id="Path_351" data-name="Path 351" d="M1031.861,554.262a4.254,4.254,0,0,1-3.9-1.6,6.325,6.325,0,0,1-.84-4.855,2.646,2.646,0,0,1-2.31,1.568,3.848,3.848,0,0,1-1.761-.491,9.9,9.9,0,0,1-3.016-2.328,1.657,1.657,0,0,1-.421-.709,1.6,1.6,0,0,1,.032-.662,4.787,4.787,0,0,1,1.4-2.458,1.545,1.545,0,0,1-1.459.649,4.184,4.184,0,0,1-1.533-.55,5.394,5.394,0,0,1-2.048-1.512,5.6,5.6,0,0,1-.709-3.037,10.591,10.591,0,0,1,.115-2.667,3.739,3.739,0,0,1,1.366-2.277,6.656,6.656,0,0,0-3.166,6.135,4.782,4.782,0,0,0,4.827,4.213,3.159,3.159,0,0,0-.212,2.449,7.656,7.656,0,0,0,1.154,2.177,4.954,4.954,0,0,0,2.219,2.043,5.7,5.7,0,0,0,3.713-.448,2.33,2.33,0,0,0,.232,2.144,5.7,5.7,0,0,0,1.574,1.528,7.568,7.568,0,0,0,3.418,1.607,3.558,3.558,0,0,0,.692.021,2.208,2.208,0,0,0,.636-.124.756.756,0,0,0,.2-.16c.051-.042.1-.086.152-.129.1-.087.2-.175.3-.265q.3-.267.582-.549.569-.562,1.084-1.176.241-.288.471-.586c-.013.017-.053.031-.071.043l-.083.054c-.052.036-.1.074-.152.113a2.709,2.709,0,0,0-.277.259c-.043.047-.084.1-.123.145a1.069,1.069,0,0,1-.107.135c-.094.087-.183.179-.274.269a7.227,7.227,0,0,1-.631.57,3.254,3.254,0,0,1-.549.354.455.455,0,0,1-.226.068A1.882,1.882,0,0,0,1031.861,554.262Z" transform="translate(-971.884 -505.506)" fill="#f58b28"/>
      <path id="Path_352" data-name="Path 352" d="M1021.474,562.566a3.912,3.912,0,0,1-3.2-1.479,5.355,5.355,0,0,1-.94-3.879,1.772,1.772,0,0,1-1.753,1.108,3.48,3.48,0,0,1-1.431-.485,9.649,9.649,0,0,1-2.532-2.007,1.571,1.571,0,0,1-.375-.584,1.238,1.238,0,0,1-.012-.521,3.167,3.167,0,0,1,.977-1.862,1.078,1.078,0,0,1-1.126.431,3.851,3.851,0,0,1-1.252-.52,5.23,5.23,0,0,1-1.716-1.308,4.86,4.86,0,0,1-.734-2.438,8.226,8.226,0,0,1-.057-2.1,2.467,2.467,0,0,1,.96-1.721,4.418,4.418,0,0,0,1.9,8.263,2.409,2.409,0,0,0-.033,1.921,7.182,7.182,0,0,0,1.041,1.784,4.817,4.817,0,0,0,1.882,1.736,4.408,4.408,0,0,0,2.933-.146,1.921,1.921,0,0,0,.3,1.706,5.589,5.589,0,0,0,1.339,1.295,7.127,7.127,0,0,0,2.813,1.459,2.861,2.861,0,0,0,.552.055,1.666,1.666,0,0,0,.5-.062c.065-.021.1-.075.15-.115s.077-.062.114-.094q.114-.095.225-.192c.147-.13.292-.264.432-.4a11.108,11.108,0,0,0,.8-.868c.118-.143.232-.288.343-.437-.01.013-.041.022-.055.031l-.062.038c-.04.025-.078.052-.115.08a1.68,1.68,0,0,0-.206.19,1.3,1.3,0,0,0-.09.107.775.775,0,0,1-.078.1c-.07.063-.136.131-.2.2a4.738,4.738,0,0,1-.471.414,2.23,2.23,0,0,1-.418.25.334.334,0,0,1-.176.04A1.413,1.413,0,0,0,1021.474,562.566Z" transform="translate(-971.884 -505.506)" fill="#f58b28"/>
    </g>
    <g id="Group_59" data-name="Group 59" transform="translate(176.836 211.899)" opacity="0.9">
      <path id="Path_353" data-name="Path 353" d="M1025.61,678H964.916a11.063,11.063,0,0,1-9.58-16.6l15.171-26.281L982.4,614.53V585.6a4.823,4.823,0,0,1,0-9.547,4.742,4.742,0,0,1,.689-.051h23.892a4.739,4.739,0,0,1,1.149.138,4.827,4.827,0,0,1,0,9.373V614.53l11.891,20.593L1035.19,661.4A11.063,11.063,0,0,1,1025.61,678Z" transform="translate(-953.836 -576)" fill="#c9ecff"/>
      <path id="Path_354" data-name="Path 354" d="M973.773,663.113l16.031,4.211a2.477,2.477,0,0,0,2.846-.53,110.171,110.171,0,0,0,14.017-12.848,41.763,41.763,0,0,0,9.27-16.438,2.151,2.151,0,0,0,.1-1,2.325,2.325,0,0,0-.622-.985,27.432,27.432,0,0,1-4.976-8.085c-.222-.559-.5-2.327-1.142-2.476-.809-.186-1.41,1.343-1.743,1.857q-.871,1.345-1.772,2.669-1.815,2.667-3.749,5.249-3.855,5.147-8.161,9.932t-9.018,9.159q-4.711,4.374-9.806,8.31Q974.411,662.632,973.773,663.113Z" transform="translate(-953.836 -576)" fill="#e8f7ff" opacity="0.94"/>
      <path id="Path_355" data-name="Path 355" d="M984.493,597.906l5.609,4.638a1.6,1.6,0,0,0,.673.389,1.474,1.474,0,0,0,.55-.029,47.29,47.29,0,0,0,7.836-1.931,16.51,16.51,0,0,0,6.59-4.152.788.788,0,0,0,.216-.342.931.931,0,0,0-.072-.477,11.045,11.045,0,0,1-.517-2.572,10.618,10.618,0,0,1-.022-1.322c.011-.246.216-.939-.014-1.118-.288-.225-.8.212-1.021.334q-.583.316-1.175.622-1.192.613-2.418,1.173-2.441,1.114-5,2.011t-5.2,1.566q-2.643.669-5.361,1.105C984.944,597.837,984.719,597.872,984.493,597.906Z" transform="translate(-953.836 -576)" fill="#e8f7ff" opacity="0.94"/>
    </g>
    <path id="Path_356" data-name="Path 356" d="M856.8,596.989c-.036.338-.07.677-.1,1.016a11.786,11.786,0,0,0,.055,1.542,13.085,13.085,0,0,1-.277,2.154q-.159,1.153-.3,2.309-.278,2.312-.48,4.635c-.272,3.1-.451,6.209-.568,9.321-.234,6.237-.216,12.482-.18,18.724v.185c.051,8.667.15,17.478,2.433,25.756a2.209,2.209,0,0,0,.788,1.385,1.808,1.808,0,0,0,1.42-.025c8.063-2.358,16.485-2.548,24.815-2.724l97.406-2.056-10.78-71.13c-2.383-15.722-5.673-33.125-17.292-42.264a29.834,29.834,0,0,0-5.118-3.223,41.148,41.148,0,0,0-7.961-2.922c-1.364-.359-2.738-.665-4.117-.936q-1.035-.2-2.072-.382a14.481,14.481,0,0,0-1.674-.271,1.269,1.269,0,0,0-1.223.66,3.985,3.985,0,0,0-.126.663c-.084.438-.17.874-.257,1.311q-.261,1.31-.536,2.616-.55,2.613-1.16,5.208a19.379,19.379,0,0,1-.576,2.339,3.985,3.985,0,0,0-.17.406,4.387,4.387,0,0,0,.059,1.341q.129,1.488.281,2.972.306,2.972.711,5.93.813,5.916,2.055,11.761t2.973,11.55q1.54,5.079,3.489,10.022c.87,2.2,1.8,4.374,2.575,6.611a4.045,4.045,0,0,1,.335,1.6c-.042.907.1,1.809.041,2.722a18,18,0,0,1-1.552,5.859c-.983,2.282-2.238,4.433-3.292,6.681-.154.329-.331,1.127-.725,1.246-.317.1-.709-.252-.964-.39a23.445,23.445,0,0,1-2.887-1.334,5.876,5.876,0,0,1-.521-.42c-1.5-1.359-2.163-3.392-2.761-5.328l-2.673-8.639a66.7,66.7,0,0,1-3.124-13.242c-.288-3.013-.165-6.065-.659-9.051a44.3,44.3,0,0,0-2.754-8.8l-4.971-12.707a9.9,9.9,0,0,0-2.3-3.94c-.347-.311-.735-.569-1.095-.863a6.736,6.736,0,0,1-.711-.808c-.543-.6-1.181-1.068-1.679-1.724a18.906,18.906,0,0,1-2.365-4.464c-.25-.623-.485-1.251-.718-1.88l-1.168-3.163-.576-1.557c-.113-.306-.162-.9-.511-1.006-.218-.065-.713.367-.9.483q-.491.3-.976.608c-2.6,1.658-5.09,3.536-7.643,5.288-1.372.941-2.765,1.848-4.2,2.66-8.745,4.94-16.887,11.363-22.824,20.2a59.88,59.88,0,0,0-6.679,13.32,62.278,62.278,0,0,0-2.37,8.553q-.441,2.185-.725,4.407Q856.865,596.385,856.8,596.989Z" transform="translate(-777 -364.101)" fill="#fdfcfc"/>
    <g id="Group_60" data-name="Group 60" transform="translate(59.416 200.604)">
      <path id="Path_357" data-name="Path 357" d="M837.288,608.843c-3.729,23.64,4.532,53.089,24.146,66.57,10.028,6.893,21.591,8.842,32.643,9.449,16.106.884,31.946-.727,47.61-2.868,4.946-.676,9.992-1.445,14.2-4.081a15.091,15.091,0,0,0,7.208-13.353c-.194-4.151-2.111-8.172-3.977-12-1-2.046-2.317-4.369-4.263-4.739a4.949,4.949,0,0,0-2.856.6c-21.9,9.338-47.316,10.2-71.644,2.44-2.729-.871-5.734-2.092-7.3-4.9-1.476-2.64-1.2-5.824-.786-8.663a164.6,164.6,0,0,1,8.359-33.283c1.891-5.142,4.091-10.056,6.389-14.926,1.427-3.022,3.224-6.3,3.159-10.05a19.217,19.217,0,0,0-5.047-11.544c-3.7-3.784-9.35-2.868-13.4-2.081-8.565,1.666-15.974,6.818-21.639,13.724C843.5,587.158,839.063,597.586,837.288,608.843Z" transform="translate(-836.416 -564.705)" fill="#d0d9d7"/>
    </g>
    <g id="Group_61" data-name="Group 61" transform="translate(62.746 199.691)">
      <path id="Path_358" data-name="Path 358" d="M840.618,606.044c-3.729,23.64,4.532,53.09,24.146,66.571,10.028,6.892,21.591,8.842,32.643,9.448,16.105.885,31.946-.726,47.61-2.867,4.031-.551,8.11-1.15,11.8-2.809a7.055,7.055,0,0,0,2.1-1.173,9.087,9.087,0,0,0,1.231-1.653,14.459,14.459,0,0,0,1.686-3.964,17.8,17.8,0,0,0-.07-9.085,30.321,30.321,0,0,0-1.848-4.821,22.19,22.19,0,0,0-4.708-7.045c-.884-.812-2.372-2.1-3.418-1.653a82.732,82.732,0,0,1-20.459,5.293,107,107,0,0,1-47.652-4.23c-2.729-.871-5.734-2.092-7.3-4.9-1.477-2.64-1.2-5.824-.787-8.664a164.68,164.68,0,0,1,8.36-33.283c.837-2.278,1.738-4.518,2.682-6.729q1.105-2.589,2.279-5.132A9.809,9.809,0,0,0,890.172,586a20.259,20.259,0,0,1,1.222-4.122,8.122,8.122,0,0,0,.49-2.363,8.253,8.253,0,0,0-.483-2.536,22.257,22.257,0,0,0-6.029-9.8,13.529,13.529,0,0,0-5.536-3.063,9.638,9.638,0,0,0-2.891-.316,4.615,4.615,0,0,0-1.208.261,23.2,23.2,0,0,1-2.9.252,16.736,16.736,0,0,0-4.673,1.853l-3.8,1.972c-1.506.781-3.063,1.178-4.615,1.88a12.2,12.2,0,0,0-2.854,2.518,46.468,46.468,0,0,0-3.475,3.794C846.829,584.36,842.393,594.788,840.618,606.044Z" transform="translate(-839.746 -563.792)" fill="#f2f0f0"/>
    </g>
    <g id="Group_62" data-name="Group 62" transform="translate(60.922 199.562)" opacity="0.68">
      <path id="Path_359" data-name="Path 359" d="M838.794,607.8c-3.728,23.64,4.532,53.09,24.146,66.571,10.029,6.892,21.592,8.842,32.643,9.448,16.106.885,31.946-.726,47.61-2.867,4.947-.677,9.993-1.445,14.2-4.082a15.089,15.089,0,0,0,7.208-13.352c-.194-4.152-2.111-8.173-3.977-12-1-2.047-2.316-4.37-4.263-4.74a4.945,4.945,0,0,0-2.855.6c-21.9,9.337-47.317,10.2-71.645,2.44-2.728-.871-5.733-2.092-7.3-4.9-1.477-2.64-1.2-5.824-.787-8.664a164.609,164.609,0,0,1,8.359-33.283c1.891-5.142,4.091-10.056,6.39-14.926,1.426-3.022,3.223-6.3,3.158-10.049a19.215,19.215,0,0,0-5.046-11.544c-3.7-3.784-9.351-2.869-13.4-2.081-8.564,1.665-15.974,6.818-21.639,13.723C845.006,586.116,840.569,596.544,838.794,607.8Z" transform="translate(-837.922 -563.663)" fill="#fff"/>
    </g>
    <path id="Path_360" data-name="Path 360" d="M974.965,632.421a13.218,13.218,0,0,0,1.67-1.675,18.359,18.359,0,0,1,1.221-1.666,28.873,28.873,0,0,0,2.049-2.148,11.493,11.493,0,0,0,.754-1.592c.138-.291.421-1.322.676-1.427a8.025,8.025,0,0,1,2.392-3.215,6.956,6.956,0,0,1,1.255-1.011,1.728,1.728,0,0,1,1.854.3,3.179,3.179,0,0,1,.868,2.568,6.235,6.235,0,0,1-.834,2.323c-1.064,2.026-2.334,3.993-3.223,6.163.492.108,1.063-.336,1.432-.617a10.248,10.248,0,0,1,1.871-1.251c.4-.184.792-.386,1.188-.579l2.3-1.122a6.964,6.964,0,0,1,3.345-.973,1.615,1.615,0,0,1,1.411.784,1.968,1.968,0,0,1-.481,2.149,29.377,29.377,0,0,1-5.237,4.93,31.279,31.279,0,0,0-2.705,2.04c-.23.21-.937.614-.659,1.12.295.537,1-.036,1.288-.15a21.7,21.7,0,0,1,7.007-1.466c.824-.035,1.732.209,2.533.145.1-.008.171-.12.287-.11a.9.9,0,0,1,.729.574,2.231,2.231,0,0,1,0,1.408c-.233.92-.714,2.1-1.589,2.246a4.019,4.019,0,0,1-.838-.079c-1.069-.059-1.922.823-2.949.973a6.662,6.662,0,0,0-2.137.453c-1.327.659-2.827,1.348-3.5,2.972a3.631,3.631,0,0,1,1.145-.218c.443-.071.871-.263,1.3-.372.982-.246,2.019-.31,3-.552.282-.069.515-.269.8-.329a1.689,1.689,0,0,1,1.752,1.436c.245,1.216-.84,1.816-1.7,2.2-4.3,1.911-6.775,6.725-10.412,9.7a52.255,52.255,0,0,1-6.527,4.054q-3.549,2.122-7.016,4.4-1.4.918-2.779,1.862-.691.471-1.379.949c-.1.067-.192.207-.3.243-.151.048-.091,0-.2-.111a.828.828,0,0,1-.27-.356,4.458,4.458,0,0,1-.147-.67c-.16-.886-.2-1.766-.33-2.65a20.109,20.109,0,0,0-1.158-4.2c-.265-.7-.553-1.387-.85-2.071-.54-1.243-1.047-2.486-1.577-3.737a14.021,14.021,0,0,1-1.319-4.481,1.945,1.945,0,0,1,.3-1.465c.8-.831,1.722-1.558,2.54-2.387l6.2-6.277,6.168-6.248Z" transform="translate(-777 -364.101)" fill="#437ba3"/>
    <path id="Path_361" data-name="Path 361" d="M922.492,576.365c-.007.106-.019.214-.035.323a7.117,7.117,0,0,0,.256,2.539,54.872,54.872,0,0,0,1.774,6.09c4.03,11.76,9.729,23.01,12.22,35.188a13.658,13.658,0,0,1-3.322.851,6.651,6.651,0,0,1-1.722.1,5.241,5.241,0,0,1-1.149-.449q-.918-.395-1.8-.873a21.516,21.516,0,0,1-3.09-2.044,43.112,43.112,0,0,1-5.462-5.53l-4.492-5.132c-1-1.142-2.051-2.409-2.118-3.925a6.7,6.7,0,0,1,.638-2.69q3.588-9.14,7.861-17.989c.075-.155-.539-1.087-.629-1.259q-.344-.648-.716-1.279-.746-1.263-1.606-2.453a32.085,32.085,0,0,0-3.853-4.412,27.124,27.124,0,0,0-4.6-3.636,6.591,6.591,0,0,0-.993-.4,4.208,4.208,0,0,1-1.152-.858c-.844-.756-1.637-1.567-2.406-2.4-.261-.282-.52-.568-.778-.855-3.83-4.268-7.469-9.151-8.109-14.851-.71-6.321,2.379-12.379,5.375-17.99a29.757,29.757,0,0,0,6.232,18.537,29.385,29.385,0,0,0,5.422,5.334,5.9,5.9,0,0,1,1.461,1.215,19.78,19.78,0,0,1,.968,2.085c1.041,2.057,2.037,4.138,2.909,6.273q.444,1.087.842,2.2a58.138,58.138,0,0,1,1.835,6.3A6.519,6.519,0,0,1,922.492,576.365Z" transform="translate(-777 -364.101)" fill="#efeded"/>
    <path id="Path_362" data-name="Path 362" d="M937.677,550.239q.066,4.781-.234,9.555-.315,5.02-1.035,10.007a13.074,13.074,0,0,1-.4,1.717,16.164,16.164,0,0,0-.253,1.889c-.244,1.523-.888,2.954-1.078,4.488a10.1,10.1,0,0,0,2.379,7.291,29.969,29.969,0,0,0,5.849,5.234l8.373,6.264c.42.315,1.252.795,1.248,1.369a4.043,4.043,0,0,1-.127.7q-.129.674-.286,1.342-.312,1.336-.729,2.644a35.462,35.462,0,0,1-2.067,5.078,35.1,35.1,0,0,1-6.349,8.9c-.064.065-.129.13-.194.194a20.114,20.114,0,0,1-2.2,1.933,7.853,7.853,0,0,1-2.45,1.4c-1.82.475-1.64-2.149-1.524-3.175.124-1.1.208-2.2.284-3.3a54.586,54.586,0,0,0,.11-6.319,32.215,32.215,0,0,0-.865-6.212c-.508-2.048-1.254-4.052-1.839-6.081q-1.559-5.394-2.748-10.886a134.441,134.441,0,0,1-2.708-18.674q-.336-4.7-.294-9.423.024-2.364.15-4.723a26.336,26.336,0,0,1,.54-3.518,75.939,75.939,0,0,1,3.119-11.507,10.231,10.231,0,0,1,.615-1.641c.335-.585.607-.22.906.179a15.127,15.127,0,0,1,1.545,2.579,21.811,21.811,0,0,1,1.724,5.771A45.982,45.982,0,0,1,937.677,550.239Z" transform="translate(-777 -364.101)" fill="#efeded"/>
    <path id="Path_363" data-name="Path 363" d="M978.8,446.228a18.062,18.062,0,0,0-1.946.06c-.208.017-.409,0-.616.023l-.763.1-1.526.194-3.062.389c-.253.032-.51.083-.764.1-.12.007-.243-.023-.366-.021l-1.929.036q-3.858.078-7.713.2-7.672.252-15.337.7c-3.393.2-6.783.425-10.174.651l-11.439.765c-11.83.791-23.849,1.621-34.976,5.713a9.805,9.805,0,0,1,.238,6.519c2.269,1.005,4.484,2.128,6.745,3.152,9.905,4.488,20.567,7.011,31.151,9.509a31.217,31.217,0,0,0,7.348,1.125c4.294-.031,8.356-1.818,12.276-3.572,3.755-1.681,7.577-3.4,10.637-6.153.051,1.5,1.955,2.086,3.451,2.255l13.815,1.562a3.875,3.875,0,0,0,1.563-.037,3.589,3.589,0,0,0,1.632-1.333,24.1,24.1,0,0,0,4.651-19.6,3.176,3.176,0,0,0-.745-1.687A3.121,3.121,0,0,0,978.8,446.228Z" transform="translate(-777 -364.101)" fill="#c9ecff" opacity="0.42"/>
    <path id="Path_364" data-name="Path 364" d="M964.6,464.977a3.653,3.653,0,0,1,1.145.376,4.674,4.674,0,0,1,1.431-1.835c3.522-3.156,7.448-5.878,10.4-9.634.309-.394.606-.991.28-1.369-.167-.193-.421-.225-.636-.33-.267-.131-.355-.315-.61-.05-.438.457-.85.947-1.275,1.418q-1.279,1.414-2.571,2.817t-2.6,2.791q-1.3,1.389-2.62,2.765t-2.645,2.739C964.861,464.71,964.65,464.984,964.6,464.977Z" transform="translate(-777 -364.101)" fill="#e8f7ff" opacity="0.46"/>
    <path id="Path_365" data-name="Path 365" d="M935.372,466.432a5.262,5.262,0,0,1,1.336.332,4.512,4.512,0,0,1,1.67-1.617c4.108-2.78,8.687-5.179,12.129-8.487.361-.347.708-.873.328-1.206a2.278,2.278,0,0,0-.742-.291c-.312-.116-.415-.277-.711-.044-.512.4-.992.835-1.489,1.249q-1.491,1.246-3,2.482t-3.028,2.459q-1.521,1.224-3.056,2.436t-3.085,2.413C935.675,466.2,935.429,466.438,935.372,466.432Z" transform="translate(-777 -364.101)" fill="#e8f7ff" opacity="0.46"/>
  </g>
</svg>
