<svg xmlns="http://www.w3.org/2000/svg" width="144.138" height="178.162" viewBox="0 0 144.138 178.162">
  <g id="Saturn" transform="translate(-837.104 24.276) rotate(-68)">
    <path id="Path_246" data-name="Path 246" d="M310.833,890.78a51.018,51.018,0,0,1-7.362,10.506c-12.325-1.148-29.462-6.757-47.106-16.076-17.88-9.445-32.316-20.605-40.144-30.227a50.978,50.978,0,1,1,94.612,35.8Z" transform="translate(14.644 0)" fill="#ffd224"/>
    <path id="Path_247" data-name="Path 247" d="M304.227,880.645a50.288,50.288,0,0,1-6.761,6.2,50.986,50.986,0,0,1-81.843-43.315,50.261,50.261,0,0,1,1.354-9.19c7.828,9.622,22.263,20.782,40.144,30.227C274.766,873.888,291.9,879.5,304.227,880.645Z" transform="translate(13.888 20.641)" fill="#ffd224"/>
    <path id="Path_248" data-name="Path 248" d="M353.674,889.473c-3.054-4.593-7.83-9.708-14.191-15.2-2.516-2.172-5.26-4.382-8.193-6.61a50.7,50.7,0,0,1-1.394,9.05c5.69,6.9,8.017,13.031,5.819,17.19-2.206,4.181-8.629,5.709-17.6,4.871-12.325-1.148-29.462-6.757-47.106-16.076-17.88-9.445-32.316-20.605-40.144-30.227-5.526-6.782-7.755-12.8-5.588-16.9,2.157-4.083,8.338-5.638,16.992-4.927a50.6,50.6,0,0,1,6.756-6.35c-3.345-1.112-6.572-2.083-9.658-2.9-8.123-2.157-15.041-3.22-20.556-3.154-9.369.115-13.086,3.449-14.554,6.229s-2.127,7.73,3.061,15.532c3.054,4.593,7.83,9.708,14.191,15.2q3.695,3.188,8,6.463a312.918,312.918,0,0,0,81.843,43.315c3.562,1.2,7,2.234,10.27,3.105,8.123,2.159,15.041,3.22,20.556,3.154,9.368-.115,13.086-3.45,14.554-6.229S358.862,897.277,353.674,889.473Z" transform="translate(0 2.512)" fill="#f58b28"/>
  </g>
</svg>
