<svg xmlns="http://www.w3.org/2000/svg" width="353" height="353" viewBox="0 0 353 353">
  <g id="exhibition" transform="translate(-590.622 -1449.622)">
    <g id="Group_122" data-name="Group 122" transform="translate(590.622 1449.622)">
      <circle id="Ellipse_106" data-name="Ellipse 106" cx="176.5" cy="176.5" r="176.5" fill="#f2f0f0"/>
      <g id="Group_126" data-name="Group 126" transform="translate(218.593 41.775)">
        <path id="Path_394" data-name="Path 394" d="M1322.119,789.279q-1.341-1.6-2.913-3.2,1.567-1.6,2.913-3.2a30.36,30.36,0,0,0,5.585-9.129c.828-2.363,1.44-5.829-.345-8.921s-5.093-4.294-7.553-4.758a30.343,30.343,0,0,0-10.7.272q-1.808.32-3.71.792c-.39-1.383-.815-2.709-1.272-3.968a30.378,30.378,0,0,0-5.114-9.4c-1.632-1.9-4.328-4.162-7.9-4.162s-6.265,2.264-7.9,4.162a30.357,30.357,0,0,0-5.113,9.4c-.488,1.34-.936,2.756-1.347,4.235-1.632-.433-3.221-.788-4.756-1.059a30.338,30.338,0,0,0-10.7-.272c-2.461.464-5.769,1.667-7.554,4.758s-1.172,6.558-.344,8.921a30.356,30.356,0,0,0,5.584,9.129q1.341,1.6,2.913,3.2-1.568,1.6-2.913,3.2a30.364,30.364,0,0,0-5.584,9.128c-.828,2.364-1.441,5.83.344,8.921s5.093,4.295,7.554,4.759a30.337,30.337,0,0,0,10.7-.272c1.531-.27,3.116-.624,4.744-1.056.413,1.5.866,2.927,1.359,4.281a30.346,30.346,0,0,0,5.113,9.4c1.633,1.9,4.328,4.162,7.9,4.162s6.266-2.263,7.9-4.162a30.367,30.367,0,0,0,5.114-9.4c.463-1.273.891-2.615,1.284-4.014q1.893.469,3.7.789a30.337,30.337,0,0,0,10.7.272c2.461-.464,5.769-1.667,7.554-4.759s1.173-6.557.344-8.921A30.343,30.343,0,0,0,1322.119,789.279Zm2.6-22.925c2.32,4.019-.866,10.622-7.694,17.591a88.174,88.174,0,0,0-8.91-7.239,89.312,89.312,0,0,0-1.954-12.616C1315.354,761.815,1322.439,762.41,1324.716,766.354ZM1297.725,798.5c-2.406,1.39-4.807,2.654-7.172,3.79-2.365-1.136-4.766-2.4-7.172-3.79-2.19-1.264-4.287-2.576-6.279-3.917-.218-2.732-.334-5.569-.334-8.481,0-2.93.118-5.785.338-8.533,1.991-1.34,4.087-2.651,6.275-3.914,2.406-1.39,4.807-2.654,7.172-3.791,2.365,1.137,4.766,2.4,7.172,3.791,2.626,1.515,5.119,3.1,7.457,4.72.18,2.5.276,5.082.276,7.727,0,2.627-.094,5.192-.272,7.675C1302.847,795.4,1300.352,796.985,1297.725,798.5Zm7.1-.8a83.858,83.858,0,0,1-1.606,9.559,82.738,82.738,0,0,1-9.088-3.338q2.562-1.306,5.119-2.781Q1302.127,799.485,1304.827,797.7Zm-17.854,6.221a84.46,84.46,0,0,1-8.041,3.018,83.628,83.628,0,0,1-1.441-8.452q2.127,1.362,4.364,2.653Q1284.407,802.619,1286.973,803.925Zm-13.084-11.595a84.5,84.5,0,0,1-7.613-6.252,84.413,84.413,0,0,1,7.616-6.253c-.116,2.06-.176,4.157-.176,6.278C1273.716,788.206,1273.775,790.286,1273.889,792.33Zm3.608-18.669a83.15,83.15,0,0,1,1.446-8.444,84.63,84.63,0,0,1,8.03,3.015q-2.561,1.307-5.118,2.78Q1279.625,772.3,1277.5,773.661Zm16.636-5.429a82.557,82.557,0,0,1,9.077-3.335,83.444,83.444,0,0,1,1.611,9.552q-2.693-1.773-5.569-3.437Q1296.7,769.539,1294.133,768.232Zm14.246,12.458a82.625,82.625,0,0,1,6.451,5.388,82.34,82.34,0,0,1-6.449,5.387q.127-2.648.129-5.362Q1308.51,783.366,1308.379,780.69Zm-17.266-34.035c4.611,0,8.713,5.984,11.338,15.281a88.237,88.237,0,0,0-11.9,4.554,89.666,89.666,0,0,0-10.865-4.239C1282.308,752.775,1286.45,746.655,1291.113,746.655Zm-34.723,19.7c2.364-4.093,9.907-4.58,19.615-1.993a88.563,88.563,0,0,0-1.815,11.5,89.811,89.811,0,0,0-10.106,8.081C1257.256,776.976,1254.07,770.373,1256.39,766.354Zm0,39.448c-2.32-4.018.866-10.621,7.694-17.59a89.816,89.816,0,0,0,10.1,8.078,88.859,88.859,0,0,0,1.809,11.508C1266.292,810.382,1258.753,809.9,1256.39,805.8Zm34.723,19.749c-4.67,0-8.819-6.139-11.438-15.641a89.7,89.7,0,0,0,10.878-4.243,88.234,88.234,0,0,0,11.91,4.557C1299.84,819.547,1295.732,825.551,1291.113,825.551Zm33.6-19.749c-2.276,3.943-9.356,4.54-18.547,2.268a89.305,89.305,0,0,0,1.947-12.623,88.235,88.235,0,0,0,8.906-7.235C1323.85,795.181,1327.036,801.784,1324.716,805.8Z" transform="translate(-1252.593 -743.603)" fill="#2a4047" stroke="#2a4047" stroke-miterlimit="10" stroke-width="1"/>
        <path id="Path_395" data-name="Path 395" d="M1305.414,786.042c0,2.626-.094,5.193-.272,7.676-2.34,1.622-4.835,3.206-7.461,4.723-2.406,1.389-4.807,2.654-7.172,3.791-2.366-1.137-4.766-2.4-7.173-3.791-2.189-1.264-4.288-2.574-6.279-3.917-.218-2.732-.333-5.57-.333-8.482,0-2.93.116-5.785.337-8.532q2.988-2.012,6.275-3.914c2.407-1.391,4.807-2.656,7.173-3.791,2.365,1.135,4.766,2.4,7.172,3.791,2.626,1.515,5.12,3.1,7.458,4.721C1305.319,780.815,1305.414,783.4,1305.414,786.042Z" transform="translate(-1252.593 -743.603)" fill="#3878a6"/>
        <circle id="Ellipse_71" data-name="Ellipse 71" cx="7.02" cy="7.02" r="7.02" transform="translate(30.89 35.557)" fill="#ffd224"/>
        <circle id="Ellipse_72" data-name="Ellipse 72" cx="5.036" cy="5.036" r="5.036" transform="translate(32.874 37.388)" fill="#f24c27"/>
        <circle id="Ellipse_73" data-name="Ellipse 73" cx="5.036" cy="5.036" r="5.036" transform="translate(24.481 4.426)" fill="#f24c27"/>
        <circle id="Ellipse_74" data-name="Ellipse 74" cx="5.036" cy="5.036" r="5.036" transform="translate(67.82 46.697)" fill="#f24c27"/>
        <circle id="Ellipse_75" data-name="Ellipse 75" cx="5.036" cy="5.036" r="5.036" transform="translate(9.831 62.11)" fill="#f24c27"/>
      </g>
      <g id="Group_127" data-name="Group 127" transform="translate(75.053 53.239)">
        <path id="Path_396" data-name="Path 396" d="M1306.437,870.713a19.338,19.338,0,0,1,1.454-2.366c.512-.6,1.017-1.182,1.476-1.838.649-.926,1.152-2.068,1.871-2.925a13.5,13.5,0,0,1,1.435-1.271c.263-.233,1.205-.814,1.287-1.14a10.761,10.761,0,0,0,2.845-3.587,10.6,10.6,0,0,0,.861-1.717,2.014,2.014,0,0,0-2.846-2.5,6.685,6.685,0,0,0-2.111,1.542c-1.821,1.739-3.573,3.707-5.538,5.276a3.288,3.288,0,0,1,.484-1.829,16.1,16.1,0,0,0,1.048-2.5c.145-.514.309-1.023.464-1.534l.9-2.974a11.075,11.075,0,0,0,.7-4.161,1.648,1.648,0,0,0-.819-1.466c-.755-.3-1.5.426-1.973,1.085a43.55,43.55,0,0,0-4.261,7.343c-.561,1.229-1.067,2.488-1.73,3.668-.181.322-.512,1.249-1,1.046-.518-.216-.029-1.18.059-1.548a34.174,34.174,0,0,0,.923-8.58c-.019-.974-.3-1.981-.3-2.937,0-.125.1-.23.085-.363a.818.818,0,0,0-.581-.717,1.815,1.815,0,0,0-1.312.338c-.843.5-1.912,1.348-1.992,2.41a5.523,5.523,0,0,0,.127.964c.122,1.241-.646,2.456-.721,3.7a10.505,10.505,0,0,1-.286,2.618c-.531,1.718-1.078,3.645-2.548,4.829a5.771,5.771,0,0,0,.13-1.4c.038-.537.19-1.086.264-1.622.168-1.212.162-2.445.325-3.653.047-.348.218-.671.256-1.016a1.535,1.535,0,0,0-1.449-1.708c-1.147.007-1.638,1.425-1.942,2.535-1.509,5.507-5.837,9.581-8.378,14.571a82.946,82.946,0,0,0-3.364,8.644q-1.753,4.68-3.658,9.3-.768,1.861-1.559,3.713-.4.926-.8,1.849a2.264,2.264,0,0,0-.207.415c-.036.187.006.106.116.206s.17.2.348.231a3.126,3.126,0,0,0,.634.01c.835-.027,1.657-.192,2.49-.255a14.085,14.085,0,0,1,3.983.341c.666.141,1.326.313,1.982.5,1.192.332,2.383.625,3.581.944a9.811,9.811,0,0,0,4.258.461,1.863,1.863,0,0,0,1.346-.706c.723-1.146,1.342-2.4,2.063-3.56l5.456-8.8,5.431-8.754Z" transform="translate(-1109.053 -755.067)" fill="#f0b794"/>
        <g id="Group_74" data-name="Group 74" transform="translate(49.946 126.957)">
          <path id="Path_397" data-name="Path 397" d="M1172.752,975.883c14.4,19.225,40.225,30.224,61.733,19.37,11-5.55,19.445-15.876,26.633-26.57,10.475-15.584,19.029-32.536,27.1-49.658,2.549-5.407,5.093-10.975,5.806-16.923s-.742-12.443-5.01-15.979c-3.047-2.525-7.057-3.234-10.9-3.87-2.054-.339-4.5-.537-5.951,1.174a7.749,7.749,0,0,0-1.327,3.256c-6.81,28.1-21.745,54.168-42.1,73.5-2.284,2.168-4.983,4.384-7.924,4.121-2.766-.247-4.84-2.614-6.593-4.885a162.165,162.165,0,0,1-18.366-30.189c-2.471-5.265-4.592-10.691-6.621-16.188-1.26-3.411-2.475-7.362-5.158-9.751-2.766-2.463-7.682-3.383-11.231-2.5-4.93,1.23-7.743,7.5-9.665,12.086a59,59,0,0,0-3.555,30.7A70.276,70.276,0,0,0,1172.752,975.883Z" transform="translate(-1158.999 -882.024)" fill="#003e6a"/>
        </g>
        <g id="Group_75" data-name="Group 75" transform="translate(49.905 127.996)">
          <path id="Path_398" data-name="Path 398" d="M1172.815,970.708c14.4,19.226,40.225,30.225,61.733,19.371,11-5.55,19.444-15.877,26.633-26.571,10.475-15.584,19.028-32.535,27.1-49.658a67.678,67.678,0,0,0,5.24-13.686,11.256,11.256,0,0,0,.457-2.876,12.345,12.345,0,0,0-.413-2.318,16.255,16.255,0,0,0-1.765-4.288,14.345,14.345,0,0,0-6.452-5.881,20.819,20.819,0,0,0-4.532-1.3,16.024,16.024,0,0,0-7.849.11c-1.114.356-2.93,1.008-3.257,2.348a131.773,131.773,0,0,1-8.781,24,148.8,148.8,0,0,1-32.133,45.051c-2.283,2.168-4.983,4.383-7.923,4.121-2.766-.248-4.84-2.615-6.593-4.885a162.193,162.193,0,0,1-18.367-30.189c-1.095-2.333-2.124-4.7-3.106-7.1q-1.151-2.8-2.226-5.648a10.651,10.651,0,0,0-1.592-3.455,20.725,20.725,0,0,1-2.161-3.926,7.72,7.72,0,0,0-1.367-2.039,5.933,5.933,0,0,0-2.084-1.176,15.921,15.921,0,0,0-10.6-.368,13.782,13.782,0,0,0-5.547,3.549,13.234,13.234,0,0,0-1.991,2.7,7.173,7.173,0,0,0-.555,1.383c-.355,1.106-1.135,2.009-1.6,3.078a26.977,26.977,0,0,0-1.551,5.9l-.935,5.109c-.371,2.023-1.043,3.846-1.5,5.863a18.327,18.327,0,0,0,.03,4.513q.141,3.006.551,5.973A70.288,70.288,0,0,0,1172.815,970.708Z" transform="translate(-1158.958 -883.064)" fill="#579dd4"/>
        </g>
        <g id="Group_76" data-name="Group 76" transform="translate(50.132 124.762)" opacity="0.68">
          <path id="Path_399" data-name="Path 399" d="M1172.938,973.688c14.4,19.226,40.225,30.225,61.733,19.371,11-5.55,19.445-15.877,26.633-26.571,10.476-15.584,19.029-32.535,27.1-49.658,2.548-5.407,5.092-10.974,5.8-16.922s-.742-12.444-5.01-15.98c-3.047-2.524-7.057-3.234-10.9-3.869-2.054-.34-4.5-.537-5.951,1.174a7.744,7.744,0,0,0-1.327,3.255c-6.81,28.1-21.745,54.168-42.1,73.5-2.284,2.168-4.983,4.383-7.924,4.121-2.766-.248-4.84-2.615-6.593-4.885a162.2,162.2,0,0,1-18.366-30.189c-2.471-5.265-4.592-10.692-6.621-16.188-1.26-3.412-2.475-7.363-5.158-9.752-2.766-2.462-7.682-3.382-11.231-2.5-4.93,1.231-7.743,7.505-9.665,12.086a59,59,0,0,0-3.555,30.705A70.275,70.275,0,0,0,1172.938,973.688Z" transform="translate(-1159.185 -879.83)" fill="#3878a6"/>
        </g>
        <path id="Path_400" data-name="Path 400" d="M1119.238,955.085q-.055.507-.1,1.016a11.612,11.612,0,0,0,.055,1.542,13.1,13.1,0,0,1-.277,2.155q-.159,1.152-.3,2.309-.279,2.312-.48,4.634c-.272,3.1-.451,6.209-.568,9.321-.234,6.238-.217,12.482-.18,18.724v.185c.051,8.667.15,17.479,2.433,25.757a2.211,2.211,0,0,0,.787,1.384,1.806,1.806,0,0,0,1.421-.025c8.063-2.358,16.484-2.547,24.814-2.723l97.406-2.057-10.779-71.13c-2.383-15.721-5.674-33.125-17.293-42.264a29.789,29.789,0,0,0-5.117-3.223,41.283,41.283,0,0,0-7.961-2.922c-1.364-.359-2.738-.665-4.117-.936-1.235-.242-3.7-1.143-5.021-.3-1,.639-1.362,2.1-1.873,3.1-1.277,2.5-3.038,4.928-5.722,6.016a12.646,12.646,0,0,1-2.825.709,21.378,21.378,0,0,1-9.395-.4c-3.222-.966-6.728-3.32-7.935-6.586-.113-.306-.162-.9-.511-1.006-.218-.065-.713.366-.905.483q-.492.3-.977.607c-2.6,1.659-5.089,3.536-7.643,5.288-1.372.942-2.764,1.848-4.2,2.66-8.745,4.94-16.887,11.363-22.824,20.2a59.951,59.951,0,0,0-6.68,13.32,62.2,62.2,0,0,0-2.369,8.553q-.441,2.185-.725,4.408Q1119.3,954.481,1119.238,955.085Z" transform="translate(-1109.053 -755.067)" fill="#437ba3"/>
        <path id="Path_401" data-name="Path 401" d="M1278.495,951.725a19.339,19.339,0,0,1,2.114-1.8c.672-.413,1.332-.812,1.971-1.293.9-.681,1.735-1.611,2.684-2.205a13.49,13.49,0,0,1,1.757-.765c.322-.14,1.4-.4,1.576-.687a10.746,10.746,0,0,0,3.813-2.533,10.518,10.518,0,0,0,1.35-1.368,2.014,2.014,0,0,0-1.936-3.254,6.689,6.689,0,0,0-2.484.814c-2.269,1.093-4.543,2.423-6.9,3.309a3.287,3.287,0,0,1,1.025-1.591,16.023,16.023,0,0,0,1.769-2.054c.3-.443.61-.877.915-1.316l1.774-2.55a11.092,11.092,0,0,0,1.946-3.743,1.646,1.646,0,0,0-.326-1.648c-.626-.517-1.557-.057-2.211.424a43.539,43.539,0,0,0-6.321,5.667c-.913,1-1.783,2.037-2.778,2.955-.272.25-.873,1.03-1.276.685-.427-.365.337-1.131.534-1.454a34.154,34.154,0,0,0,3.528-7.875c.282-.933.322-1.978.626-2.885.04-.119.167-.187.193-.319a.815.815,0,0,0-.332-.861,1.812,1.812,0,0,0-1.352-.084,3.616,3.616,0,0,0-2.639,1.676,5.618,5.618,0,0,0-.177.957c-.266,1.218-1.372,2.136-1.827,3.294a10.492,10.492,0,0,1-1.081,2.4c-1.034,1.469-2.151,3.133-3.914,3.806a5.739,5.739,0,0,0,.555-1.289c.2-.5.516-.974.752-1.46.534-1.1.908-2.276,1.437-3.374.152-.317.415-.571.557-.888a1.535,1.535,0,0,0-.85-2.072c-1.094-.347-2,.85-2.63,1.811-3.136,4.773-8.511,7.311-12.469,11.272a83.031,83.031,0,0,0-5.869,7.182q-3.114,3.91-6.352,7.717-1.3,1.535-2.629,3.05-.661.759-1.329,1.513c-.094.106-.258.206-.325.33-.092.168-.027.1.046.233s.1.242.26.327a3.218,3.218,0,0,0,.6.205c.8.232,1.636.33,2.447.527a14.063,14.063,0,0,1,3.683,1.553c.59.341,1.165.708,1.733,1.084,1.031.685,2.072,1.331,3.114,2a9.8,9.8,0,0,0,3.907,1.754,1.862,1.862,0,0,0,1.5-.256c1.042-.867,2.018-1.867,3.062-2.749l7.906-6.681,7.868-6.649Z" transform="translate(-1109.053 -755.067)" fill="#f0b794"/>
        <g id="Group_77" data-name="Group 77" transform="translate(0 151.491)">
          <path id="Path_402" data-name="Path 402" d="M1109.137,964.95c-1.254,23.986,11.541,48.973,35.011,54.409,12,2.779,25.1.257,37.471-3.353,18.025-5.262,35.45-12.8,52.613-20.788,5.42-2.52,10.94-5.167,15.3-9.279s7.4-10.033,6.385-15.482c-.725-3.891-3.35-7-5.894-9.952-1.36-1.576-3.112-3.294-5.323-2.909a7.728,7.728,0,0,0-3.1,1.651c-23.222,17.218-51.389,27.68-79.4,29.49-3.142.2-6.634.176-8.724-1.909-1.966-1.961-2.044-5.107-1.936-7.973a162.2,162.2,0,0,1,5.225-34.949c1.474-5.626,3.32-11.152,5.281-16.674,1.217-3.426,2.814-7.239,2.283-10.792-.548-3.663-3.734-7.517-7.028-9.11-4.574-2.212-10.753.806-15.163,3.094a59,59,0,0,0-22.392,21.307A70.279,70.279,0,0,0,1109.137,964.95Z" transform="translate(-1109.053 -906.558)" fill="#003e6a"/>
        </g>
        <g id="Group_78" data-name="Group 78" transform="translate(3.361 150.959)">
          <path id="Path_403" data-name="Path 403" d="M1112.5,961.016c-1.253,23.985,11.541,48.973,35.012,54.409,12,2.779,25.1.257,37.471-3.353,18.025-5.262,35.449-12.8,52.613-20.788a67.681,67.681,0,0,0,12.789-7.157,11.21,11.21,0,0,0,2.192-1.916,12.164,12.164,0,0,0,1.167-2.045,16.238,16.238,0,0,0,1.391-4.424,14.34,14.34,0,0,0-1.19-8.648,20.852,20.852,0,0,0-2.646-3.9,16.027,16.027,0,0,0-6.1-4.941c-1.083-.441-2.9-1.1-4.005-.283a131.794,131.794,0,0,1-22.112,12.81,148.818,148.818,0,0,1-53.529,14.026c-3.142.2-6.634.176-8.725-1.909-1.966-1.961-2.043-5.107-1.935-7.974a162.126,162.126,0,0,1,5.225-34.948c.652-2.493,1.381-4.974,2.16-7.443.608-1.927,1.248-3.848,1.907-5.764a10.626,10.626,0,0,0,.989-3.672,20.713,20.713,0,0,1,.856-4.4,7.756,7.756,0,0,0,.255-2.441,5.939,5.939,0,0,0-.848-2.238,15.921,15.921,0,0,0-7.906-7.071,13.787,13.787,0,0,0-6.534-.826,13.271,13.271,0,0,0-3.255.795,7.3,7.3,0,0,0-1.312.706c-.98.623-2.158.817-3.2,1.341a27,27,0,0,0-4.971,3.541l-3.991,3.326c-1.579,1.316-3.263,2.285-4.9,3.544a18.308,18.308,0,0,0-2.867,3.486q-1.817,2.4-3.4,4.94A70.282,70.282,0,0,0,1112.5,961.016Z" transform="translate(-1112.414 -906.026)" fill="#579dd4"/>
        </g>
        <g id="Group_79" data-name="Group 79" transform="translate(1.548 149.925)" opacity="0.68">
          <path id="Path_404" data-name="Path 404" d="M1110.685,963.384c-1.254,23.985,11.541,48.973,35.011,54.409,12,2.779,25.1.257,37.471-3.354,18.025-5.261,35.45-12.8,52.614-20.787,5.42-2.521,10.939-5.168,15.3-9.28s7.4-10.033,6.385-15.481c-.724-3.891-3.35-7-5.894-9.953-1.36-1.576-3.112-3.293-5.323-2.909a7.751,7.751,0,0,0-3.1,1.651c-23.223,17.219-51.389,27.68-79.4,29.491-3.143.2-6.635.176-8.725-1.909-1.966-1.961-2.044-5.108-1.936-7.974a162.2,162.2,0,0,1,5.225-34.949c1.474-5.626,3.32-11.152,5.281-16.673,1.217-3.427,2.814-7.24,2.283-10.793-.548-3.662-3.734-7.517-7.027-9.109-4.575-2.212-10.753.8-15.164,3.093a59,59,0,0,0-22.392,21.307A70.293,70.293,0,0,0,1110.685,963.384Z" transform="translate(-1110.601 -904.992)" fill="#3878a6"/>
        </g>
        <path id="Path_405" data-name="Path 405" d="M1133.336,807.807c-6.964,5.169-11.276,13.084-12.831,21.637a18.689,18.689,0,0,0-.128,7.332,26.446,26.446,0,0,0,1.994,5.342q2.1,4.565,4.313,9.067c.633,1.289,1.351,2.551,1.935,3.867a1.515,1.515,0,0,1,.159.7c.033,1.339.04,2.683-.025,4.029a18.9,18.9,0,0,1-1.777,7.729,12.4,12.4,0,0,1-.822,1.381,23.188,23.188,0,0,1-4.172,4.273l4.171-1.559a10.921,10.921,0,0,0,4.149-2.3c1.586-1.614,2.078-3.985,2.487-6.19-.111.6.454,1.014.623,1.51a2.829,2.829,0,0,1,.051.818c.007.542-.014,1.085-.061,1.625a17.155,17.155,0,0,1-.587,3.194,18.4,18.4,0,0,1-2.848,5.827,17.276,17.276,0,0,1-6.761,5.566c1.412-.1,2.828-.115,4.242-.11,1.174,0,2.389-.072,3.559.025a4.752,4.752,0,0,0,1.047.1,11.454,11.454,0,0,0,2.91-1.058,21.9,21.9,0,0,0,5.308-3.387,39.045,39.045,0,0,1-4.847,12.4,23.121,23.121,0,0,1-9.783,8.849l6.855-.667a21.9,21.9,0,0,0,3.968-.633,17.942,17.942,0,0,0,6.425-3.818,14.018,14.018,0,0,1,1.431-1.21,6.073,6.073,0,0,0,1.18-.8,13.265,13.265,0,0,0,2.371-3.019c.038-.068.074-.136.109-.205a15.19,15.19,0,0,0,1.3-7.073c0-1.233-.05-2.464-.052-3.7,0-.613.01-1.225.044-1.837a3.964,3.964,0,0,0-.022-1.584,14.626,14.626,0,0,0,8.8,8.414c-1.845-1.155-2.829-3.183-3.7-5.075-.575-1.256-1.146-2.516-1.693-3.788-.36-.837-.709-1.679-1.041-2.53-.165-.422-.308-.856-.482-1.273-.146-.351-.366-.669-.538-1.01a14.1,14.1,0,0,1-.905-2.26q-.179-.588-.307-1.192-.068-.315-.121-.633c-.014-.083-.023-.5-.08-.541a7.217,7.217,0,0,0,5.322,1.02c-2.482-1.6-3.935-4.418-5.082-7.225a3.818,3.818,0,0,1-.33-1.214,1.587,1.587,0,0,1,.272-.956,11.976,11.976,0,0,0,.56-1.8,22.872,22.872,0,0,1,1.276-2.945c.941-1.833,2.068-3.564,3.167-5.306,4.814-7.633,9.107-15.689,11.388-24.532a19.918,19.918,0,0,0,.651-8.946c-.85-4.231-4.483-9.818-9.482-10.2a38.35,38.35,0,0,0-15.784,1.729A30.016,30.016,0,0,0,1133.336,807.807Z" transform="translate(-1109.053 -755.067)" fill="#7d3b00"/>
        <path id="Path_406" data-name="Path 406" d="M1235.227,808.073c6.965,5.169,11.276,13.085,12.831,21.637a18.689,18.689,0,0,1,.128,7.332,26.446,26.446,0,0,1-1.994,5.342q-2.1,4.566-4.312,9.067c-.634,1.289-1.352,2.551-1.935,3.867a1.518,1.518,0,0,0-.16.7c-.033,1.339-.04,2.683.026,4.029a18.879,18.879,0,0,0,1.776,7.729,12.5,12.5,0,0,0,.822,1.382,23.277,23.277,0,0,0,4.172,4.273l-4.171-1.559a10.933,10.933,0,0,1-4.148-2.3c-1.587-1.614-2.079-3.985-2.488-6.19.111.6-.454,1.014-.623,1.51a2.8,2.8,0,0,0-.05.818c-.007.542.013,1.085.06,1.625a17.157,17.157,0,0,0,.588,3.194,18.359,18.359,0,0,0,2.848,5.827,17.275,17.275,0,0,0,6.76,5.567c-1.412-.1-2.827-.116-4.242-.11-1.174,0-2.389-.073-3.558.024a4.707,4.707,0,0,1-1.048.1,11.428,11.428,0,0,1-2.91-1.058,21.946,21.946,0,0,1-5.308-3.386,39.075,39.075,0,0,0,4.847,12.4,23.126,23.126,0,0,0,9.783,8.849l-6.855-.667a21.9,21.9,0,0,1-3.968-.633,17.941,17.941,0,0,1-6.425-3.818,13.909,13.909,0,0,0-1.43-1.21,6.047,6.047,0,0,1-1.181-.8,13.32,13.32,0,0,1-2.371-3.019c-.037-.068-.073-.136-.109-.2a15.2,15.2,0,0,1-1.3-7.074c0-1.232.051-2.464.052-3.7,0-.613-.01-1.225-.044-1.837a3.982,3.982,0,0,1,.022-1.584,14.625,14.625,0,0,1-8.8,8.414c1.845-1.155,2.828-3.183,3.694-5.075.576-1.256,1.146-2.515,1.693-3.787q.54-1.257,1.042-2.531c.164-.422.308-.856.481-1.273.146-.351.366-.669.538-1.009a14.15,14.15,0,0,0,.9-2.261q.179-.587.308-1.192.066-.315.12-.633c.014-.083.023-.5.081-.541a7.217,7.217,0,0,1-5.322,1.02c2.481-1.6,3.935-4.418,5.082-7.225a3.841,3.841,0,0,0,.329-1.214,1.579,1.579,0,0,0-.272-.956,12.128,12.128,0,0,1-.56-1.8,22.747,22.747,0,0,0-1.276-2.946c-.941-1.833-2.068-3.563-3.167-5.306-4.814-7.632-9.107-15.689-11.388-24.532a19.918,19.918,0,0,1-.651-8.946c.85-4.231,4.483-9.818,9.483-10.2a38.347,38.347,0,0,1,15.783,1.729A30,30,0,0,1,1235.227,808.073Z" transform="translate(-1109.053 -755.067)" fill="#7d3b00"/>
        <path id="Path_407" data-name="Path 407" d="M1243.916,824.459c1.087,4.307.528,8.865-.485,13.191s-2.472,8.551-3.2,12.933a61.994,61.994,0,0,0-2.948-15.563,107.939,107.939,0,0,0-2.055,31.442c-.856-9.346-10.281-16.789-9.423-26.134a24.952,24.952,0,0,1,1.115-4.868l5.9-19.642a2.957,2.957,0,0,1,1.121-1.85c1.026-.581,1.306.543,1.91.91.885.539,1.885.812,2.751,1.434a13.524,13.524,0,0,1,4.028,4.768A15.639,15.639,0,0,1,1243.916,824.459Z" transform="translate(-1109.053 -755.067)" fill="#c45d00" opacity="0.32"/>
        <path id="Path_408" data-name="Path 408" d="M1223.482,854.884q-.4.708-.814,1.4a53.392,53.392,0,0,1-8.706,10.814c-.145.14-.29.279-.437.416a48.393,48.393,0,0,1-3.836,3.272,12.922,12.922,0,0,1-1.942,1.349,3.66,3.66,0,0,0-1.248.82,38.95,38.95,0,0,1-5.865,5.417,36.193,36.193,0,0,1-14.628,6.22,34.083,34.083,0,0,1-15.766-.745,15.43,15.43,0,0,1-4.549-2.04,4.9,4.9,0,0,0-1.581-.941,3.434,3.434,0,0,1-1.785-1.377c-2.869-3.874-4.318-8.618-5.224-13.353s-1.319-9.559-2.383-14.26c-.091-.4-.187-.8-.285-1.2-.58-2.36-1.26-4.7-1.676-7.1a23.759,23.759,0,0,1-.371-3.579,9.806,9.806,0,0,1,.077-1.662,2,2,0,0,0-.077-.881c-.319-1.335-.61-2.676-.9-4.018l-1.995-9.308a20.975,20.975,0,0,1-.648-4.828,16.553,16.553,0,0,1,1.963-6.8c5.174-10.562,15.035-18.371,25.989-22.654s22.954-5.294,34.7-4.727a31.376,31.376,0,0,1,10.2,1.772,24.887,24.887,0,0,1,7.818,5.337,46.2,46.2,0,0,1,7.256,9.062,14.808,14.808,0,0,1,2.27,5.52,6.71,6.71,0,0,1-.156,2.84c-.293,1.007-.905,1.88-1.245,2.869a4.307,4.307,0,0,0-.179,1.876,10.906,10.906,0,0,1-.079,2.436q-.363,2.8-1,5.562a60,60,0,0,1-3.545,10.686,54.518,54.518,0,0,1-3.11,6.114c-.356.594-.9,1.068-1.223,1.676a10.279,10.279,0,0,0-.627,2.6A41.91,41.91,0,0,1,1223.482,854.884Z" transform="translate(-1109.053 -755.067)" fill="#944600"/>
        <path id="Path_409" data-name="Path 409" d="M1151.4,833.05c-.05-.027-.1-.051-.154-.075a3.564,3.564,0,0,1-.889-.578,7.855,7.855,0,0,1-1.995-2.723,8.063,8.063,0,0,1-.525-1.625,7.809,7.809,0,0,1-.128-.844,3.331,3.331,0,0,1-.023-.846c.037-.218.124-.411.146-.636a6.45,6.45,0,0,1,.121-.754,6.937,6.937,0,0,1,.495-1.455,6.283,6.283,0,0,1,1.848-2.345,4.275,4.275,0,0,1,2.683-.908c.064,0,.129.005.194.01-3.662-10.4-6.361-21.505-4.643-32.393s8.7-21.511,19.208-24.835c4.9-1.551,10.15-1.445,15.292-1.521,9.3-.138,18.716-.912,27.828.968s18.14,6.958,22.06,15.4c1.884,4.056,2.465,8.583,2.85,13.039a173.536,173.536,0,0,1-5.762,61.543c-2.894,10.342-7.719,21.467-17.621,25.623-2.671,1.121-5.581,1.658-8.138,3.019-6.133,3.261-8.972,10.483-10.326,17.3-.183.919-.348,1.841-.506,2.764a10.741,10.741,0,0,1-.376,2.321,6.29,6.29,0,0,1-.876,1.14c-.609.768-1.231,1.527-1.893,2.25a16.789,16.789,0,0,1-4.393,3.581,14.667,14.667,0,0,1-9.843,1.177,10.429,10.429,0,0,1-7.2-4.752,22.184,22.184,0,0,1-1.982-4.106,27.235,27.235,0,0,1-1.152-5.514c-.325-3.1-.2-6.264-.412-9.381q-.352-5.293-1.116-10.55a138.016,138.016,0,0,0-4.65-20.687,161.312,161.312,0,0,1-4.386-15.538q-.52-2.59-.818-5.218a10.164,10.164,0,0,0-.184-2.152c-.058-.174-.086-.142-.248-.137-.106,0-.211,0-.317,0a10.686,10.686,0,0,1-1.2-.065,1.15,1.15,0,0,1-.728-.3,1.685,1.685,0,0,0-.126-.114A.95.95,0,0,0,1151.4,833.05Z" transform="translate(-1109.053 -755.067)" fill="#f0c1a6"/>
        <path id="Path_410" data-name="Path 410" d="M1236.22,805.93c-.03.93-.06,1.85-.11,2.77-.05,1.12-.12,2.23-.21,3.34-.04.42-.06.86-.1,1.29a7.962,7.962,0,0,1-.26,1.61,6.05,6.05,0,0,0-.09,2.08c.1,1.81.11,3.62.05,5.43-.04,1.28-.12,2.57-.23,3.84-.13,1.46-.29,2.91-.49,4.35-.12.88-.26,1.75-.4,2.63-.84,5-2.03,9.93-3.34,14.83-2.1,7.91-4.57,15.92-9.46,22.49-.19.25-.39.51-.59.76-.35.45-.71.88-1.09,1.3-.1.11-.19.22-.29.33-.07.07-.08.15-.14.24a2.284,2.284,0,0,1-.51.52c-.17.13-.34.27-.51.4-.21.16-.43.32-.64.5-.1.09-.2.17-.3.27a.929.929,0,0,0-.14.14c-.05.05-.08.11-.13.15a3.135,3.135,0,0,0-.26.25,1.886,1.886,0,0,1-.31.25c-.22.16-.45.31-.68.45-.47.28-.95.53-1.44.78-.55.29-1.1.57-1.65.86-.12.06-.24.12-.36.19-.25.12-.5.25-.76.36-.13.06-.26.11-.4.16s-.27.06-.41.12a5.7,5.7,0,0,1-.73.25c-.05.01-.1.03-.15.04-.1,0-.17-.12-.21-.19a1.881,1.881,0,0,1-.01-1.49,38.9,38.9,0,0,0,1.5-9.46,28.468,28.468,0,0,0-.13-4.8c-.07-.54-.31-1.01-.33-1.54-.05-1.72.17-3.48.26-5.2.09-1.81.18-3.61.27-5.42.05-1.1.21-2.19.24-3.29a10.33,10.33,0,0,0-.01-1.11,2.523,2.523,0,0,0-.07-.48,1.894,1.894,0,0,1-.03-.53c-.01-.82-.02-1.63-.03-2.44a4.411,4.411,0,0,1,.23-1.81,1.376,1.376,0,0,1,.45-.61,2.158,2.158,0,0,1,1.15-.28,9.61,9.61,0,0,0,4.88-1.36,4.369,4.369,0,0,0,2-4.38,6.4,6.4,0,0,0-1.06-2.12c-.53-.81-1.06-1.62-1.6-2.42-.07-.11-.14-.22-.22-.33q-.21-.345-.45-.69a14.515,14.515,0,0,1-1.22-2.22c-.28-.65-.53-1.33-.77-2-.53-1.51-.92-3.06-1.31-4.61-.02-.1-.05-.21-.08-.31a20.869,20.869,0,0,1-.48-2.38,9.664,9.664,0,0,1-.08-1.2,1.474,1.474,0,0,1,.01-.21c0-.13.01-.26.02-.39,0-.07.03-.15.03-.22a1.266,1.266,0,0,0-.04-.26,3.667,3.667,0,0,1-.11-.37c-.05-.2-.09-.4-.13-.6-.08-.36-.14-.73-.2-1.1-.1-.59-.17-1.18-.22-1.78-.04-.33-.06-.67-.08-1.01-.03-.46-.05-.93-.06-1.4,0-.23-.02-.46,0-.69.01-.06.03-.13.04-.19a3.525,3.525,0,0,0,0-.65v-4.18c0-.3.02-.6.02-.9a1.821,1.821,0,0,0-.13-.51c-.12-.39-.23-.78-.32-1.18a8.434,8.434,0,0,1-.25-2.5,6.439,6.439,0,0,0-.58-2.7q-2.4-6.765-4.81-13.52c-.93-2.62-1.86-5.23-2.8-7.85a22.815,22.815,0,0,0-2.23-4.96c-.88-1.32-2.08-2.61-2.05-4.19a34.584,34.584,0,0,1,14.09-.87,27.75,27.75,0,0,1,8.99,3.18,28.656,28.656,0,0,1,7.4,5.98,27,27,0,0,1,2.87,3.92,5.328,5.328,0,0,1,.8,1.62c.04.2.04.41.07.62a5.832,5.832,0,0,0,.29,1.01c.25.76.51,1.52.76,2.29.43,1.28.86,2.56,1.16,3.87a43.741,43.741,0,0,1,.77,9.84C1236.3,799.54,1236.31,802.73,1236.22,805.93Z" transform="translate(-1109.053 -755.067)" fill="#e08e57" opacity="0.5"/>
        <path id="Path_411" data-name="Path 411" d="M1220.09,847.68a10.519,10.519,0,0,0-3.97,4.82c-.97,2.11-1.6,4.34-3.35,6.28-.05.05-.09.1-.14.15a.8.8,0,0,1-.13.13.01.01,0,0,1-.01.01,2.743,2.743,0,0,1-.83.56,2.313,2.313,0,0,1-.28.1c-.07.02-.15.04-.23.06a3.39,3.39,0,0,1-.48.1h-.02a7.049,7.049,0,0,1-1.03.1,14.222,14.222,0,0,1-2.79-.19,18.582,18.582,0,0,1-5.12-1.72c-.64-.31-1.25-.64-1.83-.98a17.488,17.488,0,0,1-6.04-5.58c-.04-.07-.08-.13-.12-.2a9.858,9.858,0,0,1-.83-1.74,5.921,5.921,0,0,1-.44-1.18c-.01-.01-.01-.01,0-.02a.8.8,0,0,1,.19-.45c.54-.6,2.99.31,3.75.44,1.44.24,2.88.45,4.33.61a76.753,76.753,0,0,0,10.05.45A22.543,22.543,0,0,0,1220.09,847.68Z" transform="translate(-1109.053 -755.067)" fill="#6a0e00"/>
        <path id="Path_412" data-name="Path 412" d="M1220.09,847.68a10.519,10.519,0,0,0-3.97,4.82c-.19.02-.39.04-.58.05a96.469,96.469,0,0,1-16.38-.5c-.16-.01-.32-.02-.48-.04-1.19-.1-2.38-.22-3.55-.41-.47-.08-.94-.17-1.41-.28a9.858,9.858,0,0,1-.83-1.74,5.921,5.921,0,0,1-.44-1.18c-.01-.01-.01-.01,0-.02a.8.8,0,0,1,.19-.45c.54-.6,2.99.31,3.75.44,1.44.24,2.88.45,4.33.61a76.753,76.753,0,0,0,10.05.45A22.543,22.543,0,0,0,1220.09,847.68Z" transform="translate(-1109.053 -755.067)" fill="#fff" opacity="0.99"/>
        <path id="Path_413" data-name="Path 413" d="M1212.63,858.93a1.856,1.856,0,0,1-.05.34c-.02.13-.12.26-.39.36a5.492,5.492,0,0,1-1.52.26h-.02c-.08.01-.17.01-.25.02a23.468,23.468,0,0,1-3.57-.11,18.582,18.582,0,0,1-5.12-1.72c-.64-.31-1.25-.64-1.83-.98.51-.04,1.03-.06,1.56-.07.37,0,.82-.03,1.18-.01.46.03.91.07,1.37.1.33.03.68.05,1.02.05a4.177,4.177,0,0,0,.72-.08,2.193,2.193,0,0,1,.66-.09c.11.01.2.03.3.04.34.03.72.03,1.07.04a12.065,12.065,0,0,1,3.39.4,2.185,2.185,0,0,1,.77.51,2.4,2.4,0,0,1,.69.86C1212.62,858.88,1212.62,858.91,1212.63,858.93Z" transform="translate(-1109.053 -755.067)" fill="#ff948a" opacity="0.8"/>
        <path id="Path_414" data-name="Path 414" d="M1190.506,816.153a9.332,9.332,0,0,1,5.07-1.2,5.316,5.316,0,0,1,4.2,2.276,8.031,8.031,0,0,1,1.6,4.052,7.491,7.491,0,0,0-8.692-2.412,13.334,13.334,0,0,0-2.4,1.415c-.839.584-1.652,1.326-2.538,1.825a4.522,4.522,0,0,1,.314-3.121A6.042,6.042,0,0,1,1190.506,816.153Z" transform="translate(-1109.053 -755.067)" opacity="0.8"/>
        <path id="Path_415" data-name="Path 415" d="M1230,815.232a8.157,8.157,0,0,0-4.432-1.047,4.651,4.651,0,0,0-3.676,1.99,7.028,7.028,0,0,0-1.4,3.542,6.55,6.55,0,0,1,7.6-2.108,11.693,11.693,0,0,1,2.1,1.237c.734.51,1.444,1.16,2.219,1.6a3.955,3.955,0,0,0-.275-2.729A5.279,5.279,0,0,0,1230,815.232Z" transform="translate(-1109.053 -755.067)" opacity="0.8"/>
        <path id="Path_416" data-name="Path 416" d="M1226.423,804.763c2.287-.686,4.734-1.374,7.023-.691a2.929,2.929,0,0,0-1.567-3.211,8.568,8.568,0,0,0-3.749-.8c-1.894-.109-3.79-.217-5.688-.217-1.468,0-3.308-.2-4.576.7-2.956,2.08.2,4.846,2.659,5.14A14.716,14.716,0,0,0,1226.423,804.763Z" transform="translate(-1109.053 -755.067)" fill="#7d3b00"/>
        <path id="Path_417" data-name="Path 417" d="M1189.281,808.3c-2.819-.027-5.828-.017-8.449,1.137-.641-.965.152-2.337,1.4-3.16a14.1,14.1,0,0,1,4.342-1.613c2.236-.562,4.475-1.123,6.731-1.592,1.745-.362,3.9-.987,5.541-.529,3.817,1.067.462,4.237-2.415,5.1A23.964,23.964,0,0,1,1189.281,808.3Z" transform="translate(-1109.053 -755.067)" fill="#7d3b00"/>
        <path id="Path_418" data-name="Path 418" d="M1240.33,796.412a61.533,61.533,0,0,0-6.472-20.249,35.807,35.807,0,0,0-8.893-11.451,22.413,22.413,0,0,0-6.156-3.524,19.471,19.471,0,0,0-3.426-.912,18.9,18.9,0,0,1-3.164-.408,12.563,12.563,0,0,1-2.13-1.373,18.727,18.727,0,0,0-3.116-1.572,25.983,25.983,0,0,0-6.82-1.634,43.953,43.953,0,0,0-8.071-.071c-16.184,1.234-32.516,8.807-41.19,22.437a20.03,20.03,0,0,0-2.625,5.64c-.6,2.345-.54,4.794-.914,7.173a18.044,18.044,0,0,1-1.545,5.449,5.883,5.883,0,0,0-.553,1.154,13.923,13.923,0,0,0,.068,4.324,80.477,80.477,0,0,0,1.224,9.342q.742,3.883,1.864,7.683c.195.66.391,1.321.61,1.972a1.462,1.462,0,0,0,.591.924,2.543,2.543,0,0,0,1.04.167,14.047,14.047,0,0,1,1.85.239,12.9,12.9,0,0,1,1.3.333,2.831,2.831,0,0,0,1.182.147,1.846,1.846,0,0,0,.884-.1c.39-.228.536-.859.714-1.24q.784-1.677,1.7-3.291.68-1.2,1.428-2.353a28.5,28.5,0,0,1,2.678-3.1c.171-.181.332-.371.494-.55a2.348,2.348,0,0,1,.477-.529c.114-.064.074-.059.2-.073a8.986,8.986,0,0,1,1.164.147,18.417,18.417,0,0,0,2.346.09,25.37,25.37,0,0,0,4.672-.512,45.063,45.063,0,0,0,9.061-2.944c.146-.057.29-.124.436-.181,3.305-1.441,6.52-3.052,9.743-4.674a42.11,42.11,0,0,0,6.836-4.005,28.441,28.441,0,0,0,5.806-6.321c.827-1.183,1.6-2.4,2.339-3.644.188-.3.375-.617.552-.93.145-.238.274-.615.6-.593a2.416,2.416,0,0,1,.874.442c.294.168.577.336.871.5,1.818,1.06,3.544,2.25,5.334,3.352a6.457,6.457,0,0,0,1.108.566c.583.221,1.2.328,1.768.589a26.251,26.251,0,0,1,3.993,2.482,6.043,6.043,0,0,0,.992.6,10.259,10.259,0,0,1,1.073.431,18.813,18.813,0,0,1,3.022,2.662q3.093,2.88,6.037,5.914,1.883,1.941,3.7,3.943a18.7,18.7,0,0,0,3.538,3.3,5.858,5.858,0,0,0,4.618.941c-2.135-1.07-2.638-3.837-2.884-6.213l-.6-5.794a8.379,8.379,0,0,1,0-2.146A9.81,9.81,0,0,0,1240.33,796.412Zm-45.728-.835a60.807,60.807,0,0,1-6.469,6.026,34.329,34.329,0,0,1-3.4,2.619,27.832,27.832,0,0,1-6.657,2.917c-1.224.393-2.462.749-3.7,1.074s-2.508.613-3.779.861-2.559.438-3.852.578c-.311.036-.632.073-.953.1-.131.016-.359.062-.481-.024-.189-.149.069-.461.165-.593a10.72,10.72,0,0,1,.845-.944c.382-.387.741-.791,1.113-1.176.108-.113.227-.228.336-.341.792-.787,1.631-1.518,2.48-2.251,8.461-7.243,18.025-13.548,28.825-16.381A20.528,20.528,0,0,1,1194.6,795.577Z" transform="translate(-1109.053 -755.067)" fill="#944600"/>
        <path id="Path_419" data-name="Path 419" d="M1184.579,762.006c-5.008,1.941-9.184,5.518-13.2,9.088-4.314,3.838-8.647,7.848-11.382,12.933,5.106-4.243,10.42-8.369,16.506-11.02s13.088-3.726,19.411-1.7c-3.784.273-7.3,1.992-10.634,3.8q-6.778,3.666-13.186,7.97a46.669,46.669,0,0,0-10.578,9.013c-2.922,3.617-4.926,8.161-4.71,12.806a69.475,69.475,0,0,1,53.5-25.051c.239,0,.883-8.9.945-9.721.143-1.916.942-4.919-.916-6.269-1.875-1.363-4.8-1.858-7-2.39a38.958,38.958,0,0,0-8.939-1.162A26.768,26.768,0,0,0,1184.579,762.006Z" transform="translate(-1109.053 -755.067)" fill="#c45d00" opacity="0.53"/>
        <path id="Path_420" data-name="Path 420" d="M1130.647,824.192c-1.087,4.308-.528,8.866.485,13.192s2.473,8.55,3.2,12.933a61.949,61.949,0,0,1,2.947-15.563,107.935,107.935,0,0,1,2.055,31.441c.857-9.345,10.281-16.788,9.424-26.133a25.024,25.024,0,0,0-1.115-4.868l-5.9-19.642a2.956,2.956,0,0,0-1.121-1.85c-1.026-.582-1.306.543-1.909.91-.885.539-1.886.812-2.752,1.434a13.528,13.528,0,0,0-4.028,4.768A15.65,15.65,0,0,0,1130.647,824.192Z" transform="translate(-1109.053 -755.067)" fill="#c45d00" opacity="0.32"/>
        <path id="Path_421" data-name="Path 421" d="M1216.59,812.39a.409.409,0,0,1-.11.01l-.03-.03Z" transform="translate(-1109.053 -755.067)" fill="#c45d00" opacity="0.23"/>
      </g>
    </g>
  </g>
</svg>
