<svg xmlns="http://www.w3.org/2000/svg" width="80" height="80" viewBox="0 0 80 80">
  <g id="Group_84" data-name="Group 84" transform="translate(-1498.365 -885.612)">
    <g id="Group_82" data-name="Group 82" transform="translate(1498.365 885.612)">
      <circle id="Ellipse_76" data-name="Ellipse 76" cx="40" cy="40" r="40" transform="translate(0 0)" fill="#f2f0f0"/>
    </g>
    <g id="Group_83" data-name="Group 83" transform="translate(1508.894 905.102)">
      <path id="Path_422" data-name="Path 422" d="M1545.179,926.09A17.09,17.09,0,1,1,1528.09,909,17.031,17.031,0,0,1,1545.179,926.09Z" transform="translate(-1511 -909)" fill="#2a4047" stroke="#2a4047" stroke-miterlimit="10" stroke-width="1"/>
      <circle id="Ellipse_77" data-name="Ellipse 77" cx="12.505" cy="12.505" r="12.505" transform="translate(4.585 4.585)" fill="#c9ecff"/>
      <path id="Path_423" data-name="Path 423" d="M1571.954,949.919l-1.747,3.027a2.424,2.424,0,0,1-3.31.888l-20.349-11.754a.338.338,0,0,1-.05-.033,17.088,17.088,0,0,0,4.031-7.286c.067.033.125.063.188.1l20.349,11.754A2.419,2.419,0,0,1,1571.954,949.919Z" transform="translate(-1516.916 -913.293)" fill="#13282e"/>
      <path id="Path_424" data-name="Path 424" d="M1535.785,928.112a4.167,4.167,0,0,1,2.956-.395.5.5,0,0,1,.282.162c.111.155.032.369-.053.54a17.865,17.865,0,0,1-3.892,5.128,21.752,21.752,0,0,1-5.388,3.627,6.113,6.113,0,0,1-2.9.953c-.86-.091-1.185-1.27-1.088-2.016a2.191,2.191,0,0,1,1.149-1.471c.737-.474,1.539-.837,2.281-1.3,2.143-1.349,3.779-3.393,5.893-4.788A7.208,7.208,0,0,1,1535.785,928.112Z" transform="translate(-1513.448 -912.099)" fill="#e8f7ff" opacity="0.94"/>
      <path id="Path_425" data-name="Path 425" d="M1527.371,927.511a6.136,6.136,0,0,0-1.381,1.3,2.449,2.449,0,0,0-.485,1.794,2.087,2.087,0,0,0,1.273-.486,42.661,42.661,0,0,0,5.367-4.551c.262-.252.884-.822.116-.677a8.128,8.128,0,0,0-1.976.755A18.54,18.54,0,0,0,1527.371,927.511Z" transform="translate(-1513.413 -911.646)" fill="#e8f7ff" opacity="0.94"/>
    </g>
  </g>
</svg>
