<svg xmlns="http://www.w3.org/2000/svg" width="110.329" height="73.176" viewBox="0 0 110.329 73.176">
  <g id="sleeping_fox" data-name="sleeping fox" transform="translate(0)">
    <g id="Group_171" data-name="Group 171" transform="translate(1.758)">
      <path id="Path_617" data-name="Path 617" d="M3455.7,1884.363q-1.665,2.537-3.1,5.219-.523.98-1.013,1.977a27.388,27.388,0,0,0-3.045,9.552,20.924,20.924,0,0,0,1.116,9.445,5.215,5.215,0,0,1,.266.979,5.383,5.383,0,0,0,.193.694,21.845,21.845,0,0,0,4.337,7.443,34.311,34.311,0,0,0,6.556,5.759,39.177,39.177,0,0,0,6.814,3.774,29.821,29.821,0,0,0,9.206,2.37,28.132,28.132,0,0,0,4.732-.076,5.056,5.056,0,0,1,1.646.134,11.5,11.5,0,0,0,2.75.211l55.18.072c2.211,0,4.661-.085,6.259-1.613a8.7,8.7,0,0,0,1.625-2.5l4.043-8.109.532-1.068q.6-1.216,1.2-2.437a7.956,7.956,0,0,0,.819-1.884c.131-.7.243-1.4.411-2.094a25.311,25.311,0,0,0,.492-2.683,57.944,57.944,0,0,0,.11-10.37,35.3,35.3,0,0,0-1.525-10.237,33.4,33.4,0,0,0-3.454-6.5,53.431,53.431,0,0,0-7.133-9.454,20.192,20.192,0,0,0-10.165-5.784c-1.45-.279-2.931-.347-4.395-.541a28.1,28.1,0,0,1-6.756-1.807,34.092,34.092,0,0,1-4.327-2.114q-1.044-.6-2.049-1.271a9.113,9.113,0,0,0-.972-.657,10.447,10.447,0,0,0-2.274-.667,8.423,8.423,0,0,0-2.7-.175,5.283,5.283,0,0,0-2.955,1.39,4.632,4.632,0,0,0-1.411,2.762c-.081.435-.221.786-.724.694-.536-.1-1.066-.271-1.6-.392q-1.6-.364-3.23-.615a49.284,49.284,0,0,0-6.521-.568,51.423,51.423,0,0,0-6.546.284,53.013,53.013,0,0,0-6.489,1.107,53.562,53.562,0,0,0-12.307,4.542,3.559,3.559,0,0,0-1.008.655c-.4.429-.729.877-1.176,1.277q-1.761,1.575-3.407,3.273a67.642,67.642,0,0,0-6.087,7.221Q3456.632,1882.949,3455.7,1884.363Z" transform="translate(-3448.442 -1859.912)" fill="#f2f2f2"/>
      <path id="Path_618" data-name="Path 618" d="M3511.871,1860.589h0a8.459,8.459,0,0,1,1.771.2l.064.014a9.612,9.612,0,0,1,2.055.6,3.7,3.7,0,0,1,.534.354c.115.086.235.174.359.257.687.456,1.388.891,2.086,1.294a34.907,34.907,0,0,0,4.412,2.155,28.8,28.8,0,0,0,6.92,1.85c.558.074,1.123.13,1.668.185.89.089,1.81.181,2.687.35a19.464,19.464,0,0,1,9.815,5.6,53.2,53.2,0,0,1,7.038,9.337,32.489,32.489,0,0,1,3.388,6.369,34.746,34.746,0,0,1,1.486,10.042,57.423,57.423,0,0,1-.105,10.249,24.7,24.7,0,0,1-.479,2.611c-.13.535-.227,1.076-.322,1.6-.032.177-.063.353-.1.53a4.8,4.8,0,0,1-.52,1.24c-.082.155-.166.314-.243.473-.34.7-.709,1.45-1.2,2.431q-.265.533-.531,1.067l-2.021,4.055-2.021,4.055a8.17,8.17,0,0,1-1.488,2.308c-1.375,1.315-3.567,1.425-5.694,1.425h-.1l-27.6-.036-27.577-.036h-.138a10.278,10.278,0,0,1-2.454-.192,5.857,5.857,0,0,0-1.384-.171c-.158,0-.319.007-.479.021-1.141.1-2.069.143-2.92.143-.6,0-1.153-.022-1.7-.067a29.1,29.1,0,0,1-9-2.318,38.545,38.545,0,0,1-6.7-3.709,33.725,33.725,0,0,1-6.427-5.644,21.079,21.079,0,0,1-4.206-7.209,4.928,4.928,0,0,1-.171-.607,5.837,5.837,0,0,0-.3-1.106,20.039,20.039,0,0,1-1.071-9.136,27.062,27.062,0,0,1,2.978-9.312c.321-.654.659-1.312,1-1.956.938-1.757,1.969-3.495,3.065-5.166.609-.928,1.25-1.854,1.906-2.752a67.221,67.221,0,0,1,6.026-7.149c1.083-1.116,2.218-2.206,3.373-3.24a8.872,8.872,0,0,0,.814-.861c.137-.159.266-.309.4-.456a2.685,2.685,0,0,1,.723-.465l.1-.053a52.8,52.8,0,0,1,18.557-5.577,51.094,51.094,0,0,1,5.419-.291c.345,0,.7,0,1.041.011a48.8,48.8,0,0,1,6.432.56c1.067.166,2.138.37,3.184.607.2.046.408.1.624.159.323.087.658.176,1,.239a1.521,1.521,0,0,0,.272.025c.458,0,1.046-.219,1.24-1.263a3.941,3.941,0,0,1,1.205-2.388,4.576,4.576,0,0,1,2.569-1.214,6.436,6.436,0,0,1,.709-.038m0-.678a7.155,7.155,0,0,0-.783.042,5.286,5.286,0,0,0-2.955,1.39,4.631,4.631,0,0,0-1.411,2.762c-.072.388-.191.709-.573.709a.83.83,0,0,1-.15-.015c-.536-.1-1.066-.271-1.6-.392q-1.6-.363-3.23-.615a49.263,49.263,0,0,0-6.521-.568q-.528-.011-1.055-.011a51.632,51.632,0,0,0-5.491.295,53.013,53.013,0,0,0-6.489,1.107,53.562,53.562,0,0,0-12.307,4.542,3.561,3.561,0,0,0-1.008.655c-.4.429-.729.877-1.176,1.277q-1.761,1.576-3.407,3.273a67.627,67.627,0,0,0-6.087,7.221q-1,1.366-1.925,2.78-1.665,2.538-3.1,5.219-.523.98-1.013,1.977a27.387,27.387,0,0,0-3.045,9.553,20.923,20.923,0,0,0,1.116,9.444,5.217,5.217,0,0,1,.266.98,5.387,5.387,0,0,0,.193.694,21.844,21.844,0,0,0,4.337,7.443,34.311,34.311,0,0,0,6.556,5.759,39.168,39.168,0,0,0,6.814,3.774,29.821,29.821,0,0,0,9.206,2.37c.588.048,1.172.069,1.755.069.992,0,1.979-.06,2.977-.145q.214-.018.421-.018a5.185,5.185,0,0,1,1.225.152,11.5,11.5,0,0,0,2.75.211l55.18.072h.1c2.186,0,4.588-.107,6.163-1.613a8.706,8.706,0,0,0,1.625-2.5l4.043-8.109.532-1.068q.6-1.216,1.2-2.437a7.953,7.953,0,0,0,.819-1.884c.131-.7.243-1.4.411-2.094a25.264,25.264,0,0,0,.492-2.683,57.946,57.946,0,0,0,.11-10.37,35.3,35.3,0,0,0-1.525-10.237,33.4,33.4,0,0,0-3.454-6.5,53.426,53.426,0,0,0-7.133-9.454,20.192,20.192,0,0,0-10.165-5.784c-1.45-.279-2.931-.347-4.395-.541a28.086,28.086,0,0,1-6.756-1.807,34.107,34.107,0,0,1-4.327-2.114q-1.044-.6-2.049-1.271a9.11,9.11,0,0,0-.973-.657,10.434,10.434,0,0,0-2.273-.667,9.118,9.118,0,0,0-1.914-.217Z" transform="translate(-3448.442 -1859.911)" fill="#ccc"/>
    </g>
    <g id="Group_172" data-name="Group 172" transform="translate(0 2.916)">
      <path id="Path_619" data-name="Path 619" d="M3492.786,1920.048a16.675,16.675,0,0,0-6.6.423,16.246,16.246,0,0,0-5.04,3.158q-3.06,2.54-5.905,5.324a11.039,11.039,0,0,1-3.171,2.457c-2.9,1.251-6.464-.271-9.322,1.074a13.23,13.23,0,0,0,6.551-6.147c3.263-6.468.738-14.163-.133-21.355a20.978,20.978,0,0,1,.048-6.487c1.059-5.486,5.345-9.774,9.9-13.012,1.955-1.39,4.3-2.712,6.631-2.138a6.132,6.132,0,0,1,3.938,3.778,18.125,18.125,0,0,1,1.01,5.549q.2,2.68.407,5.361l.525,6.917.131,1.729a4.206,4.206,0,0,1-.123,1.353c-.1.4-.13.822-.195,1.234-.087.558-.19,1.114-.255,1.675a5.432,5.432,0,0,0,.388,3.129l.336-3.025c.09-.806.136-1.6.2-2.409.21-2.518.445-5.035.81-7.535a38.366,38.366,0,0,1,4.528-14.175,19.959,19.959,0,0,0,2.352-4.484c.326-1.128-.588-1.549-1.487-1.658a16.824,16.824,0,0,1-2.2-.53q-1.136-.3-2.29-.515a35.466,35.466,0,0,0-9.688-.494,42.933,42.933,0,0,0-4.824.718c-1.63.331-3.244.736-4.848,1.173q-1.182.322-2.358.661c-.465.133-1.231.329-1.7.427a18.22,18.22,0,0,0-2.354.734c-1.474.519-2.93,1.088-4.346,1.748a15.427,15.427,0,0,0-1.954.955,2.67,2.67,0,0,0-.487.441c-.409.488-.812.968-1.268,1.416a11.018,11.018,0,0,1-1.552,1.3c-.5.34-1.044.625-1.516,1.008a8.533,8.533,0,0,0-.875.854,16.387,16.387,0,0,0-1.608,1.821,1.1,1.1,0,0,0-.1.2,5.393,5.393,0,0,1-.529.957c-.421.622-.878,1.219-1.355,1.8-.936,1.138-1.951,2.207-2.956,3.284a41.117,41.117,0,0,0-3.383,3.967,31.052,31.052,0,0,0-2.75,4.762,30.31,30.31,0,0,0-3.275,11.672,17.745,17.745,0,0,0,1.612,8.386,14.352,14.352,0,0,0,1,1.756,3.712,3.712,0,0,1,.778,1.415,10.959,10.959,0,0,0,1.756,3.8,25.108,25.108,0,0,0,5.123,5.837,26.09,26.09,0,0,0,6.784,4.106,25.248,25.248,0,0,0,3.781,1.222,10.308,10.308,0,0,0,1.92.341,3.855,3.855,0,0,1,.641.042,10.668,10.668,0,0,1,1.686.765,17.622,17.622,0,0,0,6.065.931c19.448.686,38.918,1.373,58.365.626,4.1-.157,8.55-.514,11.617-3.245a10.082,10.082,0,0,0,2.277-3.018,14.035,14.035,0,0,0,1.226-3.77,18.362,18.362,0,0,0,.251-2q.036-.5.047-1a2.137,2.137,0,0,0,.005-.518c-.082-.318-.556-.357-.84-.5q-2.593-1.3-5.24-2.488t-5.361-2.274q-2.693-1.076-5.43-2.04t-5.51-1.812q-2.773-.849-5.581-1.581t-5.664-1.353q-2.834-.615-5.693-1.111t-5.734-.872q-2.876-.376-5.766-.63Q3493.492,1920.1,3492.786,1920.048Z" transform="translate(-3439.728 -1878.775)" fill="#ccc"/>
      <path id="Path_620" data-name="Path 620" d="M3510,1947.372c-13.581,0-27.171-.48-40.45-.948a18.083,18.083,0,0,1-6.181-.956,6.739,6.739,0,0,1-.666-.331,3.736,3.736,0,0,0-.962-.417,2.167,2.167,0,0,0-.4-.031l-.18,0a9.684,9.684,0,0,1-1.839-.315l-.145-.034a25.626,25.626,0,0,1-3.832-1.239,26.341,26.341,0,0,1-6.873-4.16,25.356,25.356,0,0,1-5.192-5.917,11.227,11.227,0,0,1-1.8-3.93,2.3,2.3,0,0,0-.5-.959c-.077-.106-.154-.212-.228-.323a14.637,14.637,0,0,1-1.019-1.8,18.075,18.075,0,0,1-1.645-8.547,30.4,30.4,0,0,1,3.308-11.8,31.015,31.015,0,0,1,2.78-4.813,41.534,41.534,0,0,1,3.41-4l.312-.334c.884-.945,1.8-1.922,2.631-2.934.512-.623.949-1.2,1.336-1.774a5.056,5.056,0,0,0,.5-.9,1.4,1.4,0,0,1,.137-.259,10.941,10.941,0,0,1,1.22-1.419c.143-.148.284-.3.42-.442a8.852,8.852,0,0,1,.911-.887,9.579,9.579,0,0,1,1-.682c.179-.111.364-.226.538-.344a10.669,10.669,0,0,0,1.5-1.259c.428-.422.8-.862,1.245-1.392a3.012,3.012,0,0,1,.562-.508,9.959,9.959,0,0,1,1.471-.743c.178-.078.354-.155.526-.235,1.294-.6,2.726-1.178,4.377-1.76l.311-.11a15.771,15.771,0,0,1,2.088-.636c.472-.1,1.225-.29,1.68-.42.942-.27,1.671-.474,2.362-.662,1.867-.508,3.415-.882,4.87-1.178a43.029,43.029,0,0,1,4.862-.724,35.751,35.751,0,0,1,9.781.5c.773.147,1.551.322,2.312.52.2.053.405.11.606.167a10.219,10.219,0,0,0,1.553.355,2.256,2.256,0,0,1,1.636.811,1.483,1.483,0,0,1,.136,1.277,14.813,14.813,0,0,1-1.819,3.635c-.192.308-.383.617-.567.927-2.2,3.71-3.627,8.175-4.484,14.051-.37,2.539-.607,5.112-.807,7.515-.021.259-.041.516-.06.772-.041.537-.083,1.093-.144,1.646l-.46,4.138-.514-.995a5.69,5.69,0,0,1-.424-3.324c.047-.4.113-.8.176-1.184.028-.168.055-.335.082-.5.021-.131.037-.263.054-.4a7.214,7.214,0,0,1,.147-.87,3.866,3.866,0,0,0,.114-1.244l-1.063-14.007a17.85,17.85,0,0,0-.986-5.445,5.765,5.765,0,0,0-3.705-3.577c-2.251-.554-4.578.823-6.354,2.085-5.686,4.042-8.88,8.229-9.762,12.8a20.224,20.224,0,0,0-.044,6.382c.19,1.571.465,3.2.731,4.775.966,5.716,1.964,11.626-.633,16.773a13.654,13.654,0,0,1-4.5,5.088,22.242,22.242,0,0,1,2.38,0,10.212,10.212,0,0,0,4.451-.477,10.345,10.345,0,0,0,2.951-2.273l.117-.115c1.895-1.853,3.888-3.651,5.926-5.343a16.543,16.543,0,0,1,5.149-3.219,16.836,16.836,0,0,1,6.732-.44h0q.707.055,1.414.117c1.919.169,3.864.381,5.78.631s3.848.544,5.749.874,3.823.705,5.707,1.114,3.8.866,5.678,1.356,3.749,1.02,5.594,1.585,3.7,1.176,5.523,1.816,3.653,1.329,5.443,2.045,3.608,1.486,5.374,2.28,3.528,1.63,5.252,2.494a1.928,1.928,0,0,0,.235.088c.286.1.678.225.782.63a1.426,1.426,0,0,1,.015.478c0,.047-.008.092-.009.132-.008.341-.023.684-.048,1.018a18.791,18.791,0,0,1-.256,2.034,14.384,14.384,0,0,1-1.257,3.861,10.374,10.374,0,0,1-2.355,3.119c-3.115,2.774-7.552,3.167-11.83,3.331C3521.984,1947.278,3515.995,1947.372,3510,1947.372Zm-24.478-69.582q-1.514,0-3.024.131a42.369,42.369,0,0,0-4.786.712c-1.44.293-2.974.664-4.826,1.168-.689.188-1.415.391-2.354.66-.467.134-1.242.332-1.73.432a15.261,15.261,0,0,0-2,.61l-.312.111c-1.63.574-3.042,1.142-4.316,1.735-.176.082-.357.161-.54.241a9.455,9.455,0,0,0-1.372.69,2.349,2.349,0,0,0-.413.375c-.455.545-.84,1-1.29,1.44a11.347,11.347,0,0,1-1.6,1.337c-.185.125-.376.243-.561.358a8.93,8.93,0,0,0-.932.632,8.209,8.209,0,0,0-.84.821c-.139.15-.283.3-.429.452a10.484,10.484,0,0,0-1.147,1.328.734.734,0,0,0-.072.138,5.711,5.711,0,0,1-.562,1.018c-.4.589-.848,1.186-1.374,1.825-.846,1.029-1.768,2.014-2.659,2.966l-.312.334a40.839,40.839,0,0,0-3.355,3.934,30.354,30.354,0,0,0-2.719,4.71,29.736,29.736,0,0,0-3.242,11.541,17.391,17.391,0,0,0,1.579,8.225,13.99,13.99,0,0,0,.972,1.715c.068.1.141.2.212.3a2.89,2.89,0,0,1,.619,1.248,10.724,10.724,0,0,0,1.708,3.679,24.677,24.677,0,0,0,5.054,5.758,25.653,25.653,0,0,0,6.7,4.053,24.984,24.984,0,0,0,3.73,1.206l.146.035a9.192,9.192,0,0,0,1.71.3l.163,0a2.686,2.686,0,0,1,.534.045,4.293,4.293,0,0,1,1.146.484,6.087,6.087,0,0,0,.6.3,17.3,17.3,0,0,0,5.949.906c19.123.675,38.9,1.373,58.339.626,4.155-.16,8.458-.535,11.4-3.159a9.705,9.705,0,0,0,2.2-2.917,13.7,13.7,0,0,0,1.2-3.679,17.985,17.985,0,0,0,.247-1.96c.023-.323.039-.654.046-.985,0-.053.006-.112.011-.174a1.127,1.127,0,0,0,0-.252c-.012-.047-.25-.126-.339-.156a2.48,2.48,0,0,1-.324-.125c-1.717-.86-3.475-1.695-5.227-2.482s-3.557-1.553-5.348-2.269-3.6-1.4-5.417-2.035-3.659-1.245-5.5-1.807-3.71-1.093-5.567-1.577-3.77-.942-5.651-1.35-3.785-.779-5.679-1.108-3.816-.621-5.72-.87-3.841-.461-5.751-.629q-.7-.062-1.406-.116a16.276,16.276,0,0,0-6.464.407,15.973,15.973,0,0,0-4.931,3.1c-2.023,1.68-4,3.466-5.885,5.306l-.116.114a8.193,8.193,0,0,1-7.9,2.943,10.422,10.422,0,0,0-4.334.434c-.081.037-.163.073-.245.108l-.278-.618c.083-.039.167-.076.251-.111a12.972,12.972,0,0,0,6.141-5.883c2.5-4.949,1.517-10.748.57-16.355-.267-1.583-.544-3.219-.736-4.806a20.854,20.854,0,0,1,.051-6.592c.917-4.75,4.2-9.076,10.035-13.224,1.894-1.346,4.391-2.81,6.909-2.191a6.436,6.436,0,0,1,4.17,3.978,18.346,18.346,0,0,1,1.035,5.651l1,13.115c.15-1.549.329-3.135.558-4.709.87-5.967,2.323-10.51,4.572-14.3.187-.315.38-.627.574-.939a14.289,14.289,0,0,0,1.743-3.466.832.832,0,0,0-.05-.715,1.594,1.594,0,0,0-1.152-.512,10.835,10.835,0,0,1-1.656-.376c-.2-.055-.393-.111-.592-.163-.747-.194-1.51-.365-2.268-.51A35.183,35.183,0,0,0,3485.526,1877.789Zm4.48,30.529c-.054.33-.108.667-.146,1a8.294,8.294,0,0,0-.06,1.022l.11-.995C3489.948,1909,3489.979,1908.659,3490.007,1908.318Z" transform="translate(-3438.066 -1877.112)" fill="#b3b3b3"/>
    </g>
    <path id="Path_621" data-name="Path 621" d="M3784.449,2082.773a3.538,3.538,0,0,0-4.031.779l-2.322,1.706a1.209,1.209,0,0,0,1.1.069,6.839,6.839,0,0,0,1-.554,8.634,8.634,0,0,1,3.378-.916c.588-.067,1.178-.119,1.764-.2.3-.041.6-.089.892-.15.141-.029.322-.009.294-.179-.016-.1-.16-.186-.251-.2s-.173.048-.263.058a1.008,1.008,0,0,1-.424-.071Z" transform="translate(-3720.459 -2044.737)"/>
    <g id="Group_173" data-name="Group 173" transform="translate(59.152 1.066)">
      <path id="Path_622" data-name="Path 622" d="M3796.427,1868.583a2.657,2.657,0,0,0-2.692,0,3.233,3.233,0,0,0-.663.8,22.312,22.312,0,0,0-3.482,6.867,2.442,2.442,0,0,0,1.556-.894,11.915,11.915,0,0,1,4.466-3.257,16.294,16.294,0,0,0,3.445-.961c.305-.177.779-.489.5-.879a2.927,2.927,0,0,0-1.192-.692C3797.7,1869.266,3797.084,1868.886,3796.427,1868.583Z" transform="translate(-3789.157 -1867.874)" fill="#ccc"/>
      <path id="Path_623" data-name="Path 623" d="M3787.037,1874.92l.1-.425a22.644,22.644,0,0,1,3.529-6.975,3.526,3.526,0,0,1,.737-.875,3.041,3.041,0,0,1,3.042-.043h0c.324.15.641.318.946.481.321.171.654.348.987.5.07.032.147.063.227.1a2.46,2.46,0,0,1,1.1.708.714.714,0,0,1,.134.581,1.377,1.377,0,0,1-.737.789,6.907,6.907,0,0,1-2.249.7,10.855,10.855,0,0,0-1.264.29,11.254,11.254,0,0,0-4.2,3.049l-.128.126a2.736,2.736,0,0,1-1.79.992Zm5.749-8.038a1.536,1.536,0,0,0-.963.3,2.968,2.968,0,0,0-.589.715,23.908,23.908,0,0,0-3.287,6.213,3.586,3.586,0,0,0,.841-.669l.128-.126a11.745,11.745,0,0,1,4.474-3.213,11.5,11.5,0,0,1,1.343-.31,6.3,6.3,0,0,0,2.034-.622c.407-.236.415-.342.415-.347a.111.111,0,0,0-.022-.041,2.023,2.023,0,0,0-.809-.477c-.087-.036-.171-.07-.247-.1-.354-.159-.7-.342-1.028-.518-.3-.158-.6-.322-.912-.464A3.539,3.539,0,0,0,3792.786,1866.882Z" transform="translate(-3787.037 -1866.201)" fill="#b3b3b3"/>
    </g>
    <g id="Group_174" data-name="Group 174" transform="translate(78.33 9.577)">
      <path id="Path_624" data-name="Path 624" d="M3902.9,1927.739c1.662-2.545,4.165-4.364,6.186-6.612a8.462,8.462,0,0,1,2.857-2.494,2.745,2.745,0,0,1,1.51-.183.813.813,0,0,1,.454.195.932.932,0,0,1,.184.695,10.329,10.329,0,0,1-3.2,7.036,13.04,13.04,0,0,1-4.2,2.7,15.4,15.4,0,0,1-2.382.747c-.535.122-1.8.541-2.073-.192a1.5,1.5,0,0,1,.236-1.124A7.076,7.076,0,0,1,3902.9,1927.739Z" transform="translate(-3901.845 -1918.074)" fill="#ccc"/>
      <path id="Path_625" data-name="Path 625" d="M3901.348,1928.729a1.046,1.046,0,0,1-1.1-.642,1.739,1.739,0,0,1,.236-1.363l.013-.028a7.357,7.357,0,0,1,.452-.8,25,25,0,0,1,3.875-4.306c.791-.752,1.608-1.529,2.343-2.347.119-.133.237-.267.355-.4a7.383,7.383,0,0,1,2.624-2.179,3.077,3.077,0,0,1,1.7-.206,1.143,1.143,0,0,1,.638.29,1.229,1.229,0,0,1,.283.941,10.645,10.645,0,0,1-3.3,7.271,13.3,13.3,0,0,1-4.311,2.772,15.77,15.77,0,0,1-2.435.764c-.058.013-.124.03-.2.048A4.977,4.977,0,0,1,3901.348,1928.729Zm10-11.638a2.431,2.431,0,0,0-.943.193,6.763,6.763,0,0,0-2.376,2c-.12.137-.24.273-.36.408-.753.838-1.58,1.625-2.38,2.385a24.492,24.492,0,0,0-3.774,4.186h0a6.762,6.762,0,0,0-.411.731l-.013.028c-.131.267-.294.6-.209.83.135.365,1.036.139,1.468.03.078-.02.149-.037.211-.052a15.137,15.137,0,0,0,2.33-.73,12.62,12.62,0,0,0,4.093-2.63,9.959,9.959,0,0,0,3.1-6.8.7.7,0,0,0-.085-.448.508.508,0,0,0-.269-.1A2.318,2.318,0,0,0,3911.352,1917.091Z" transform="translate(-3900.182 -1916.412)" fill="#b3b3b3"/>
    </g>
  </g>
</svg>
