<svg xmlns="http://www.w3.org/2000/svg" width="130.173" height="100.919" viewBox="0 0 130.173 100.919">
  <g id="standing_fox" data-name="standing fox" transform="translate(0)">
    <g id="Group_167" data-name="Group 167" transform="translate(68.339 50.571)">
      <path id="Path_600" data-name="Path 600" d="M2902.693,2055.284a32.516,32.516,0,0,0,7.52,10.8c2.186,2.07,4.651,3.826,6.844,5.888a33.337,33.337,0,0,1,3.609,3.99,3.051,3.051,0,0,1,.594,1.047,2.889,2.889,0,0,1,.051.893,7.033,7.033,0,0,1-1.365,4.218c-.613.781-1.333,1.479-1.873,2.317-.026.042-.052.083-.078.125a2,2,0,0,0-.344.947,1.871,1.871,0,0,0,1.222,1.6,5.437,5.437,0,0,0,3.938.013,15.526,15.526,0,0,0,1.726-.705,8.187,8.187,0,0,1,1.609-.7,9.162,9.162,0,0,0,1.142-.181c.426-.15.6-.183.806-.535.121-.21.249-.416.383-.618.273-.416.569-.817.867-1.214a26.976,26.976,0,0,0,1.6-2.268c.086-.143.143-.306.229-.446.137-.221.443-.308.659-.437a2.86,2.86,0,0,0,1.263-1.315,3.384,3.384,0,0,0,.177-1.333,2.383,2.383,0,0,0-.443-1.551c-.306-.366-.737-.621-1.071-.964a8.418,8.418,0,0,0-2.3-1.6q-.422-.218-.852-.42c-2-.944-4.086-1.687-6.042-2.718a5.661,5.661,0,0,1-2.027-1.562,6.118,6.118,0,0,1-.839-2.035,57.984,57.984,0,0,1-1.723-9.416,3.094,3.094,0,0,0-1.2-2.522,55.011,55.011,0,0,1-9.621-12.9,9.061,9.061,0,0,0-2.639,5.087,8.784,8.784,0,0,1-.57,2.7,2.249,2.249,0,0,1-1,.987c-.321.156-.7.17-1.011.337-.358.192-.279.653-.248.991a8.824,8.824,0,0,0,.333,1.675A16.31,16.31,0,0,0,2902.693,2055.284Z" transform="translate(-2901.323 -2041.134)" fill="#999"/>
      <path id="Path_601" data-name="Path 601" d="M2919.037,2085.11a4.619,4.619,0,0,1-1.963-.409,2.221,2.221,0,0,1-1.418-1.923,2.339,2.339,0,0,1,.393-1.112c.027-.044.054-.087.083-.131a13.189,13.189,0,0,1,1.186-1.5c.237-.273.482-.554.706-.839a6.77,6.77,0,0,0,1.293-4.028,2.589,2.589,0,0,0-.041-.788,2.748,2.748,0,0,0-.535-.927,33.05,33.05,0,0,0-3.573-3.949c-1.074-1.009-2.237-1.964-3.361-2.888-1.164-.956-2.367-1.944-3.483-3a33.02,33.02,0,0,1-7.6-10.913,16.45,16.45,0,0,1-.682-1.856,9.084,9.084,0,0,1-.345-1.739l-.008-.081c-.036-.358-.1-.956.433-1.239a2.526,2.526,0,0,1,.6-.208,2.18,2.18,0,0,0,.422-.135,1.915,1.915,0,0,0,.848-.836,5.6,5.6,0,0,0,.447-1.907c.027-.226.054-.46.09-.691a9.379,9.379,0,0,1,2.738-5.279l.322-.311.212.394a54.534,54.534,0,0,0,9.562,12.819l.026.026a3.369,3.369,0,0,1,1.271,2.668l0,.035a57.714,57.714,0,0,0,1.713,9.361,5.819,5.819,0,0,0,.787,1.924,5.372,5.372,0,0,0,1.91,1.461c1.141.6,2.354,1.115,3.528,1.612.823.349,1.676.709,2.5,1.1.306.144.588.283.862.424a8.815,8.815,0,0,1,2.385,1.666,5.077,5.077,0,0,0,.449.392,4.443,4.443,0,0,1,.639.591,2.72,2.72,0,0,1,.522,1.762,3.7,3.7,0,0,1-.2,1.465,3.136,3.136,0,0,1-1.4,1.48c-.069.041-.146.079-.225.117a.873.873,0,0,0-.319.207,1.975,1.975,0,0,0-.1.193,2.634,2.634,0,0,1-.128.249,23.2,23.2,0,0,1-1.4,2l-.226.3c-.282.376-.581.782-.855,1.2-.139.212-.261.408-.372.6a1.318,1.318,0,0,1-.879.648l-.108.038a2.946,2.946,0,0,1-.748.136,3.449,3.449,0,0,0-.435.057,4.812,4.812,0,0,0-1.094.454c-.149.076-.3.152-.445.221a16.117,16.117,0,0,1-1.764.72A7.281,7.281,0,0,1,2919.037,2085.11Zm-13.614-45.576a8.706,8.706,0,0,0-2.224,4.575c-.034.218-.061.446-.087.666a6.177,6.177,0,0,1-.516,2.136,2.57,2.57,0,0,1-1.154,1.137,2.732,2.732,0,0,1-.554.184,2.005,2.005,0,0,0-.445.147c-.109.059-.112.24-.078.575l.008.087a8.429,8.429,0,0,0,.321,1.61,15.777,15.777,0,0,0,.655,1.781h0a32.334,32.334,0,0,0,7.442,10.687c1.1,1.04,2.293,2.021,3.448,2.969,1.133.931,2.305,1.893,3.4,2.918a33.7,33.7,0,0,1,3.646,4.03,3.336,3.336,0,0,1,.652,1.167,3.2,3.2,0,0,1,.062,1,7.38,7.38,0,0,1-1.436,4.407c-.234.3-.485.587-.728.866a12.492,12.492,0,0,0-1.126,1.426q-.037.058-.074.117a1.723,1.723,0,0,0-.294.783c-.021.585.539,1.057,1.026,1.283a5.159,5.159,0,0,0,3.69,0,15.327,15.327,0,0,0,1.688-.69c.14-.065.28-.137.422-.21a5.31,5.31,0,0,1,1.257-.512,4,4,0,0,1,.519-.07,2.4,2.4,0,0,0,.583-.1l.112-.039c.332-.115.392-.135.513-.346s.246-.412.393-.635c.284-.431.59-.846.879-1.231l.227-.3a22.788,22.788,0,0,0,1.359-1.937c.033-.055.063-.119.095-.188a2.437,2.437,0,0,1,.136-.262,1.334,1.334,0,0,1,.6-.459c.061-.029.121-.058.174-.09a2.5,2.5,0,0,0,1.122-1.151,3.1,3.1,0,0,0,.152-1.2,2.092,2.092,0,0,0-.364-1.339,3.871,3.871,0,0,0-.545-.5,5.544,5.544,0,0,1-.509-.446,8.181,8.181,0,0,0-2.21-1.535c-.267-.138-.542-.273-.841-.415-.813-.384-1.659-.742-2.476-1.088-1.186-.5-2.413-1.022-3.579-1.636a5.959,5.959,0,0,1-2.143-1.663,6.378,6.378,0,0,1-.892-2.146,58.421,58.421,0,0,1-1.733-9.471l0-.035a2.738,2.738,0,0,0-1.074-2.254l-.026-.026A55.221,55.221,0,0,1,2905.423,2039.535Z" transform="translate(-2899.667 -2038.416)" fill="#4d4d4d"/>
    </g>
    <g id="Group_168" data-name="Group 168" transform="translate(12.701 20.562)">
      <path id="Path_602" data-name="Path 602" d="M2582.205,1891.391c.963,2.05,1.688,4.285,3.25,5.927,1.832,1.927,4.547,2.748,6.59,4.449,2.752,2.292,3.98,5.887,5.085,9.294a94.338,94.338,0,0,1,2.987,10.609,17.706,17.706,0,0,1,.333,2.884,9.441,9.441,0,0,1-.75,4.01l-.049.113a5.385,5.385,0,0,0-.683,2.052,2.735,2.735,0,0,0,1.289,2.192,6.443,6.443,0,0,0,2.479.877,21.035,21.035,0,0,0,4.4.335,3.478,3.478,0,0,0,1.585-.321c1.179-.646.765-2.219.531-3.272a25.165,25.165,0,0,0-1.317-4.015q-.123-.3-.251-.6a117.445,117.445,0,0,1-7.362-24.758s3.8-.351,4.146-.373q2.164-.142,4.333-.176,4.337-.067,8.666.3t8.593,1.16q1.023.191,2.042.406a8.825,8.825,0,0,0,1.347.282,2.476,2.476,0,0,1,.624.109,26.516,26.516,0,0,0,6.676.93c1.416.043,2.833.023,4.249,0a21.21,21.21,0,0,0,6.375-.747,2.663,2.663,0,0,0,1.216-.578c.2-.251.269-.616.451-.89a5.256,5.256,0,0,1,1.912-1.727,3.763,3.763,0,0,1,3.386-.185c2.391,1.163,2.56,4.453,2.338,7.1a30.216,30.216,0,0,0,.063,8.791,23.677,23.677,0,0,0,3.932,8.2c2.769,4.07,6.179,8.02,10.8,9.705,3,1.094,6.27,1.141,9.465,1.142,3.14,0,6.674-.2,8.767-2.54a1.722,1.722,0,0,0,.541-1.184c-.04-.69-.736-1.124-1.341-1.458a36.6,36.6,0,0,1-17.464-22.241c-1.038-3.844-1.438-7.847-2.636-11.643a29.038,29.038,0,0,0-9.266-13.663,26.571,26.571,0,0,0-10.892-3.393c-3.8-.323-7.7.171-11.395-.789-2.656-.69-5.06-2.1-7.593-3.153-7.195-3-15.249-3.1-23.026-2.584-4.272.281-9.082.562-12.266-2.3-1.362-1.224-2.24-2.89-3.468-4.249s-3.079-2.441-4.835-1.922a6.285,6.285,0,0,0-2.885,2.4q-4.362,5.513-8.3,11.344c-.875,1.294-2.25,2.993-.754,4.359.735.672,1.566,1.236,2.3,1.915a25.822,25.822,0,0,1,2.12,2.207A25.417,25.417,0,0,1,2582.205,1891.391Z" transform="translate(-2573.116 -1863.029)" fill="#ccc"/>
      <path id="Path_603" data-name="Path 603" d="M2679.268,1933.3h-.02c-3.5,0-6.635-.089-9.581-1.163-5.043-1.838-8.51-6.22-10.968-9.833a24.146,24.146,0,0,1-3.983-8.323,28.777,28.777,0,0,1-.109-8.409l.04-.48c.311-3.7-.392-5.915-2.148-6.769a3.4,3.4,0,0,0-3.08.18,4.9,4.9,0,0,0-1.788,1.615,2.075,2.075,0,0,0-.168.35,2.161,2.161,0,0,1-.3.565,2.363,2.363,0,0,1-1.178.625l-.195.061a21.392,21.392,0,0,1-6.476.765c-1.316.019-2.807.042-4.264,0a26.542,26.542,0,0,1-6.761-.943,2.158,2.158,0,0,0-.545-.1,4.781,4.781,0,0,1-.985-.186c-.141-.037-.28-.074-.417-.1-.673-.142-1.357-.278-2.034-.4-2.818-.525-5.7-.914-8.559-1.156s-5.766-.342-8.632-.3c-1.435.022-2.887.081-4.316.175-.238.015-2.229.2-3.3.3l-.47.043a117.143,117.143,0,0,0,7.274,24.322q.128.3.252.608a24.961,24.961,0,0,1,1.335,4.07l.031.14c.247,1.1.62,2.761-.731,3.5a3.794,3.794,0,0,1-1.738.362,21.31,21.31,0,0,1-4.471-.341,6.8,6.8,0,0,1-2.608-.929,3.072,3.072,0,0,1-1.438-2.476,4.471,4.471,0,0,1,.552-1.84c.054-.116.108-.231.159-.347.016-.036.032-.072.047-.108a9.122,9.122,0,0,0,.723-3.866,17.44,17.44,0,0,0-.327-2.829,94.242,94.242,0,0,0-2.977-10.571c-.988-3.046-2.218-6.837-4.98-9.138a19.187,19.187,0,0,0-2.9-1.868,11.532,11.532,0,0,1-6.4-7.227c-.2-.461-.408-.939-.623-1.4h0a25.026,25.026,0,0,0-3.61-5.588,25.542,25.542,0,0,0-2.092-2.178c-.365-.338-.767-.656-1.155-.962s-.776-.614-1.145-.951c-1.6-1.46-.39-3.214.493-4.494q.108-.156.209-.3c2.622-3.88,5.42-7.7,8.317-11.364a6.509,6.509,0,0,1,3.055-2.517c1.951-.578,3.957.664,5.183,2.02a22.16,22.16,0,0,1,1.435,1.83,14.913,14.913,0,0,0,2.009,2.394c3.115,2.8,7.844,2.489,12.016,2.214,7.225-.476,15.628-.537,23.179,2.61.844.352,1.684.747,2.5,1.129a21.927,21.927,0,0,0,12.236,2.649c1.363.01,2.773.021,4.154.138a26.989,26.989,0,0,1,11.032,3.437l.046.032a29.508,29.508,0,0,1,9.375,13.824,58.2,58.2,0,0,1,1.515,6.5c.328,1.7.668,3.463,1.125,5.157a36.263,36.263,0,0,0,17.3,22.033c.51.281,1.462.8,1.516,1.735a2,2,0,0,1-.627,1.43C2686.082,1933.1,2682.478,1933.3,2679.268,1933.3Zm-28.06-35.944a3.613,3.613,0,0,1,1.588.357c2.038.992,2.864,3.424,2.528,7.436l-.041.48a28.287,28.287,0,0,0,.1,8.211,23.543,23.543,0,0,0,3.88,8.083c2.4,3.528,5.779,7.806,10.64,9.577,2.841,1.035,5.915,1.121,9.349,1.122h.019c3.064,0,6.5-.191,8.495-2.427a1.383,1.383,0,0,0,.455-.939c-.03-.513-.617-.878-1.166-1.18a36.943,36.943,0,0,1-17.628-22.45c-.464-1.718-.806-3.491-1.136-5.205a57.772,57.772,0,0,0-1.5-6.424,28.82,28.82,0,0,0-9.135-13.485,26.306,26.306,0,0,0-10.728-3.336c-1.355-.115-2.751-.126-4.1-.136a22.563,22.563,0,0,1-12.52-2.714c-.805-.379-1.638-.771-2.468-1.117-7.422-3.093-15.728-3.029-22.874-2.559-4.093.269-9.187.6-12.514-2.387a15.62,15.62,0,0,1-2.1-2.5,21.528,21.528,0,0,0-1.389-1.774c-1.087-1.2-2.837-2.313-4.487-1.824a5.98,5.98,0,0,0-2.716,2.287c-2.886,3.648-5.674,7.458-8.286,11.323-.068.1-.14.2-.212.31-1.028,1.492-1.672,2.624-.594,3.609.351.321.736.625,1.108.92.4.315.81.641,1.194,1a26.282,26.282,0,0,1,2.148,2.236,25.723,25.723,0,0,1,3.707,5.74h0c.219.467.429.949.632,1.415a14.82,14.82,0,0,0,2.556,4.423,14.526,14.526,0,0,0,3.556,2.484,19.651,19.651,0,0,1,3.006,1.938c2.913,2.427,4.176,6.321,5.191,9.45a94.689,94.689,0,0,1,3,10.647,18.167,18.167,0,0,1,.34,2.939,9.81,9.81,0,0,1-.777,4.155l-.051.118c-.053.119-.109.239-.165.359a3.907,3.907,0,0,0-.489,1.559,2.392,2.392,0,0,0,1.14,1.907,6.192,6.192,0,0,0,2.351.824,20.752,20.752,0,0,0,4.33.33,3.226,3.226,0,0,0,1.432-.279c.836-.458.674-1.521.4-2.759l-.032-.142a24.323,24.323,0,0,0-1.3-3.961q-.122-.3-.249-.6a117.821,117.821,0,0,1-7.383-24.83l.333-.063-.024-.335.833-.076c1.148-.1,3.069-.281,3.316-.3,1.44-.094,2.9-.154,4.35-.176,2.891-.045,5.817.056,8.7.3s5.786.635,8.626,1.165c.682.127,1.372.265,2.05.407.147.031.3.071.448.111a4.313,4.313,0,0,0,.845.164,2.83,2.83,0,0,1,.7.122,25.888,25.888,0,0,0,6.59.916c1.442.044,2.925.022,4.234,0a20.886,20.886,0,0,0,6.273-.73c.065-.022.135-.043.209-.065a1.942,1.942,0,0,0,.85-.4,1.626,1.626,0,0,0,.2-.394,2.553,2.553,0,0,1,.231-.47,5.577,5.577,0,0,1,2.036-1.839A4.534,4.534,0,0,1,2651.208,1897.36Z" transform="translate(-2571.424 -1861.374)" fill="#4d4d4d"/>
    </g>
    <g id="Group_169" data-name="Group 169" transform="translate(0)">
      <path id="Path_604" data-name="Path 604" d="M2499,1747.457c.7-2.838,3-5.947,5.848-5.294,4,.918,4.145,8.044,8.227,8.506,1.961.222,3.643-1.376,4.747-3.011s2.042-3.527,3.771-4.478c2.72-1.5,6.368.175,7.866,2.894s1.293,6.068.512,9.072c-.525,2.018-1.215,4.407.14,5.992a5.485,5.485,0,0,0,3.09,1.482c7.98,1.788,16.274,1.306,24.419,2.036a82.372,82.372,0,0,1,33.645,10.631q.828.477,1.643.977a6.555,6.555,0,0,0,.992.606,3.257,3.257,0,0,1,.5.171,3.739,3.739,0,0,1,1.073,1.07,14.333,14.333,0,0,1,1.08,1.854,19.1,19.1,0,0,1,1.819,4.375c.088.38.109.773.2,1.151a2.773,2.773,0,0,0,.33.645,5.486,5.486,0,0,1,.492,1.945c.275,2.829-.943,5.7-2.473,8.017l-.094.141c-2.285,3.387-5.341,6.532-5.957,10.571-.712,4.67,2.014,8.905,4.106,12.842a26,26,0,0,1,2.673,6.561c.066.3.2.62.236.926s.05.591.057.886a10.9,10.9,0,0,1-.262,2.633,4.025,4.025,0,0,1-.368,1.147c-.2.345-.3.731-.529,1.066-.886,1.3-2.729,2.262-3.159,3.835a5.494,5.494,0,0,1-.291,1.017c-.461.97-.96,1.923-1.478,2.864a3.056,3.056,0,0,1-1.162,1.358,2.979,2.979,0,0,1-.976.244,7.855,7.855,0,0,1-3.4-.122,3.144,3.144,0,0,1-2.237-2.365,2.15,2.15,0,0,1,.668-1.82,1.864,1.864,0,0,1,.876-.459,1.316,1.316,0,0,0,.66-.21,3.989,3.989,0,0,0,.622-1.121l.672-1.293,1.346-2.586c.354-.681,1.054-1.535.921-2.328-.592-3.532-2.858-6.1-4.958-8.862-.721-.949-1.36-1.944-2.018-2.935a40,40,0,0,0-4.463-5.575,39.866,39.866,0,0,1-3.4-3.7,7.054,7.054,0,0,1-1.417-6.859c.306-1.072.739-2.1,1.045-3.174a9.048,9.048,0,0,0,.325-1.616,1.724,1.724,0,0,1,.15-.625c.279-.608.442-1.3.664-1.928q.354-1.01.725-2.014.578-1.566,1.2-3.116c.1-.244.2-.486.3-.725a7.532,7.532,0,0,0,.3-1.164q.226-.905.495-1.8a37.5,37.5,0,0,1,1.312-3.658q.391-.933.833-1.844.2-.421.419-.836c.045-.087.287-.681.366-.688l-19.228,1.726a28.683,28.683,0,0,1-7.839-.016c-5.31-1-9.562-4.843-13.51-8.532a32.241,32.241,0,0,1,4.017,13.58c.242,3.7-.062,7.738,2.116,10.733a13.235,13.235,0,0,1,1.806,2.536c.577,1.4.208,2.976-.072,4.459a41.513,41.513,0,0,0-.628,5.393c-.271,4.93.147,9.86.288,14.787.073,2.542.026,5.072-.129,7.61a1.578,1.578,0,0,1-.41,1.06c-.307.386-.491.853-.782,1.253a7.707,7.707,0,0,1-2.216,1.993,20.189,20.189,0,0,1-4.321,1.8,2.9,2.9,0,0,1-1.8.189,2.195,2.195,0,0,1-1.173-1.167,5.131,5.131,0,0,1,.043-4.328,5.95,5.95,0,0,1,1.246-1.878c.2-.19.469-.287.659-.478.563-.562.2-1.653.218-2.335.066-2.621.2-5.25.2-7.871a33.2,33.2,0,0,0-.654-9.374c-2.186-8.233-10.34-13.794-12.725-21.971a5.775,5.775,0,0,1-.252-2.844,8.9,8.9,0,0,1,1.454-2.742,16,16,0,0,0-1.388-18.656,17.969,17.969,0,0,1-14.938,15.618c-2.827.4-6.143-.144-7.691-2.543a9.645,9.645,0,0,1-1.141-3.459l-1.127-5.815c-.361-1.86-.819-3.729-1.061-5.608-.066-.515-.076-1.038-.17-1.549a10,10,0,0,0-.682-1.949,17.947,17.947,0,0,1-1.246-5.061A17.566,17.566,0,0,1,2499,1747.457Z" transform="translate(-2498.163 -1741.734)" fill="#4d4d4d"/>
      <path id="Path_605" data-name="Path 605" d="M2586.4,1840.985a6.016,6.016,0,0,1-1.856-.263,3.45,3.45,0,0,1-2.469-2.64,2.475,2.475,0,0,1,.772-2.114,2.211,2.211,0,0,1,1.031-.542c.071-.016.141-.027.21-.038a.565.565,0,0,0,.3-.1,2.146,2.146,0,0,0,.386-.676c.054-.124.1-.24.16-.347l2.018-3.879c.087-.168.19-.339.3-.52a2.742,2.742,0,0,0,.588-1.6c-.509-3.036-2.279-5.326-4.154-7.75q-.371-.479-.74-.963c-.614-.809-1.177-1.661-1.722-2.486l-.309-.467a39.712,39.712,0,0,0-4.426-5.527c-.288-.3-.581-.6-.874-.893a26.975,26.975,0,0,1-2.554-2.84,7.387,7.387,0,0,1-1.472-7.154c.156-.549.347-1.091.532-1.615.179-.509.364-1.036.514-1.559a8.748,8.748,0,0,0,.313-1.556,2.059,2.059,0,0,1,.179-.734,10.032,10.032,0,0,0,.43-1.208c.07-.228.143-.464.222-.691.238-.677.482-1.356.727-2.02.385-1.042.788-2.094,1.2-3.124.093-.234.194-.475.307-.735a3.626,3.626,0,0,0,.193-.72c.027-.133.053-.264.085-.391.151-.6.319-1.216.5-1.815a38.033,38.033,0,0,1,1.323-3.691c.262-.626.545-1.253.841-1.861.14-.288.282-.572.424-.844.009-.018.026-.056.047-.1l.015-.033-18.592,1.669a28.925,28.925,0,0,1-7.932-.02c-4.86-.911-8.9-4.219-12.245-7.287a32.683,32.683,0,0,1,3.154,11.98c.044.675.071,1.372.1,2.047.115,3.019.233,6.141,1.956,8.509.189.259.4.516.609.765a7.332,7.332,0,0,1,1.237,1.841,7.5,7.5,0,0,1,.009,4.329l-.061.322a40.746,40.746,0,0,0-.623,5.349c-.193,3.5-.033,7.069.121,10.519.062,1.389.126,2.825.167,4.239.071,2.492.028,5.062-.13,7.641a1.909,1.909,0,0,1-.482,1.251,4.632,4.632,0,0,0-.394.624,5.971,5.971,0,0,1-.38.618,8.005,8.005,0,0,1-2.312,2.082,20.463,20.463,0,0,1-4.393,1.838,3.213,3.213,0,0,1-2.009.189,2.494,2.494,0,0,1-1.369-1.336,5.441,5.441,0,0,1,.036-4.616,6.353,6.353,0,0,1,1.321-1.986,2.215,2.215,0,0,1,.383-.279,1.512,1.512,0,0,0,.271-.194c.291-.291.225-.887.167-1.414a5.242,5.242,0,0,1-.048-.69c.022-.87.051-1.742.081-2.613.058-1.722.118-3.5.118-5.25a32.953,32.953,0,0,0-.643-9.286c-1.093-4.115-3.766-7.639-6.351-11.047-2.547-3.358-5.18-6.83-6.372-10.916a6.156,6.156,0,0,1-.258-3.013,7.242,7.242,0,0,1,1.2-2.391c.1-.154.2-.307.3-.461a15.719,15.719,0,0,0-.861-17.648,18.351,18.351,0,0,1-15.133,15.129c-2.785.39-6.356-.113-8.022-2.695a9.99,9.99,0,0,1-1.189-3.579l-1.127-5.815c-.109-.564-.23-1.14-.347-1.7-.27-1.285-.547-2.613-.717-3.933-.027-.213-.045-.428-.062-.636-.026-.311-.051-.6-.1-.895a7.68,7.68,0,0,0-.527-1.556c-.045-.109-.091-.217-.136-.326a18.246,18.246,0,0,1-1.269-5.156,17.845,17.845,0,0,1,.424-5.988h0a9.213,9.213,0,0,1,2.2-4.111,4.209,4.209,0,0,1,4.05-1.432c2.108.483,3.191,2.508,4.239,4.466s2.042,3.817,3.951,4.033c2.018.229,3.64-1.7,4.428-2.864.208-.309.416-.635.616-.95a9.82,9.82,0,0,1,3.272-3.636,5.421,5.421,0,0,1,4.679-.152,7.275,7.275,0,0,1,3.647,3.179c1.338,2.427,1.521,5.564.543,9.322l-.056.217c-.5,1.911-1.066,4.076.126,5.47a5.215,5.215,0,0,0,2.906,1.372,87.616,87.616,0,0,0,15.823,1.56c2.808.106,5.711.215,8.553.469a82.954,82.954,0,0,1,33.784,10.675c.6.344,1.137.665,1.651.982.108.067.216.141.324.216a3.144,3.144,0,0,0,.613.362,1.48,1.48,0,0,0,.163.049,1.461,1.461,0,0,1,.385.145,4.069,4.069,0,0,1,1.178,1.164,14.644,14.644,0,0,1,1.106,1.9,19.293,19.293,0,0,1,1.848,4.454c.048.206.077.411.1.609s.052.368.092.542a1.135,1.135,0,0,0,.163.331c.046.073.093.148.138.235a5.728,5.728,0,0,1,.528,2.068c.31,3.18-1.2,6.235-2.527,8.237l-.1.143c-.539.8-1.13,1.6-1.7,2.369-1.84,2.485-3.742,5.054-4.2,8.064-.614,4.026,1.394,7.711,3.337,11.274.249.457.5.909.734,1.358a26.532,26.532,0,0,1,2.7,6.648c.024.11.059.225.1.347a3.573,3.573,0,0,1,.146.612c.032.266.051.559.059.919a11.25,11.25,0,0,1-.27,2.714l-.021.094a3.966,3.966,0,0,1-.385,1.149,4.068,4.068,0,0,0-.206.433,3.726,3.726,0,0,1-.336.654,9.308,9.308,0,0,1-1.375,1.471,5.413,5.413,0,0,0-1.737,2.262c-.03.108-.052.211-.074.313a3.333,3.333,0,0,1-.238.761c-.421.887-.907,1.829-1.487,2.882a3.347,3.347,0,0,1-1.306,1.5,3.271,3.271,0,0,1-1.086.278A13.482,13.482,0,0,1,2586.4,1840.985Zm-6.127-63.645a4.274,4.274,0,0,0-.225.459c-.03.067-.053.119-.065.142-.138.267-.279.546-.416.828-.29.6-.568,1.212-.825,1.827a37.21,37.21,0,0,0-1.3,3.625c-.177.589-.343,1.188-.491,1.783-.029.117-.053.238-.078.361a4.2,4.2,0,0,1-.236.856c-.11.254-.208.488-.3.716-.409,1.026-.81,2.071-1.193,3.108-.244.659-.487,1.335-.723,2.009-.075.215-.143.434-.214.666a10.525,10.525,0,0,1-.462,1.291,1.4,1.4,0,0,0-.12.516,9.418,9.418,0,0,1-.336,1.677c-.155.543-.344,1.079-.527,1.6s-.368,1.047-.519,1.576a7.537,7.537,0,0,0-.336,2.144,7.7,7.7,0,0,0,1.7,4.421,26.539,26.539,0,0,0,2.492,2.767c.3.3.591.6.882.9a40.438,40.438,0,0,1,4.5,5.622l.31.468c.539.816,1.1,1.659,1.7,2.449.244.321.491.64.736.958,1.843,2.384,3.749,4.849,4.286,8.052a3.178,3.178,0,0,1-.677,2.059c-.1.171-.2.333-.278.482l-2.018,3.879c-.045.086-.091.192-.14.3a2.57,2.57,0,0,1-.558.914,1.165,1.165,0,0,1-.647.257c-.053.008-.107.016-.161.029a1.521,1.521,0,0,0-.72.376,1.812,1.812,0,0,0-.564,1.524,2.837,2.837,0,0,0,2.006,2.09,7.6,7.6,0,0,0,3.255.109,2.672,2.672,0,0,0,.866-.211,2.766,2.766,0,0,0,1.018-1.219c.573-1.041,1.053-1.972,1.468-2.846a2.718,2.718,0,0,0,.188-.616c.025-.111.05-.225.083-.345a5.888,5.888,0,0,1,1.93-2.581,8.688,8.688,0,0,0,1.276-1.357,3.225,3.225,0,0,0,.273-.54,4.494,4.494,0,0,1,.243-.505,3.429,3.429,0,0,0,.309-.955l.021-.1a10.563,10.563,0,0,0,.254-2.551c-.008-.338-.025-.609-.055-.854a3.008,3.008,0,0,0-.122-.5c-.039-.129-.079-.263-.109-.4a25.939,25.939,0,0,0-2.641-6.474c-.238-.447-.483-.9-.73-1.351-2-3.662-4.061-7.449-3.412-11.7.485-3.175,2.438-5.813,4.327-8.365.567-.766,1.153-1.557,1.685-2.345l.093-.138c1.263-1.911,2.709-4.815,2.418-7.8a5.091,5.091,0,0,0-.455-1.823c-.034-.065-.072-.125-.11-.185a1.712,1.712,0,0,1-.25-.538c-.047-.2-.075-.4-.1-.6s-.052-.374-.093-.551a18.809,18.809,0,0,0-1.79-4.3,14.14,14.14,0,0,0-1.054-1.811,3.454,3.454,0,0,0-.968-.975.885.885,0,0,0-.219-.076,2.127,2.127,0,0,1-.237-.073,3.7,3.7,0,0,1-.753-.437c-.1-.068-.2-.136-.294-.2-.508-.313-1.042-.631-1.634-.972a82.269,82.269,0,0,0-33.506-10.588c-2.825-.253-5.719-.362-8.518-.467a88.139,88.139,0,0,1-15.946-1.576,5.77,5.77,0,0,1-3.273-1.593c-1.423-1.663-.782-4.113-.268-6.082l.057-.216c.933-3.585.771-6.553-.481-8.823-1.365-2.476-4.822-4.182-7.406-2.76a9.326,9.326,0,0,0-3.027,3.406c-.2.319-.413.649-.626.965-.874,1.295-2.7,3.427-5.066,3.159-2.262-.256-3.386-2.356-4.472-4.387-1.021-1.908-1.985-3.711-3.793-4.125-2.742-.629-4.834,2.572-5.443,5.045l-.329-.081.329.081a17.153,17.153,0,0,0-.407,5.761,17.584,17.584,0,0,0,1.222,4.965c.044.107.089.214.134.321a8.267,8.267,0,0,1,.568,1.7c.059.322.086.647.113.96.018.209.034.407.06.606.166,1.294.442,2.609.708,3.88.117.559.239,1.138.349,1.707l1.127,5.815a9.34,9.34,0,0,0,1.093,3.34c1.493,2.314,4.781,2.752,7.359,2.391A17.63,17.63,0,0,0,2524.638,1762l.074-.782.518.591a16.377,16.377,0,0,1,1.418,19.062c-.1.157-.206.314-.31.471a6.63,6.63,0,0,0-1.1,2.162,5.548,5.548,0,0,0,.247,2.676c1.157,3.966,3.752,7.387,6.262,10.7,2.625,3.46,5.339,7.039,6.465,11.283a33.424,33.424,0,0,1,.665,9.469c0,1.749-.06,3.536-.118,5.264-.029.869-.058,1.739-.081,2.607a4.932,4.932,0,0,0,.044.6,2.317,2.317,0,0,1-.361,1.968,2.076,2.076,0,0,1-.394.291,1.655,1.655,0,0,0-.27.191,5.675,5.675,0,0,0-1.17,1.77,4.768,4.768,0,0,0-.051,4.04,1.9,1.9,0,0,0,.978,1,2.6,2.6,0,0,0,1.582-.19,19.958,19.958,0,0,0,4.25-1.772,7.335,7.335,0,0,0,2.119-1.9,5.569,5.569,0,0,0,.337-.55,5.206,5.206,0,0,1,.454-.714,1.256,1.256,0,0,0,.336-.87c.156-2.558.2-5.108.129-7.58-.041-1.408-.1-2.842-.167-4.228-.155-3.467-.316-7.052-.121-10.587a41.458,41.458,0,0,1,.634-5.437l.062-.325a7.012,7.012,0,0,0,.03-3.942,6.713,6.713,0,0,0-1.131-1.666c-.214-.257-.434-.522-.636-.8-1.844-2.535-1.967-5.762-2.085-8.882-.026-.67-.052-1.362-.1-2.028a31.975,31.975,0,0,0-3.975-13.437l-1.062-1.9,1.589,1.484c3.546,3.314,7.959,7.438,13.34,8.446a28.422,28.422,0,0,0,7.746.011l19.228-1.726.061.675A.289.289,0,0,0,2580.276,1777.34Z" transform="translate(-2496.498 -1740.066)" fill="#333"/>
    </g>
    <path id="Path_606" data-name="Path 606" d="M2524.222,1857.887a1.8,1.8,0,0,0-.742-.223,1.051,1.051,0,0,0-.9.62,1.677,1.677,0,0,0-.068,1.128,1.82,1.82,0,0,0,1.919,1.427,2.625,2.625,0,0,0,1.475-1.161c.211-.27.164-.443-.044-.713a2.585,2.585,0,0,0-.7-.6A8.706,8.706,0,0,0,2524.222,1857.887Z" transform="translate(-2518.047 -1837.731)" fill="#1a1a1a"/>
    <path id="Path_607" data-name="Path 607" d="M2599.4,1861.489a2.177,2.177,0,0,1,1.983,1.014.617.617,0,0,1,.1.256.627.627,0,0,1-.119.373,2.3,2.3,0,0,1-1.708,1.085,2.07,2.07,0,0,1-1.764-.718.915.915,0,0,1-.251-.829,1.852,1.852,0,0,1,.63-.739A2.144,2.144,0,0,1,2599.4,1861.489Z" transform="translate(-2580.473 -1840.902)" fill="#1a1a1a"/>
    <path id="Path_608" data-name="Path 608" d="M2534.467,1919.651a1.69,1.69,0,0,0-.482,1.313,2.45,2.45,0,0,0,.4,1.542,2.266,2.266,0,0,0,1.273.656c.206.032.419.082.626.1a4.24,4.24,0,0,0,1.314-.271,2.325,2.325,0,0,0,.515-.174,1.17,1.17,0,0,0,.463-.44,1.636,1.636,0,0,0-.111-1.621,3.053,3.053,0,0,0-1.135-1.193,2.8,2.8,0,0,0-.815-.144,8.1,8.1,0,0,0-1.054-.082A1.558,1.558,0,0,0,2534.467,1919.651Z" transform="translate(-2527.63 -1888.949)"/>
    <path id="Path_609" data-name="Path 609" d="M2645.433,1764.489l.149,3.683a15.123,15.123,0,0,1-.01,2.059,10.952,10.952,0,0,0-.129,1.559c.067,1.44,1.078,2.638,2.037,3.714a.762.762,0,0,0,.522.311c.247-.015.284-.256.346-.447a2.7,2.7,0,0,1,.711-1.11,1.3,1.3,0,0,0,.48-.752,5.02,5.02,0,0,0-.089-1.374,12.857,12.857,0,0,0-1.955-5.222A12.284,12.284,0,0,0,2645.433,1764.489Z" transform="translate(-2620.188 -1760.349)"/>
    <path id="Path_610" data-name="Path 610" d="M2515.184,1759.719c-.849,3.189-1.706,6.483-1.244,9.75l1.7.083a53.971,53.971,0,0,1,.012-8.1,1.821,1.821,0,0,1,.169-.752c.165-.3,1.139-.92.747-1.274a1.361,1.361,0,0,0-.809-.186C2515.408,1759.225,2515.269,1759.4,2515.184,1759.719Z" transform="translate(-2510.875 -1755.986)"/>
    <path id="Path_611" data-name="Path 611" d="M2591.6,1835.02a3.542,3.542,0,0,1,2.85-1.43,2.089,2.089,0,0,0-.711.982,4.582,4.582,0,0,1,2.829.3q-.617.153-1.233.314l2.167,1.484a4.084,4.084,0,0,1,1.548,1.537,5.144,5.144,0,0,0-2.417-.449c-1.3-.029-2.605-.057-3.908-.047a4.865,4.865,0,0,0-1.085.094,2.273,2.273,0,0,0-.511.192c-.124.063-.271.129-.395.029-.229-.184-.078-.67-.034-.907a5.393,5.393,0,0,1,.3-1.043A4.47,4.47,0,0,1,2591.6,1835.02Z" transform="translate(-2574.66 -1817.736)" fill="#b3b3b3"/>
    <path id="Path_612" data-name="Path 612" d="M2526.99,1834.543a2.709,2.709,0,0,0-.233-.933,4.092,4.092,0,0,0-5.374-2.153,4.983,4.983,0,0,1,1.748.789,3.333,3.333,0,0,0-2.108.491,1.156,1.156,0,0,1,.932.749,1.4,1.4,0,0,0-1.388.982l2.008-.021c1.588-.015,3.321.024,4.545,1.036l-.186-1.688" transform="translate(-2516.487 -1815.695)" fill="#b3b3b3"/>
    <path id="Path_613" data-name="Path 613" d="M2528.954,1765.044a3.61,3.61,0,0,0-3.08-.972,1.328,1.328,0,0,1,.762,1.453c-.318-.252-.812.128-.825.533a1.828,1.828,0,0,0,.5,1.082,1.439,1.439,0,0,1,.393,1.11c-.54.143-.708.852-.582,1.4a10.517,10.517,0,0,1,.475,1.6c.021.311-.046.624-.009.933a.748.748,0,0,0,.532.688.683.683,0,0,0,.627-.3,2.426,2.426,0,0,0,.3-.667,7.891,7.891,0,0,1,1.346-2.406,2.281,2.281,0,0,0,.529-.884,5.251,5.251,0,0,0,.085-.823,3.641,3.641,0,0,0-.414-1.88A3.5,3.5,0,0,0,2528.954,1765.044Z" transform="translate(-2520.842 -1759.964)" fill="#b3b3b3"/>
    <path id="Path_614" data-name="Path 614" d="M2624.312,1764.787a1.647,1.647,0,0,1,1.549-.55.865.865,0,0,0-.5,1.131.411.411,0,0,1,.513.168,1.7,1.7,0,0,0-.98.983,4.242,4.242,0,0,0-.265,1.4.985.985,0,0,0,.247.876,2.86,2.86,0,0,1,.262.17c.246.229.085.637-.1.916s-.389.65-.193.922c.112.155.338.239.363.429a.449.449,0,0,1-.15.333,3.419,3.419,0,0,1-.718.614.452.452,0,0,1-.336.1.463.463,0,0,1-.208-.144,6.958,6.958,0,0,1-1.685-3.048,5.221,5.221,0,0,1-.214-.628,1.523,1.523,0,0,1,.17-.748,6.282,6.282,0,0,1,.876-1.5A10.108,10.108,0,0,1,2624.312,1764.787Z" transform="translate(-2600.637 -1760.092)" fill="#b3b3b3"/>
    <path id="Path_615" data-name="Path 615" d="M2602.253,1863.975a1.151,1.151,0,0,0-.98.592c-.052.135-.024.333.118.36s.237-.146.3-.278a.982.982,0,0,1,.622-.54" transform="translate(-2583.493 -1842.972)" fill="#e6e6e6"/>
    <path id="Path_616" data-name="Path 616" d="M2527.458,1861.492a1.249,1.249,0,0,0-.726,0,.431.431,0,0,0-.236.6.151.151,0,0,0,.12.073c.079,0,.122-.09.158-.161a.865.865,0,0,1,.761-.46" transform="translate(-2521.365 -1840.866)" fill="#e6e6e6"/>
  </g>
</svg>
