<svg xmlns="http://www.w3.org/2000/svg" viewBox="0 0 353 353"><defs><style>.cls-1{fill:#f2f0f0;}.cls-2{fill:#003e6a;}.cls-3{fill:#579dd4;}.cls-4{fill:#3878a6;}.cls-5{fill:#f5c279;}.cls-6{fill:#437ba3;}.cls-7{fill:#ffc77f;}.cls-15,.cls-8{opacity:0.5;}.cls-9{fill:#d99f4e;}.cls-10{fill:#6a0e00;}.cls-11{fill:#fff;opacity:0.99;}.cls-12{fill:#ff948a;}.cls-12,.cls-13{opacity:0.8;}.cls-14{opacity:0.9;}.cls-15{fill:#8a5500;}.cls-16{fill:#f58b28;}.cls-17{fill:#13282e;}.cls-18{fill:#2a4047;stroke:#2a4047;stroke-miterlimit:10;}.cls-19{fill:#2a3236;}.cls-20,.cls-21{fill:#050319;}.cls-20{opacity:0.94;}</style></defs><g id="Layer_2" data-name="Layer 2"><g id="events"><path class="cls-1" d="M353,176.5a176.53,176.53,0,0,1-271.2,149l-.2-.13q-5.34-3.42-10.42-7.2A176.5,176.5,0,1,1,353,176.5Z"/><path class="cls-2" d="M140.62,266.55c18.66,15.13,46.39,19.49,64.6,3.71,9.31-8.07,15-20.15,19.33-32.28,6.35-17.67,10.51-36.19,14.15-54.77,1.15-5.87,2.26-11.89,1.49-17.83s-3.76-11.88-8.76-14.27c-3.57-1.7-7.63-1.41-11.51-1.09-2.08.17-4.5.58-5.49,2.59a7.82,7.82,0,0,0-.49,3.48c.26,28.91-7.85,57.84-22.87,81.56-1.68,2.66-3.76,5.47-6.68,5.93-2.74.44-5.33-1.35-7.58-3.12a162.56,162.56,0,0,1-25.19-24.79c-3.68-4.5-7.06-9.25-10.37-14.08-2.06-3-4.2-6.54-7.39-8.2s-8.27-1.4-11.5.33c-4.48,2.39-5.67,9.17-6.42,14.08A59,59,0,0,0,120,238.44,70.22,70.22,0,0,0,140.62,266.55Z"/><path class="cls-3" d="M139.42,261.52c18.66,15.13,46.39,19.48,64.59,3.7,9.31-8.07,15-20.14,19.34-32.27,6.35-17.67,10.5-36.2,14.15-54.77a67.84,67.84,0,0,0,1.73-14.55,11.27,11.27,0,0,0-.26-2.91,11.75,11.75,0,0,0-1-2.14,16.55,16.55,0,0,0-2.76-3.73,14.41,14.41,0,0,0-7.7-4.13,21.19,21.19,0,0,0-4.71-.15,15.94,15.94,0,0,0-7.58,2c-1,.62-2.6,1.7-2.59,3.08A131.23,131.23,0,0,1,210,181.08a148.9,148.9,0,0,1-20.15,51.54c-1.69,2.66-3.76,5.47-6.68,5.93-2.74.44-5.33-1.35-7.59-3.13a162,162,0,0,1-25.18-24.78c-1.63-2-3.21-4-4.75-6.13-1.2-1.62-2.38-3.27-3.54-4.93a10.55,10.55,0,0,0-2.38-3,20.79,20.79,0,0,1-3.06-3.28,7.68,7.68,0,0,0-1.82-1.65,6,6,0,0,0-2.31-.63,15.92,15.92,0,0,0-10.37,2.24,13.74,13.74,0,0,0-4.51,4.79,13.13,13.13,0,0,0-1.27,3.1,6.76,6.76,0,0,0-.2,1.48c-.08,1.16-.61,2.22-.8,3.37a26.55,26.55,0,0,0-.06,6.11l.34,5.18c.13,2-.07,4,0,6a18,18,0,0,0,1.13,4.37c.58,1.92,1.25,3.81,2,5.66A70.4,70.4,0,0,0,139.42,261.52Z"/><path class="cls-4" d="M140.27,264.38c18.66,15.13,46.39,19.48,64.59,3.7,9.31-8.07,15-20.14,19.34-32.27,6.35-17.67,10.5-36.2,14.14-54.77,1.15-5.87,2.26-11.89,1.5-17.83s-3.76-11.89-8.76-14.27c-3.58-1.71-7.64-1.41-11.52-1.09-2.07.17-4.49.58-5.48,2.59a7.66,7.66,0,0,0-.49,3.48c.26,28.91-7.86,57.84-22.87,81.56C189,238.14,187,241,184,241.41c-2.74.44-5.33-1.35-7.59-3.13a162,162,0,0,1-25.18-24.78c-3.69-4.51-7.07-9.25-10.38-14.08-2-3-4.2-6.54-7.38-8.2s-8.28-1.4-11.5.32c-4.48,2.4-5.68,9.17-6.42,14.08a58.94,58.94,0,0,0,4,30.65A70.31,70.31,0,0,0,140.27,264.38Z"/><path class="cls-5" d="M208.43,122.91a18.52,18.52,0,0,0-.83-2.65c-.35-.7-.69-1.39-1-2.14-.4-1.06-.61-2.29-1.1-3.3a13.79,13.79,0,0,0-1.08-1.58c-.2-.29-1-1.08-1-1.42a10.69,10.69,0,0,1-1.88-4.17,10.68,10.68,0,0,1-.42-1.88,2,2,0,0,1,3.37-1.72,6.39,6.39,0,0,1,1.67,2c1.34,2.13,2.56,4.47,4.08,6.47a3.24,3.24,0,0,0,0-1.9,15.08,15.08,0,0,1-.4-2.68c0-.53-.05-1.06-.08-1.6l-.15-3.1a11.17,11.17,0,0,1,.35-4.2c.19-.56.56-1.15,1.15-1.23.8-.1,1.35.78,1.65,1.54a44.26,44.26,0,0,1,2.34,8.16c.24,1.33.42,2.67.78,4,.09.36.19,1.34.71,1.26s.32-1.14.32-1.52a34.24,34.24,0,0,1,1.2-8.54c.26-.94.78-1.85,1-2.78,0-.12,0-.25,0-.37a.82.82,0,0,1,.74-.55,1.81,1.81,0,0,1,1.19.64,3.63,3.63,0,0,1,1.35,2.83,6.26,6.26,0,0,1-.36.9c-.42,1.17,0,2.54-.21,3.76a10.46,10.46,0,0,0-.36,2.61c.1,1.8.16,3.8,1.29,5.31a5.45,5.45,0,0,1,.22-1.39c.09-.53.08-1.1.14-1.64.13-1.21.44-2.41.57-3.62,0-.35,0-.7,0-1.05a1.54,1.54,0,0,1,1.83-1.3c1.11.29,1.24,1.78,1.26,2.93.12,5.71,3.32,10.72,4.56,16.18a83.48,83.48,0,0,1,1.16,9.2q.56,5,1.27,9.92c.19,1.33.39,2.65.6,4l.33,2a3.63,3.63,0,0,1,.1.45c0,.19,0,.1-.17.17a.6.6,0,0,1-.39.14,3.3,3.3,0,0,1-.62-.15c-.8-.23-1.56-.59-2.35-.85a13.89,13.89,0,0,0-4-.64c-.68,0-1.36,0-2,0-1.24,0-2.46,0-3.7,0a9.83,9.83,0,0,1-4.24-.59,1.85,1.85,0,0,1-1.14-1c-.42-1.29-.71-2.66-1.13-4L212,134l-3.13-9.82Z"/><path class="cls-6" d="M195.57,295.31l-15.15.32a112.41,112.41,0,0,1-13.11-.09c-2.38-.23-4.13.86-6.15,2q-4.2,2.35-8.45,4.6-8.51,4.47-17.26,8.47A337.56,337.56,0,0,1,99.8,324.5c-3.48,1.13-7.07,2.23-10.72,2.07a15.27,15.27,0,0,1-1.79-.17,8.67,8.67,0,0,1-2.85-.72,1.59,1.59,0,0,0-1.19-.21,2.42,2.42,0,0,1-.66,0c-.26,0-.53,0-.79,0l-.2-.13q-5.34-3.42-10.42-7.2a1.2,1.2,0,0,1-.07-.61c0-.56.07-1.13.1-1.69,0-.34.05-.68.07-1s0-.7.07-1.05c0-.17,0-.34,0-.51a9.08,9.08,0,0,0-.25-1.62c-.46-2.82-.83-5.66-1.1-8.5q-.45-4.68-.55-9.37c-.16-6.95-.73-13.83-.77-20.81v-.18c0-6.24,0-12.49.18-18.73.12-3.11.3-6.22.57-9.32.13-1.54.29-3.09.48-4.63q.14-1.16.3-2.31a13,13,0,0,0,.27-2.15,13.31,13.31,0,0,1-.05-1.55c0-.34.06-.67.1-1s.09-.81.14-1.21c.19-1.48.43-2.95.72-4.4a63.72,63.72,0,0,1,2.37-8.56,60.19,60.19,0,0,1,6.68-13.32c5.94-8.83,14.08-15.26,22.83-20.2,1.43-.81,2.83-1.71,4.2-2.66,2.55-1.75,5-3.62,7.64-5.28l1-.61c.19-.12.69-.55.9-.48s.4.7.51,1c.2.52.39,1,.58,1.56l1.17,3.16c1.15,3.11,2.44,6.42,5,8.21,2.08,1.48,4.66,1.68,7.12,1.69a59.52,59.52,0,0,0,6.26-.33c1.46-.16,3.07-.46,4-1.74a6.88,6.88,0,0,0,.94-2.43c.24-1,.46-1.9.69-2.85q.6-2.59,1.16-5.21c.18-.87.36-1.74.53-2.61.09-.44.18-.88.26-1.31a3.61,3.61,0,0,1,.13-.67,1.26,1.26,0,0,1,1.22-.66,15.69,15.69,0,0,1,1.67.27l2.08.38c1.37.28,2.75.58,4.11.94a41.12,41.12,0,0,1,8,2.92,29.56,29.56,0,0,1,5.12,3.23c11.62,9.13,14.91,26.54,17.29,42.26Q190.19,259.75,195.57,295.31Z"/><path class="cls-7" d="M102.72,111.05l-.15-.07a3.5,3.5,0,0,1-.89-.58,7.88,7.88,0,0,1-2-2.72,8.37,8.37,0,0,1-.52-1.63,8.13,8.13,0,0,1-.13-.84,3,3,0,0,1,0-.85c0-.22.12-.41.14-.63s.07-.51.12-.76a6.72,6.72,0,0,1,.5-1.45,6.35,6.35,0,0,1,1.85-2.35,4.34,4.34,0,0,1,2.68-.91h.19c-3.66-10.39-6.36-21.5-4.64-32.39s8.7-21.51,19.21-24.83c4.9-1.56,10.15-1.45,15.29-1.53,9.3-.13,18.72-.91,27.83,1s18.14,7,22.06,15.4c1.88,4,2.47,8.58,2.85,13a173.68,173.68,0,0,1-5.76,61.54c-2.9,10.34-7.72,21.47-17.62,25.62-2.67,1.12-5.58,1.66-8.14,3-6.13,3.26-9,10.48-10.33,17.3s-1.79,14-5.15,20.08a2.24,2.24,0,0,1-.9,1,2.34,2.34,0,0,1-1.18.09,23.77,23.77,0,0,1-14.3-7.43,25.2,25.2,0,0,1-6.69-14.9c-.32-3.11-.2-6.27-.41-9.38q-.36-5.29-1.12-10.55a136.9,136.9,0,0,0-4.65-20.69c-1.57-5.13-3.32-10.26-4.38-15.54-.35-1.72-.62-3.47-.82-5.22a10.29,10.29,0,0,0-.18-2.15c-.06-.17-.09-.14-.25-.13h-.32q-.6,0-1.2-.06a1.21,1.21,0,0,1-.73-.31l-.12-.11Z"/><g class="cls-8"><path class="cls-9" d="M157.49,59.88q2.4,6.76,4.81,13.52a6.29,6.29,0,0,1,.58,2.7,12.13,12.13,0,0,0,.77,4.33,67.16,67.16,0,0,0,3.41,8.29c.24.51.3,1,.51,1.54a20.85,20.85,0,0,1,1.1,3.38c.1.41.18.83.26,1.25.26,1.5.37,3,.68,4.5a49.76,49.76,0,0,0,2.84,7.79,6.48,6.48,0,0,1,.61,3.47c-.38,2-2.39,3.19-4.25,4a39,39,0,0,1-4.93,1.74c-.44.12-1.15.27-1.13.85,0,.24.07.48.07.72s0,.77,0,1.15a34,34,0,0,0-.1,3.64c0,.45.21.86.27,1.31a30.26,30.26,0,0,1-.2,4.75l-.27,5.42c-.09,1.72-.31,3.48-.26,5.2,0,.54.26,1,.33,1.54a28.5,28.5,0,0,1,.13,4.8,39,39,0,0,1-1.5,9.47,1.9,1.9,0,0,0,0,1.48c0,.07.12.19.21.19a.83.83,0,0,0,.15,0,6.44,6.44,0,0,0,.74-.25c.13-.05.27-.07.4-.12l.4-.16c.26-.11.51-.23.76-.36l.36-.19,1.66-.86c.48-.25,1-.5,1.43-.78.23-.14.46-.29.68-.45a1.48,1.48,0,0,0,.31-.25,2,2,0,0,1,.26-.24c.05-.05.08-.11.13-.16a1.85,1.85,0,0,1,.14-.14l.3-.27.64-.5.51-.4a2.1,2.1,0,0,0,.51-.52c.06-.08.07-.17.14-.24s.19-.22.29-.32c.38-.43.74-.86,1.09-1.3.2-.26.4-.51.59-.77,4.89-6.57,7.36-14.58,9.46-22.49,1.31-4.89,2.5-9.83,3.34-14.83a83.39,83.39,0,0,0,1.12-10.81c.06-1.81.05-3.63,0-5.43a6.1,6.1,0,0,1,.09-2.09,14.84,14.84,0,0,0,.36-2.9c.16-2,.26-4.07.32-6.11.09-3.2.08-6.39.07-9.59a43.83,43.83,0,0,0-.77-9.84c-.3-1.31-.73-2.59-1.16-3.87l-.76-2.29a5.84,5.84,0,0,1-.29-1c0-.2,0-.42-.06-.62a5.72,5.72,0,0,0-.81-1.62,27.56,27.56,0,0,0-2.87-3.92,28.65,28.65,0,0,0-7.4-6,27.58,27.58,0,0,0-9-3.18,34.41,34.41,0,0,0-14.09.88c0,1.58,1.18,2.86,2.05,4.18a22.25,22.25,0,0,1,2.24,5Z"/></g><path class="cls-10" d="M162.09,125.41a22.59,22.59,0,0,0,9.37-1.76c-4.71,5.53-4.16,13.81-7.37,20.33a4.17,4.17,0,0,1-1.11,1.54,3.65,3.65,0,0,1-2,.67c-2.95.18-5.7-1.51-7.91-3.49a28.46,28.46,0,0,1-8.82-15.52c-.14-.69-.79-2.67-.25-3.27s3,.31,3.75.44c1.44.25,2.88.45,4.34.62A74.82,74.82,0,0,0,162.09,125.41Z"/><path class="cls-11" d="M162.09,125.43a22.59,22.59,0,0,0,9.37-1.76c-.16.19-.32.39-.47.59a15.47,15.47,0,0,0-1.69,2.79c-.11.24-.23.49-.33.74l-.15.36c0,.11-.13.11-.24.14a9.06,9.06,0,0,1-1.72.27,98.59,98.59,0,0,1-16.38-.5L150,128c-1.19-.1-2.38-.21-3.55-.41-.59-.1-1.17-.21-1.75-.36-.14,0-.29-.07-.43-.12s-.07,0-.1-.07a2,2,0,0,1-.1-.42,13.27,13.27,0,0,1-.3-1.5,1.61,1.61,0,0,1,.19-1.2c.54-.59,3,.31,3.75.44,1.44.25,2.88.45,4.34.61A73.21,73.21,0,0,0,162.09,125.43Z"/><path class="cls-12" d="M156.33,137.23a1.39,1.39,0,0,0,.72-.25c.21-.14.39-.33.66-.27a2.65,2.65,0,0,1,.3.11,6.51,6.51,0,0,0,1.07.13,4.78,4.78,0,0,1,3.39,1.3,4.89,4.89,0,0,1,.77,1.61,12.54,12.54,0,0,1,.69,2.76,10,10,0,0,1,0,1.34,1.92,1.92,0,0,1-.39,1.15,2.84,2.84,0,0,1-1.79.88,8.21,8.21,0,0,1-5.08-1,21.73,21.73,0,0,1-4.22-3.12c-.36-.32-.71-.65-1-1-.13-.13-.25-.3-.38-.42s-.28-.24-.42-.37a7.29,7.29,0,0,1-.92-1.08c-.14-.2-.26-.4-.38-.6a4.1,4.1,0,0,1-.32-.62,3.24,3.24,0,0,1,1.64-.68,17.27,17.27,0,0,1,2.16-.3,4.26,4.26,0,0,1,1.18,0c.46.1.91.22,1.37.33A3.53,3.53,0,0,0,156.33,137.23Z"/><path class="cls-13" d="M141.83,94.16A9.29,9.29,0,0,1,146.9,93a5.29,5.29,0,0,1,4.2,2.27,8,8,0,0,1,1.6,4.06A7.49,7.49,0,0,0,144,96.87a13.78,13.78,0,0,0-2.4,1.42c-.84.58-1.65,1.33-2.54,1.82a4.51,4.51,0,0,1,.32-3.12A6,6,0,0,1,141.83,94.16Z"/><path class="cls-13" d="M181.32,93.23a8.18,8.18,0,0,0-4.43-1,4.65,4.65,0,0,0-3.68,2,6.94,6.94,0,0,0-1.4,3.54,6.55,6.55,0,0,1,7.6-2.11,11.7,11.7,0,0,1,2.1,1.24,26.42,26.42,0,0,0,2.22,1.59,4,4,0,0,0-.28-2.72A5.28,5.28,0,0,0,181.32,93.23Z"/><path class="cls-14" d="M177.74,82.77c2.29-.69,4.74-1.38,7-.7a2.94,2.94,0,0,0-1.57-3.21,8.51,8.51,0,0,0-3.75-.79c-1.89-.11-3.79-.22-5.69-.22-1.46,0-3.31-.2-4.57.7-3,2.08.2,4.84,2.66,5.14A14.82,14.82,0,0,0,177.74,82.77Z"/><path class="cls-14" d="M140.6,86.3c-2.82,0-5.83,0-8.45,1.14-.64-1,.16-2.34,1.4-3.16a14.11,14.11,0,0,1,4.34-1.62c2.24-.56,4.48-1.12,6.73-1.59,1.75-.36,3.91-1,5.54-.53,3.82,1.07.46,4.24-2.41,5.1A24.13,24.13,0,0,1,140.6,86.3Z"/><path d="M98.8,78.4c-.68-5.46-1.21-11-.49-16.43s2.81-10.86,6.72-14.71a34,34,0,0,1,7-5,16.91,16.91,0,0,1,4.7-2.28,8.84,8.84,0,0,0,1.73-.46c1.72-.77,3.32-1.82,5.07-2.57a39.61,39.61,0,0,1,6.18-2c1.06-.25,2.12-.46,3.2-.63a8.91,8.91,0,0,1,1.62-.17,8.34,8.34,0,0,0,2.15-.36,16.11,16.11,0,0,0,4.09-1.71,15.71,15.71,0,0,0,5.45-5.36l-.68,5.07c1.57-.37,3.13-.74,4.69-1.13A25.18,25.18,0,0,0,157.51,28a8.91,8.91,0,0,0,4.37-6.12A83.55,83.55,0,0,1,164,32.14a36.38,36.38,0,0,0,7-.9,4.84,4.84,0,0,0-.21,1.22,9.27,9.27,0,0,0,0,1.29,10,10,0,0,0,.39,2.55,3.79,3.79,0,0,0,.91,1.91,3.5,3.5,0,0,0,.61.31,6.66,6.66,0,0,1,1,.61,47.55,47.55,0,0,1,6.83,5.15A45.25,45.25,0,0,1,186,51.34a18.18,18.18,0,0,1,2.58,4.76,10.41,10.41,0,0,1,.36,4,17.29,17.29,0,0,1-1.28,4.9c-.2.49-.33,1.2-.89,1.38a11,11,0,0,1-2.62.38,19.41,19.41,0,0,1-3,0,19.75,19.75,0,0,1-5.91-1.39c-.48-.19-1-.4-1.4-.63a7.49,7.49,0,0,0-1.37-.5c-1.06-.29-2.11-.63-3.13-1a51,51,0,0,1-6-2.74l-.93-.5a6.62,6.62,0,0,0,4.35,4.93c-2.06,2.14-5.56.68-8.42-.12a29.9,29.9,0,0,0-8.45-.76c-5.32.07-10.72.33-15.77,2-3.82,1.27-7.36,3.34-11.27,4.25-3,.69-6.44.83-8.49,3.12a9.46,9.46,0,0,0-1.82,3.69c-.6,2-1,4-1.47,6a17.87,17.87,0,0,1-.59,2.48,6.87,6.87,0,0,0-.46,1.48c-.21,1.73-.66,3.36-1,5.06-.58,2.8-.45,5.74-1.28,8.47-.4.24-.91-.1-1.15-.5a4.78,4.78,0,0,0-.68-1.21c-.44-.41-1.16-.41-1.6-.83-.67-.64-.33-1.7-.49-2.51a4.16,4.16,0,0,0-.93-1.85,14.23,14.23,0,0,1-2.36-5.49A84.35,84.35,0,0,1,98.8,78.4Z"/><path class="cls-15" d="M111.51,57.21a47.6,47.6,0,0,1,5.13-7.76l.22-.27a39.37,39.37,0,0,1,8.44-7.65,34.94,34.94,0,0,1,5-2.76c.87-.39,1.75-.74,2.65-1.05a3.17,3.17,0,0,1,1.17-.23,3.33,3.33,0,0,0,.83-.12,14.13,14.13,0,0,0,3.44-1.46,13.71,13.71,0,0,0,2.89-2.31c.52-.55,1.41-1.15,1.9-.59s.19,1.36,0,1.94a7.61,7.61,0,0,1-.59,1.42A15.84,15.84,0,0,1,140.78,39,48.77,48.77,0,0,1,128,50a9,9,0,0,0,6.7-1.81,34.65,34.65,0,0,0,5.11-5,77,77,0,0,1,6.84-6.56q1.69-1.44,3.46-2.78a7.14,7.14,0,0,1,2-.85c.75-.26,1.5-.53,2.26-.77s1.4-.41,2.12-.57c.33-.06,1.53-.47,1.71-.06s-.42,1.18-.67,1.49c-.41.49-.93,1.27-1.56,1.5-.24.1-.49.12-.74.23a6.71,6.71,0,0,0-1.77,1.32,25.25,25.25,0,0,0-7.58,15.24.66.66,0,0,0,.07.5c.31.42,1.61-.58,1.61-.06a33.69,33.69,0,0,0,3.3-4.31c1-1.47,2-3,3.1-4.41a25.28,25.28,0,0,1,6-6c.36-.24.73-.47,1.12-.69a3.59,3.59,0,0,1,1.14-.53A27.62,27.62,0,0,1,165,35.8l1.74,0,1-.06a3.8,3.8,0,0,1,.95,0c.33.07-.69,1.32-.86,1.47a2.29,2.29,0,0,1-.43.32c-.26.15-.56.23-.83.37a19.58,19.58,0,0,0-2.52,1.71,34.46,34.46,0,0,0-4.59,4.12l-.66.74a5.39,5.39,0,0,0-1.55,2.87,2.88,2.88,0,0,0,3.07,3.14c.35,0,.67-.15,1-.16s.76,0,1.15,0,1.05,0,1.57,0a19.51,19.51,0,0,1,3.14.38,24.48,24.48,0,0,1,6,2.06l.4.2a35.8,35.8,0,0,1,5.28,3.33c.84.63,1.65,1.28,2.45,2,.4.34.8.68,1.19,1,.23.2,1,.69,1,1s-.78.61-1.07.7A5.08,5.08,0,0,1,181,61a22.84,22.84,0,0,1-2.74-.37c-2.59-.42-5.15-1-7.71-1.6s-5.11-1.16-7.7-1.54a33.8,33.8,0,0,0-7.72-.33,4.35,4.35,0,0,1-1.19.06c-.21,0-.41-.11-.62-.15l-1.21-.26c-.81-.16-1.63-.29-2.44-.4-.63-.09-1.27-.19-1.9-.25s-.89.38-1.29.69a65.75,65.75,0,0,1,13.2,3.79c.92.38,2,1.22,1.61,2.13-3.71-.72-7.42-1.43-11.14-2.06-4.53-.76-9.09-1.39-13.68-1.74q-3.42-.27-6.86-.3c-1.14,0-2.29,0-3.43,0l-1.72.08a7.18,7.18,0,0,0-2.46.8,24.64,24.64,0,0,0-10.54,8.9,12.66,12.66,0,0,0-1.58,3.19,7.3,7.3,0,0,0-.3,1.73,4.61,4.61,0,0,1,0,.64c-.07.41-.49.76-.69,1.09s-.28.82-.77.9-.73.15-1-.21a5.22,5.22,0,0,1-.53-1,5.78,5.78,0,0,1-.42-2.1,14,14,0,0,1,.72-4.39A61.88,61.88,0,0,1,111.51,57.21Z"/><path class="cls-3" d="M136.05,212.56c-4-2.5-8.71-3.95-12.47-6.84a33.57,33.57,0,0,1-4.5-4.34c-3.83-4.27-7.47-9.16-8.11-14.85-.71-6.33,2.38-12.38,5.37-18a29.46,29.46,0,0,0,16.25,26.74,30.6,30.6,0,0,0,3,1.31c.52.2,1,.37,1.55.53.36.11.85.19,1,.56.31.6-.32,1.57-.47,2.15a34.74,34.74,0,0,0-.61,3.81C136.66,206.59,136.32,209.57,136.05,212.56Z"/><path class="cls-3" d="M151.43,186.34a124.79,124.79,0,0,1-1.68,22.26,49.51,49.51,0,0,1-11.5-10.54c3.17-2.79,3.68-7.44,4.33-11.61a75,75,0,0,1,3.53-13.92,10,10,0,0,1,.61-1.64c.34-.59.61-.23.91.17a15.7,15.7,0,0,1,1.54,2.58,21.58,21.58,0,0,1,1.73,5.77A45.91,45.91,0,0,1,151.43,186.34Z"/><path class="cls-16" d="M340.5,241.85a175.25,175.25,0,0,1-19,35.27c-.09.15-.2.29-.31.44A176.55,176.55,0,0,1,81.6,325.34a4.22,4.22,0,0,1,.46-.38c2.25-1.6,5.77-2.07,8.36-2.88,3.46-1.09,6.93-2.19,10.38-3.3q10.38-3.33,20.71-6.79,41.33-13.87,81.87-29.9,22.44-8.86,44.61-18.39C277.49,251,309.05,237.21,340.5,241.85Z"/><path class="cls-2" d="M60,229.13c-9.7,21.88-9.33,52.46,6.13,70.55,7.91,9.25,18.58,14.12,29.1,17.56,15.33,5,31,7.55,46.73,9.53,5,.63,10,1.19,14.77-.27a15.08,15.08,0,0,0,10.41-11c.89-4.06.08-8.44-.74-12.62-.43-2.23-1.11-4.82-2.89-5.68a4.9,4.9,0,0,0-2.91-.16c-23.57,3.36-48.35-2.37-69.85-16.16-2.41-1.54-5-3.5-5.79-6.61-.74-2.94.35-5.94,1.48-8.58a164.5,164.5,0,0,1,16.68-30c3.15-4.48,6.55-8.66,10-12.77,2.16-2.55,4.74-5.25,5.64-8.89a19.16,19.16,0,0,0-1.89-12.46c-2.59-4.61-8.29-5.18-12.41-5.47-8.7-.6-17.19,2.46-24.45,7.67C71.6,209.79,64.62,218.72,60,229.13Z"/><path class="cls-3" d="M63.93,227.29c-9.71,21.87-9.33,52.46,6.13,70.55C78,307.09,88.64,312,99.16,315.4c15.33,5,31,7.55,46.73,9.53,4,.51,8.13,1,12.13.34a7.4,7.4,0,0,0,2.33-.59A9.4,9.4,0,0,0,162,323.4a14.43,14.43,0,0,0,2.65-3.4,17.81,17.81,0,0,0,2.28-8.79,29.69,29.69,0,0,0-.54-5.14,22.12,22.12,0,0,0-2.73-8c-.64-1-1.75-2.64-2.87-2.48a83.05,83.05,0,0,1-21.13-.17A107.08,107.08,0,0,1,94.68,279c-2.41-1.54-5-3.5-5.79-6.62-.74-2.93.35-5.93,1.48-8.57a164.5,164.5,0,0,1,16.68-30c1.4-2,2.84-3.92,4.33-5.81,1.15-1.48,2.33-2.93,3.52-4.37a9.54,9.54,0,0,0,2.08-2.91,20.74,20.74,0,0,1,2.25-3.67,7.75,7.75,0,0,0,1.08-2.15,8.2,8.2,0,0,0,.19-2.58,22.21,22.21,0,0,0-3.29-11,13.53,13.53,0,0,0-4.56-4.39,9.58,9.58,0,0,0-2.71-1,4.64,4.64,0,0,0-1.23-.06,24,24,0,0,1-2.87-.51,16.52,16.52,0,0,0-5,.59l-4.19.92c-1.66.36-3.26.34-4.94.62a12.09,12.09,0,0,0-3.41,1.7A47.35,47.35,0,0,0,84,201.89C75.54,208,68.56,216.87,63.93,227.29Z"/><path class="cls-4" d="M61.72,228.51C52,250.39,52.38,281,67.85,299.06c7.9,9.25,18.57,14.12,29.09,17.57,15.33,5,31.05,7.55,46.73,9.53,5,.62,10,1.18,14.78-.28a15.09,15.09,0,0,0,10.41-11c.88-4.06.07-8.44-.74-12.62-.44-2.23-1.11-4.82-2.9-5.68a5,5,0,0,0-2.91-.16C138.74,299.74,114,294,92.47,280.23c-2.41-1.55-5-3.51-5.79-6.62-.75-2.93.35-5.94,1.48-8.58a164.47,164.47,0,0,1,16.67-30c3.16-4.48,6.55-8.66,10-12.77,2.16-2.55,4.74-5.25,5.65-8.89a19.28,19.28,0,0,0-1.89-12.46c-2.6-4.61-8.3-5.18-12.41-5.47-8.71-.6-17.2,2.46-24.45,7.67C73.32,209.17,66.34,218.1,61.72,228.51Z"/><path class="cls-5" d="M186.91,287.48a12.33,12.33,0,0,0,2-1.19,19.76,19.76,0,0,1,1.61-1.29,28.71,28.71,0,0,0,2.54-1.55,12.55,12.55,0,0,0,1.14-1.34c.2-.24.74-1.17,1-1.2a7.93,7.93,0,0,1,3.14-2.49,6.86,6.86,0,0,1,1.47-.65,1.73,1.73,0,0,1,1.72.77,3.19,3.19,0,0,1,.17,2.7,6.1,6.1,0,0,1-1.41,2c-1.55,1.69-3.28,3.26-4.7,5.12.45.24,1.11-.05,1.54-.22a10.31,10.31,0,0,1,2.13-.73c.44-.07.87-.17,1.3-.25l2.51-.49a7,7,0,0,1,3.49-.07,1.61,1.61,0,0,1,1.16,1.12,2,2,0,0,1-1,1.95,29.49,29.49,0,0,1-6.34,3.41,31.24,31.24,0,0,0-3.14,1.27c-.27.14-1.06.35-.92.91s1,.22,1.28.19a21.57,21.57,0,0,1,7.15.39c.8.18,1.62.65,2.41.8.1,0,.19-.07.3,0a.88.88,0,0,1,.56.74,2.2,2.2,0,0,1-.36,1.36c-.46.83-1.23,1.84-2.12,1.76a5,5,0,0,1-.79-.29c-1-.34-2.07.29-3.1.17a6.94,6.94,0,0,0-2.18-.11c-1.45.29-3.08.57-4.15,2a3.56,3.56,0,0,1,1.17.08c.44.05.9,0,1.35,0,1,0,2,.22,3,.24.29,0,.57-.13.86-.11a1.69,1.69,0,0,1,1.32,1.84c-.08,1.24-1.28,1.54-2.22,1.69-4.64.73-8.28,4.74-12.56,6.68a53.13,53.13,0,0,1-7.35,2.23c-2.66.75-5.29,1.57-7.92,2.44-1.06.35-2.11.71-3.16,1.08l-1.58.56c-.11,0-.24.15-.36.15s-.09,0-.16-.16a.72.72,0,0,1-.17-.41,3.83,3.83,0,0,1,0-.68c.07-.9.26-1.76.37-2.65a20.42,20.42,0,0,0,0-4.35c-.07-.75-.17-1.49-.28-2.22-.21-1.34-.37-2.68-.56-4a13.85,13.85,0,0,1-.12-4.67,1.91,1.91,0,0,1,.67-1.34c1-.59,2.06-1.06,3.07-1.65l7.61-4.46,7.57-4.44Z"/><path class="cls-17" d="M301.41,259.27a8.67,8.67,0,0,0,2,.63,5.57,5.57,0,0,0,1.93-.1c3.11-.61,5.73-1.93,6.73-4s.18-4.95-2.56-7.18a27.48,27.48,0,0,0-3.27-2.13l-8.86-5.19a6.4,6.4,0,0,1-1.09,7.83,19.32,19.32,0,0,1-5.91,3.85,13.25,13.25,0,0,0-1.74.78c-.51.37,1,.77,1.49,1l5.36,2.16Z"/><path class="cls-18" d="M304.36,246.49a1.36,1.36,0,0,0-.23-1.18,9.08,9.08,0,0,0-2.12-1.7l-38.48-25.35a73.56,73.56,0,0,1,5.05,6.33c1.26,1.79,1.75,3.32,1.35,4.61a10.08,10.08,0,0,1-.78,1.82,11.6,11.6,0,0,1-3.56,3.89A16.55,16.55,0,0,1,263,236.4a10.53,10.53,0,0,1-3.87.71,22.32,22.32,0,0,1-10-1.82c1.26.54,2.62,1.34,3.85,2l4,2c2.65,1.33,5.31,2.66,8,4q8,4,16.14,7.8l4,1.91a21.09,21.09,0,0,0,3.15,1.38,5.5,5.5,0,0,0,1.76,0c.86,0,1.7-.08,2.5-.16a19.28,19.28,0,0,0,7.82-2.29,8.08,8.08,0,0,0,3.87-4.65A6.11,6.11,0,0,0,304.36,246.49Z"/><ellipse class="cls-19" cx="254.16" cy="226.04" rx="17.02" ry="17.13" transform="translate(-57.64 361.97) rotate(-65.2)"/><path class="cls-20" d="M253.09,235.63q3.27-7.09,6.28-14.49c.68-1.68,1.33-3.39,2-5.12a.49.49,0,0,0,0-.41l-.18-.53c-.25-.69-.52-1.37-.82-2a24.46,24.46,0,0,0-1.21-2.4s0-.08-.07-.06,0,.06,0,.09a.61.61,0,0,1-.07.14c0,.11-.09.21-.14.3l-.32.58c-.22.36-.45.71-.68,1.05l-8.51,12.57c-.56.83-1.12,1.67-1.64,2.57a19,19,0,0,0-1.58,3.4.66.66,0,0,0-.06.44c0,.08,0,.16.07.25s.09.32.14.47c.09.32.19.63.3.94.21.61.45,1.21.7,1.79a20.64,20.64,0,0,0,1.75,3.19,15.4,15.4,0,0,0,1.17,1.53,4.52,4.52,0,0,0,.62.68c.22.17.31-.23.39-.47l.06-.19c.12-.36.24-.74.38-1.08C252.11,237.73,252.61,236.68,253.09,235.63Z"/><rect class="cls-21" x="277.73" y="226.02" width="10.06" height="6" transform="translate(152.39 -110.7) rotate(30)"/><ellipse class="cls-19" cx="276" cy="292.5" rx="17" ry="7.5"/><rect class="cls-20" x="275" y="248" width="2" height="44"/><path class="cls-20" d="M278.06,249.44a13.06,13.06,0,0,0,4.56-2,8.22,8.22,0,0,0,3-3.9,1.59,1.59,0,0,0,.13-.74,1.28,1.28,0,0,0-.64-.88,3.69,3.69,0,0,0-1.07-.38,6.07,6.07,0,0,1-1.43,2.06,36.63,36.63,0,0,1-3.15,2.95,7.33,7.33,0,0,1-1.39,1,9.28,9.28,0,0,1-3.68.6c-.14,0-.3,0-.35.15a.33.33,0,0,0,0,.17,1.73,1.73,0,0,0,1.29,1.25,3.55,3.55,0,0,0,1.17.1,2.67,2.67,0,0,0,.56-.06c.12,0,.22-.09.34-.12S277.84,249.49,278.06,249.44Z"/><path class="cls-20" d="M309.66,258.05a.07.07,0,0,1-.11,0S309.61,258,309.66,258.05Z"/><path class="cls-20" d="M321.52,277.12c-.09.15-.2.29-.31.44a5.42,5.42,0,0,1-1.69-1.68c-.46-.72-.75-1.54-1.21-2.26a13.13,13.13,0,0,0-3.78-3.23c-1.37-.95-2.73-2.17-3-3.8a8.87,8.87,0,0,1,.06-2.57c.08-.74.13-1.49.16-2.23a5.53,5.53,0,0,0-.29-2.29,2.11,2.11,0,0,0-1.71-1.38s0-.05,0-.07,0-.06.07-.11c.15-.34.54-.44.89-.57a5.16,5.16,0,0,1,2.05,3.6,9.19,9.19,0,0,1-.2,1.74,10.12,10.12,0,0,0,.14,4.21,5.64,5.64,0,0,1,.21.7.8.8,0,0,0,.07.2c.1.16.21.32.32.47a6.9,6.9,0,0,0,.75.86,12.62,12.62,0,0,0,1.8,1.46l1.15.73a1,1,0,0,1,.24.16.79.79,0,0,0,.17.14,5.19,5.19,0,0,1,.5.31,3.86,3.86,0,0,1,.89.82c.71,1,.8,2.24,1.46,3.22A3.37,3.37,0,0,0,321.52,277.12Z"/></g></g></svg>