<svg xmlns="http://www.w3.org/2000/svg" width="200" height="200" viewBox="0 0 200 200">
  <g id="Group_215" data-name="Group 215" transform="translate(-2695.654 -1209.652)">
    <circle id="Ellipse_181" data-name="Ellipse 181" cx="100" cy="100" r="100" transform="translate(2695.654 1209.652)" fill="#f2f0f0"/>
    <path id="Path_711" data-name="Path 711" d="M2799.071,1297.348a40.077,40.077,0,0,1,3.021-4.915c1.063-1.244,2.113-2.458,3.066-3.818,1.348-1.924,2.393-4.3,3.886-6.078a28.274,28.274,0,0,1,2.981-2.638c.546-.484,2.5-1.691,2.673-2.368a22.363,22.363,0,0,0,5.91-7.451,22.027,22.027,0,0,0,1.788-3.569,4.182,4.182,0,0,0-5.912-5.187,13.85,13.85,0,0,0-4.385,3.2c-3.783,3.613-7.423,7.7-11.5,10.96-.274-1.145.51-2.759,1.005-3.8a33.4,33.4,0,0,0,2.177-5.193c.3-1.068.642-2.125.964-3.187l1.868-6.178c.851-2.815,1.713-5.715,1.446-8.644-.113-1.222-.561-2.595-1.7-3.045-1.569-.621-3.114.885-4.1,2.254a90.521,90.521,0,0,0-8.852,15.252c-1.165,2.555-2.216,5.17-3.594,7.621-.375.669-1.063,2.595-2.081,2.173-1.076-.449-.06-2.451.123-3.216a70.988,70.988,0,0,0,1.917-17.824c-.039-2.023-.632-4.115-.612-6.1,0-.26.21-.478.176-.754a1.694,1.694,0,0,0-1.206-1.489,3.769,3.769,0,0,0-2.726.7c-1.751,1.032-3.972,2.8-4.138,5a11.5,11.5,0,0,0,.264,2c.253,2.578-1.342,5.1-1.5,7.68a21.831,21.831,0,0,1-.594,5.438c-1.1,3.569-2.24,7.572-5.293,10.031a11.975,11.975,0,0,0,.271-2.9c.079-1.118.394-2.256.548-3.369.349-2.518.337-5.079.675-7.588.1-.723.453-1.394.532-2.111a3.189,3.189,0,0,0-3.01-3.548c-2.382.014-3.4,2.96-4.034,5.264-3.135,11.442-12.125,19.905-17.4,30.271-.745,1.464-1.421,2.964-2.05,4.483-.554,1.346-.988,2.757-1.589,4.08-.191.418-.484.775-.675,1.188a5.713,5.713,0,0,0-.322,1.884q-.109,1.206-.2,2.414-.362,4.83-.443,9.674-.056,3.344.023,6.685a30.315,30.315,0,0,0,.44,5.133,49.867,49.867,0,0,0,1.957,6.251,51.081,51.081,0,0,1,1.462,5.222q.293,1.324.52,2.661c.083.5.166,1,.213,1.5.2,2.131,3.178,3.371,4.959,3.993a22.983,22.983,0,0,0,7.5,1.1c4.566.012,9.232-.638,13.628.594-.353-7.759,2.638-15.233,5.577-22.423.549-1.342,1.016-2.763,1.662-4.061a1.878,1.878,0,0,1,.756-.785c1.711-1.128,3.232-2.565,4.907-3.758.511-.366,1.061-.692,1.537-1.105a7.328,7.328,0,0,1,.8-.717,10.283,10.283,0,0,1,3.6-.97,28.534,28.534,0,0,1,8.122-.26,21.737,21.737,0,0,0,5.925.324,2.95,2.95,0,0,0,1.674-.74c1.27-1.309.488-3.205.4-4.739a2.637,2.637,0,0,0-.576-2,5.731,5.731,0,0,0-2.411-1.523c-2.342-.831-4.768-.59-7.209-.59a16.327,16.327,0,0,0-2.553.033,2.935,2.935,0,0,1-1.965-.1,1.87,1.87,0,0,1-.719-1.849,3.454,3.454,0,0,1,.22-1.113,10.611,10.611,0,0,1,.744-1.059Z" transform="translate(54.257 35.808)" fill="#f0b794"/>
    <path id="Path_712" data-name="Path 712" d="M2749.106,1271.4a30.035,30.035,0,0,0-2.123,7.082c-.345,2.04-.391,4.383,1.029,5.887a5.309,5.309,0,0,0,3.982,1.427,22.736,22.736,0,0,0,4.283-.725c2.453-.526,5.154-.744,7.337.49a16.078,16.078,0,0,1,2.875,2.4,15.271,15.271,0,0,0,6.014,3.662,8.473,8.473,0,0,0,6.853-.769c.873-.557,1.612-1.88.8-2.518a2.127,2.127,0,0,0-1.635-.145,11.778,11.778,0,0,1-7.969-2.206,79.516,79.516,0,0,1-6.539-5.349,7.332,7.332,0,0,0-2.962-1.679c-1.3-.283-2.76.069-3.895-.621a4.41,4.41,0,0,1-1.51-1.943,25.5,25.5,0,0,1-2.578-10.671c-.527-.164-.964.416-1.213.91l-4.329,8.569" transform="translate(54.649 59.944)" fill="#e09e74"/>
    <path id="Path_713" data-name="Path 713" d="M2729.835,1298.636a39.982,39.982,0,0,0-3.021-4.913c-1.063-1.246-2.112-2.458-3.066-3.82-1.349-1.923-2.393-4.3-3.887-6.076a27.984,27.984,0,0,0-2.981-2.64c-.546-.482-2.5-1.691-2.674-2.368a22.335,22.335,0,0,1-5.908-7.449,21.962,21.962,0,0,1-1.791-3.569,4.183,4.183,0,0,1,5.912-5.189,13.89,13.89,0,0,1,4.386,3.2c3.782,3.615,7.422,7.7,11.5,10.962.274-1.145-.511-2.761-1.006-3.8a33.409,33.409,0,0,1-2.177-5.191c-.3-1.068-.642-2.127-.964-3.189l-1.867-6.176c-.852-2.815-1.714-5.717-1.446-8.646.112-1.222.563-2.594,1.7-3.045,1.569-.619,3.114.887,4.1,2.256a90.384,90.384,0,0,1,8.852,15.252c1.165,2.553,2.216,5.168,3.594,7.62.376.669,1.064,2.594,2.081,2.173,1.078-.449.061-2.449-.122-3.216a70.974,70.974,0,0,1-1.918-17.823c.04-2.023.632-4.115.613-6.1,0-.26-.209-.476-.177-.754a1.7,1.7,0,0,1,1.207-1.49,3.77,3.77,0,0,1,2.726.7c1.751,1.033,3.971,2.8,4.138,5.006a11.537,11.537,0,0,1-.262,2c-.256,2.576,1.34,5.1,1.5,7.678a21.835,21.835,0,0,0,.6,5.44c1.1,3.567,2.237,7.57,5.291,10.031a12.017,12.017,0,0,1-.27-2.9c-.079-1.115-.4-2.256-.548-3.368-.349-2.52-.337-5.079-.675-7.59-.1-.723-.453-1.392-.532-2.111a3.19,3.19,0,0,1,3.01-3.548c2.385.014,3.4,2.962,4.034,5.266,3.135,11.44,12.125,19.9,17.4,30.27.746,1.465,1.421,2.964,2.051,4.483.555,1.344.989,2.754,1.591,4.078.189.417.482.775.673,1.19a5.674,5.674,0,0,1,.322,1.884q.109,1.206.2,2.412.361,4.83.442,9.676.057,3.34-.023,6.683a30.115,30.115,0,0,1-.44,5.135,49.206,49.206,0,0,1-1.957,6.249,51.146,51.146,0,0,0-1.462,5.222q-.293,1.324-.519,2.661c-.083.5-.167,1-.214,1.5-.2,2.131-3.178,3.372-4.958,3.993a22.928,22.928,0,0,1-7.5,1.105c-4.566.01-9.231-.638-13.627.594.353-7.759-2.638-15.235-5.578-22.425-.548-1.342-1.015-2.763-1.662-4.059a1.858,1.858,0,0,0-.756-.787c-1.712-1.126-3.232-2.565-4.907-3.758-.511-.363-1.062-.692-1.537-1.105a7.285,7.285,0,0,0-.8-.714,10.284,10.284,0,0,0-3.6-.972,28.62,28.62,0,0,0-8.123-.26,21.722,21.722,0,0,1-5.924.324,2.958,2.958,0,0,1-1.675-.737c-1.269-1.311-.488-3.207-.4-4.74a2.635,2.635,0,0,1,.575-2,5.719,5.719,0,0,1,2.412-1.523c2.341-.833,4.767-.592,7.208-.59a16.324,16.324,0,0,1,2.555.031,2.93,2.93,0,0,0,1.963-.1,1.868,1.868,0,0,0,.719-1.849,3.431,3.431,0,0,0-.22-1.113,10.634,10.634,0,0,0-.744-1.058Z" transform="translate(11.052 37.196)" fill="#f0b794"/>
    <path id="Path_714" data-name="Path 714" d="M2757.783,1272.693a29.893,29.893,0,0,1,2.123,7.081c.345,2.038.391,4.381-1.028,5.885a5.3,5.3,0,0,1-3.98,1.427,22.53,22.53,0,0,1-4.286-.725c-2.451-.526-5.154-.744-7.337.49a16.015,16.015,0,0,0-2.875,2.4,15.29,15.29,0,0,1-6.014,3.664,8.49,8.49,0,0,1-6.854-.768c-.872-.559-1.61-1.88-.8-2.52a2.131,2.131,0,0,1,1.633-.146,11.781,11.781,0,0,0,7.968-2.2,80.26,80.26,0,0,0,6.539-5.349,7.338,7.338,0,0,1,2.962-1.68c1.3-.283,2.761.068,3.895-.621a4.41,4.41,0,0,0,1.51-1.942,25.47,25.47,0,0,0,2.578-10.671c.528-.164.964.418,1.213.91l4.331,8.571" transform="translate(32.677 61.331)" fill="#e09e74"/>
    <path id="Path_715" data-name="Path 715" d="M2798.042,1254.344l-6.552,6.552-27.127,27.13-33.489-33.488a19.183,19.183,0,0,1,27.128-27.13l6.361,6.361,6.552-6.552a19.182,19.182,0,1,1,27.128,27.128Z" transform="translate(31.476 12.463)" fill="#f24c27"/>
  </g>
</svg>
